<?xml version="1.0" encoding="utf-8" standalone="no"?>
<!DOCTYPE svg PUBLIC "-//W3C//DTD SVG 1.1//EN"
  "http://www.w3.org/Graphics/SVG/1.1/DTD/svg11.dtd">
<svg xmlns:xlink="http://www.w3.org/1999/xlink" width="432pt" height="432pt" viewBox="0 0 432 432" xmlns="http://www.w3.org/2000/svg" version="1.1">
 <metadata>
  <rdf:RDF xmlns:dc="http://purl.org/dc/elements/1.1/" xmlns:cc="http://creativecommons.org/ns#" xmlns:rdf="http://www.w3.org/1999/02/22-rdf-syntax-ns#">
   <cc:Work>
    <dc:type rdf:resource="http://purl.org/dc/dcmitype/StillImage"/>
    <dc:date>2025-09-09T13:42:15.996450</dc:date>
    <dc:format>image/svg+xml</dc:format>
    <dc:creator>
     <cc:Agent>
      <dc:title>Matplotlib v3.10.0, https://matplotlib.org/</dc:title>
     </cc:Agent>
    </dc:creator>
   </cc:Work>
  </rdf:RDF>
 </metadata>
 <defs>
  <style type="text/css">*{stroke-linejoin: round; stroke-linecap: butt}</style>
 </defs>
 <g id="figure_1">
  <g id="patch_1">
   <path d="M 0 432 
L 432 432 
L 432 0 
L 0 0 
L 0 432 
z
" style="fill: none"/>
  </g>
  <g id="axes_1">
   <g id="patch_2">
    <path d="M 92.144 342.63475 
L 392.445 342.63475 
L 392.445 30.020625 
L 92.144 30.020625 
L 92.144 342.63475 
z
" style="fill: none"/>
   </g>
   <g id="matplotlib.axis_1">
    <g id="xtick_1">
     <g id="line2d_1">
      <defs>
       <path id="m62513c49ce" d="M 0 0 
L 0 8 
" style="stroke: #000000; stroke-width: 2"/>
      </defs>
      <g>
       <use xlink:href="#m62513c49ce" x="92.144" y="342.63475" style="stroke: #000000; stroke-width: 2"/>
      </g>
     </g>
     <g id="text_1">
      <!-- 0 -->
      <g transform="translate(86.144 370.79225) scale(0.24 -0.24)">
       <defs>
        <path id="CMUSerif-Roman-30" d="M 250 2048 
C 250 1568 275 992 538 506 
C 813 -13 1280 -141 1594 -141 
C 1939 -141 2426 -6 2707 602 
C 2912 1043 2944 1542 2944 2048 
C 2944 2560 2912 3072 2688 3546 
C 2394 4160 1869 4262 1600 4262 
C 1216 4262 749 4096 486 3501 
C 282 3059 250 2560 250 2048 
z
M 781 2125 
C 781 2534 781 2957 832 3302 
C 954 4064 1434 4122 1594 4122 
C 1805 4122 2227 4006 2349 3373 
C 2413 3014 2413 2528 2413 2125 
C 2413 1645 2413 1210 2342 800 
C 2246 192 1882 0 1594 0 
C 1344 0 966 160 851 774 
C 781 1158 781 1747 781 2125 
z
" transform="scale(0.015625)"/>
       </defs>
       <use xlink:href="#CMUSerif-Roman-30"/>
      </g>
     </g>
    </g>
    <g id="xtick_2">
     <g id="line2d_2">
      <g>
       <use xlink:href="#m62513c49ce" x="167.21925" y="342.63475" style="stroke: #000000; stroke-width: 2"/>
      </g>
     </g>
     <g id="text_2">
      <!-- 25 -->
      <g transform="translate(155.21925 370.79225) scale(0.24 -0.24)">
       <defs>
        <path id="CMUSerif-Roman-32" d="M 320 0 
L 2694 0 
L 2874 1114 
L 2714 1114 
C 2682 922 2637 640 2573 544 
C 2528 493 2106 493 1965 493 
L 813 493 
L 1491 1152 
C 2490 2035 2874 2381 2874 3021 
C 2874 3750 2298 4262 1517 4262 
C 794 4262 320 3674 320 3104 
C 320 2746 640 2746 659 2746 
C 768 2746 992 2822 992 3085 
C 992 3251 877 3418 653 3418 
C 602 3418 589 3418 570 3411 
C 717 3827 1062 4064 1434 4064 
C 2016 4064 2291 3546 2291 3021 
C 2291 2509 1971 2003 1619 1606 
L 390 237 
C 320 166 320 154 320 0 
z
" transform="scale(0.015625)"/>
        <path id="CMUSerif-Roman-35" d="M 320 1030 
C 320 480 762 -141 1478 -141 
C 2221 -141 2874 474 2874 1286 
C 2874 2048 2349 2688 1658 2688 
C 1350 2688 1075 2586 845 2362 
L 845 3610 
C 973 3571 1184 3526 1389 3526 
C 2176 3526 2624 4109 2624 4192 
C 2624 4230 2605 4262 2560 4262 
C 2554 4262 2541 4262 2509 4243 
C 2381 4186 2067 4058 1638 4058 
C 1382 4058 1088 4102 787 4237 
C 736 4256 723 4256 710 4256 
C 646 4256 646 4205 646 4102 
L 646 2208 
C 646 2093 646 2042 736 2042 
C 781 2042 794 2061 819 2099 
C 890 2202 1126 2547 1645 2547 
C 1978 2547 2138 2253 2189 2138 
C 2291 1901 2304 1651 2304 1331 
C 2304 1107 2304 723 2150 454 
C 1997 205 1760 38 1466 38 
C 998 38 634 378 525 755 
C 544 749 563 742 634 742 
C 845 742 954 902 954 1056 
C 954 1210 845 1370 634 1370 
C 544 1370 320 1325 320 1030 
z
" transform="scale(0.015625)"/>
       </defs>
       <use xlink:href="#CMUSerif-Roman-32"/>
       <use xlink:href="#CMUSerif-Roman-35" transform="translate(49.999985 0)"/>
      </g>
     </g>
    </g>
    <g id="xtick_3">
     <g id="line2d_3">
      <g>
       <use xlink:href="#m62513c49ce" x="242.2945" y="342.63475" style="stroke: #000000; stroke-width: 2"/>
      </g>
     </g>
     <g id="text_3">
      <!-- 50 -->
      <g transform="translate(230.2945 370.79225) scale(0.24 -0.24)">
       <use xlink:href="#CMUSerif-Roman-35"/>
       <use xlink:href="#CMUSerif-Roman-30" transform="translate(49.999985 0)"/>
      </g>
     </g>
    </g>
    <g id="xtick_4">
     <g id="line2d_4">
      <g>
       <use xlink:href="#m62513c49ce" x="317.36975" y="342.63475" style="stroke: #000000; stroke-width: 2"/>
      </g>
     </g>
     <g id="text_4">
      <!-- 75 -->
      <g transform="translate(305.36975 370.79225) scale(0.24 -0.24)">
       <defs>
        <path id="CMUSerif-Roman-37" d="M 358 3008 
L 518 3008 
C 538 3110 595 3514 678 3590 
C 723 3629 1222 3629 1306 3629 
L 2630 3629 
C 2560 3526 2054 2829 1914 2618 
C 1338 1754 1126 864 1126 211 
C 1126 147 1126 -141 1421 -141 
C 1715 -141 1715 147 1715 211 
L 1715 538 
C 1715 890 1734 1242 1786 1587 
C 1811 1734 1901 2285 2182 2682 
L 3046 3898 
C 3104 3974 3104 3987 3104 4122 
L 1549 4122 
C 768 4122 755 4205 730 4326 
L 570 4326 
L 358 3008 
z
" transform="scale(0.015625)"/>
       </defs>
       <use xlink:href="#CMUSerif-Roman-37"/>
       <use xlink:href="#CMUSerif-Roman-35" transform="translate(49.999985 0)"/>
      </g>
     </g>
    </g>
    <g id="xtick_5">
     <g id="line2d_5">
      <g>
       <use xlink:href="#m62513c49ce" x="392.445" y="342.63475" style="stroke: #000000; stroke-width: 2"/>
      </g>
     </g>
     <g id="text_5">
      <!-- 100 -->
      <g transform="translate(374.445 370.79225) scale(0.24 -0.24)">
       <defs>
        <path id="CMUSerif-Roman-31" d="M 570 3654 
C 698 3654 1075 3654 1408 3821 
L 1408 506 
C 1408 275 1389 198 813 198 
L 608 198 
L 608 0 
C 832 19 1389 19 1645 19 
C 1901 19 2458 19 2682 0 
L 2682 198 
L 2477 198 
C 1901 198 1882 269 1882 506 
L 1882 4096 
C 1882 4250 1882 4262 1734 4262 
C 1338 3853 774 3853 570 3853 
L 570 3654 
z
" transform="scale(0.015625)"/>
       </defs>
       <use xlink:href="#CMUSerif-Roman-31"/>
       <use xlink:href="#CMUSerif-Roman-30" transform="translate(49.999985 0)"/>
       <use xlink:href="#CMUSerif-Roman-30" transform="translate(99.999969 0)"/>
      </g>
     </g>
    </g>
    <g id="text_6">
     <!-- $\mathrm{1 - I_c \, / \, I_c^{unirradiated}}$ -->
     <g transform="translate(152.8945 400.56975) scale(0.24 -0.24)">
      <defs>
       <path id="Cmr10-31" d="M 594 0 
L 594 225 
Q 1394 225 1394 428 
L 1394 3788 
Q 1063 3628 556 3628 
L 556 3853 
Q 1341 3853 1741 4263 
L 1831 4263 
Q 1853 4263 1873 4245 
Q 1894 4228 1894 4206 
L 1894 428 
Q 1894 225 2694 225 
L 2694 0 
L 594 0 
z
" transform="scale(0.015625)"/>
       <path id="Cmsy10-a1" d="M 653 1472 
Q 600 1472 565 1512 
Q 531 1553 531 1600 
Q 531 1647 565 1687 
Q 600 1728 653 1728 
L 4325 1728 
Q 4375 1728 4408 1687 
Q 4441 1647 4441 1600 
Q 4441 1553 4408 1512 
Q 4375 1472 4325 1472 
L 653 1472 
z
" transform="scale(0.015625)"/>
       <path id="Cmr10-49" d="M 166 0 
L 166 225 
Q 856 225 856 428 
L 856 3944 
Q 856 4147 166 4147 
L 166 4372 
L 2144 4372 
L 2144 4147 
Q 1453 4147 1453 3944 
L 1453 428 
Q 1453 225 2144 225 
L 2144 0 
L 166 0 
z
" transform="scale(0.015625)"/>
       <path id="Cmr10-63" d="M 1594 -72 
Q 1206 -72 890 129 
Q 575 331 394 667 
Q 213 1003 213 1381 
Q 213 1759 392 2106 
Q 572 2453 889 2661 
Q 1206 2869 1594 2869 
Q 1969 2869 2276 2722 
Q 2584 2575 2584 2241 
Q 2584 2116 2495 2023 
Q 2406 1931 2278 1931 
Q 2150 1931 2061 2023 
Q 1972 2116 1972 2241 
Q 1972 2353 2044 2436 
Q 2116 2519 2222 2541 
Q 2000 2681 1600 2681 
Q 1294 2681 1106 2478 
Q 919 2275 844 1975 
Q 769 1675 769 1381 
Q 769 1072 861 783 
Q 953 494 1158 305 
Q 1363 116 1672 116 
Q 1975 116 2187 302 
Q 2400 488 2478 788 
Q 2478 825 2528 825 
L 2606 825 
Q 2625 825 2640 808 
Q 2656 791 2656 769 
L 2656 750 
Q 2559 372 2271 150 
Q 1984 -72 1594 -72 
z
" transform="scale(0.015625)"/>
       <path id="Cmmi10-3d" d="M 359 -1472 
Q 359 -1453 366 -1447 
L 2591 4722 
Q 2603 4759 2634 4779 
Q 2666 4800 2706 4800 
Q 2763 4800 2798 4765 
Q 2834 4731 2834 4672 
L 2834 4647 
L 609 -1522 
Q 572 -1600 488 -1600 
Q 434 -1600 396 -1562 
Q 359 -1525 359 -1472 
z
" transform="scale(0.015625)"/>
       <path id="Cmr10-75" d="M 691 763 
L 691 2175 
Q 691 2347 639 2423 
Q 588 2500 491 2517 
Q 394 2534 191 2534 
L 191 2759 
L 1159 2828 
L 1159 763 
Q 1159 513 1195 373 
Q 1231 234 1348 165 
Q 1466 97 1722 97 
Q 2066 97 2269 384 
Q 2472 672 2472 1038 
L 2472 2175 
Q 2472 2347 2419 2423 
Q 2366 2500 2270 2517 
Q 2175 2534 1972 2534 
L 1972 2759 
L 2938 2828 
L 2938 581 
Q 2938 413 2989 336 
Q 3041 259 3137 242 
Q 3234 225 3438 225 
L 3438 0 
L 2491 -72 
L 2491 469 
Q 2372 228 2159 78 
Q 1947 -72 1691 -72 
Q 1231 -72 961 123 
Q 691 319 691 763 
z
" transform="scale(0.015625)"/>
       <path id="Cmr10-6e" d="M 191 0 
L 191 225 
Q 409 225 550 259 
Q 691 294 691 428 
L 691 2175 
Q 691 2347 639 2423 
Q 588 2500 491 2517 
Q 394 2534 191 2534 
L 191 2759 
L 1119 2828 
L 1119 2203 
Q 1247 2478 1498 2653 
Q 1750 2828 2047 2828 
Q 2491 2828 2714 2615 
Q 2938 2403 2938 1966 
L 2938 428 
Q 2938 294 3078 259 
Q 3219 225 3438 225 
L 3438 0 
L 1972 0 
L 1972 225 
Q 2191 225 2331 259 
Q 2472 294 2472 428 
L 2472 1947 
Q 2472 2259 2381 2461 
Q 2291 2663 2009 2663 
Q 1638 2663 1398 2366 
Q 1159 2069 1159 1691 
L 1159 428 
Q 1159 294 1300 259 
Q 1441 225 1656 225 
L 1656 0 
L 191 0 
z
" transform="scale(0.015625)"/>
       <path id="Cmr10-69" d="M 197 0 
L 197 225 
Q 416 225 556 259 
Q 697 294 697 428 
L 697 2175 
Q 697 2422 601 2478 
Q 506 2534 225 2534 
L 225 2759 
L 1147 2828 
L 1147 428 
Q 1147 294 1269 259 
Q 1391 225 1594 225 
L 1594 0 
L 197 0 
z
M 469 3928 
Q 469 4069 575 4175 
Q 681 4281 819 4281 
Q 909 4281 993 4234 
Q 1078 4188 1125 4103 
Q 1172 4019 1172 3928 
Q 1172 3791 1065 3684 
Q 959 3578 819 3578 
Q 681 3578 575 3684 
Q 469 3791 469 3928 
z
" transform="scale(0.015625)"/>
       <path id="Cmr10-72" d="M 166 0 
L 166 225 
Q 384 225 525 259 
Q 666 294 666 428 
L 666 2175 
Q 666 2347 614 2423 
Q 563 2500 466 2517 
Q 369 2534 166 2534 
L 166 2759 
L 1081 2828 
L 1081 2203 
Q 1184 2481 1375 2654 
Q 1566 2828 1838 2828 
Q 2028 2828 2178 2715 
Q 2328 2603 2328 2419 
Q 2328 2303 2245 2217 
Q 2163 2131 2041 2131 
Q 1922 2131 1837 2215 
Q 1753 2300 1753 2419 
Q 1753 2591 1875 2663 
L 1838 2663 
Q 1578 2663 1414 2475 
Q 1250 2288 1181 2009 
Q 1113 1731 1113 1478 
L 1113 428 
Q 1113 225 1734 225 
L 1734 0 
L 166 0 
z
" transform="scale(0.015625)"/>
       <path id="Cmr10-61" d="M 256 628 
Q 256 1009 556 1248 
Q 856 1488 1276 1586 
Q 1697 1684 2075 1684 
L 2075 1947 
Q 2075 2131 1994 2304 
Q 1913 2478 1759 2589 
Q 1606 2700 1422 2700 
Q 997 2700 775 2509 
Q 897 2509 976 2417 
Q 1056 2325 1056 2203 
Q 1056 2075 965 1984 
Q 875 1894 750 1894 
Q 622 1894 531 1984 
Q 441 2075 441 2203 
Q 441 2541 747 2705 
Q 1053 2869 1422 2869 
Q 1681 2869 1943 2758 
Q 2206 2647 2373 2440 
Q 2541 2234 2541 1959 
L 2541 519 
Q 2541 394 2594 289 
Q 2647 184 2759 184 
Q 2866 184 2917 290 
Q 2969 397 2969 519 
L 2969 928 
L 3156 928 
L 3156 519 
Q 3156 375 3081 245 
Q 3006 116 2879 39 
Q 2753 -38 2606 -38 
Q 2419 -38 2283 107 
Q 2147 253 2131 453 
Q 2013 213 1781 70 
Q 1550 -72 1288 -72 
Q 1044 -72 808 0 
Q 572 72 414 226 
Q 256 381 256 628 
z
M 775 628 
Q 775 403 940 250 
Q 1106 97 1331 97 
Q 1538 97 1706 200 
Q 1875 303 1975 481 
Q 2075 659 2075 856 
L 2075 1522 
Q 1784 1522 1479 1426 
Q 1175 1331 975 1128 
Q 775 925 775 628 
z
" transform="scale(0.015625)"/>
       <path id="Cmr10-64" d="M 1563 -72 
Q 1184 -72 871 133 
Q 559 338 386 672 
Q 213 1006 213 1381 
Q 213 1769 402 2101 
Q 591 2434 916 2631 
Q 1241 2828 1631 2828 
Q 1866 2828 2075 2729 
Q 2284 2631 2438 2456 
L 2438 3788 
Q 2438 3959 2386 4036 
Q 2334 4113 2239 4130 
Q 2144 4147 1941 4147 
L 1941 4372 
L 2888 4441 
L 2888 581 
Q 2888 413 2939 336 
Q 2991 259 3086 242 
Q 3181 225 3384 225 
L 3384 0 
L 2419 -72 
L 2419 331 
Q 2253 141 2025 34 
Q 1797 -72 1563 -72 
z
M 909 556 
Q 1019 347 1201 222 
Q 1384 97 1600 97 
Q 1866 97 2087 250 
Q 2309 403 2419 647 
L 2419 2181 
Q 2344 2322 2230 2433 
Q 2116 2544 1973 2603 
Q 1831 2663 1672 2663 
Q 1338 2663 1134 2473 
Q 931 2284 850 1990 
Q 769 1697 769 1375 
Q 769 1119 795 928 
Q 822 738 909 556 
z
" transform="scale(0.015625)"/>
       <path id="Cmr10-74" d="M 653 769 
L 653 2534 
L 122 2534 
L 122 2700 
Q 541 2700 737 3090 
Q 934 3481 934 3938 
L 1119 3938 
L 1119 2759 
L 2022 2759 
L 2022 2534 
L 1119 2534 
L 1119 781 
Q 1119 516 1208 316 
Q 1297 116 1528 116 
Q 1747 116 1844 327 
Q 1941 538 1941 781 
L 1941 1159 
L 2125 1159 
L 2125 769 
Q 2125 569 2051 373 
Q 1978 178 1834 53 
Q 1691 -72 1484 -72 
Q 1100 -72 876 158 
Q 653 388 653 769 
z
" transform="scale(0.015625)"/>
       <path id="Cmr10-65" d="M 1594 -72 
Q 1203 -72 876 133 
Q 550 338 364 680 
Q 178 1022 178 1403 
Q 178 1778 348 2115 
Q 519 2453 823 2661 
Q 1128 2869 1503 2869 
Q 1797 2869 2014 2770 
Q 2231 2672 2372 2497 
Q 2513 2322 2584 2084 
Q 2656 1847 2656 1563 
Q 2656 1478 2591 1478 
L 738 1478 
L 738 1409 
Q 738 878 952 497 
Q 1166 116 1650 116 
Q 1847 116 2014 203 
Q 2181 291 2304 447 
Q 2428 603 2472 781 
Q 2478 803 2495 820 
Q 2513 838 2534 838 
L 2591 838 
Q 2656 838 2656 756 
Q 2566 394 2266 161 
Q 1966 -72 1594 -72 
z
M 744 1638 
L 2203 1638 
Q 2203 1878 2136 2125 
Q 2069 2372 1912 2536 
Q 1756 2700 1503 2700 
Q 1141 2700 942 2361 
Q 744 2022 744 1638 
z
" transform="scale(0.015625)"/>
      </defs>
      <use xlink:href="#Cmr10-31" transform="translate(0 0.276562)"/>
      <use xlink:href="#Cmsy10-a1" transform="translate(67.558594 0.276562)"/>
      <use xlink:href="#Cmr10-49" transform="translate(162.802734 0.276562)"/>
      <use xlink:href="#Cmr10-63" transform="translate(203.454219 -17.123438) scale(0.7)"/>
      <use xlink:href="#Cmmi10-3d" transform="translate(255.681009 0.276562)"/>
      <use xlink:href="#Cmr10-49" transform="translate(320.313463 0.276562)"/>
      <use xlink:href="#Cmr10-75" transform="translate(360.964947 39.426563) scale(0.7)"/>
      <use xlink:href="#Cmr10-6e" transform="translate(399.827252 39.426563) scale(0.7)"/>
      <use xlink:href="#Cmr10-69" transform="translate(438.689557 39.426563) scale(0.7)"/>
      <use xlink:href="#Cmr10-72" transform="translate(458.069439 39.426563) scale(0.7)"/>
      <use xlink:href="#Cmr10-72" transform="translate(485.447369 39.426563) scale(0.7)"/>
      <use xlink:href="#Cmr10-61" transform="translate(512.825299 39.426563) scale(0.7)"/>
      <use xlink:href="#Cmr10-64" transform="translate(547.825299 39.426563) scale(0.7)"/>
      <use xlink:href="#Cmr10-69" transform="translate(586.687604 39.426563) scale(0.7)"/>
      <use xlink:href="#Cmr10-61" transform="translate(606.067486 39.426563) scale(0.7)"/>
      <use xlink:href="#Cmr10-74" transform="translate(641.067486 39.426563) scale(0.7)"/>
      <use xlink:href="#Cmr10-65" transform="translate(668.240338 39.426563) scale(0.7)"/>
      <use xlink:href="#Cmr10-64" transform="translate(699.309674 39.426563) scale(0.7)"/>
      <use xlink:href="#Cmr10-63" transform="translate(360.964947 -25.823437) scale(0.7)"/>
     </g>
    </g>
   </g>
   <g id="matplotlib.axis_2">
    <g id="ytick_1">
     <g id="line2d_6">
      <defs>
       <path id="m5c1e89aa8d" d="M 0 0 
L -8 0 
" style="stroke: #000000; stroke-width: 2"/>
      </defs>
      <g>
       <use xlink:href="#m5c1e89aa8d" x="92.144" y="342.63475" style="stroke: #000000; stroke-width: 2"/>
      </g>
     </g>
     <g id="text_7">
      <!-- 0 -->
      <g transform="translate(68.644 350.9635) scale(0.24 -0.24)">
       <use xlink:href="#CMUSerif-Roman-30"/>
      </g>
     </g>
    </g>
    <g id="ytick_2">
     <g id="line2d_7">
      <g>
       <use xlink:href="#m5c1e89aa8d" x="92.144" y="280.111925" style="stroke: #000000; stroke-width: 2"/>
      </g>
     </g>
     <g id="text_8">
      <!-- 5 -->
      <g transform="translate(68.644 288.440675) scale(0.24 -0.24)">
       <use xlink:href="#CMUSerif-Roman-35"/>
      </g>
     </g>
    </g>
    <g id="ytick_3">
     <g id="line2d_8">
      <g>
       <use xlink:href="#m5c1e89aa8d" x="92.144" y="217.5891" style="stroke: #000000; stroke-width: 2"/>
      </g>
     </g>
     <g id="text_9">
      <!-- 10 -->
      <g transform="translate(56.644 225.91785) scale(0.24 -0.24)">
       <use xlink:href="#CMUSerif-Roman-31"/>
       <use xlink:href="#CMUSerif-Roman-30" transform="translate(49.999985 0)"/>
      </g>
     </g>
    </g>
    <g id="ytick_4">
     <g id="line2d_9">
      <g>
       <use xlink:href="#m5c1e89aa8d" x="92.144" y="155.066275" style="stroke: #000000; stroke-width: 2"/>
      </g>
     </g>
     <g id="text_10">
      <!-- 15 -->
      <g transform="translate(56.644 163.395025) scale(0.24 -0.24)">
       <use xlink:href="#CMUSerif-Roman-31"/>
       <use xlink:href="#CMUSerif-Roman-35" transform="translate(49.999985 0)"/>
      </g>
     </g>
    </g>
    <g id="ytick_5">
     <g id="line2d_10">
      <g>
       <use xlink:href="#m5c1e89aa8d" x="92.144" y="92.54345" style="stroke: #000000; stroke-width: 2"/>
      </g>
     </g>
     <g id="text_11">
      <!-- 20 -->
      <g transform="translate(56.644 100.8722) scale(0.24 -0.24)">
       <use xlink:href="#CMUSerif-Roman-32"/>
       <use xlink:href="#CMUSerif-Roman-30" transform="translate(49.999985 0)"/>
      </g>
     </g>
    </g>
    <g id="ytick_6">
     <g id="line2d_11">
      <g>
       <use xlink:href="#m5c1e89aa8d" x="92.144" y="30.020625" style="stroke: #000000; stroke-width: 2"/>
      </g>
     </g>
     <g id="text_12">
      <!-- 25 -->
      <g transform="translate(56.644 38.349375) scale(0.24 -0.24)">
       <use xlink:href="#CMUSerif-Roman-32"/>
       <use xlink:href="#CMUSerif-Roman-35" transform="translate(49.999985 0)"/>
      </g>
     </g>
    </g>
    <g id="text_13">
     <!-- $\mathrm{1 - T_c \, / \, T_c^{unirradiated}}$ -->
     <g transform="translate(46.164 284.367687) rotate(-90) scale(0.24 -0.24)">
      <defs>
       <path id="Cmr10-54" d="M 1081 0 
L 1081 225 
Q 1403 225 1706 261 
Q 2009 297 2009 428 
L 2009 3944 
Q 2009 4081 1932 4114 
Q 1856 4147 1684 4147 
L 1416 4147 
Q 888 4147 666 3916 
Q 550 3800 500 3545 
Q 450 3291 416 2906 
L 231 2906 
L 353 4372 
L 4263 4372 
L 4384 2906 
L 4197 2906 
Q 4159 3319 4114 3561 
Q 4069 3803 3950 3916 
Q 3725 4147 3200 4147 
L 2931 4147 
Q 2816 4147 2752 4137 
Q 2688 4128 2647 4083 
Q 2606 4038 2606 3944 
L 2606 428 
Q 2606 297 2909 261 
Q 3213 225 3531 225 
L 3531 0 
L 1081 0 
z
" transform="scale(0.015625)"/>
      </defs>
      <use xlink:href="#Cmr10-31" transform="translate(0 0.276562)"/>
      <use xlink:href="#Cmsy10-a1" transform="translate(67.558594 0.276562)"/>
      <use xlink:href="#Cmr10-54" transform="translate(162.802734 0.276562)"/>
      <use xlink:href="#Cmr10-63" transform="translate(239.587031 -17.123438) scale(0.7)"/>
      <use xlink:href="#Cmmi10-3d" transform="translate(291.813821 0.276562)"/>
      <use xlink:href="#Cmr10-54" transform="translate(356.446275 0.276562)"/>
      <use xlink:href="#Cmr10-75" transform="translate(433.230572 39.426563) scale(0.7)"/>
      <use xlink:href="#Cmr10-6e" transform="translate(472.092877 39.426563) scale(0.7)"/>
      <use xlink:href="#Cmr10-69" transform="translate(510.955182 39.426563) scale(0.7)"/>
      <use xlink:href="#Cmr10-72" transform="translate(530.335064 39.426563) scale(0.7)"/>
      <use xlink:href="#Cmr10-72" transform="translate(557.712994 39.426563) scale(0.7)"/>
      <use xlink:href="#Cmr10-61" transform="translate(585.090924 39.426563) scale(0.7)"/>
      <use xlink:href="#Cmr10-64" transform="translate(620.090924 39.426563) scale(0.7)"/>
      <use xlink:href="#Cmr10-69" transform="translate(658.953229 39.426563) scale(0.7)"/>
      <use xlink:href="#Cmr10-61" transform="translate(678.333111 39.426563) scale(0.7)"/>
      <use xlink:href="#Cmr10-74" transform="translate(713.333111 39.426563) scale(0.7)"/>
      <use xlink:href="#Cmr10-65" transform="translate(740.505963 39.426563) scale(0.7)"/>
      <use xlink:href="#Cmr10-64" transform="translate(771.575299 39.426563) scale(0.7)"/>
      <use xlink:href="#Cmr10-63" transform="translate(433.230572 -25.823437) scale(0.7)"/>
     </g>
    </g>
   </g>
   <g id="line2d_12">
    <defs>
     <path id="m360b4266bf" d="M -0 4 
L 4 -4 
L -4 -4 
z
" style="stroke: #472d7b; stroke-linejoin: miter"/>
    </defs>
    <g clip-path="url(#p5a8767a3a7)">
     <use xlink:href="#m360b4266bf" x="92.144" y="342.63475" style="fill-opacity: 0; stroke: #472d7b; stroke-linejoin: miter"/>
     <use xlink:href="#m360b4266bf" x="343.536447" y="173.232604" style="fill-opacity: 0; stroke: #472d7b; stroke-linejoin: miter"/>
    </g>
   </g>
   <g id="line2d_13">
    <defs>
     <path id="m4655b07977" d="M 0 -4 
L -4 4 
L 4 4 
z
" style="stroke: #472d7b; stroke-linejoin: miter"/>
    </defs>
    <g clip-path="url(#p5a8767a3a7)">
     <use xlink:href="#m4655b07977" x="335.389419" y="182.377332" style="fill-opacity: 0; stroke: #472d7b; stroke-linejoin: miter"/>
    </g>
   </g>
   <g id="line2d_14">
    <defs>
     <path id="mb118163aad" d="M -0 4 
L 4 -4 
L -4 -4 
z
" style="stroke: #3b528b; stroke-linejoin: miter"/>
    </defs>
    <g clip-path="url(#p5a8767a3a7)">
     <use xlink:href="#mb118163aad" x="92.144" y="342.63475" style="fill: #3b528b; stroke: #3b528b; stroke-linejoin: miter"/>
     <use xlink:href="#mb118163aad" x="181.025813" y="279.895553" style="fill: #3b528b; stroke: #3b528b; stroke-linejoin: miter"/>
     <use xlink:href="#mb118163aad" x="249.207395" y="232.086226" style="fill: #3b528b; stroke: #3b528b; stroke-linejoin: miter"/>
     <use xlink:href="#mb118163aad" x="351.481958" y="87.626263" style="fill: #3b528b; stroke: #3b528b; stroke-linejoin: miter"/>
     <use xlink:href="#mb118163aad" x="354.030121" y="87.533515" style="fill: #3b528b; stroke: #3b528b; stroke-linejoin: miter"/>
    </g>
   </g>
   <g id="line2d_15">
    <defs>
     <path id="m05cf22fdfb" d="M 0 -4 
L -4 4 
L 4 4 
z
" style="stroke: #3b528b; stroke-linejoin: miter"/>
    </defs>
    <g clip-path="url(#p5a8767a3a7)">
     <use xlink:href="#m05cf22fdfb" x="349.999388" y="96.423357" style="fill: #3b528b; stroke: #3b528b; stroke-linejoin: miter"/>
     <use xlink:href="#m05cf22fdfb" x="340.509799" y="124.821413" style="fill: #3b528b; stroke: #3b528b; stroke-linejoin: miter"/>
     <use xlink:href="#m05cf22fdfb" x="339.531281" y="127.667033" style="fill: #3b528b; stroke: #3b528b; stroke-linejoin: miter"/>
     <use xlink:href="#m05cf22fdfb" x="305.377018" y="174.262666" style="fill: #3b528b; stroke: #3b528b; stroke-linejoin: miter"/>
     <use xlink:href="#m05cf22fdfb" x="290.540633" y="192.764202" style="fill: #3b528b; stroke: #3b528b; stroke-linejoin: miter"/>
    </g>
   </g>
   <g id="line2d_16">
    <defs>
     <path id="mdb7ec9b07c" d="M -0 4 
L 4 -4 
L -4 -4 
z
" style="stroke: #5ec962; stroke-linejoin: miter"/>
    </defs>
    <g clip-path="url(#p5a8767a3a7)">
     <use xlink:href="#mdb7ec9b07c" x="92.144" y="342.63475" style="fill: #5ec962; stroke: #5ec962; stroke-linejoin: miter"/>
     <use xlink:href="#mdb7ec9b07c" x="356.347313" y="85.930266" style="fill: #5ec962; stroke: #5ec962; stroke-linejoin: miter"/>
     <use xlink:href="#mdb7ec9b07c" x="355.858447" y="86.540071" style="fill: #5ec962; stroke: #5ec962; stroke-linejoin: miter"/>
     <use xlink:href="#mdb7ec9b07c" x="362.766766" y="61.939399" style="fill: #5ec962; stroke: #5ec962; stroke-linejoin: miter"/>
    </g>
   </g>
   <g id="line2d_17">
    <defs>
     <path id="ma52b56968b" d="M 0 -4 
L -4 4 
L 4 4 
z
" style="stroke: #5ec962; stroke-linejoin: miter"/>
    </defs>
    <g clip-path="url(#p5a8767a3a7)">
     <use xlink:href="#ma52b56968b" x="354.643233" y="92.862599" style="fill: #5ec962; stroke: #5ec962; stroke-linejoin: miter"/>
     <use xlink:href="#ma52b56968b" x="340.759729" y="125.416035" style="fill: #5ec962; stroke: #5ec962; stroke-linejoin: miter"/>
     <use xlink:href="#ma52b56968b" x="315.95183" y="163.068153" style="fill: #5ec962; stroke: #5ec962; stroke-linejoin: miter"/>
    </g>
   </g>
   <g id="line2d_18">
    <defs>
     <path id="mb0d6c6ceaf" d="M -0 4 
L 4 -4 
L -4 -4 
z
" style="stroke: #2c728e; stroke-linejoin: miter"/>
    </defs>
    <g clip-path="url(#p5a8767a3a7)">
     <use xlink:href="#mb0d6c6ceaf" x="92.144" y="342.63475" style="fill: #2c728e; stroke: #2c728e; stroke-linejoin: miter"/>
     <use xlink:href="#mb0d6c6ceaf" x="260.423601" y="226.870437" style="fill: #2c728e; stroke: #2c728e; stroke-linejoin: miter"/>
     <use xlink:href="#mb0d6c6ceaf" x="331.763508" y="144.14758" style="fill: #2c728e; stroke: #2c728e; stroke-linejoin: miter"/>
     <use xlink:href="#mb0d6c6ceaf" x="335.81098" y="134.17662" style="fill: #2c728e; stroke: #2c728e; stroke-linejoin: miter"/>
    </g>
   </g>
   <g id="line2d_19">
    <defs>
     <path id="m8eb94f1bce" d="M 0 -4 
L -4 4 
L 4 4 
z
" style="stroke: #2c728e; stroke-linejoin: miter"/>
    </defs>
    <g clip-path="url(#p5a8767a3a7)">
     <use xlink:href="#m8eb94f1bce" x="280.773418" y="205.292461" style="fill: #2c728e; stroke: #2c728e; stroke-linejoin: miter"/>
     <use xlink:href="#m8eb94f1bce" x="353.974046" y="97.74472" style="fill: #2c728e; stroke: #2c728e; stroke-linejoin: miter"/>
     <use xlink:href="#m8eb94f1bce" x="336.255034" y="144.782799" style="fill: #2c728e; stroke: #2c728e; stroke-linejoin: miter"/>
     <use xlink:href="#m8eb94f1bce" x="342.419155" y="126.616678" style="fill: #2c728e; stroke: #2c728e; stroke-linejoin: miter"/>
     <use xlink:href="#m8eb94f1bce" x="321.365262" y="166.193804" style="fill: #2c728e; stroke: #2c728e; stroke-linejoin: miter"/>
     <use xlink:href="#m8eb94f1bce" x="356.995737" y="86.110591" style="fill: #2c728e; stroke: #2c728e; stroke-linejoin: miter"/>
    </g>
   </g>
   <g id="line2d_20">
    <defs>
     <path id="ma4071122bb" d="M -0 4 
L 4 -4 
L -4 -4 
z
" style="stroke: #21918c; stroke-linejoin: miter"/>
    </defs>
    <g clip-path="url(#p5a8767a3a7)">
     <use xlink:href="#ma4071122bb" x="92.144" y="342.63475" style="fill: #21918c; stroke: #21918c; stroke-linejoin: miter"/>
     <use xlink:href="#ma4071122bb" x="159.139202" y="297.987136" style="fill: #21918c; stroke: #21918c; stroke-linejoin: miter"/>
    </g>
   </g>
   <g id="line2d_21">
    <defs>
     <path id="m120b30f9b7" d="M -0 4 
L 4 -4 
L -4 -4 
z
" style="stroke: #28ae80; stroke-linejoin: miter"/>
    </defs>
    <g clip-path="url(#p5a8767a3a7)">
     <use xlink:href="#m120b30f9b7" x="92.144" y="342.63475" style="fill: #28ae80; stroke: #28ae80; stroke-linejoin: miter"/>
     <use xlink:href="#m120b30f9b7" x="99.146862" y="335.979256" style="fill: #28ae80; stroke: #28ae80; stroke-linejoin: miter"/>
     <use xlink:href="#m120b30f9b7" x="109.442913" y="326.866962" style="fill: #28ae80; stroke: #28ae80; stroke-linejoin: miter"/>
     <use xlink:href="#m120b30f9b7" x="124.140701" y="317.687948" style="fill: #28ae80; stroke: #28ae80; stroke-linejoin: miter"/>
     <use xlink:href="#m120b30f9b7" x="163.426252" y="293.384968" style="fill: #28ae80; stroke: #28ae80; stroke-linejoin: miter"/>
     <use xlink:href="#m120b30f9b7" x="231.26858" y="247.777883" style="fill: #28ae80; stroke: #28ae80; stroke-linejoin: miter"/>
     <use xlink:href="#m120b30f9b7" x="286.285327" y="200.396782" style="fill: #28ae80; stroke: #28ae80; stroke-linejoin: miter"/>
     <use xlink:href="#m120b30f9b7" x="326.845979" y="148.815776" style="fill: #28ae80; stroke: #28ae80; stroke-linejoin: miter"/>
    </g>
   </g>
   <g id="line2d_22">
    <defs>
     <path id="mc96cdecef2" d="M -0 4 
L 4 -4 
L -4 -4 
z
" style="stroke: #addc30; stroke-linejoin: miter"/>
    </defs>
    <g clip-path="url(#p5a8767a3a7)">
     <use xlink:href="#mc96cdecef2" x="92.144" y="342.63475" style="fill: #addc30; stroke: #addc30; stroke-linejoin: miter"/>
     <use xlink:href="#mc96cdecef2" x="177.806696" y="285.99766" style="fill: #addc30; stroke: #addc30; stroke-linejoin: miter"/>
     <use xlink:href="#mc96cdecef2" x="275.810323" y="211.803353" style="fill: #addc30; stroke: #addc30; stroke-linejoin: miter"/>
     <use xlink:href="#mc96cdecef2" x="335.426127" y="132.789504" style="fill: #addc30; stroke: #addc30; stroke-linejoin: miter"/>
    </g>
   </g>
   <g id="line2d_23">
    <defs>
     <path id="m76527a4ad4" d="M 0 -4 
L -4 4 
L 4 4 
z
" style="stroke: #addc30; stroke-linejoin: miter"/>
    </defs>
    <g clip-path="url(#p5a8767a3a7)">
     <use xlink:href="#m76527a4ad4" x="282.830552" y="203.560491" style="fill: #addc30; stroke: #addc30; stroke-linejoin: miter"/>
     <use xlink:href="#m76527a4ad4" x="283.040859" y="203.638589" style="fill: #addc30; stroke: #addc30; stroke-linejoin: miter"/>
     <use xlink:href="#m76527a4ad4" x="286.173708" y="199.022279" style="fill: #addc30; stroke: #addc30; stroke-linejoin: miter"/>
    </g>
   </g>
   <g id="line2d_24">
    <path d="M 362.4149 60.572627 
L 361.360738 66.855571 
L 360.090338 73.076092 
L 358.576669 79.364954 
L 356.846763 85.605344 
L 354.873588 91.894676 
L 352.657145 98.218359 
L 350.197434 104.567036 
L 347.467424 110.995425 
L 344.494147 117.428721 
L 341.250572 123.917981 
L 337.736699 130.451799 
L 333.925498 137.067026 
L 329.81697 143.748817 
L 325.411113 150.485626 
L 320.707929 157.268362 
L 315.680388 164.125685 
L 310.328489 171.046322 
L 304.652232 178.021086 
L 298.624589 185.073317 
L 292.245557 192.192595 
L 285.488109 199.398404 
L 278.379274 206.652855 
L 270.864991 214.001828 
L 262.945262 221.434148 
L 254.620086 228.940238 
L 245.862433 236.534856 
L 236.672303 244.208366 
L 227.022667 251.973761 
L 216.913524 259.821524 
L 206.344875 267.743325 
L 195.28969 275.751112 
L 183.720939 283.855213 
L 171.638621 292.04652 
L 159.015708 300.33443 
L 145.852199 308.710169 
L 132.121064 317.182346 
L 117.822303 325.742531 
L 102.928887 334.398662 
L 92.144 340.513864 
L 92.144 340.513864 
" clip-path="url(#p5a8767a3a7)" style="fill: none; stroke: #000000; stroke-opacity: 0.1; stroke-width: 8; stroke-linecap: round"/>
   </g>
   <g id="patch_3">
    <path d="M 92.144 342.63475 
L 92.144 30.020625 
" style="fill: none; stroke: #000000; stroke-width: 0.8; stroke-linejoin: miter; stroke-linecap: square"/>
   </g>
   <g id="patch_4">
    <path d="M 92.144 342.63475 
L 392.445 342.63475 
" style="fill: none; stroke: #000000; stroke-width: 0.8; stroke-linejoin: miter; stroke-linecap: square"/>
   </g>
   <g id="legend_1">
    <g id="line2d_25">
     <g>
      <use xlink:href="#m360b4266bf" x="118.744" y="47.590625" style="fill-opacity: 0; stroke: #472d7b; stroke-linejoin: miter"/>
     </g>
    </g>
    <g id="text_14">
     <!-- ffj20 -->
     <g transform="translate(143.944 52.490625) scale(0.14 -0.14)">
      <defs>
       <path id="CMUSerif-Roman-66" d="M 211 2560 
L 717 2560 
L 717 486 
C 717 198 646 198 218 198 
L 218 0 
C 467 6 768 19 947 19 
C 1203 19 1504 19 1760 0 
L 1760 198 
L 1626 198 
C 1152 198 1139 269 1139 499 
L 1139 2560 
L 1869 2560 
L 1869 2758 
L 1120 2758 
L 1120 3501 
C 1120 4064 1427 4371 1709 4371 
C 1728 4371 1824 4371 1920 4326 
C 1843 4301 1728 4218 1728 4058 
C 1728 3910 1830 3782 2003 3782 
C 2189 3782 2285 3910 2285 4064 
C 2285 4301 2048 4512 1709 4512 
C 1261 4512 717 4173 717 3494 
L 717 2758 
L 211 2758 
L 211 2560 
z
" transform="scale(0.015625)"/>
       <path id="CMUSerif-Roman-6a" d="M 666 3942 
C 666 3757 819 3603 1005 3603 
C 1190 3603 1344 3757 1344 3942 
C 1344 4128 1190 4282 1005 4282 
C 819 4282 666 4128 666 3942 
z
M -256 -800 
C -256 -1133 102 -1312 467 -1312 
C 947 -1312 1344 -902 1344 -320 
L 1344 2829 
L 371 2758 
L 371 2560 
C 864 2560 922 2515 922 2202 
L 922 -333 
C 922 -621 864 -1171 454 -1171 
C 422 -1171 275 -1171 109 -1088 
C 205 -1062 333 -973 333 -800 
C 333 -634 218 -506 38 -506 
C -141 -506 -256 -634 -256 -800 
z
" transform="scale(0.015625)"/>
      </defs>
      <use xlink:href="#CMUSerif-Roman-66"/>
      <use xlink:href="#CMUSerif-Roman-66" transform="translate(30.499985 0)"/>
      <use xlink:href="#CMUSerif-Roman-6a" transform="translate(60.999969 0)"/>
      <use xlink:href="#CMUSerif-Roman-32" transform="translate(91.499954 0)"/>
      <use xlink:href="#CMUSerif-Roman-30" transform="translate(141.499939 0)"/>
     </g>
    </g>
    <g id="line2d_26">
     <g>
      <use xlink:href="#m4655b07977" x="118.744" y="67.400625" style="fill-opacity: 0; stroke: #472d7b; stroke-linejoin: miter"/>
     </g>
    </g>
    <g id="text_15">
     <!-- ffj20$\mathrm{^a}$ -->
     <g transform="translate(143.944 72.300625) scale(0.14 -0.14)">
      <use xlink:href="#CMUSerif-Roman-66" transform="translate(0 0.470313)"/>
      <use xlink:href="#CMUSerif-Roman-66" transform="translate(30.499985 0.470313)"/>
      <use xlink:href="#CMUSerif-Roman-6a" transform="translate(60.999969 0.470313)"/>
      <use xlink:href="#CMUSerif-Roman-32" transform="translate(91.499954 0.470313)"/>
      <use xlink:href="#CMUSerif-Roman-30" transform="translate(141.499939 0.470313)"/>
      <use xlink:href="#Cmr10-61" transform="translate(196.067424 39.620313) scale(0.7)"/>
     </g>
    </g>
    <g id="line2d_27">
     <g>
      <use xlink:href="#mb118163aad" x="118.744" y="87.210625" style="fill: #3b528b; stroke: #3b528b; stroke-linejoin: miter"/>
     </g>
    </g>
    <g id="text_16">
     <!-- ffj23 -->
     <g transform="translate(143.944 92.110625) scale(0.14 -0.14)">
      <defs>
       <path id="CMUSerif-Roman-33" d="M 269 864 
C 269 282 864 -141 1562 -141 
C 2342 -141 2925 442 2925 1094 
C 2925 1619 2522 2118 1856 2253 
C 2381 2426 2752 2874 2752 3379 
C 2752 3904 2189 4262 1574 4262 
C 928 4262 442 3878 442 3392 
C 442 3181 582 3059 768 3059 
C 966 3059 1094 3200 1094 3386 
C 1094 3706 794 3706 698 3706 
C 896 4019 1318 4102 1549 4102 
C 1811 4102 2163 3962 2163 3386 
C 2163 3309 2150 2938 1984 2656 
C 1792 2349 1574 2330 1414 2323 
C 1363 2317 1210 2304 1165 2304 
C 1114 2298 1069 2291 1069 2227 
C 1069 2157 1114 2157 1222 2157 
L 1504 2157 
C 2029 2157 2266 1722 2266 1094 
C 2266 224 1824 38 1542 38 
C 1267 38 787 147 563 525 
C 787 493 986 634 986 877 
C 986 1107 813 1235 627 1235 
C 474 1235 269 1146 269 864 
z
" transform="scale(0.015625)"/>
      </defs>
      <use xlink:href="#CMUSerif-Roman-66"/>
      <use xlink:href="#CMUSerif-Roman-66" transform="translate(30.499985 0)"/>
      <use xlink:href="#CMUSerif-Roman-6a" transform="translate(60.999969 0)"/>
      <use xlink:href="#CMUSerif-Roman-32" transform="translate(91.499954 0)"/>
      <use xlink:href="#CMUSerif-Roman-33" transform="translate(141.499939 0)"/>
     </g>
    </g>
    <g id="line2d_28">
     <g>
      <use xlink:href="#m05cf22fdfb" x="118.744" y="107.020625" style="fill: #3b528b; stroke: #3b528b; stroke-linejoin: miter"/>
     </g>
    </g>
    <g id="text_17">
     <!-- ffj23$\mathrm{^a}$ -->
     <g transform="translate(143.944 111.920625) scale(0.14 -0.14)">
      <use xlink:href="#CMUSerif-Roman-66" transform="translate(0 0.470313)"/>
      <use xlink:href="#CMUSerif-Roman-66" transform="translate(30.499985 0.470313)"/>
      <use xlink:href="#CMUSerif-Roman-6a" transform="translate(60.999969 0.470313)"/>
      <use xlink:href="#CMUSerif-Roman-32" transform="translate(91.499954 0.470313)"/>
      <use xlink:href="#CMUSerif-Roman-33" transform="translate(141.499939 0.470313)"/>
      <use xlink:href="#Cmr10-61" transform="translate(196.067424 39.620313) scale(0.7)"/>
     </g>
    </g>
    <g id="line2d_29">
     <g>
      <use xlink:href="#mdb7ec9b07c" x="118.744" y="126.830625" style="fill: #5ec962; stroke: #5ec962; stroke-linejoin: miter"/>
     </g>
    </g>
    <g id="text_18">
     <!-- ffj28 -->
     <g transform="translate(143.944 131.730625) scale(0.14 -0.14)">
      <defs>
       <path id="CMUSerif-Roman-38" d="M 269 966 
C 269 288 922 -141 1594 -141 
C 2317 -141 2925 390 2925 1075 
C 2925 1306 2854 1594 2611 1862 
C 2490 1997 2387 2061 1978 2317 
C 2438 2554 2752 2886 2752 3309 
C 2752 3898 2182 4262 1600 4262 
C 960 4262 442 3789 442 3194 
C 442 3078 454 2790 723 2490 
C 794 2413 1030 2253 1190 2144 
C 819 1958 269 1600 269 966 
z
M 589 966 
C 589 1338 794 1747 1338 2048 
L 2125 1549 
C 2304 1427 2605 1235 2605 845 
C 2605 371 2125 38 1600 38 
C 1050 38 589 435 589 966 
z
M 723 3443 
C 723 3834 1139 4102 1594 4102 
C 2061 4102 2470 3770 2470 3309 
C 2470 2944 2221 2637 1837 2413 
L 1043 2925 
C 749 3117 723 3334 723 3443 
z
" transform="scale(0.015625)"/>
      </defs>
      <use xlink:href="#CMUSerif-Roman-66"/>
      <use xlink:href="#CMUSerif-Roman-66" transform="translate(30.499985 0)"/>
      <use xlink:href="#CMUSerif-Roman-6a" transform="translate(60.999969 0)"/>
      <use xlink:href="#CMUSerif-Roman-32" transform="translate(91.499954 0)"/>
      <use xlink:href="#CMUSerif-Roman-38" transform="translate(141.499939 0)"/>
     </g>
    </g>
    <g id="line2d_30">
     <g>
      <use xlink:href="#ma52b56968b" x="118.744" y="146.640625" style="fill: #5ec962; stroke: #5ec962; stroke-linejoin: miter"/>
     </g>
    </g>
    <g id="text_19">
     <!-- ffj28$\mathrm{^a}$ -->
     <g transform="translate(143.944 151.540625) scale(0.14 -0.14)">
      <use xlink:href="#CMUSerif-Roman-66" transform="translate(0 0.470313)"/>
      <use xlink:href="#CMUSerif-Roman-66" transform="translate(30.499985 0.470313)"/>
      <use xlink:href="#CMUSerif-Roman-6a" transform="translate(60.999969 0.470313)"/>
      <use xlink:href="#CMUSerif-Roman-32" transform="translate(91.499954 0.470313)"/>
      <use xlink:href="#CMUSerif-Roman-38" transform="translate(141.499939 0.470313)"/>
      <use xlink:href="#Cmr10-61" transform="translate(196.067424 39.620313) scale(0.7)"/>
     </g>
    </g>
    <g id="line2d_31">
     <g>
      <use xlink:href="#mb0d6c6ceaf" x="219.264" y="47.590625" style="fill: #2c728e; stroke: #2c728e; stroke-linejoin: miter"/>
     </g>
    </g>
    <g id="text_20">
     <!-- ffj29 -->
     <g transform="translate(244.464 52.490625) scale(0.14 -0.14)">
      <defs>
       <path id="CMUSerif-Roman-39" d="M 269 2822 
C 269 2022 832 1395 1549 1395 
C 1939 1395 2202 1664 2349 2035 
L 2349 1830 
C 2349 333 1683 38 1312 38 
C 1203 38 858 51 685 269 
C 966 269 1018 454 1018 563 
C 1018 762 864 858 723 858 
C 621 858 429 800 429 550 
C 429 122 774 -141 1318 -141 
C 2144 -141 2925 730 2925 2106 
C 2925 3827 2189 4262 1619 4262 
C 1267 4262 954 4147 678 3859 
C 416 3571 269 3302 269 2822 
z
M 845 2816 
C 845 3162 845 3462 979 3699 
C 1152 4019 1395 4102 1619 4102 
C 1914 4102 2125 3885 2234 3597 
C 2310 3392 2336 2989 2336 2694 
C 2336 2163 2118 1542 1555 1542 
C 1453 1542 1158 1542 960 1946 
C 845 2182 845 2502 845 2816 
z
" transform="scale(0.015625)"/>
      </defs>
      <use xlink:href="#CMUSerif-Roman-66"/>
      <use xlink:href="#CMUSerif-Roman-66" transform="translate(30.499985 0)"/>
      <use xlink:href="#CMUSerif-Roman-6a" transform="translate(60.999969 0)"/>
      <use xlink:href="#CMUSerif-Roman-32" transform="translate(91.499954 0)"/>
      <use xlink:href="#CMUSerif-Roman-39" transform="translate(141.499939 0)"/>
     </g>
    </g>
    <g id="line2d_32">
     <g>
      <use xlink:href="#m8eb94f1bce" x="219.264" y="67.400625" style="fill: #2c728e; stroke: #2c728e; stroke-linejoin: miter"/>
     </g>
    </g>
    <g id="text_21">
     <!-- ffj29$\mathrm{^a}$ -->
     <g transform="translate(244.464 72.300625) scale(0.14 -0.14)">
      <use xlink:href="#CMUSerif-Roman-66" transform="translate(0 0.470313)"/>
      <use xlink:href="#CMUSerif-Roman-66" transform="translate(30.499985 0.470313)"/>
      <use xlink:href="#CMUSerif-Roman-6a" transform="translate(60.999969 0.470313)"/>
      <use xlink:href="#CMUSerif-Roman-32" transform="translate(91.499954 0.470313)"/>
      <use xlink:href="#CMUSerif-Roman-39" transform="translate(141.499939 0.470313)"/>
      <use xlink:href="#Cmr10-61" transform="translate(196.067424 39.620313) scale(0.7)"/>
     </g>
    </g>
    <g id="line2d_33">
     <g>
      <use xlink:href="#ma4071122bb" x="219.264" y="87.210625" style="fill: #21918c; stroke: #21918c; stroke-linejoin: miter"/>
     </g>
    </g>
    <g id="text_22">
     <!-- ffj33 -->
     <g transform="translate(244.464 92.110625) scale(0.14 -0.14)">
      <use xlink:href="#CMUSerif-Roman-66"/>
      <use xlink:href="#CMUSerif-Roman-66" transform="translate(30.499985 0)"/>
      <use xlink:href="#CMUSerif-Roman-6a" transform="translate(60.999969 0)"/>
      <use xlink:href="#CMUSerif-Roman-33" transform="translate(91.499954 0)"/>
      <use xlink:href="#CMUSerif-Roman-33" transform="translate(141.499939 0)"/>
     </g>
    </g>
    <g id="line2d_34">
     <g>
      <use xlink:href="#m120b30f9b7" x="219.264" y="106.950625" style="fill: #28ae80; stroke: #28ae80; stroke-linejoin: miter"/>
     </g>
    </g>
    <g id="text_23">
     <!-- ffj34 -->
     <g transform="translate(244.464 111.850625) scale(0.14 -0.14)">
      <defs>
       <path id="CMUSerif-Roman-34" d="M 179 1056 
L 1882 1056 
L 1882 499 
C 1882 269 1869 198 1395 198 
L 1261 198 
L 1261 0 
C 1523 19 1856 19 2125 19 
C 2394 19 2733 19 2995 0 
L 2995 198 
L 2861 198 
C 2387 198 2374 269 2374 499 
L 2374 1056 
L 3014 1056 
L 3014 1254 
L 2374 1254 
L 2374 4166 
C 2374 4294 2374 4333 2272 4333 
C 2214 4333 2195 4333 2144 4256 
L 179 1254 
L 179 1056 
z
M 358 1254 
L 1920 3642 
L 1920 1254 
L 358 1254 
z
" transform="scale(0.015625)"/>
      </defs>
      <use xlink:href="#CMUSerif-Roman-66"/>
      <use xlink:href="#CMUSerif-Roman-66" transform="translate(30.499985 0)"/>
      <use xlink:href="#CMUSerif-Roman-6a" transform="translate(60.999969 0)"/>
      <use xlink:href="#CMUSerif-Roman-33" transform="translate(91.499954 0)"/>
      <use xlink:href="#CMUSerif-Roman-34" transform="translate(141.499939 0)"/>
     </g>
    </g>
    <g id="line2d_35">
     <g>
      <use xlink:href="#mc96cdecef2" x="219.264" y="126.690625" style="fill: #addc30; stroke: #addc30; stroke-linejoin: miter"/>
     </g>
    </g>
    <g id="text_24">
     <!-- ffj37 -->
     <g transform="translate(244.464 131.590625) scale(0.14 -0.14)">
      <use xlink:href="#CMUSerif-Roman-66"/>
      <use xlink:href="#CMUSerif-Roman-66" transform="translate(30.499985 0)"/>
      <use xlink:href="#CMUSerif-Roman-6a" transform="translate(60.999969 0)"/>
      <use xlink:href="#CMUSerif-Roman-33" transform="translate(91.499954 0)"/>
      <use xlink:href="#CMUSerif-Roman-37" transform="translate(141.499939 0)"/>
     </g>
    </g>
    <g id="line2d_36">
     <g>
      <use xlink:href="#m76527a4ad4" x="219.264" y="146.500625" style="fill: #addc30; stroke: #addc30; stroke-linejoin: miter"/>
     </g>
    </g>
    <g id="text_25">
     <!-- ffj37$\mathrm{^a}$ -->
     <g transform="translate(244.464 151.400625) scale(0.14 -0.14)">
      <use xlink:href="#CMUSerif-Roman-66" transform="translate(0 0.470313)"/>
      <use xlink:href="#CMUSerif-Roman-66" transform="translate(30.499985 0.470313)"/>
      <use xlink:href="#CMUSerif-Roman-6a" transform="translate(60.999969 0.470313)"/>
      <use xlink:href="#CMUSerif-Roman-33" transform="translate(91.499954 0.470313)"/>
      <use xlink:href="#CMUSerif-Roman-37" transform="translate(141.499939 0.470313)"/>
      <use xlink:href="#Cmr10-61" transform="translate(196.067424 39.620313) scale(0.7)"/>
     </g>
    </g>
   </g>
  </g>
 </g>
 <defs>
  <clipPath id="p5a8767a3a7">
   <rect x="92.144" y="30.020625" width="300.301" height="312.614125"/>
  </clipPath>
 </defs>
</svg>
