<?xml version="1.0" encoding="utf-8" standalone="no"?>
<!DOCTYPE svg PUBLIC "-//W3C//DTD SVG 1.1//EN"
  "http://www.w3.org/Graphics/SVG/1.1/DTD/svg11.dtd">
<svg xmlns:xlink="http://www.w3.org/1999/xlink" width="864pt" height="432pt" viewBox="0 0 864 432" xmlns="http://www.w3.org/2000/svg" version="1.1">
 <metadata>
  <rdf:RDF xmlns:dc="http://purl.org/dc/elements/1.1/" xmlns:cc="http://creativecommons.org/ns#" xmlns:rdf="http://www.w3.org/1999/02/22-rdf-syntax-ns#">
   <cc:Work>
    <dc:type rdf:resource="http://purl.org/dc/dcmitype/StillImage"/>
    <dc:date>2025-08-28T12:44:24.625998</dc:date>
    <dc:format>image/svg+xml</dc:format>
    <dc:creator>
     <cc:Agent>
      <dc:title>Matplotlib v3.10.0, https://matplotlib.org/</dc:title>
     </cc:Agent>
    </dc:creator>
   </cc:Work>
  </rdf:RDF>
 </metadata>
 <defs>
  <style type="text/css">*{stroke-linejoin: round; stroke-linecap: butt}</style>
 </defs>
 <g id="figure_1">
  <g id="patch_1">
   <path d="M 0 432 
L 864 432 
L 864 0 
L 0 0 
L 0 432 
z
" style="fill: none"/>
  </g>
  <g id="axes_1">
   <g id="patch_2">
    <path d="M 84.26 357.35875 
L 841.23 357.35875 
L 841.23 19.220625 
L 84.26 19.220625 
L 84.26 357.35875 
z
" style="fill: none"/>
   </g>
   <g id="FillBetweenPolyCollection_1">
    <defs>
     <path id="m700d64ab94" d="M 84.764672 -79.686375 
L 84.764672 -74.64125 
L 85.269319 -74.64125 
L 85.773965 -74.64125 
L 86.278612 -74.64125 
L 86.783259 -74.64125 
L 87.287905 -74.64125 
L 87.792552 -74.64125 
L 88.297199 -74.64125 
L 88.801845 -74.64125 
L 89.306492 -74.64125 
L 89.811139 -74.64125 
L 90.315785 -74.64125 
L 90.820432 -74.64125 
L 91.325079 -74.64125 
L 91.829725 -74.64125 
L 92.334372 -74.64125 
L 92.839019 -74.64125 
L 93.343665 -74.64125 
L 93.848312 -74.64125 
L 94.352959 -74.64125 
L 94.857605 -74.64125 
L 95.362252 -74.64125 
L 95.866899 -74.64125 
L 96.371545 -74.64125 
L 96.876192 -74.64125 
L 97.380839 -74.64125 
L 97.885485 -74.64125 
L 98.390132 -74.64125 
L 98.894779 -74.64125 
L 99.399425 -74.64125 
L 99.904072 -74.64125 
L 100.408719 -74.64125 
L 100.913365 -74.64125 
L 101.418012 -74.64125 
L 101.922659 -74.64125 
L 102.427305 -74.64125 
L 102.931952 -74.64125 
L 103.436599 -74.64125 
L 103.941245 -74.64125 
L 104.445892 -74.64125 
L 104.950539 -74.64125 
L 105.455185 -74.64125 
L 105.959832 -74.64125 
L 106.464479 -74.64125 
L 106.969125 -74.64125 
L 107.473772 -74.64125 
L 107.978419 -74.64125 
L 108.483065 -74.64125 
L 108.987712 -74.64125 
L 109.492333 -74.64125 
L 109.99698 -74.64125 
L 110.501627 -74.64125 
L 111.006273 -74.64125 
L 111.51092 -74.64125 
L 112.015567 -74.64125 
L 112.520213 -74.64125 
L 113.02486 -74.64125 
L 113.529507 -74.64125 
L 114.034153 -74.64125 
L 114.5388 -74.64125 
L 115.043447 -74.64125 
L 115.548093 -74.64125 
L 116.05274 -74.64125 
L 116.557387 -74.64125 
L 117.062033 -74.64125 
L 117.56668 -74.64125 
L 118.071327 -74.64125 
L 118.575973 -74.64125 
L 119.08062 -74.64125 
L 119.585267 -74.64125 
L 120.089913 -74.64125 
L 120.59456 -74.64125 
L 121.099207 -74.64125 
L 121.603853 -74.64125 
L 122.1085 -74.64125 
L 122.613147 -74.64125 
L 123.117793 -74.64125 
L 123.62244 -74.64125 
L 124.127087 -74.64125 
L 124.631733 -74.64125 
L 125.13638 -74.64125 
L 125.641027 -74.64125 
L 126.145673 -74.64125 
L 126.65032 -74.64125 
L 127.154967 -74.64125 
L 127.659613 -74.64125 
L 128.16426 -74.64125 
L 128.668907 -74.64125 
L 129.173553 -74.64125 
L 129.6782 -74.64125 
L 130.182847 -74.64125 
L 130.687493 -74.64125 
L 131.19214 -74.64125 
L 131.696787 -74.64125 
L 132.201433 -74.64125 
L 132.70608 -74.64125 
L 133.210727 -74.64125 
L 133.715373 -74.64125 
L 134.22002 -74.64125 
L 134.724667 -74.64125 
L 134.724667 -74.64125 
L 134.724667 -74.64125 
L 134.22002 -74.64125 
L 133.715373 -74.64125 
L 133.210727 -74.64125 
L 132.70608 -74.64125 
L 132.201433 -74.64125 
L 131.696787 -74.64125 
L 131.19214 -74.64125 
L 130.687493 -74.64125 
L 130.182847 -74.64125 
L 129.6782 -74.64125 
L 129.173553 -74.64125 
L 128.668907 -74.64125 
L 128.16426 -74.64125 
L 127.659613 -74.64125 
L 127.154967 -74.64125 
L 126.65032 -74.64125 
L 126.145673 -74.64125 
L 125.641027 -74.64125 
L 125.13638 -74.64125 
L 124.631733 -74.64125 
L 124.127087 -74.64125 
L 123.62244 -74.64125 
L 123.117793 -74.64125 
L 122.613147 -74.64125 
L 122.1085 -74.64125 
L 121.603853 -74.64125 
L 121.099207 -74.64125 
L 120.59456 -74.64125 
L 120.089913 -74.64125 
L 119.585267 -74.64125 
L 119.08062 -74.64125 
L 118.575973 -74.64125 
L 118.071327 -74.64125 
L 117.56668 -74.64125 
L 117.062033 -74.64125 
L 116.557387 -74.64125 
L 116.05274 -74.64125 
L 115.548093 -74.64125 
L 115.043447 -74.64125 
L 114.5388 -74.64125 
L 114.034153 -74.64125 
L 113.529507 -74.64125 
L 113.02486 -74.64125 
L 112.520213 -74.64125 
L 112.015567 -74.64125 
L 111.51092 -74.64125 
L 111.006273 -74.64125 
L 110.501627 -74.642095 
L 109.99698 -74.644313 
L 109.492333 -74.644631 
L 108.987712 -74.661648 
L 108.483065 -74.728914 
L 107.978419 -74.880848 
L 107.473772 -75.300868 
L 106.969125 -76.574584 
L 106.464479 -79.23706 
L 105.959832 -84.999696 
L 105.455185 -95.626593 
L 104.950539 -112.66007 
L 104.445892 -136.880547 
L 103.941245 -167.663951 
L 103.436599 -201.458507 
L 102.931952 -232.996119 
L 102.427305 -258.610335 
L 101.922659 -274.060517 
L 101.418012 -284.402784 
L 100.913365 -283.316558 
L 100.408719 -277.278873 
L 99.904072 -268.287375 
L 99.399425 -255.677731 
L 98.894779 -243.240148 
L 98.390132 -230.761626 
L 97.885485 -218.145092 
L 97.380839 -207.76016 
L 96.876192 -197.712614 
L 96.371545 -186.878111 
L 95.866899 -180.856209 
L 95.362252 -173.575165 
L 94.857605 -167.115171 
L 94.352959 -161.707692 
L 93.848312 -156.34565 
L 93.343665 -152.646588 
L 92.839019 -148.43703 
L 92.334372 -143.871734 
L 91.829725 -141.410376 
L 91.325079 -138.498339 
L 90.820432 -136.038469 
L 90.315785 -131.857425 
L 89.811139 -130.360098 
L 89.306492 -127.256514 
L 88.801845 -121.598432 
L 88.297199 -115.467624 
L 87.792552 -107.131014 
L 87.287905 -127.011745 
L 86.783259 -121.82818 
L 86.278612 -108.677152 
L 85.773965 -97.632123 
L 85.269319 -87.40105 
L 84.764672 -79.686375 
z
" style="stroke: #3b0f70"/>
    </defs>
    <g clip-path="url(#pcbe251d638)">
     <use xlink:href="#m700d64ab94" x="0" y="432" style="fill: #3b0f70; stroke: #3b0f70"/>
    </g>
   </g>
   <g id="FillBetweenPolyCollection_2">
    <defs>
     <path id="m03ac23aa3a" d="M 85.811814 -75.643646 
L 85.811814 -74.64125 
L 87.363602 -74.64125 
L 88.915391 -74.64125 
L 90.467179 -74.64125 
L 92.018968 -74.64125 
L 93.570756 -74.64125 
L 95.122545 -74.64125 
L 96.674333 -74.64125 
L 98.226122 -74.64125 
L 99.77791 -74.64125 
L 101.329699 -74.64125 
L 102.881487 -74.64125 
L 104.433276 -74.64125 
L 105.985064 -74.64125 
L 107.536853 -74.64125 
L 109.088641 -74.64125 
L 110.640405 -74.64125 
L 112.192193 -74.64125 
L 113.743982 -74.64125 
L 115.29577 -74.64125 
L 116.847559 -74.64125 
L 118.399347 -74.64125 
L 119.951136 -74.64125 
L 121.502924 -74.64125 
L 123.054713 -74.64125 
L 124.606501 -74.64125 
L 126.15829 -74.64125 
L 127.710078 -74.64125 
L 129.261866 -74.64125 
L 130.813655 -74.64125 
L 132.365443 -74.64125 
L 133.917232 -74.64125 
L 135.46902 -74.64125 
L 137.020809 -74.64125 
L 138.572598 -74.64125 
L 140.124386 -74.64125 
L 141.676175 -74.64125 
L 143.227963 -74.64125 
L 144.779752 -74.64125 
L 146.33154 -74.64125 
L 147.883329 -74.64125 
L 149.435117 -74.64125 
L 150.986906 -74.64125 
L 152.538694 -74.64125 
L 154.090483 -74.64125 
L 155.642271 -74.64125 
L 157.19406 -74.64125 
L 158.745848 -74.64125 
L 160.297637 -74.64125 
L 161.849425 -74.64125 
L 163.401214 -74.64125 
L 164.953002 -74.64125 
L 166.504791 -74.64125 
L 168.056579 -74.64125 
L 169.608368 -74.64125 
L 171.160156 -74.64125 
L 172.711945 -74.64125 
L 174.263733 -74.64125 
L 175.815522 -74.64125 
L 177.36731 -74.64125 
L 178.919099 -74.64125 
L 180.470887 -74.64125 
L 182.022675 -74.64125 
L 183.574464 -74.64125 
L 185.126253 -74.64125 
L 186.678041 -74.64125 
L 188.229829 -74.64125 
L 189.781618 -74.64125 
L 191.333407 -74.64125 
L 192.885195 -74.64125 
L 194.436983 -74.64125 
L 195.988772 -74.64125 
L 197.540561 -74.64125 
L 199.092349 -74.64125 
L 200.644137 -74.64125 
L 202.195926 -74.64125 
L 203.747715 -74.64125 
L 205.299503 -74.64125 
L 206.851292 -74.64125 
L 208.40308 -74.64125 
L 209.954869 -74.64125 
L 211.506657 -74.64125 
L 213.058446 -74.64125 
L 214.610234 -74.64125 
L 216.162022 -74.64125 
L 217.713811 -74.64125 
L 219.2656 -74.64125 
L 220.817388 -74.64125 
L 222.369177 -74.64125 
L 223.920965 -74.64125 
L 225.472754 -74.64125 
L 227.024542 -74.64125 
L 228.57633 -74.64125 
L 230.128119 -74.64125 
L 231.679908 -74.64125 
L 233.231696 -74.64125 
L 234.783485 -74.64125 
L 236.335273 -74.64125 
L 237.887062 -74.64125 
L 239.43885 -74.64125 
L 239.43885 -75.783981 
L 239.43885 -75.783981 
L 237.887062 -78.35135 
L 236.335273 -84.805768 
L 234.783485 -97.892748 
L 233.231696 -120.18738 
L 231.679908 -151.441662 
L 230.128119 -186.634803 
L 228.57633 -217.354897 
L 227.024542 -236.329383 
L 225.472754 -238.531533 
L 223.920965 -227.881779 
L 222.369177 -209.789014 
L 220.817388 -189.951921 
L 219.2656 -172.673537 
L 217.713811 -157.621884 
L 216.162022 -145.956254 
L 214.610234 -136.282139 
L 213.058446 -129.826584 
L 211.506657 -124.634591 
L 209.954869 -119.141656 
L 208.40308 -115.98665 
L 206.851292 -113.328665 
L 205.299503 -109.822144 
L 203.747715 -108.670445 
L 202.195926 -106.362075 
L 200.644137 -105.286067 
L 199.092349 -103.301431 
L 197.540561 -101.607293 
L 195.988772 -101.437006 
L 194.436983 -98.209044 
L 192.885195 -90.381914 
L 191.333407 -82.947061 
L 189.781618 -93.459103 
L 188.229829 -98.308716 
L 186.678041 -96.065304 
L 185.126253 -127.315384 
L 183.574464 -111.479164 
L 182.022675 -103.978369 
L 180.470887 -99.360365 
L 178.919099 -97.223737 
L 177.36731 -96.813716 
L 175.815522 -97.716988 
L 174.263733 -96.57571 
L 172.711945 -95.293726 
L 171.160156 -96.348767 
L 169.608368 -94.927269 
L 168.056579 -95.528175 
L 166.504791 -94.177577 
L 164.953002 -95.052982 
L 163.401214 -94.760801 
L 161.849425 -93.91376 
L 160.297637 -92.264268 
L 158.745848 -93.017104 
L 157.19406 -94.453629 
L 155.642271 -94.091471 
L 154.090483 -91.929286 
L 152.538694 -91.694079 
L 150.986906 -91.953583 
L 149.435117 -91.596859 
L 147.883329 -92.438513 
L 146.33154 -91.4855 
L 144.779752 -90.862255 
L 143.227963 -88.67332 
L 141.676175 -85.080275 
L 140.124386 -82.28523 
L 138.572598 -80.248579 
L 137.020809 -77.105068 
L 135.46902 -93.190999 
L 133.917232 -99.655514 
L 132.365443 -94.850529 
L 130.813655 -90.490131 
L 129.261866 -88.850337 
L 127.710078 -87.738259 
L 126.15829 -87.303444 
L 124.606501 -86.925503 
L 123.054713 -87.113561 
L 121.502924 -86.875475 
L 119.951136 -86.973222 
L 118.399347 -86.645818 
L 116.847559 -86.370939 
L 115.29577 -86.708991 
L 113.743982 -86.868557 
L 112.192193 -86.95873 
L 110.640405 -86.741272 
L 109.088641 -86.290873 
L 107.536853 -85.616881 
L 105.985064 -86.296601 
L 104.433276 -86.011647 
L 102.881487 -85.343003 
L 101.329699 -84.821527 
L 99.77791 -83.931972 
L 98.226122 -83.142542 
L 96.674333 -81.680388 
L 95.122545 -83.692584 
L 93.570756 -87.270045 
L 92.018968 -84.579935 
L 90.467179 -81.64702 
L 88.915391 -78.887173 
L 87.363602 -77.217472 
L 85.811814 -75.643646 
z
" style="stroke: #8c2981"/>
    </defs>
    <g clip-path="url(#pcbe251d638)">
     <use xlink:href="#m03ac23aa3a" x="0" y="432" style="fill: #8c2981; stroke: #8c2981"/>
    </g>
   </g>
   <g id="FillBetweenPolyCollection_3">
    <defs>
     <path id="m3322ad6877" d="M 87.07343 -75.490502 
L 87.07343 -74.64125 
L 89.886836 -74.64125 
L 92.700241 -74.64125 
L 95.513646 -74.64125 
L 98.327051 -74.64125 
L 101.140456 -74.64125 
L 103.953861 -74.64125 
L 106.767267 -74.64125 
L 109.580647 -74.64125 
L 112.394052 -74.64125 
L 115.207457 -74.64125 
L 118.020862 -74.64125 
L 120.834267 -74.64125 
L 123.647672 -74.64125 
L 126.461078 -74.64125 
L 129.274483 -74.64125 
L 132.087888 -74.64125 
L 134.901293 -74.64125 
L 137.714698 -74.64125 
L 140.528103 -74.64125 
L 143.341509 -74.64125 
L 146.154914 -74.64125 
L 148.968319 -74.64125 
L 151.781724 -74.64125 
L 154.595129 -74.64125 
L 157.408534 -74.64125 
L 160.22194 -74.64125 
L 163.035345 -74.64125 
L 165.84875 -74.64125 
L 168.662155 -74.64125 
L 171.47556 -74.64125 
L 174.288965 -74.64125 
L 177.102371 -74.64125 
L 179.915776 -74.64125 
L 182.729181 -74.64125 
L 185.542586 -74.64125 
L 188.355991 -74.64125 
L 191.169396 -74.64125 
L 193.982802 -74.64125 
L 196.796207 -74.64125 
L 199.609612 -74.64125 
L 202.423017 -74.64125 
L 205.236422 -74.64125 
L 208.049827 -74.64125 
L 210.863233 -74.64125 
L 213.676638 -74.64125 
L 216.490043 -74.64125 
L 219.303448 -74.64125 
L 222.116853 -74.64125 
L 224.930258 -74.64125 
L 227.743664 -74.64125 
L 230.557069 -74.64125 
L 233.370474 -74.64125 
L 236.183879 -74.64125 
L 238.997284 -74.64125 
L 241.810689 -74.64125 
L 244.624095 -74.64125 
L 247.4375 -74.64125 
L 250.250905 -74.64125 
L 253.06431 -74.64125 
L 255.877715 -74.64125 
L 258.69112 -74.64125 
L 261.504525 -74.64125 
L 264.317931 -74.64125 
L 267.131336 -74.64125 
L 269.944741 -74.64125 
L 272.758146 -74.64125 
L 275.571551 -74.64125 
L 278.384956 -74.64125 
L 281.198362 -74.64125 
L 284.011767 -74.64125 
L 286.825172 -74.64125 
L 289.638577 -74.64125 
L 292.451982 -74.64125 
L 295.265388 -74.64125 
L 298.078793 -74.64125 
L 300.892198 -74.64125 
L 303.705603 -74.64125 
L 306.519008 -74.64125 
L 309.332413 -74.64125 
L 312.145819 -74.64125 
L 314.959224 -74.64125 
L 317.772629 -74.64125 
L 320.586034 -74.64125 
L 323.399439 -74.64125 
L 326.212844 -74.64125 
L 329.02625 -74.64125 
L 331.839655 -74.64125 
L 334.65306 -74.64125 
L 337.466465 -74.64125 
L 340.27987 -74.64125 
L 343.093275 -74.64125 
L 345.90668 -74.64125 
L 348.720086 -74.64125 
L 351.533491 -74.64125 
L 354.346896 -74.64125 
L 357.160301 -74.64125 
L 359.973706 -74.64125 
L 362.787112 -74.64125 
L 365.600517 -74.64125 
L 365.600517 -74.64125 
L 365.600517 -74.64125 
L 362.787112 -74.64125 
L 359.973706 -74.64125 
L 357.160301 -74.641829 
L 354.346896 -74.64779 
L 351.533491 -74.68273 
L 348.720086 -74.9429 
L 345.90668 -76.066304 
L 343.093275 -79.849883 
L 340.27987 -89.886737 
L 337.466465 -109.794603 
L 334.65306 -139.756001 
L 331.839655 -172.587413 
L 329.02625 -196.321379 
L 326.212844 -201.615742 
L 323.399439 -190.725548 
L 320.586034 -171.659173 
L 317.772629 -152.028006 
L 314.959224 -136.257439 
L 312.145819 -125.108027 
L 309.332413 -117.564368 
L 306.519008 -111.976653 
L 303.705603 -108.230132 
L 300.892198 -104.638847 
L 298.078793 -101.871245 
L 295.265388 -100.882016 
L 292.451982 -97.878938 
L 289.638577 -97.331278 
L 286.825172 -95.150934 
L 284.011767 -94.845216 
L 281.198362 -93.915722 
L 278.384956 -92.97302 
L 275.571551 -92.30554 
L 272.758146 -91.414502 
L 269.944741 -91.250631 
L 267.131336 -91.059593 
L 264.317931 -89.818909 
L 261.504525 -89.783445 
L 258.69112 -88.217474 
L 255.877715 -88.74765 
L 253.06431 -88.134369 
L 250.250905 -87.352552 
L 247.4375 -87.421534 
L 244.624095 -87.009747 
L 241.810689 -86.889162 
L 238.997284 -86.495319 
L 236.183879 -86.224235 
L 233.370474 -86.000458 
L 230.557069 -86.258241 
L 227.743664 -85.623485 
L 224.930258 -85.616322 
L 222.116853 -85.030167 
L 219.303448 -84.912959 
L 216.490043 -84.294198 
L 213.676638 -85.097582 
L 210.863233 -84.12011 
L 208.049827 -84.269432 
L 205.236422 -84.342517 
L 202.423017 -84.22553 
L 199.609612 -82.745014 
L 196.796207 -80.168202 
L 193.982802 -77.732052 
L 191.169396 -78.424355 
L 188.355991 -83.794977 
L 185.542586 -96.746368 
L 182.729181 -92.216474 
L 179.915776 -88.053067 
L 177.102371 -87.038 
L 174.288965 -85.303428 
L 171.47556 -84.510204 
L 168.662155 -84.305575 
L 165.84875 -84.745837 
L 163.035345 -84.858644 
L 160.22194 -84.05936 
L 157.408534 -84.525416 
L 154.595129 -84.930086 
L 151.781724 -84.202823 
L 148.968319 -82.362796 
L 146.154914 -81.305345 
L 143.341509 -79.283911 
L 140.528103 -76.919302 
L 137.714698 -75.516315 
L 134.901293 -92.155998 
L 132.087888 -87.512463 
L 129.274483 -84.876676 
L 126.461078 -83.163141 
L 123.647672 -82.519496 
L 120.834267 -82.356952 
L 118.020862 -81.989848 
L 115.207457 -82.543682 
L 112.394052 -81.990937 
L 109.580647 -82.01119 
L 106.767267 -81.646168 
L 103.953861 -80.255926 
L 101.140456 -79.188773 
L 98.327051 -82.845529 
L 95.513646 -81.672056 
L 92.700241 -79.206795 
L 89.886836 -77.181323 
L 87.07343 -75.490502 
z
" style="stroke: #de4968"/>
    </defs>
    <g clip-path="url(#pcbe251d638)">
     <use xlink:href="#m3322ad6877" x="0" y="432" style="fill: #de4968; stroke: #de4968"/>
    </g>
   </g>
   <g id="FillBetweenPolyCollection_4">
    <defs>
     <path id="m5adbfb4030" d="M 91.362927 -75.272024 
L 91.362927 -74.64125 
L 98.465829 -74.64125 
L 105.568731 -74.64125 
L 112.671607 -74.64125 
L 119.774509 -74.64125 
L 126.877411 -74.64125 
L 133.980313 -74.64125 
L 141.083215 -74.64125 
L 148.186116 -74.64125 
L 155.289018 -74.64125 
L 162.39192 -74.64125 
L 169.494822 -74.64125 
L 176.597724 -74.64125 
L 183.700626 -74.64125 
L 190.803528 -74.64125 
L 197.906429 -74.64125 
L 205.009331 -74.64125 
L 212.112233 -74.64125 
L 219.215135 -74.64125 
L 226.318037 -74.64125 
L 233.420939 -74.64125 
L 240.52384 -74.64125 
L 247.626742 -74.64125 
L 254.729644 -74.64125 
L 261.832546 -74.64125 
L 268.935448 -74.64125 
L 276.038349 -74.64125 
L 283.141251 -74.64125 
L 290.244153 -74.64125 
L 297.347055 -74.64125 
L 304.449957 -74.64125 
L 311.552859 -74.64125 
L 318.65576 -74.64125 
L 325.758662 -74.64125 
L 332.861564 -74.64125 
L 339.964466 -74.64125 
L 347.067368 -74.64125 
L 354.17027 -74.64125 
L 361.273171 -74.64125 
L 368.376073 -74.64125 
L 375.478975 -74.64125 
L 382.581877 -74.64125 
L 389.684779 -74.64125 
L 396.787681 -74.64125 
L 403.890582 -74.64125 
L 410.993484 -74.64125 
L 418.096386 -74.64125 
L 425.199288 -74.64125 
L 432.30219 -74.64125 
L 439.405092 -74.64125 
L 446.507993 -74.64125 
L 453.610895 -74.64125 
L 460.713797 -74.64125 
L 467.816699 -74.64125 
L 474.919601 -74.64125 
L 482.022503 -74.64125 
L 489.125405 -74.64125 
L 496.228306 -74.64125 
L 503.331208 -74.64125 
L 510.43411 -74.64125 
L 517.537012 -74.64125 
L 524.639914 -74.64125 
L 531.742816 -74.64125 
L 538.845717 -74.64125 
L 545.948619 -74.64125 
L 553.051521 -74.64125 
L 560.154423 -74.64125 
L 567.257325 -74.64125 
L 574.360227 -74.64125 
L 581.463128 -74.64125 
L 588.56603 -74.64125 
L 595.668932 -74.64125 
L 602.771834 -74.64125 
L 609.874736 -74.64125 
L 616.977638 -74.64125 
L 624.080539 -74.64125 
L 631.183441 -74.64125 
L 638.286343 -74.64125 
L 645.389245 -74.64125 
L 652.492147 -74.64125 
L 659.595048 -74.64125 
L 666.69795 -74.64125 
L 673.800852 -74.64125 
L 680.903754 -74.64125 
L 688.006656 -74.64125 
L 695.109558 -74.64125 
L 702.21246 -74.64125 
L 709.315361 -74.64125 
L 716.418263 -74.64125 
L 723.521165 -74.64125 
L 730.624067 -74.64125 
L 737.726969 -74.64125 
L 744.82987 -74.64125 
L 751.932772 -74.64125 
L 759.035674 -74.64125 
L 766.138576 -74.64125 
L 773.241478 -74.64125 
L 780.34438 -74.64125 
L 787.447282 -74.64125 
L 794.550183 -74.64125 
L 794.550183 -74.704363 
L 794.550183 -74.704363 
L 787.447282 -75.02148 
L 780.34438 -76.366863 
L 773.241478 -80.57126 
L 766.138576 -90.392827 
L 759.035674 -107.687631 
L 751.932772 -127.873557 
L 744.82987 -142.947053 
L 737.726969 -145.291297 
L 730.624067 -135.957434 
L 723.521165 -122.860009 
L 716.418263 -111.00973 
L 709.315361 -102.974566 
L 702.21246 -98.126539 
L 695.109558 -94.824712 
L 688.006656 -92.269012 
L 680.903754 -90.661041 
L 673.800852 -89.351811 
L 666.69795 -88.347899 
L 659.595048 -87.684292 
L 652.492147 -86.587563 
L 645.389245 -85.977729 
L 638.286343 -85.491322 
L 631.183441 -85.11593 
L 624.080539 -84.900375 
L 616.977638 -84.451648 
L 609.874736 -83.787362 
L 602.771834 -83.679366 
L 595.668932 -83.337656 
L 588.56603 -83.376585 
L 581.463128 -83.193768 
L 574.360227 -82.4869 
L 567.257325 -82.113512 
L 560.154423 -82.345928 
L 553.051521 -81.883597 
L 545.948619 -81.870374 
L 538.845717 -81.68255 
L 531.742816 -81.659937 
L 524.639914 -81.632246 
L 517.537012 -81.23207 
L 510.43411 -81.357923 
L 503.331208 -81.112309 
L 496.228306 -80.795261 
L 489.125405 -80.681266 
L 482.022503 -80.818234 
L 474.919601 -80.771329 
L 467.816699 -80.546883 
L 460.713797 -80.243115 
L 453.610895 -80.306291 
L 446.507993 -80.455287 
L 439.405092 -80.465727 
L 432.30219 -79.796242 
L 425.199288 -79.857075 
L 418.096386 -80.053633 
L 410.993484 -80.003037 
L 403.890582 -79.9235 
L 396.787681 -79.881351 
L 389.684779 -79.595151 
L 382.581877 -79.450318 
L 375.478975 -79.476825 
L 368.376073 -79.24061 
L 361.273171 -79.518484 
L 354.17027 -79.452852 
L 347.067368 -79.401083 
L 339.964466 -78.974574 
L 332.861564 -79.050716 
L 325.758662 -78.922974 
L 318.65576 -78.90385 
L 311.552859 -79.034614 
L 304.449957 -78.918629 
L 297.347055 -78.659306 
L 290.244153 -78.829985 
L 283.141251 -78.996414 
L 276.038349 -78.896068 
L 268.935448 -78.765378 
L 261.832546 -78.431842 
L 254.729644 -78.884307 
L 247.626742 -78.611361 
L 240.52384 -78.638729 
L 233.420939 -78.980361 
L 226.318037 -78.452651 
L 219.215135 -78.704463 
L 212.112233 -78.042993 
L 205.009331 -76.741365 
L 197.906429 -75.456186 
L 190.803528 -79.461281 
L 183.700626 -84.012287 
L 176.597724 -81.647482 
L 169.494822 -79.909466 
L 162.39192 -78.132236 
L 155.289018 -77.225605 
L 148.186116 -76.119663 
L 141.083215 -76.48185 
L 133.980313 -81.974086 
L 126.877411 -79.626049 
L 119.774509 -78.048258 
L 112.671607 -78.182639 
L 105.568731 -78.6304 
L 98.465829 -76.909332 
L 91.362927 -75.272024 
z
" style="stroke: #fe9f6d"/>
    </defs>
    <g clip-path="url(#pcbe251d638)">
     <use xlink:href="#m5adbfb4030" x="0" y="432" style="fill: #fe9f6d; stroke: #fe9f6d"/>
    </g>
   </g>
   <g id="matplotlib.axis_1">
    <g id="xtick_1">
     <g id="line2d_1">
      <defs>
       <path id="m2134fbeaa9" d="M 0 0 
L 0 8 
" style="stroke: #000000; stroke-width: 2"/>
      </defs>
      <g>
       <use xlink:href="#m2134fbeaa9" x="84.26" y="357.35875" style="stroke: #000000; stroke-width: 2"/>
      </g>
     </g>
     <g id="text_1">
      <!-- 0 -->
      <g transform="translate(78.26 385.51625) scale(0.24 -0.24)">
       <defs>
        <path id="CMUSerif-Roman-30" d="M 250 2048 
C 250 1568 275 992 538 506 
C 813 -13 1280 -141 1594 -141 
C 1939 -141 2426 -6 2707 602 
C 2912 1043 2944 1542 2944 2048 
C 2944 2560 2912 3072 2688 3546 
C 2394 4160 1869 4262 1600 4262 
C 1216 4262 749 4096 486 3501 
C 282 3059 250 2560 250 2048 
z
M 781 2125 
C 781 2534 781 2957 832 3302 
C 954 4064 1434 4122 1594 4122 
C 1805 4122 2227 4006 2349 3373 
C 2413 3014 2413 2528 2413 2125 
C 2413 1645 2413 1210 2342 800 
C 2246 192 1882 0 1594 0 
C 1344 0 966 160 851 774 
C 781 1158 781 1747 781 2125 
z
" transform="scale(0.015625)"/>
       </defs>
       <use xlink:href="#CMUSerif-Roman-30"/>
      </g>
     </g>
    </g>
    <g id="xtick_2">
     <g id="line2d_2">
      <g>
       <use xlink:href="#m2134fbeaa9" x="210.421667" y="357.35875" style="stroke: #000000; stroke-width: 2"/>
      </g>
     </g>
     <g id="text_2">
      <!-- 5 -->
      <g transform="translate(204.421667 385.51625) scale(0.24 -0.24)">
       <defs>
        <path id="CMUSerif-Roman-35" d="M 320 1030 
C 320 480 762 -141 1478 -141 
C 2221 -141 2874 474 2874 1286 
C 2874 2048 2349 2688 1658 2688 
C 1350 2688 1075 2586 845 2362 
L 845 3610 
C 973 3571 1184 3526 1389 3526 
C 2176 3526 2624 4109 2624 4192 
C 2624 4230 2605 4262 2560 4262 
C 2554 4262 2541 4262 2509 4243 
C 2381 4186 2067 4058 1638 4058 
C 1382 4058 1088 4102 787 4237 
C 736 4256 723 4256 710 4256 
C 646 4256 646 4205 646 4102 
L 646 2208 
C 646 2093 646 2042 736 2042 
C 781 2042 794 2061 819 2099 
C 890 2202 1126 2547 1645 2547 
C 1978 2547 2138 2253 2189 2138 
C 2291 1901 2304 1651 2304 1331 
C 2304 1107 2304 723 2150 454 
C 1997 205 1760 38 1466 38 
C 998 38 634 378 525 755 
C 544 749 563 742 634 742 
C 845 742 954 902 954 1056 
C 954 1210 845 1370 634 1370 
C 544 1370 320 1325 320 1030 
z
" transform="scale(0.015625)"/>
       </defs>
       <use xlink:href="#CMUSerif-Roman-35"/>
      </g>
     </g>
    </g>
    <g id="xtick_3">
     <g id="line2d_3">
      <g>
       <use xlink:href="#m2134fbeaa9" x="336.583333" y="357.35875" style="stroke: #000000; stroke-width: 2"/>
      </g>
     </g>
     <g id="text_3">
      <!-- 10 -->
      <g transform="translate(324.583333 385.51625) scale(0.24 -0.24)">
       <defs>
        <path id="CMUSerif-Roman-31" d="M 570 3654 
C 698 3654 1075 3654 1408 3821 
L 1408 506 
C 1408 275 1389 198 813 198 
L 608 198 
L 608 0 
C 832 19 1389 19 1645 19 
C 1901 19 2458 19 2682 0 
L 2682 198 
L 2477 198 
C 1901 198 1882 269 1882 506 
L 1882 4096 
C 1882 4250 1882 4262 1734 4262 
C 1338 3853 774 3853 570 3853 
L 570 3654 
z
" transform="scale(0.015625)"/>
       </defs>
       <use xlink:href="#CMUSerif-Roman-31"/>
       <use xlink:href="#CMUSerif-Roman-30" transform="translate(49.999985 0)"/>
      </g>
     </g>
    </g>
    <g id="xtick_4">
     <g id="line2d_4">
      <g>
       <use xlink:href="#m2134fbeaa9" x="462.745" y="357.35875" style="stroke: #000000; stroke-width: 2"/>
      </g>
     </g>
     <g id="text_4">
      <!-- 15 -->
      <g transform="translate(450.745 385.51625) scale(0.24 -0.24)">
       <use xlink:href="#CMUSerif-Roman-31"/>
       <use xlink:href="#CMUSerif-Roman-35" transform="translate(49.999985 0)"/>
      </g>
     </g>
    </g>
    <g id="xtick_5">
     <g id="line2d_5">
      <g>
       <use xlink:href="#m2134fbeaa9" x="588.906667" y="357.35875" style="stroke: #000000; stroke-width: 2"/>
      </g>
     </g>
     <g id="text_5">
      <!-- 20 -->
      <g transform="translate(576.906667 385.51625) scale(0.24 -0.24)">
       <defs>
        <path id="CMUSerif-Roman-32" d="M 320 0 
L 2694 0 
L 2874 1114 
L 2714 1114 
C 2682 922 2637 640 2573 544 
C 2528 493 2106 493 1965 493 
L 813 493 
L 1491 1152 
C 2490 2035 2874 2381 2874 3021 
C 2874 3750 2298 4262 1517 4262 
C 794 4262 320 3674 320 3104 
C 320 2746 640 2746 659 2746 
C 768 2746 992 2822 992 3085 
C 992 3251 877 3418 653 3418 
C 602 3418 589 3418 570 3411 
C 717 3827 1062 4064 1434 4064 
C 2016 4064 2291 3546 2291 3021 
C 2291 2509 1971 2003 1619 1606 
L 390 237 
C 320 166 320 154 320 0 
z
" transform="scale(0.015625)"/>
       </defs>
       <use xlink:href="#CMUSerif-Roman-32"/>
       <use xlink:href="#CMUSerif-Roman-30" transform="translate(49.999985 0)"/>
      </g>
     </g>
    </g>
    <g id="xtick_6">
     <g id="line2d_6">
      <g>
       <use xlink:href="#m2134fbeaa9" x="715.068333" y="357.35875" style="stroke: #000000; stroke-width: 2"/>
      </g>
     </g>
     <g id="text_6">
      <!-- 25 -->
      <g transform="translate(703.068333 385.51625) scale(0.24 -0.24)">
       <use xlink:href="#CMUSerif-Roman-32"/>
       <use xlink:href="#CMUSerif-Roman-35" transform="translate(49.999985 0)"/>
      </g>
     </g>
    </g>
    <g id="xtick_7">
     <g id="line2d_7">
      <g>
       <use xlink:href="#m2134fbeaa9" x="841.23" y="357.35875" style="stroke: #000000; stroke-width: 2"/>
      </g>
     </g>
     <g id="text_7">
      <!-- 30 -->
      <g transform="translate(829.23 385.51625) scale(0.24 -0.24)">
       <defs>
        <path id="CMUSerif-Roman-33" d="M 269 864 
C 269 282 864 -141 1562 -141 
C 2342 -141 2925 442 2925 1094 
C 2925 1619 2522 2118 1856 2253 
C 2381 2426 2752 2874 2752 3379 
C 2752 3904 2189 4262 1574 4262 
C 928 4262 442 3878 442 3392 
C 442 3181 582 3059 768 3059 
C 966 3059 1094 3200 1094 3386 
C 1094 3706 794 3706 698 3706 
C 896 4019 1318 4102 1549 4102 
C 1811 4102 2163 3962 2163 3386 
C 2163 3309 2150 2938 1984 2656 
C 1792 2349 1574 2330 1414 2323 
C 1363 2317 1210 2304 1165 2304 
C 1114 2298 1069 2291 1069 2227 
C 1069 2157 1114 2157 1222 2157 
L 1504 2157 
C 2029 2157 2266 1722 2266 1094 
C 2266 224 1824 38 1542 38 
C 1267 38 787 147 563 525 
C 787 493 986 634 986 877 
C 986 1107 813 1235 627 1235 
C 474 1235 269 1146 269 864 
z
" transform="scale(0.015625)"/>
       </defs>
       <use xlink:href="#CMUSerif-Roman-33"/>
       <use xlink:href="#CMUSerif-Roman-30" transform="translate(49.999985 0)"/>
      </g>
     </g>
    </g>
    <g id="text_8">
     <!-- Depth in tape [$\mu$m] -->
     <g transform="translate(361.705 412.17375) scale(0.24 -0.24)">
      <defs>
       <path id="CMUSerif-Roman-44" d="M 224 0 
L 2566 0 
C 3642 0 4525 947 4525 2150 
C 4525 3366 3661 4371 2566 4371 
L 224 4371 
L 224 4173 
L 378 4173 
C 870 4173 883 4102 883 3872 
L 883 499 
C 883 269 870 198 378 198 
L 224 198 
L 224 0 
z
M 1434 454 
L 1434 3917 
C 1434 4128 1446 4173 1747 4173 
L 2387 4173 
C 2784 4173 3226 4032 3552 3578 
C 3827 3200 3885 2650 3885 2150 
C 3885 1440 3763 1056 3533 742 
C 3405 570 3040 198 2394 198 
L 1747 198 
C 1446 198 1434 243 1434 454 
z
" transform="scale(0.015625)"/>
       <path id="CMUSerif-Roman-65" d="M 179 1408 
C 179 550 851 -70 1587 -70 
C 2368 -70 2656 640 2656 762 
C 2656 826 2605 838 2573 838 
C 2515 838 2502 800 2490 749 
C 2266 90 1690 90 1626 90 
C 1306 90 1050 282 902 518 
C 710 826 710 1248 710 1478 
L 2496 1478 
C 2637 1478 2656 1478 2656 1613 
C 2656 2246 2310 2867 1510 2867 
C 768 2867 179 2208 179 1408 
z
M 717 1613 
C 755 2566 1293 2726 1510 2726 
C 2170 2726 2234 1862 2234 1613 
L 717 1613 
z
" transform="scale(0.015625)"/>
       <path id="CMUSerif-Roman-70" d="M 179 -1043 
L 179 -1242 
C 397 -1235 730 -1222 896 -1222 
C 1069 -1222 1395 -1235 1619 -1242 
L 1619 -1043 
C 1190 -1043 1120 -1043 1120 -755 
L 1120 320 
L 1120 378 
C 1152 275 1421 -70 1907 -70 
C 2669 -70 3334 557 3334 1382 
C 3334 2195 2714 2829 1997 2829 
C 1498 2829 1229 2547 1101 2406 
L 1101 2829 
L 179 2758 
L 179 2560 
C 634 2560 678 2522 678 2240 
L 678 -755 
C 678 -1043 608 -1043 179 -1043 
z
M 1120 730 
L 1120 2157 
C 1306 2483 1619 2669 1946 2669 
C 2413 2669 2803 2106 2803 1382 
C 2803 608 2355 70 1882 70 
C 1626 70 1382 198 1210 461 
C 1120 595 1120 602 1120 730 
z
" transform="scale(0.015625)"/>
       <path id="CMUSerif-Roman-74" d="M 122 2560 
L 666 2560 
L 666 794 
C 666 6 1261 -70 1491 -70 
C 1946 -70 2125 384 2125 794 
L 2125 1158 
L 1965 1158 
L 1965 806 
C 1965 333 1773 90 1536 90 
C 1107 90 1107 672 1107 781 
L 1107 2560 
L 2022 2560 
L 2022 2758 
L 1107 2758 
L 1107 3936 
L 947 3936 
C 941 3411 749 2726 122 2701 
L 122 2560 
z
" transform="scale(0.015625)"/>
       <path id="CMUSerif-Roman-68" d="M 205 0 
C 429 6 755 19 928 19 
C 1094 19 1427 6 1645 0 
L 1645 198 
C 1216 198 1146 198 1146 486 
L 1146 1664 
C 1146 2330 1600 2688 2010 2688 
C 2413 2688 2483 2342 2483 1978 
L 2483 486 
C 2483 198 2413 198 1984 198 
L 1984 0 
C 2208 6 2534 19 2707 19 
C 2874 19 3206 6 3424 0 
L 3424 198 
C 3091 198 2931 198 2925 390 
L 2925 1613 
C 2925 2163 2925 2362 2726 2592 
C 2637 2701 2426 2829 2054 2829 
C 1517 2829 1235 2445 1133 2214 
L 1126 2214 
L 1126 4442 
L 205 4371 
L 205 4173 
C 653 4173 704 4128 704 3814 
L 704 486 
C 704 198 634 198 205 198 
L 205 0 
z
" transform="scale(0.015625)"/>
       <path id="CMUSerif-Roman-20" transform="scale(0.015625)"/>
       <path id="CMUSerif-Roman-69" d="M 480 3942 
C 480 3770 621 3603 819 3603 
C 998 3603 1158 3738 1158 3942 
C 1158 4147 998 4282 819 4282 
C 621 4282 480 4109 480 3942 
z
M 211 0 
C 416 6 762 19 915 19 
C 1139 19 1363 6 1581 0 
L 1581 198 
C 1158 198 1133 230 1133 480 
L 1133 2829 
L 237 2758 
L 237 2560 
C 653 2560 710 2522 710 2208 
L 710 486 
C 710 198 640 198 211 198 
L 211 0 
z
" transform="scale(0.015625)"/>
       <path id="CMUSerif-Roman-6e" d="M 205 0 
C 429 6 755 19 928 19 
C 1094 19 1427 6 1645 0 
L 1645 198 
C 1216 198 1146 198 1146 486 
L 1146 1664 
C 1146 2330 1600 2688 2010 2688 
C 2413 2688 2483 2342 2483 1978 
L 2483 486 
C 2483 198 2413 198 1984 198 
L 1984 0 
C 2208 6 2534 19 2707 19 
C 2874 19 3206 6 3424 0 
L 3424 198 
C 3091 198 2931 198 2925 390 
L 2925 1613 
C 2925 2163 2925 2362 2726 2592 
C 2637 2701 2426 2829 2054 2829 
C 1587 2829 1286 2554 1107 2157 
L 1107 2829 
L 205 2758 
L 205 2560 
C 653 2560 704 2515 704 2202 
L 704 486 
C 704 198 634 198 205 198 
L 205 0 
z
" transform="scale(0.015625)"/>
       <path id="CMUSerif-Roman-61" d="M 269 608 
C 269 90 890 -70 1293 -70 
C 1715 -70 2010 186 2131 486 
C 2157 230 2330 -38 2630 -38 
C 2765 -38 3155 51 3155 570 
L 3155 928 
L 2995 928 
L 2995 570 
C 2995 198 2835 160 2765 160 
C 2554 160 2528 448 2528 480 
L 2528 1760 
C 2528 2029 2528 2278 2298 2515 
C 2048 2765 1728 2867 1421 2867 
C 896 2867 454 2566 454 2144 
C 454 1952 582 1843 749 1843 
C 928 1843 1043 1971 1043 2138 
C 1043 2214 1011 2426 717 2432 
C 890 2656 1203 2726 1408 2726 
C 1722 2726 2086 2477 2086 1907 
L 2086 1670 
C 1760 1651 1312 1632 909 1440 
C 429 1222 269 890 269 608 
z
M 762 614 
C 762 966 1030 1498 2086 1536 
L 2086 896 
C 2086 288 1626 70 1338 70 
C 1024 70 762 294 762 614 
z
" transform="scale(0.015625)"/>
       <path id="CMUSerif-Roman-5b" d="M 666 -1600 
L 1632 -1600 
L 1632 -1453 
L 1094 -1453 
L 1094 4653 
L 1632 4653 
L 1632 4800 
L 666 4800 
L 666 -1600 
z
" transform="scale(0.015625)"/>
       <path id="Cmmi10-b9" d="M 178 -1203 
Q 178 -1166 184 -1153 
L 1125 2625 
Q 1153 2716 1226 2772 
Q 1300 2828 1394 2828 
Q 1475 2828 1531 2779 
Q 1588 2731 1588 2650 
Q 1588 2631 1586 2620 
Q 1584 2609 1581 2597 
L 1203 1100 
Q 1141 834 1141 641 
Q 1141 403 1253 250 
Q 1366 97 1594 97 
Q 2059 97 2413 678 
Q 2416 684 2417 687 
Q 2419 691 2419 697 
L 2881 2553 
Q 2903 2638 2981 2698 
Q 3059 2759 3150 2759 
Q 3225 2759 3283 2709 
Q 3341 2659 3341 2578 
Q 3341 2541 3334 2528 
L 2875 684 
Q 2828 503 2828 372 
Q 2828 97 3016 97 
Q 3216 97 3317 344 
Q 3419 591 3494 941 
Q 3506 978 3547 978 
L 3622 978 
Q 3647 978 3664 958 
Q 3681 938 3681 916 
Q 3569 469 3436 198 
Q 3303 -72 3003 -72 
Q 2791 -72 2627 50 
Q 2463 172 2413 378 
Q 2253 178 2039 53 
Q 1825 -72 1588 -72 
Q 1188 -72 959 116 
L 634 -1178 
Q 616 -1269 541 -1325 
Q 466 -1381 372 -1381 
Q 294 -1381 236 -1332 
Q 178 -1284 178 -1203 
z
" transform="scale(0.015625)"/>
       <path id="CMUSerif-Roman-6d" d="M 205 0 
C 429 6 755 19 928 19 
C 1094 19 1427 6 1645 0 
L 1645 198 
C 1216 198 1146 198 1146 486 
L 1146 1664 
C 1146 2330 1600 2688 2010 2688 
C 2413 2688 2483 2342 2483 1978 
L 2483 486 
C 2483 198 2413 198 1984 198 
L 1984 0 
C 2208 6 2534 19 2707 19 
C 2874 19 3206 6 3424 0 
L 3424 198 
C 2995 198 2925 198 2925 486 
L 2925 1664 
C 2925 2330 3379 2688 3789 2688 
C 4192 2688 4262 2342 4262 1978 
L 4262 486 
C 4262 198 4192 198 3763 198 
L 3763 0 
C 3987 6 4314 19 4486 19 
C 4653 19 4986 6 5203 0 
L 5203 198 
C 4870 198 4710 198 4704 390 
L 4704 1613 
C 4704 2163 4704 2362 4506 2592 
C 4416 2701 4205 2829 3834 2829 
C 3296 2829 3014 2445 2906 2202 
C 2816 2758 2342 2829 2054 2829 
C 1587 2829 1286 2554 1107 2157 
L 1107 2829 
L 205 2758 
L 205 2560 
C 653 2560 704 2515 704 2202 
L 704 486 
C 704 198 634 198 205 198 
L 205 0 
z
" transform="scale(0.015625)"/>
       <path id="CMUSerif-Roman-5d" d="M 134 -1453 
L 134 -1600 
L 1101 -1600 
L 1101 4800 
L 134 4800 
L 134 4653 
L 672 4653 
L 672 -1453 
L 134 -1453 
z
" transform="scale(0.015625)"/>
      </defs>
      <use xlink:href="#CMUSerif-Roman-44"/>
      <use xlink:href="#CMUSerif-Roman-65" transform="translate(76.299988 0)"/>
      <use xlink:href="#CMUSerif-Roman-70" transform="translate(120.699982 0)"/>
      <use xlink:href="#CMUSerif-Roman-74" transform="translate(176.199966 0)"/>
      <use xlink:href="#CMUSerif-Roman-68" transform="translate(214.999954 0)"/>
      <use xlink:href="#CMUSerif-Roman-20" transform="translate(270.499939 0)"/>
      <use xlink:href="#CMUSerif-Roman-69" transform="translate(303.799927 0)"/>
      <use xlink:href="#CMUSerif-Roman-6e" transform="translate(331.499924 0)"/>
      <use xlink:href="#CMUSerif-Roman-20" transform="translate(386.999908 0)"/>
      <use xlink:href="#CMUSerif-Roman-74" transform="translate(420.299896 0)"/>
      <use xlink:href="#CMUSerif-Roman-61" transform="translate(459.099884 0)"/>
      <use xlink:href="#CMUSerif-Roman-70" transform="translate(509.099869 0)"/>
      <use xlink:href="#CMUSerif-Roman-65" transform="translate(564.599854 0)"/>
      <use xlink:href="#CMUSerif-Roman-20" transform="translate(608.999847 0)"/>
      <use xlink:href="#CMUSerif-Roman-5b" transform="translate(642.299835 0)"/>
      <use xlink:href="#Cmmi10-b9" transform="translate(670.099823 0)"/>
      <use xlink:href="#CMUSerif-Roman-6d" transform="translate(730.304901 0)"/>
      <use xlink:href="#CMUSerif-Roman-5d" transform="translate(813.604889 0)"/>
     </g>
    </g>
   </g>
   <g id="matplotlib.axis_2">
    <g id="ytick_1">
     <g id="line2d_8">
      <defs>
       <path id="m572017f5b1" d="M 0 0 
L -8 0 
" style="stroke: #000000; stroke-width: 2"/>
      </defs>
      <g>
       <use xlink:href="#m572017f5b1" x="84.26" y="357.35875" style="stroke: #000000; stroke-width: 2"/>
      </g>
     </g>
     <g id="text_9">
      <!-- 0.0 -->
      <g transform="translate(42.08875 365.6875) scale(0.24 -0.24)">
       <defs>
        <path id="CMUSerif-Roman-2e" d="M 544 339 
C 544 166 685 0 883 0 
C 1050 0 1216 141 1216 339 
C 1216 538 1062 672 883 672 
C 685 672 544 512 544 339 
z
" transform="scale(0.015625)"/>
       </defs>
       <use xlink:href="#CMUSerif-Roman-30"/>
       <use xlink:href="#CMUSerif-Roman-2e" transform="translate(49.999985 0)"/>
       <use xlink:href="#CMUSerif-Roman-30" transform="translate(77.799973 0)"/>
      </g>
     </g>
    </g>
    <g id="ytick_2">
     <g id="line2d_9">
      <g>
       <use xlink:href="#m572017f5b1" x="84.26" y="272.824219" style="stroke: #000000; stroke-width: 2"/>
      </g>
     </g>
     <g id="text_10">
      <!-- 0.5 -->
      <g transform="translate(42.08875 281.152969) scale(0.24 -0.24)">
       <use xlink:href="#CMUSerif-Roman-30"/>
       <use xlink:href="#CMUSerif-Roman-2e" transform="translate(49.999985 0)"/>
       <use xlink:href="#CMUSerif-Roman-35" transform="translate(77.799973 0)"/>
      </g>
     </g>
    </g>
    <g id="ytick_3">
     <g id="line2d_10">
      <g>
       <use xlink:href="#m572017f5b1" x="84.26" y="188.289688" style="stroke: #000000; stroke-width: 2"/>
      </g>
     </g>
     <g id="text_11">
      <!-- 1.0 -->
      <g transform="translate(42.08875 196.618438) scale(0.24 -0.24)">
       <use xlink:href="#CMUSerif-Roman-31"/>
       <use xlink:href="#CMUSerif-Roman-2e" transform="translate(49.999985 0)"/>
       <use xlink:href="#CMUSerif-Roman-30" transform="translate(77.799973 0)"/>
      </g>
     </g>
    </g>
    <g id="ytick_4">
     <g id="line2d_11">
      <g>
       <use xlink:href="#m572017f5b1" x="84.26" y="103.755156" style="stroke: #000000; stroke-width: 2"/>
      </g>
     </g>
     <g id="text_12">
      <!-- 1.5 -->
      <g transform="translate(42.08875 112.083906) scale(0.24 -0.24)">
       <use xlink:href="#CMUSerif-Roman-31"/>
       <use xlink:href="#CMUSerif-Roman-2e" transform="translate(49.999985 0)"/>
       <use xlink:href="#CMUSerif-Roman-35" transform="translate(77.799973 0)"/>
      </g>
     </g>
    </g>
    <g id="ytick_5">
     <g id="line2d_12">
      <g>
       <use xlink:href="#m572017f5b1" x="84.26" y="19.220625" style="stroke: #000000; stroke-width: 2"/>
      </g>
     </g>
     <g id="text_13">
      <!-- 2.0 -->
      <g transform="translate(42.08875 27.549375) scale(0.24 -0.24)">
       <use xlink:href="#CMUSerif-Roman-32"/>
       <use xlink:href="#CMUSerif-Roman-2e" transform="translate(49.999985 0)"/>
       <use xlink:href="#CMUSerif-Roman-30" transform="translate(77.799973 0)"/>
      </g>
     </g>
    </g>
    <g id="text_14">
     <!-- [Frenkel pairs/$\mu$m-ion] -->
     <g transform="translate(32.08875 307.089688) rotate(-90) scale(0.24 -0.24)">
      <defs>
       <path id="CMUSerif-Roman-46" d="M 211 0 
C 435 19 934 19 1184 19 
C 1446 19 2029 19 2259 0 
L 2259 198 
L 2048 198 
C 1440 198 1440 282 1440 506 
L 1440 2080 
L 1990 2080 
C 2605 2080 2669 1875 2669 1331 
L 2829 1331 
L 2829 3027 
L 2669 3027 
C 2669 2490 2605 2278 1990 2278 
L 1440 2278 
L 1440 3898 
C 1440 4109 1453 4154 1754 4154 
L 2522 4154 
C 3482 4154 3642 3795 3744 2912 
L 3904 2912 
L 3725 4352 
L 211 4352 
L 211 4154 
L 365 4154 
C 858 4154 870 4083 870 3853 
L 870 499 
C 870 269 858 198 365 198 
L 211 198 
L 211 0 
z
" transform="scale(0.015625)"/>
       <path id="CMUSerif-Roman-72" d="M 179 0 
C 429 6 730 19 909 19 
C 1165 19 1466 19 1722 0 
L 1722 198 
L 1587 198 
C 1114 198 1101 269 1101 499 
L 1101 1485 
C 1101 2118 1370 2688 1856 2688 
C 1901 2688 1914 2688 1926 2682 
C 1907 2675 1779 2598 1779 2432 
C 1779 2253 1914 2157 2054 2157 
C 2170 2157 2330 2234 2330 2438 
C 2330 2643 2131 2829 1856 2829 
C 1389 2829 1158 2400 1069 2125 
L 1069 2829 
L 179 2758 
L 179 2560 
C 627 2560 678 2515 678 2202 
L 678 486 
C 678 198 608 198 179 198 
L 179 0 
z
" transform="scale(0.015625)"/>
       <path id="CMUSerif-Roman-6b" d="M 179 0 
C 390 6 691 19 877 19 
C 1069 19 1325 13 1581 0 
L 1581 198 
C 1152 198 1082 198 1082 486 
L 1082 1146 
L 1491 1498 
C 1984 819 2253 461 2253 346 
C 2253 224 2144 198 2022 198 
L 2022 0 
C 2202 6 2579 19 2714 19 
C 2899 19 3085 13 3270 0 
L 3270 198 
C 3034 198 2893 198 2650 538 
L 1837 1683 
C 1830 1696 1798 1734 1798 1754 
C 1798 1779 2253 2163 2317 2214 
C 2720 2541 2989 2554 3123 2560 
L 3123 2758 
C 2938 2739 2854 2739 2675 2739 
C 2445 2739 2048 2752 1958 2758 
L 1958 2560 
C 2080 2554 2144 2483 2144 2400 
C 2144 2272 2054 2195 2003 2150 
L 1101 1370 
L 1101 4442 
L 179 4371 
L 179 4173 
C 627 4173 678 4128 678 3814 
L 678 486 
C 678 198 608 198 179 198 
L 179 0 
z
" transform="scale(0.015625)"/>
       <path id="CMUSerif-Roman-6c" d="M 211 0 
C 422 6 762 19 922 19 
C 1082 19 1395 6 1632 0 
L 1632 198 
C 1203 198 1133 198 1133 486 
L 1133 4442 
L 211 4371 
L 211 4173 
C 659 4173 710 4128 710 3814 
L 710 486 
C 710 198 640 198 211 198 
L 211 0 
z
" transform="scale(0.015625)"/>
       <path id="CMUSerif-Roman-73" d="M 211 83 
C 211 -26 211 -70 282 -70 
C 314 -70 320 -64 442 58 
C 454 70 454 83 570 205 
C 851 -64 1139 -70 1274 -70 
C 2010 -70 2304 358 2304 819 
C 2304 1158 2112 1350 2035 1427 
C 1824 1632 1574 1683 1306 1734 
C 947 1805 518 1888 518 2259 
C 518 2483 685 2746 1235 2746 
C 1939 2746 1971 2170 1984 1971 
C 1990 1914 2048 1914 2061 1914 
C 2144 1914 2144 1946 2144 2067 
L 2144 2714 
C 2144 2822 2144 2867 2074 2867 
C 2042 2867 2029 2867 1946 2790 
C 1926 2765 1862 2707 1837 2688 
C 1594 2867 1331 2867 1235 2867 
C 454 2867 211 2438 211 2080 
C 211 1856 314 1677 486 1536 
C 691 1370 870 1331 1331 1242 
C 1472 1216 1997 1114 1997 653 
C 1997 326 1773 70 1274 70 
C 736 70 506 435 384 979 
C 365 1062 358 1088 294 1088 
C 211 1088 211 1043 211 928 
L 211 83 
z
" transform="scale(0.015625)"/>
       <path id="CMUSerif-Roman-2f" d="M 365 -1510 
C 365 -1549 384 -1587 422 -1587 
C 474 -1587 493 -1555 544 -1414 
L 2810 4627 
C 2816 4653 2829 4685 2829 4710 
C 2829 4762 2790 4787 2765 4787 
C 2694 4787 2669 4672 2650 4627 
L 390 -1408 
C 365 -1478 365 -1491 365 -1510 
z
" transform="scale(0.015625)"/>
       <path id="CMUSerif-Roman-2d" d="M 64 1190 
L 1766 1190 
L 1766 1568 
L 64 1568 
L 64 1190 
z
" transform="scale(0.015625)"/>
       <path id="CMUSerif-Roman-6f" d="M 179 1370 
C 179 544 845 -70 1594 -70 
C 2368 -70 3014 557 3014 1370 
C 3014 2189 2374 2867 1600 2867 
C 800 2867 179 2170 179 1370 
z
M 710 1421 
C 710 1670 710 2016 864 2298 
C 1037 2592 1338 2726 1594 2726 
C 1875 2726 2150 2586 2317 2310 
C 2483 2035 2483 1664 2483 1421 
C 2483 1190 2483 845 2342 563 
C 2202 275 1920 90 1600 90 
C 1325 90 1043 224 870 518 
C 710 800 710 1190 710 1421 
z
" transform="scale(0.015625)"/>
      </defs>
      <use xlink:href="#CMUSerif-Roman-5b"/>
      <use xlink:href="#CMUSerif-Roman-46" transform="translate(27.799988 0)"/>
      <use xlink:href="#CMUSerif-Roman-72" transform="translate(92.999985 0)"/>
      <use xlink:href="#CMUSerif-Roman-65" transform="translate(132.099976 0)"/>
      <use xlink:href="#CMUSerif-Roman-6e" transform="translate(176.499969 0)"/>
      <use xlink:href="#CMUSerif-Roman-6b" transform="translate(231.999954 0)"/>
      <use xlink:href="#CMUSerif-Roman-65" transform="translate(284.699951 0)"/>
      <use xlink:href="#CMUSerif-Roman-6c" transform="translate(329.099945 0)"/>
      <use xlink:href="#CMUSerif-Roman-20" transform="translate(356.799942 0)"/>
      <use xlink:href="#CMUSerif-Roman-70" transform="translate(390.09993 0)"/>
      <use xlink:href="#CMUSerif-Roman-61" transform="translate(445.599915 0)"/>
      <use xlink:href="#CMUSerif-Roman-69" transform="translate(495.599899 0)"/>
      <use xlink:href="#CMUSerif-Roman-72" transform="translate(523.299896 0)"/>
      <use xlink:href="#CMUSerif-Roman-73" transform="translate(562.399887 0)"/>
      <use xlink:href="#CMUSerif-Roman-2f" transform="translate(601.799881 0)"/>
      <use xlink:href="#Cmmi10-b9" transform="translate(651.799866 0)"/>
      <use xlink:href="#CMUSerif-Roman-6d" transform="translate(712.004944 0)"/>
      <use xlink:href="#CMUSerif-Roman-2d" transform="translate(795.304932 0)"/>
      <use xlink:href="#CMUSerif-Roman-69" transform="translate(828.604919 0)"/>
      <use xlink:href="#CMUSerif-Roman-6f" transform="translate(856.304916 0)"/>
      <use xlink:href="#CMUSerif-Roman-6e" transform="translate(906.304901 0)"/>
      <use xlink:href="#CMUSerif-Roman-5d" transform="translate(961.804886 0)"/>
     </g>
    </g>
   </g>
   <g id="line2d_13">
    <path d="M 134.724667 357.35875 
L 134.724667 19.220625 
" clip-path="url(#pcbe251d638)" style="fill: none; stroke-dasharray: 1,1.65; stroke-dashoffset: 0; stroke: #000000"/>
   </g>
   <g id="line2d_14">
    <path d="M 185.189333 357.35875 
L 185.189333 19.220625 
" clip-path="url(#pcbe251d638)" style="fill: none; stroke-dasharray: 1,1.65; stroke-dashoffset: 0; stroke: #000000"/>
   </g>
   <g id="patch_3">
    <path d="M 84.26 357.35875 
L 84.26 19.220625 
" style="fill: none; stroke: #000000; stroke-width: 0.8; stroke-linejoin: miter; stroke-linecap: square"/>
   </g>
   <g id="patch_4">
    <path d="M 84.26 357.35875 
L 841.23 357.35875 
" style="fill: none; stroke: #000000; stroke-width: 0.8; stroke-linejoin: miter; stroke-linecap: square"/>
   </g>
  </g>
 </g>
 <defs>
  <clipPath id="pcbe251d638">
   <rect x="84.26" y="19.220625" width="756.97" height="338.138125"/>
  </clipPath>
 </defs>
</svg>
