<?xml version="1.0" encoding="utf-8" standalone="no"?>
<!DOCTYPE svg PUBLIC "-//W3C//DTD SVG 1.1//EN"
  "http://www.w3.org/Graphics/SVG/1.1/DTD/svg11.dtd">
<svg xmlns:xlink="http://www.w3.org/1999/xlink" width="648pt" height="648pt" viewBox="0 0 648 648" xmlns="http://www.w3.org/2000/svg" version="1.1">
 <metadata>
  <rdf:RDF xmlns:dc="http://purl.org/dc/elements/1.1/" xmlns:cc="http://creativecommons.org/ns#" xmlns:rdf="http://www.w3.org/1999/02/22-rdf-syntax-ns#">
   <cc:Work>
    <dc:type rdf:resource="http://purl.org/dc/dcmitype/StillImage"/>
    <dc:date>2025-08-27T18:23:24.091048</dc:date>
    <dc:format>image/svg+xml</dc:format>
    <dc:creator>
     <cc:Agent>
      <dc:title>Matplotlib v3.10.0, https://matplotlib.org/</dc:title>
     </cc:Agent>
    </dc:creator>
   </cc:Work>
  </rdf:RDF>
 </metadata>
 <defs>
  <style type="text/css">*{stroke-linejoin: round; stroke-linecap: butt}</style>
 </defs>
 <g id="figure_1">
  <g id="patch_1">
   <path d="M 0 648 
L 648 648 
L 648 0 
L 0 0 
L 0 648 
z
" style="fill: none"/>
  </g>
  <g id="axes_1">
   <g id="patch_2">
    <path d="M 72.984013 589.6375 
L 628.2 589.6375 
L 628.2 17.82 
L 72.984013 17.82 
L 72.984013 589.6375 
z
" style="fill: none"/>
   </g>
   <g id="matplotlib.axis_1">
    <g id="xtick_1">
     <g id="line2d_1">
      <defs>
       <path id="m429e7dd85e" d="M 0 0 
L 0 3.5 
" style="stroke: #000000; stroke-width: 0.8"/>
      </defs>
      <g>
       <use xlink:href="#m429e7dd85e" x="72.984013" y="589.6375" style="stroke: #000000; stroke-width: 0.8"/>
      </g>
     </g>
     <g id="text_1">
      <!-- 0 -->
      <g transform="translate(68.484013 609.130625) scale(0.18 -0.18)">
       <defs>
        <path id="CMUSerif-Roman-30" d="M 250 2048 
C 250 1568 275 992 538 506 
C 813 -13 1280 -141 1594 -141 
C 1939 -141 2426 -6 2707 602 
C 2912 1043 2944 1542 2944 2048 
C 2944 2560 2912 3072 2688 3546 
C 2394 4160 1869 4262 1600 4262 
C 1216 4262 749 4096 486 3501 
C 282 3059 250 2560 250 2048 
z
M 781 2125 
C 781 2534 781 2957 832 3302 
C 954 4064 1434 4122 1594 4122 
C 1805 4122 2227 4006 2349 3373 
C 2413 3014 2413 2528 2413 2125 
C 2413 1645 2413 1210 2342 800 
C 2246 192 1882 0 1594 0 
C 1344 0 966 160 851 774 
C 781 1158 781 1747 781 2125 
z
" transform="scale(0.015625)"/>
       </defs>
       <use xlink:href="#CMUSerif-Roman-30"/>
      </g>
     </g>
    </g>
    <g id="xtick_2">
     <g id="line2d_2">
      <g>
       <use xlink:href="#m429e7dd85e" x="165.52001" y="589.6375" style="stroke: #000000; stroke-width: 0.8"/>
      </g>
     </g>
     <g id="text_2">
      <!-- 5 -->
      <g transform="translate(161.02001 609.130625) scale(0.18 -0.18)">
       <defs>
        <path id="CMUSerif-Roman-35" d="M 320 1030 
C 320 480 762 -141 1478 -141 
C 2221 -141 2874 474 2874 1286 
C 2874 2048 2349 2688 1658 2688 
C 1350 2688 1075 2586 845 2362 
L 845 3610 
C 973 3571 1184 3526 1389 3526 
C 2176 3526 2624 4109 2624 4192 
C 2624 4230 2605 4262 2560 4262 
C 2554 4262 2541 4262 2509 4243 
C 2381 4186 2067 4058 1638 4058 
C 1382 4058 1088 4102 787 4237 
C 736 4256 723 4256 710 4256 
C 646 4256 646 4205 646 4102 
L 646 2208 
C 646 2093 646 2042 736 2042 
C 781 2042 794 2061 819 2099 
C 890 2202 1126 2547 1645 2547 
C 1978 2547 2138 2253 2189 2138 
C 2291 1901 2304 1651 2304 1331 
C 2304 1107 2304 723 2150 454 
C 1997 205 1760 38 1466 38 
C 998 38 634 378 525 755 
C 544 749 563 742 634 742 
C 845 742 954 902 954 1056 
C 954 1210 845 1370 634 1370 
C 544 1370 320 1325 320 1030 
z
" transform="scale(0.015625)"/>
       </defs>
       <use xlink:href="#CMUSerif-Roman-35"/>
      </g>
     </g>
    </g>
    <g id="xtick_3">
     <g id="line2d_3">
      <g>
       <use xlink:href="#m429e7dd85e" x="258.056008" y="589.6375" style="stroke: #000000; stroke-width: 0.8"/>
      </g>
     </g>
     <g id="text_3">
      <!-- 10 -->
      <g transform="translate(249.056008 609.130625) scale(0.18 -0.18)">
       <defs>
        <path id="CMUSerif-Roman-31" d="M 570 3654 
C 698 3654 1075 3654 1408 3821 
L 1408 506 
C 1408 275 1389 198 813 198 
L 608 198 
L 608 0 
C 832 19 1389 19 1645 19 
C 1901 19 2458 19 2682 0 
L 2682 198 
L 2477 198 
C 1901 198 1882 269 1882 506 
L 1882 4096 
C 1882 4250 1882 4262 1734 4262 
C 1338 3853 774 3853 570 3853 
L 570 3654 
z
" transform="scale(0.015625)"/>
       </defs>
       <use xlink:href="#CMUSerif-Roman-31"/>
       <use xlink:href="#CMUSerif-Roman-30" transform="translate(49.999985 0)"/>
      </g>
     </g>
    </g>
    <g id="xtick_4">
     <g id="line2d_4">
      <g>
       <use xlink:href="#m429e7dd85e" x="350.592006" y="589.6375" style="stroke: #000000; stroke-width: 0.8"/>
      </g>
     </g>
     <g id="text_4">
      <!-- 15 -->
      <g transform="translate(341.592006 609.130625) scale(0.18 -0.18)">
       <use xlink:href="#CMUSerif-Roman-31"/>
       <use xlink:href="#CMUSerif-Roman-35" transform="translate(49.999985 0)"/>
      </g>
     </g>
    </g>
    <g id="xtick_5">
     <g id="line2d_5">
      <g>
       <use xlink:href="#m429e7dd85e" x="443.128004" y="589.6375" style="stroke: #000000; stroke-width: 0.8"/>
      </g>
     </g>
     <g id="text_5">
      <!-- 20 -->
      <g transform="translate(434.128004 609.130625) scale(0.18 -0.18)">
       <defs>
        <path id="CMUSerif-Roman-32" d="M 320 0 
L 2694 0 
L 2874 1114 
L 2714 1114 
C 2682 922 2637 640 2573 544 
C 2528 493 2106 493 1965 493 
L 813 493 
L 1491 1152 
C 2490 2035 2874 2381 2874 3021 
C 2874 3750 2298 4262 1517 4262 
C 794 4262 320 3674 320 3104 
C 320 2746 640 2746 659 2746 
C 768 2746 992 2822 992 3085 
C 992 3251 877 3418 653 3418 
C 602 3418 589 3418 570 3411 
C 717 3827 1062 4064 1434 4064 
C 2016 4064 2291 3546 2291 3021 
C 2291 2509 1971 2003 1619 1606 
L 390 237 
C 320 166 320 154 320 0 
z
" transform="scale(0.015625)"/>
       </defs>
       <use xlink:href="#CMUSerif-Roman-32"/>
       <use xlink:href="#CMUSerif-Roman-30" transform="translate(49.999985 0)"/>
      </g>
     </g>
    </g>
    <g id="xtick_6">
     <g id="line2d_6">
      <g>
       <use xlink:href="#m429e7dd85e" x="535.664002" y="589.6375" style="stroke: #000000; stroke-width: 0.8"/>
      </g>
     </g>
     <g id="text_6">
      <!-- 25 -->
      <g transform="translate(526.664002 609.130625) scale(0.18 -0.18)">
       <use xlink:href="#CMUSerif-Roman-32"/>
       <use xlink:href="#CMUSerif-Roman-35" transform="translate(49.999985 0)"/>
      </g>
     </g>
    </g>
    <g id="xtick_7">
     <g id="line2d_7">
      <g>
       <use xlink:href="#m429e7dd85e" x="628.2" y="589.6375" style="stroke: #000000; stroke-width: 0.8"/>
      </g>
     </g>
     <g id="text_7">
      <!-- 30 -->
      <g transform="translate(619.2 609.130625) scale(0.18 -0.18)">
       <defs>
        <path id="CMUSerif-Roman-33" d="M 269 864 
C 269 282 864 -141 1562 -141 
C 2342 -141 2925 442 2925 1094 
C 2925 1619 2522 2118 1856 2253 
C 2381 2426 2752 2874 2752 3379 
C 2752 3904 2189 4262 1574 4262 
C 928 4262 442 3878 442 3392 
C 442 3181 582 3059 768 3059 
C 966 3059 1094 3200 1094 3386 
C 1094 3706 794 3706 698 3706 
C 896 4019 1318 4102 1549 4102 
C 1811 4102 2163 3962 2163 3386 
C 2163 3309 2150 2938 1984 2656 
C 1792 2349 1574 2330 1414 2323 
C 1363 2317 1210 2304 1165 2304 
C 1114 2298 1069 2291 1069 2227 
C 1069 2157 1114 2157 1222 2157 
L 1504 2157 
C 2029 2157 2266 1722 2266 1094 
C 2266 224 1824 38 1542 38 
C 1267 38 787 147 563 525 
C 787 493 986 634 986 877 
C 986 1107 813 1235 627 1235 
C 474 1235 269 1146 269 864 
z
" transform="scale(0.015625)"/>
       </defs>
       <use xlink:href="#CMUSerif-Roman-33"/>
       <use xlink:href="#CMUSerif-Roman-30" transform="translate(49.999985 0)"/>
      </g>
     </g>
    </g>
    <g id="text_8">
     <!-- H: External Magnetic Field [T] -->
     <g transform="translate(214.310756 631.62375) scale(0.2 -0.2)">
      <defs>
       <path id="CMUSerif-Roman-48" d="M 211 0 
C 435 19 909 19 1152 19 
C 1395 19 1875 19 2099 0 
L 2099 198 
L 1946 198 
C 1453 198 1440 269 1440 499 
L 1440 2176 
L 3354 2176 
L 3354 499 
C 3354 269 3341 198 2848 198 
L 2694 198 
L 2694 0 
C 2918 19 3392 19 3635 19 
C 3878 19 4358 19 4582 0 
L 4582 198 
L 4429 198 
C 3936 198 3923 269 3923 499 
L 3923 3872 
C 3923 4102 3936 4173 4429 4173 
L 4582 4173 
L 4582 4371 
C 4358 4352 3885 4352 3642 4352 
C 3398 4352 2918 4352 2694 4371 
L 2694 4173 
L 2848 4173 
C 3341 4173 3354 4102 3354 3872 
L 3354 2374 
L 1440 2374 
L 1440 3872 
C 1440 4102 1453 4173 1946 4173 
L 2099 4173 
L 2099 4371 
C 1875 4352 1402 4352 1158 4352 
C 915 4352 435 4352 211 4371 
L 211 4173 
L 365 4173 
C 858 4173 870 4102 870 3872 
L 870 499 
C 870 269 858 198 365 198 
L 211 198 
L 211 0 
z
" transform="scale(0.015625)"/>
       <path id="CMUSerif-Roman-3a" d="M 550 2419 
C 550 2234 704 2080 890 2080 
C 1075 2080 1229 2234 1229 2419 
C 1229 2605 1075 2758 890 2758 
C 704 2758 550 2605 550 2419 
z
M 550 339 
C 550 154 704 0 890 0 
C 1075 0 1229 154 1229 339 
C 1229 525 1075 678 890 678 
C 704 678 550 525 550 339 
z
" transform="scale(0.015625)"/>
       <path id="CMUSerif-Roman-20" transform="scale(0.015625)"/>
       <path id="CMUSerif-Roman-45" d="M 211 0 
L 3904 0 
L 4173 1651 
L 4013 1651 
C 3853 666 3706 198 2605 198 
L 1754 198 
C 1453 198 1440 243 1440 454 
L 1440 2163 
L 2016 2163 
C 2637 2163 2707 1958 2707 1414 
L 2867 1414 
L 2867 3110 
L 2707 3110 
C 2707 2560 2637 2362 2016 2362 
L 1440 2362 
L 1440 3898 
C 1440 4109 1453 4154 1754 4154 
L 2579 4154 
C 3558 4154 3731 3802 3834 2912 
L 3994 2912 
L 3814 4352 
L 211 4352 
L 211 4154 
L 365 4154 
C 858 4154 870 4083 870 3853 
L 870 499 
C 870 269 858 198 365 198 
L 211 198 
L 211 0 
z
" transform="scale(0.015625)"/>
       <path id="CMUSerif-Roman-78" d="M 77 0 
C 243 13 442 19 608 19 
C 794 19 1062 6 1216 0 
L 1216 198 
C 1075 218 1030 301 1030 397 
C 1030 538 1216 749 1606 1210 
L 2093 570 
C 2144 499 2227 397 2227 358 
C 2227 301 2170 205 1997 198 
L 1997 0 
C 2189 6 2547 19 2688 19 
C 2861 19 3110 13 3302 0 
L 3302 198 
C 2957 198 2842 211 2694 397 
L 1837 1504 
C 2029 1747 2272 2061 2426 2227 
C 2624 2458 2886 2554 3187 2560 
L 3187 2758 
C 3021 2746 2829 2739 2662 2739 
C 2470 2739 2131 2752 2048 2758 
L 2048 2560 
C 2182 2547 2234 2464 2234 2362 
C 2234 2259 2170 2176 2138 2138 
L 1741 1638 
L 1242 2285 
C 1184 2349 1184 2362 1184 2400 
C 1184 2496 1280 2554 1408 2560 
L 1408 2758 
C 1242 2752 819 2739 717 2739 
C 582 2739 282 2746 109 2758 
L 109 2560 
C 557 2560 563 2554 864 2170 
L 1498 1344 
L 896 582 
C 589 211 211 198 77 198 
L 77 0 
z
" transform="scale(0.015625)"/>
       <path id="CMUSerif-Roman-74" d="M 122 2560 
L 666 2560 
L 666 794 
C 666 6 1261 -70 1491 -70 
C 1946 -70 2125 384 2125 794 
L 2125 1158 
L 1965 1158 
L 1965 806 
C 1965 333 1773 90 1536 90 
C 1107 90 1107 672 1107 781 
L 1107 2560 
L 2022 2560 
L 2022 2758 
L 1107 2758 
L 1107 3936 
L 947 3936 
C 941 3411 749 2726 122 2701 
L 122 2560 
z
" transform="scale(0.015625)"/>
       <path id="CMUSerif-Roman-65" d="M 179 1408 
C 179 550 851 -70 1587 -70 
C 2368 -70 2656 640 2656 762 
C 2656 826 2605 838 2573 838 
C 2515 838 2502 800 2490 749 
C 2266 90 1690 90 1626 90 
C 1306 90 1050 282 902 518 
C 710 826 710 1248 710 1478 
L 2496 1478 
C 2637 1478 2656 1478 2656 1613 
C 2656 2246 2310 2867 1510 2867 
C 768 2867 179 2208 179 1408 
z
M 717 1613 
C 755 2566 1293 2726 1510 2726 
C 2170 2726 2234 1862 2234 1613 
L 717 1613 
z
" transform="scale(0.015625)"/>
       <path id="CMUSerif-Roman-72" d="M 179 0 
C 429 6 730 19 909 19 
C 1165 19 1466 19 1722 0 
L 1722 198 
L 1587 198 
C 1114 198 1101 269 1101 499 
L 1101 1485 
C 1101 2118 1370 2688 1856 2688 
C 1901 2688 1914 2688 1926 2682 
C 1907 2675 1779 2598 1779 2432 
C 1779 2253 1914 2157 2054 2157 
C 2170 2157 2330 2234 2330 2438 
C 2330 2643 2131 2829 1856 2829 
C 1389 2829 1158 2400 1069 2125 
L 1069 2829 
L 179 2758 
L 179 2560 
C 627 2560 678 2515 678 2202 
L 678 486 
C 678 198 608 198 179 198 
L 179 0 
z
" transform="scale(0.015625)"/>
       <path id="CMUSerif-Roman-6e" d="M 205 0 
C 429 6 755 19 928 19 
C 1094 19 1427 6 1645 0 
L 1645 198 
C 1216 198 1146 198 1146 486 
L 1146 1664 
C 1146 2330 1600 2688 2010 2688 
C 2413 2688 2483 2342 2483 1978 
L 2483 486 
C 2483 198 2413 198 1984 198 
L 1984 0 
C 2208 6 2534 19 2707 19 
C 2874 19 3206 6 3424 0 
L 3424 198 
C 3091 198 2931 198 2925 390 
L 2925 1613 
C 2925 2163 2925 2362 2726 2592 
C 2637 2701 2426 2829 2054 2829 
C 1587 2829 1286 2554 1107 2157 
L 1107 2829 
L 205 2758 
L 205 2560 
C 653 2560 704 2515 704 2202 
L 704 486 
C 704 198 634 198 205 198 
L 205 0 
z
" transform="scale(0.015625)"/>
       <path id="CMUSerif-Roman-61" d="M 269 608 
C 269 90 890 -70 1293 -70 
C 1715 -70 2010 186 2131 486 
C 2157 230 2330 -38 2630 -38 
C 2765 -38 3155 51 3155 570 
L 3155 928 
L 2995 928 
L 2995 570 
C 2995 198 2835 160 2765 160 
C 2554 160 2528 448 2528 480 
L 2528 1760 
C 2528 2029 2528 2278 2298 2515 
C 2048 2765 1728 2867 1421 2867 
C 896 2867 454 2566 454 2144 
C 454 1952 582 1843 749 1843 
C 928 1843 1043 1971 1043 2138 
C 1043 2214 1011 2426 717 2432 
C 890 2656 1203 2726 1408 2726 
C 1722 2726 2086 2477 2086 1907 
L 2086 1670 
C 1760 1651 1312 1632 909 1440 
C 429 1222 269 890 269 608 
z
M 762 614 
C 762 966 1030 1498 2086 1536 
L 2086 896 
C 2086 288 1626 70 1338 70 
C 1024 70 762 294 762 614 
z
" transform="scale(0.015625)"/>
       <path id="CMUSerif-Roman-6c" d="M 211 0 
C 422 6 762 19 922 19 
C 1082 19 1395 6 1632 0 
L 1632 198 
C 1203 198 1133 198 1133 486 
L 1133 4442 
L 211 4371 
L 211 4173 
C 659 4173 710 4128 710 3814 
L 710 486 
C 710 198 640 198 211 198 
L 211 0 
z
" transform="scale(0.015625)"/>
       <path id="CMUSerif-Roman-4d" d="M 237 0 
C 461 6 774 19 986 19 
C 1197 19 1510 6 1734 0 
L 1734 198 
C 1075 198 1075 499 1075 672 
L 1075 4122 
L 1082 4122 
L 2624 141 
C 2656 58 2688 0 2752 0 
C 2822 0 2842 51 2867 122 
L 4442 4173 
L 4448 4173 
L 4448 499 
C 4448 269 4435 198 3942 198 
L 3789 198 
L 3789 0 
C 4026 19 4461 19 4710 19 
C 4960 19 5389 19 5626 0 
L 5626 198 
L 5472 198 
C 4979 198 4966 269 4966 499 
L 4966 3872 
C 4966 4102 4979 4173 5472 4173 
L 5626 4173 
L 5626 4371 
L 4544 4371 
C 4378 4371 4378 4365 4333 4250 
L 2931 646 
L 1542 4230 
C 1485 4371 1466 4371 1318 4371 
L 237 4371 
L 237 4173 
L 390 4173 
C 883 4173 896 4102 896 3872 
L 896 672 
C 896 499 896 198 237 198 
L 237 0 
z
" transform="scale(0.015625)"/>
       <path id="CMUSerif-Roman-67" d="M 179 -506 
C 179 -966 813 -1318 1594 -1318 
C 2349 -1318 3014 -992 3014 -493 
C 3014 -269 2925 58 2598 237 
C 2259 416 1888 416 1498 416 
C 1338 416 1062 416 1018 422 
C 813 448 678 646 678 851 
C 678 877 678 1024 787 1152 
C 1037 973 1299 954 1421 954 
C 2016 954 2458 1395 2458 1888 
C 2458 2125 2355 2362 2195 2509 
C 2426 2726 2656 2758 2771 2758 
C 2784 2758 2816 2758 2835 2752 
C 2765 2726 2733 2656 2733 2579 
C 2733 2470 2816 2394 2918 2394 
C 2982 2394 3104 2438 3104 2586 
C 3104 2694 3027 2899 2778 2899 
C 2650 2899 2368 2861 2099 2598 
C 1830 2810 1562 2829 1421 2829 
C 826 2829 384 2387 384 1894 
C 384 1613 525 1370 685 1235 
C 602 1139 486 928 486 704 
C 486 506 570 262 768 134 
C 384 26 179 -250 179 -506 
z
M 512 -506 
C 512 -211 755 26 1037 45 
L 1414 45 
C 1965 45 2682 45 2682 -506 
C 2682 -851 2227 -1171 1600 -1171 
C 954 -1171 512 -845 512 -506 
z
M 864 1888 
C 864 2061 870 2266 966 2426 
C 1018 2502 1165 2682 1421 2682 
C 1978 2682 1978 2042 1978 1894 
C 1978 1722 1971 1517 1875 1357 
C 1824 1280 1677 1101 1421 1101 
C 864 1101 864 1741 864 1888 
z
" transform="scale(0.015625)"/>
       <path id="CMUSerif-Roman-69" d="M 480 3942 
C 480 3770 621 3603 819 3603 
C 998 3603 1158 3738 1158 3942 
C 1158 4147 998 4282 819 4282 
C 621 4282 480 4109 480 3942 
z
M 211 0 
C 416 6 762 19 915 19 
C 1139 19 1363 6 1581 0 
L 1581 198 
C 1158 198 1133 230 1133 480 
L 1133 2829 
L 237 2758 
L 237 2560 
C 653 2560 710 2522 710 2208 
L 710 486 
C 710 198 640 198 211 198 
L 211 0 
z
" transform="scale(0.015625)"/>
       <path id="CMUSerif-Roman-63" d="M 218 1382 
C 218 563 851 -70 1594 -70 
C 2451 -70 2656 698 2656 762 
C 2656 826 2592 826 2573 826 
C 2515 826 2502 800 2490 762 
C 2304 166 1888 90 1651 90 
C 1312 90 749 365 749 1395 
C 749 2438 1274 2707 1613 2707 
C 1670 2707 2074 2701 2298 2470 
C 2035 2451 1997 2259 1997 2176 
C 1997 2010 2112 1882 2291 1882 
C 2458 1882 2586 1990 2586 2182 
C 2586 2618 2099 2867 1606 2867 
C 806 2867 218 2176 218 1382 
z
" transform="scale(0.015625)"/>
       <path id="CMUSerif-Roman-46" d="M 211 0 
C 435 19 934 19 1184 19 
C 1446 19 2029 19 2259 0 
L 2259 198 
L 2048 198 
C 1440 198 1440 282 1440 506 
L 1440 2080 
L 1990 2080 
C 2605 2080 2669 1875 2669 1331 
L 2829 1331 
L 2829 3027 
L 2669 3027 
C 2669 2490 2605 2278 1990 2278 
L 1440 2278 
L 1440 3898 
C 1440 4109 1453 4154 1754 4154 
L 2522 4154 
C 3482 4154 3642 3795 3744 2912 
L 3904 2912 
L 3725 4352 
L 211 4352 
L 211 4154 
L 365 4154 
C 858 4154 870 4083 870 3853 
L 870 499 
C 870 269 858 198 365 198 
L 211 198 
L 211 0 
z
" transform="scale(0.015625)"/>
       <path id="CMUSerif-Roman-64" d="M 218 1376 
C 218 563 845 -70 1574 -70 
C 1984 -70 2272 147 2432 352 
L 2432 -70 
L 3373 0 
L 3373 198 
C 2925 198 2874 243 2874 557 
L 2874 4442 
L 1952 4371 
L 1952 4173 
C 2400 4173 2451 4128 2451 3814 
L 2451 2432 
C 2266 2662 1990 2829 1645 2829 
C 890 2829 218 2202 218 1376 
z
M 749 1370 
C 749 1606 762 1990 947 2278 
C 1082 2477 1325 2688 1670 2688 
C 1894 2688 2163 2592 2362 2304 
C 2432 2195 2432 2182 2432 2067 
L 2432 755 
C 2432 640 2432 627 2362 518 
C 2170 211 1882 70 1606 70 
C 1318 70 1088 237 934 480 
C 768 742 749 1107 749 1370 
z
" transform="scale(0.015625)"/>
       <path id="CMUSerif-Roman-5b" d="M 666 -1600 
L 1632 -1600 
L 1632 -1453 
L 1094 -1453 
L 1094 4653 
L 1632 4653 
L 1632 4800 
L 666 4800 
L 666 -1600 
z
" transform="scale(0.015625)"/>
       <path id="CMUSerif-Roman-54" d="M 230 2893 
L 390 2893 
C 480 3923 576 4134 1542 4134 
C 1658 4134 1824 4134 1888 4122 
C 2022 4096 2022 4026 2022 3878 
L 2022 506 
C 2022 288 2022 198 1350 198 
L 1094 198 
L 1094 0 
C 1357 19 2010 19 2304 19 
C 2598 19 3258 19 3520 0 
L 3520 198 
L 3264 198 
C 2592 198 2592 288 2592 506 
L 2592 3878 
C 2592 4006 2592 4096 2707 4122 
C 2778 4134 2950 4134 3072 4134 
C 4038 4134 4134 3923 4224 2893 
L 4384 2893 
L 4262 4333 
L 352 4333 
L 230 2893 
z
" transform="scale(0.015625)"/>
       <path id="CMUSerif-Roman-5d" d="M 134 -1453 
L 134 -1600 
L 1101 -1600 
L 1101 4800 
L 134 4800 
L 134 4653 
L 672 4653 
L 672 -1453 
L 134 -1453 
z
" transform="scale(0.015625)"/>
      </defs>
      <use xlink:href="#CMUSerif-Roman-48"/>
      <use xlink:href="#CMUSerif-Roman-3a" transform="translate(74.999985 0)"/>
      <use xlink:href="#CMUSerif-Roman-20" transform="translate(102.699982 0)"/>
      <use xlink:href="#CMUSerif-Roman-45" transform="translate(135.999969 0)"/>
      <use xlink:href="#CMUSerif-Roman-78" transform="translate(203.999954 0)"/>
      <use xlink:href="#CMUSerif-Roman-74" transform="translate(256.699951 0)"/>
      <use xlink:href="#CMUSerif-Roman-65" transform="translate(295.499939 0)"/>
      <use xlink:href="#CMUSerif-Roman-72" transform="translate(339.899933 0)"/>
      <use xlink:href="#CMUSerif-Roman-6e" transform="translate(378.999924 0)"/>
      <use xlink:href="#CMUSerif-Roman-61" transform="translate(434.499908 0)"/>
      <use xlink:href="#CMUSerif-Roman-6c" transform="translate(484.499893 0)"/>
      <use xlink:href="#CMUSerif-Roman-20" transform="translate(512.19989 0)"/>
      <use xlink:href="#CMUSerif-Roman-4d" transform="translate(545.499878 0)"/>
      <use xlink:href="#CMUSerif-Roman-61" transform="translate(637.099869 0)"/>
      <use xlink:href="#CMUSerif-Roman-67" transform="translate(687.099854 0)"/>
      <use xlink:href="#CMUSerif-Roman-6e" transform="translate(737.099838 0)"/>
      <use xlink:href="#CMUSerif-Roman-65" transform="translate(792.599823 0)"/>
      <use xlink:href="#CMUSerif-Roman-74" transform="translate(836.999817 0)"/>
      <use xlink:href="#CMUSerif-Roman-69" transform="translate(875.799805 0)"/>
      <use xlink:href="#CMUSerif-Roman-63" transform="translate(903.499802 0)"/>
      <use xlink:href="#CMUSerif-Roman-20" transform="translate(947.899796 0)"/>
      <use xlink:href="#CMUSerif-Roman-46" transform="translate(981.199783 0)"/>
      <use xlink:href="#CMUSerif-Roman-69" transform="translate(1046.39978 0)"/>
      <use xlink:href="#CMUSerif-Roman-65" transform="translate(1074.099777 0)"/>
      <use xlink:href="#CMUSerif-Roman-6c" transform="translate(1118.499771 0)"/>
      <use xlink:href="#CMUSerif-Roman-64" transform="translate(1146.199768 0)"/>
      <use xlink:href="#CMUSerif-Roman-20" transform="translate(1201.699753 0)"/>
      <use xlink:href="#CMUSerif-Roman-5b" transform="translate(1234.999741 0)"/>
      <use xlink:href="#CMUSerif-Roman-54" transform="translate(1262.799728 0)"/>
      <use xlink:href="#CMUSerif-Roman-5d" transform="translate(1334.99971 0)"/>
     </g>
    </g>
   </g>
   <g id="matplotlib.axis_2">
    <g id="ytick_1">
     <g id="line2d_8">
      <defs>
       <path id="me225327b01" d="M 0 0 
L -3.5 0 
" style="stroke: #000000; stroke-width: 0.8"/>
      </defs>
      <g>
       <use xlink:href="#me225327b01" x="72.984013" y="589.6375" style="stroke: #000000; stroke-width: 0.8"/>
      </g>
     </g>
     <g id="text_9">
      <!-- $\mathdefault{10^{2}}$ -->
      <g transform="translate(41.144013 595.884063) scale(0.18 -0.18)">
       <use xlink:href="#CMUSerif-Roman-31" transform="translate(0 0.21875)"/>
       <use xlink:href="#CMUSerif-Roman-30" transform="translate(49.999985 0.21875)"/>
       <use xlink:href="#CMUSerif-Roman-32" transform="translate(100.75411 30.384375) scale(0.7)"/>
      </g>
     </g>
    </g>
    <g id="ytick_2">
     <g id="line2d_9">
      <g>
       <use xlink:href="#me225327b01" x="72.984013" y="303.72875" style="stroke: #000000; stroke-width: 0.8"/>
      </g>
     </g>
     <g id="text_10">
      <!-- $\mathdefault{10^{3}}$ -->
      <g transform="translate(41.144013 309.975313) scale(0.18 -0.18)">
       <use xlink:href="#CMUSerif-Roman-31" transform="translate(0 0.21875)"/>
       <use xlink:href="#CMUSerif-Roman-30" transform="translate(49.999985 0.21875)"/>
       <use xlink:href="#CMUSerif-Roman-33" transform="translate(100.75411 30.384375) scale(0.7)"/>
      </g>
     </g>
    </g>
    <g id="ytick_3">
     <g id="line2d_10">
      <g>
       <use xlink:href="#me225327b01" x="72.984013" y="17.82" style="stroke: #000000; stroke-width: 0.8"/>
      </g>
     </g>
     <g id="text_11">
      <!-- $\mathdefault{10^{4}}$ -->
      <g transform="translate(41.144013 24.066563) scale(0.18 -0.18)">
       <defs>
        <path id="CMUSerif-Roman-34" d="M 179 1056 
L 1882 1056 
L 1882 499 
C 1882 269 1869 198 1395 198 
L 1261 198 
L 1261 0 
C 1523 19 1856 19 2125 19 
C 2394 19 2733 19 2995 0 
L 2995 198 
L 2861 198 
C 2387 198 2374 269 2374 499 
L 2374 1056 
L 3014 1056 
L 3014 1254 
L 2374 1254 
L 2374 4166 
C 2374 4294 2374 4333 2272 4333 
C 2214 4333 2195 4333 2144 4256 
L 179 1254 
L 179 1056 
z
M 358 1254 
L 1920 3642 
L 1920 1254 
L 358 1254 
z
" transform="scale(0.015625)"/>
       </defs>
       <use xlink:href="#CMUSerif-Roman-31" transform="translate(0 0.442188)"/>
       <use xlink:href="#CMUSerif-Roman-30" transform="translate(49.999985 0.442188)"/>
       <use xlink:href="#CMUSerif-Roman-34" transform="translate(100.75411 30.607813) scale(0.7)"/>
      </g>
     </g>
    </g>
    <g id="ytick_4">
     <g id="line2d_11">
      <defs>
       <path id="m1edba5dba2" d="M 0 0 
L -2 0 
" style="stroke: #000000; stroke-width: 0.6"/>
      </defs>
      <g>
       <use xlink:href="#m1edba5dba2" x="72.984013" y="503.57039" style="stroke: #000000; stroke-width: 0.6"/>
      </g>
     </g>
    </g>
    <g id="ytick_5">
     <g id="line2d_12">
      <g>
       <use xlink:href="#m1edba5dba2" x="72.984013" y="453.224358" style="stroke: #000000; stroke-width: 0.6"/>
      </g>
     </g>
    </g>
    <g id="ytick_6">
     <g id="line2d_13">
      <g>
       <use xlink:href="#m1edba5dba2" x="72.984013" y="417.50328" style="stroke: #000000; stroke-width: 0.6"/>
      </g>
     </g>
    </g>
    <g id="ytick_7">
     <g id="line2d_14">
      <g>
       <use xlink:href="#m1edba5dba2" x="72.984013" y="389.79586" style="stroke: #000000; stroke-width: 0.6"/>
      </g>
     </g>
    </g>
    <g id="ytick_8">
     <g id="line2d_15">
      <g>
       <use xlink:href="#m1edba5dba2" x="72.984013" y="367.157249" style="stroke: #000000; stroke-width: 0.6"/>
      </g>
     </g>
    </g>
    <g id="ytick_9">
     <g id="line2d_16">
      <g>
       <use xlink:href="#m1edba5dba2" x="72.984013" y="348.016576" style="stroke: #000000; stroke-width: 0.6"/>
      </g>
     </g>
    </g>
    <g id="ytick_10">
     <g id="line2d_17">
      <g>
       <use xlink:href="#m1edba5dba2" x="72.984013" y="331.436171" style="stroke: #000000; stroke-width: 0.6"/>
      </g>
     </g>
    </g>
    <g id="ytick_11">
     <g id="line2d_18">
      <g>
       <use xlink:href="#m1edba5dba2" x="72.984013" y="316.811217" style="stroke: #000000; stroke-width: 0.6"/>
      </g>
     </g>
    </g>
    <g id="ytick_12">
     <g id="line2d_19">
      <g>
       <use xlink:href="#m1edba5dba2" x="72.984013" y="217.66164" style="stroke: #000000; stroke-width: 0.6"/>
      </g>
     </g>
    </g>
    <g id="ytick_13">
     <g id="line2d_20">
      <g>
       <use xlink:href="#m1edba5dba2" x="72.984013" y="167.315608" style="stroke: #000000; stroke-width: 0.6"/>
      </g>
     </g>
    </g>
    <g id="ytick_14">
     <g id="line2d_21">
      <g>
       <use xlink:href="#m1edba5dba2" x="72.984013" y="131.59453" style="stroke: #000000; stroke-width: 0.6"/>
      </g>
     </g>
    </g>
    <g id="ytick_15">
     <g id="line2d_22">
      <g>
       <use xlink:href="#m1edba5dba2" x="72.984013" y="103.88711" style="stroke: #000000; stroke-width: 0.6"/>
      </g>
     </g>
    </g>
    <g id="ytick_16">
     <g id="line2d_23">
      <g>
       <use xlink:href="#m1edba5dba2" x="72.984013" y="81.248499" style="stroke: #000000; stroke-width: 0.6"/>
      </g>
     </g>
    </g>
    <g id="ytick_17">
     <g id="line2d_24">
      <g>
       <use xlink:href="#m1edba5dba2" x="72.984013" y="62.107826" style="stroke: #000000; stroke-width: 0.6"/>
      </g>
     </g>
    </g>
    <g id="ytick_18">
     <g id="line2d_25">
      <g>
       <use xlink:href="#m1edba5dba2" x="72.984013" y="45.527421" style="stroke: #000000; stroke-width: 0.6"/>
      </g>
     </g>
    </g>
    <g id="ytick_19">
     <g id="line2d_26">
      <g>
       <use xlink:href="#m1edba5dba2" x="72.984013" y="30.902467" style="stroke: #000000; stroke-width: 0.6"/>
      </g>
     </g>
    </g>
    <g id="text_12">
     <!-- $\mathrm{J_e}$(4.2 K): engineering current density [A/mm$^\mathrm{2}$] -->
     <g transform="translate(32.144013 512.62875) rotate(-90) scale(0.2 -0.2)">
      <defs>
       <path id="Cmr10-4a" d="M 581 359 
Q 697 197 881 111 
Q 1066 25 1275 25 
Q 1481 25 1623 167 
Q 1766 309 1836 520 
Q 1906 731 1906 928 
L 1906 3944 
Q 1906 4147 1050 4147 
L 1050 4372 
L 2975 4372 
L 2975 4147 
Q 2759 4147 2621 4112 
Q 2484 4078 2484 3944 
L 2484 903 
Q 2484 597 2307 359 
Q 2131 122 1851 -9 
Q 1572 -141 1275 -141 
Q 1016 -141 778 -36 
Q 541 69 389 267 
Q 238 466 238 728 
Q 238 888 344 994 
Q 450 1100 609 1100 
Q 713 1100 797 1051 
Q 881 1003 929 915 
Q 978 828 978 728 
Q 978 572 872 465 
Q 766 359 609 359 
L 581 359 
z
" transform="scale(0.015625)"/>
       <path id="Cmr10-65" d="M 1594 -72 
Q 1203 -72 876 133 
Q 550 338 364 680 
Q 178 1022 178 1403 
Q 178 1778 348 2115 
Q 519 2453 823 2661 
Q 1128 2869 1503 2869 
Q 1797 2869 2014 2770 
Q 2231 2672 2372 2497 
Q 2513 2322 2584 2084 
Q 2656 1847 2656 1563 
Q 2656 1478 2591 1478 
L 738 1478 
L 738 1409 
Q 738 878 952 497 
Q 1166 116 1650 116 
Q 1847 116 2014 203 
Q 2181 291 2304 447 
Q 2428 603 2472 781 
Q 2478 803 2495 820 
Q 2513 838 2534 838 
L 2591 838 
Q 2656 838 2656 756 
Q 2566 394 2266 161 
Q 1966 -72 1594 -72 
z
M 744 1638 
L 2203 1638 
Q 2203 1878 2136 2125 
Q 2069 2372 1912 2536 
Q 1756 2700 1503 2700 
Q 1141 2700 942 2361 
Q 744 2022 744 1638 
z
" transform="scale(0.015625)"/>
       <path id="CMUSerif-Roman-28" d="M 634 1600 
C 634 1101 704 326 1056 -397 
C 1440 -1184 1990 -1600 2054 -1600 
C 2093 -1600 2118 -1581 2118 -1536 
C 2118 -1517 2118 -1504 2010 -1395 
C 1210 -589 1005 621 1005 1600 
C 1005 2714 1248 3827 2035 4627 
C 2118 4704 2118 4717 2118 4736 
C 2118 4781 2093 4800 2054 4800 
C 1990 4800 1414 4365 1037 3552 
C 710 2848 634 2138 634 1600 
z
" transform="scale(0.015625)"/>
       <path id="CMUSerif-Roman-2e" d="M 544 339 
C 544 166 685 0 883 0 
C 1050 0 1216 141 1216 339 
C 1216 538 1062 672 883 672 
C 685 672 544 512 544 339 
z
" transform="scale(0.015625)"/>
       <path id="CMUSerif-Roman-4b" d="M 211 0 
C 435 19 909 19 1152 19 
C 1395 19 1875 19 2099 0 
L 2099 198 
L 1946 198 
C 1453 198 1440 269 1440 499 
L 1440 1619 
L 2182 2323 
L 3341 608 
C 3379 550 3437 467 3437 390 
C 3437 198 3187 198 3059 198 
L 3059 0 
C 3283 19 3731 19 3974 19 
C 4198 19 4442 13 4710 0 
L 4710 198 
C 4365 198 4230 224 4038 506 
L 2560 2682 
L 3712 3789 
C 3763 3840 4102 4166 4621 4173 
L 4621 4371 
C 4454 4352 4250 4352 4077 4352 
C 3846 4352 3482 4352 3264 4371 
L 3264 4173 
C 3520 4166 3558 4019 3558 3962 
C 3558 3859 3494 3795 3443 3750 
L 1440 1837 
L 1440 3872 
C 1440 4102 1453 4173 1946 4173 
L 2099 4173 
L 2099 4371 
C 1875 4352 1402 4352 1158 4352 
C 915 4352 435 4352 211 4371 
L 211 4173 
L 365 4173 
C 858 4173 870 4102 870 3872 
L 870 499 
C 870 269 858 198 365 198 
L 211 198 
L 211 0 
z
" transform="scale(0.015625)"/>
       <path id="CMUSerif-Roman-29" d="M 365 -1536 
C 365 -1574 390 -1600 429 -1600 
C 493 -1600 1069 -1165 1446 -352 
C 1773 352 1850 1062 1850 1600 
C 1850 2099 1779 2874 1427 3597 
C 1043 4384 493 4800 429 4800 
C 390 4800 365 4774 365 4736 
C 365 4717 365 4704 486 4589 
C 1114 3955 1478 2938 1478 1600 
C 1478 506 1242 -621 448 -1427 
C 365 -1504 365 -1517 365 -1536 
z
" transform="scale(0.015625)"/>
       <path id="CMUSerif-Roman-75" d="M 205 2560 
C 704 2560 704 2541 704 1971 
L 704 1011 
C 704 512 704 -70 1677 -70 
C 2035 -70 2317 109 2502 506 
L 2502 -70 
L 3424 0 
L 3424 198 
C 2976 198 2925 243 2925 557 
L 2925 2829 
L 1984 2758 
L 1984 2560 
C 2432 2560 2483 2515 2483 2202 
L 2483 1062 
C 2483 506 2176 70 1709 70 
C 1171 70 1146 371 1146 704 
L 1146 2829 
L 205 2758 
L 205 2560 
z
" transform="scale(0.015625)"/>
       <path id="CMUSerif-Roman-73" d="M 211 83 
C 211 -26 211 -70 282 -70 
C 314 -70 320 -64 442 58 
C 454 70 454 83 570 205 
C 851 -64 1139 -70 1274 -70 
C 2010 -70 2304 358 2304 819 
C 2304 1158 2112 1350 2035 1427 
C 1824 1632 1574 1683 1306 1734 
C 947 1805 518 1888 518 2259 
C 518 2483 685 2746 1235 2746 
C 1939 2746 1971 2170 1984 1971 
C 1990 1914 2048 1914 2061 1914 
C 2144 1914 2144 1946 2144 2067 
L 2144 2714 
C 2144 2822 2144 2867 2074 2867 
C 2042 2867 2029 2867 1946 2790 
C 1926 2765 1862 2707 1837 2688 
C 1594 2867 1331 2867 1235 2867 
C 454 2867 211 2438 211 2080 
C 211 1856 314 1677 486 1536 
C 691 1370 870 1331 1331 1242 
C 1472 1216 1997 1114 1997 653 
C 1997 326 1773 70 1274 70 
C 736 70 506 435 384 979 
C 365 1062 358 1088 294 1088 
C 211 1088 211 1043 211 928 
L 211 83 
z
" transform="scale(0.015625)"/>
       <path id="CMUSerif-Roman-79" d="M 122 -794 
C 122 -1082 390 -1312 710 -1312 
C 1114 -1312 1376 -947 1530 -582 
L 2656 2150 
C 2822 2554 3149 2560 3251 2560 
L 3251 2758 
C 3104 2746 2918 2739 2771 2739 
C 2656 2739 2355 2752 2214 2758 
L 2214 2560 
C 2413 2554 2515 2445 2515 2285 
C 2515 2221 2509 2208 2477 2131 
L 1830 557 
L 1120 2278 
C 1094 2342 1082 2368 1082 2394 
C 1082 2560 1318 2560 1440 2560 
L 1440 2758 
C 1274 2752 851 2739 742 2739 
C 570 2739 314 2746 122 2758 
L 122 2560 
C 429 2560 550 2560 640 2336 
L 1600 0 
C 1568 -83 1478 -294 1440 -378 
C 1299 -730 1120 -1171 710 -1171 
C 678 -1171 531 -1171 410 -1056 
C 608 -1030 659 -890 659 -787 
C 659 -621 538 -518 390 -518 
C 262 -518 122 -602 122 -794 
z
" transform="scale(0.015625)"/>
       <path id="CMUSerif-Roman-41" d="M 205 0 
C 352 6 627 19 858 19 
C 1056 19 1389 6 1594 0 
L 1594 198 
C 1274 198 1114 358 1114 525 
C 1114 544 1120 608 1126 621 
L 1421 1459 
L 3002 1459 
L 3341 480 
C 3347 454 3360 416 3360 390 
C 3360 198 3002 198 2829 198 
L 2829 0 
C 3059 19 3507 19 3750 19 
C 4026 19 4320 13 4589 0 
L 4589 198 
L 4474 198 
C 4090 198 4000 243 3930 454 
L 2547 4454 
C 2515 4538 2502 4582 2400 4582 
C 2298 4582 2278 4544 2246 4454 
L 922 627 
C 806 301 550 205 205 198 
L 205 0 
z
M 1491 1658 
L 2208 3738 
L 2931 1658 
L 1491 1658 
z
" transform="scale(0.015625)"/>
       <path id="CMUSerif-Roman-2f" d="M 365 -1510 
C 365 -1549 384 -1587 422 -1587 
C 474 -1587 493 -1555 544 -1414 
L 2810 4627 
C 2816 4653 2829 4685 2829 4710 
C 2829 4762 2790 4787 2765 4787 
C 2694 4787 2669 4672 2650 4627 
L 390 -1408 
C 365 -1478 365 -1491 365 -1510 
z
" transform="scale(0.015625)"/>
       <path id="CMUSerif-Roman-6d" d="M 205 0 
C 429 6 755 19 928 19 
C 1094 19 1427 6 1645 0 
L 1645 198 
C 1216 198 1146 198 1146 486 
L 1146 1664 
C 1146 2330 1600 2688 2010 2688 
C 2413 2688 2483 2342 2483 1978 
L 2483 486 
C 2483 198 2413 198 1984 198 
L 1984 0 
C 2208 6 2534 19 2707 19 
C 2874 19 3206 6 3424 0 
L 3424 198 
C 2995 198 2925 198 2925 486 
L 2925 1664 
C 2925 2330 3379 2688 3789 2688 
C 4192 2688 4262 2342 4262 1978 
L 4262 486 
C 4262 198 4192 198 3763 198 
L 3763 0 
C 3987 6 4314 19 4486 19 
C 4653 19 4986 6 5203 0 
L 5203 198 
C 4870 198 4710 198 4704 390 
L 4704 1613 
C 4704 2163 4704 2362 4506 2592 
C 4416 2701 4205 2829 3834 2829 
C 3296 2829 3014 2445 2906 2202 
C 2816 2758 2342 2829 2054 2829 
C 1587 2829 1286 2554 1107 2157 
L 1107 2829 
L 205 2758 
L 205 2560 
C 653 2560 704 2515 704 2202 
L 704 486 
C 704 198 634 198 205 198 
L 205 0 
z
" transform="scale(0.015625)"/>
       <path id="Cmr10-32" d="M 319 0 
L 319 172 
Q 319 188 331 206 
L 1325 1306 
Q 1550 1550 1690 1715 
Q 1831 1881 1968 2097 
Q 2106 2313 2186 2536 
Q 2266 2759 2266 3009 
Q 2266 3272 2169 3511 
Q 2072 3750 1880 3894 
Q 1688 4038 1416 4038 
Q 1138 4038 916 3870 
Q 694 3703 603 3438 
Q 628 3444 672 3444 
Q 816 3444 917 3347 
Q 1019 3250 1019 3097 
Q 1019 2950 917 2848 
Q 816 2747 672 2747 
Q 522 2747 420 2851 
Q 319 2956 319 3097 
Q 319 3338 409 3548 
Q 500 3759 670 3923 
Q 841 4088 1055 4175 
Q 1269 4263 1509 4263 
Q 1875 4263 2190 4108 
Q 2506 3953 2690 3670 
Q 2875 3388 2875 3009 
Q 2875 2731 2753 2481 
Q 2631 2231 2440 2026 
Q 2250 1822 1953 1562 
Q 1656 1303 1563 1216 
L 838 519 
L 1453 519 
Q 1906 519 2211 526 
Q 2516 534 2534 550 
Q 2609 631 2688 1141 
L 2875 1141 
L 2694 0 
L 319 0 
z
" transform="scale(0.015625)"/>
      </defs>
      <use xlink:href="#Cmr10-4a" transform="translate(0 0.109375)"/>
      <use xlink:href="#Cmr10-65" transform="translate(55.885859 -17.290625) scale(0.7)"/>
      <use xlink:href="#CMUSerif-Roman-28" transform="translate(93.480195 0.109375)"/>
      <use xlink:href="#CMUSerif-Roman-34" transform="translate(132.280183 0.109375)"/>
      <use xlink:href="#CMUSerif-Roman-2e" transform="translate(182.280168 0.109375)"/>
      <use xlink:href="#CMUSerif-Roman-32" transform="translate(210.080156 0.109375)"/>
      <use xlink:href="#CMUSerif-Roman-20" transform="translate(260.08014 0.109375)"/>
      <use xlink:href="#CMUSerif-Roman-4b" transform="translate(293.380128 0.109375)"/>
      <use xlink:href="#CMUSerif-Roman-29" transform="translate(371.08011 0.109375)"/>
      <use xlink:href="#CMUSerif-Roman-3a" transform="translate(409.880098 0.109375)"/>
      <use xlink:href="#CMUSerif-Roman-20" transform="translate(437.580095 0.109375)"/>
      <use xlink:href="#CMUSerif-Roman-65" transform="translate(470.880082 0.109375)"/>
      <use xlink:href="#CMUSerif-Roman-6e" transform="translate(515.280076 0.109375)"/>
      <use xlink:href="#CMUSerif-Roman-67" transform="translate(570.780061 0.109375)"/>
      <use xlink:href="#CMUSerif-Roman-69" transform="translate(620.780046 0.109375)"/>
      <use xlink:href="#CMUSerif-Roman-6e" transform="translate(648.480043 0.109375)"/>
      <use xlink:href="#CMUSerif-Roman-65" transform="translate(703.980027 0.109375)"/>
      <use xlink:href="#CMUSerif-Roman-65" transform="translate(748.380021 0.109375)"/>
      <use xlink:href="#CMUSerif-Roman-72" transform="translate(792.780015 0.109375)"/>
      <use xlink:href="#CMUSerif-Roman-69" transform="translate(831.880006 0.109375)"/>
      <use xlink:href="#CMUSerif-Roman-6e" transform="translate(859.580003 0.109375)"/>
      <use xlink:href="#CMUSerif-Roman-67" transform="translate(915.079988 0.109375)"/>
      <use xlink:href="#CMUSerif-Roman-20" transform="translate(965.079973 0.109375)"/>
      <use xlink:href="#CMUSerif-Roman-63" transform="translate(998.37996 0.109375)"/>
      <use xlink:href="#CMUSerif-Roman-75" transform="translate(1042.779954 0.109375)"/>
      <use xlink:href="#CMUSerif-Roman-72" transform="translate(1098.279939 0.109375)"/>
      <use xlink:href="#CMUSerif-Roman-72" transform="translate(1137.37993 0.109375)"/>
      <use xlink:href="#CMUSerif-Roman-65" transform="translate(1176.479921 0.109375)"/>
      <use xlink:href="#CMUSerif-Roman-6e" transform="translate(1220.879915 0.109375)"/>
      <use xlink:href="#CMUSerif-Roman-74" transform="translate(1276.379899 0.109375)"/>
      <use xlink:href="#CMUSerif-Roman-20" transform="translate(1315.179887 0.109375)"/>
      <use xlink:href="#CMUSerif-Roman-64" transform="translate(1348.479875 0.109375)"/>
      <use xlink:href="#CMUSerif-Roman-65" transform="translate(1403.97986 0.109375)"/>
      <use xlink:href="#CMUSerif-Roman-6e" transform="translate(1448.379854 0.109375)"/>
      <use xlink:href="#CMUSerif-Roman-73" transform="translate(1503.879838 0.109375)"/>
      <use xlink:href="#CMUSerif-Roman-69" transform="translate(1543.279832 0.109375)"/>
      <use xlink:href="#CMUSerif-Roman-74" transform="translate(1570.979829 0.109375)"/>
      <use xlink:href="#CMUSerif-Roman-79" transform="translate(1609.779817 0.109375)"/>
      <use xlink:href="#CMUSerif-Roman-20" transform="translate(1662.479814 0.109375)"/>
      <use xlink:href="#CMUSerif-Roman-5b" transform="translate(1695.779802 0.109375)"/>
      <use xlink:href="#CMUSerif-Roman-41" transform="translate(1723.579789 0.109375)"/>
      <use xlink:href="#CMUSerif-Roman-2f" transform="translate(1798.579774 0.109375)"/>
      <use xlink:href="#CMUSerif-Roman-6d" transform="translate(1848.579759 0.109375)"/>
      <use xlink:href="#CMUSerif-Roman-6d" transform="translate(1931.879747 0.109375)"/>
      <use xlink:href="#Cmr10-32" transform="translate(2019.643875 38.373438) scale(0.7)"/>
      <use xlink:href="#CMUSerif-Roman-5d" transform="translate(2061.021219 0.109375)"/>
     </g>
    </g>
   </g>
   <g id="line2d_27">
    <path d="M 649 446.045721 
L 646.989483 445.752174 
L 626.347516 441.130803 
L 591.414956 436.489729 
L 554.100631 431.845371 
L 535.840429 428.841666 
L 517.580227 426.163916 
L 480.265902 416.816611 
L 442.951577 408.72757 
L 407.225096 397.196034 
L 369.116849 386.809443 
L 350.856647 382.191355 
L 332.596445 376.42504 
L 311.160556 369.506119 
L 295.28212 362.59486 
L 276.227996 352.234538 
L 257.967795 344.171767 
L 239.707593 334.960768 
L 221.447391 324.601541 
L 202.393268 313.61804 
L 184.133066 301.585537 
L 165.872865 283.188715 
L 146.818741 259.049659 
L 128.558539 232.615241 
L 110.298338 196.995 
L 100.771276 170.572623 
L 91.244214 143.002018 
" clip-path="url(#p7949f990da)" style="fill: none; stroke: #0000ff; stroke-width: 6; stroke-linecap: round"/>
   </g>
   <g id="line2d_28">
    <path d="M 165.872865 113.250984 
L 190.484441 116.7296 
L 217.477782 120.2115 
L 243.677202 124.840533 
L 260.34956 129.015525 
L 278.609762 133.748874 
L 297.663885 137.545473 
L 317.511931 143.313977 
L 335.772132 146.783836 
L 350.856647 149.101089 
L 376.262145 156.025484 
L 400.873721 160.652328 
L 427.867063 167.280121 
L 450.096873 167.698051 
L 477.884137 173.215882 
L 515.992384 176.508619 
L 547.749256 180.187723 
L 576.330442 186.255322 
L 605.705549 187.536835 
L 640.638108 191.307924 
L 649 192.008905 
" clip-path="url(#p7949f990da)" style="fill: none; stroke: #0000ff; stroke-width: 6; stroke-linecap: round"/>
   </g>
   <g id="line2d_29">
    <path d="M 499.578501 649 
L 498.526104 643.042686 
L 479.47198 568.381601 
L 461.211779 509.796802 
L 442.951577 467.287194 
L 369.116849 338.58387 
L 359.589787 323.643773 
L 350.062725 308.703675 
L 341.329585 294.912899 
L 331.802523 283.417485 
L 313.542322 256.983067 
L 294.488198 233.992239 
" clip-path="url(#p7949f990da)" style="fill: none; stroke: #000000; stroke-width: 6; stroke-linecap: round"/>
   </g>
   <g id="patch_3">
    <path d="M 72.984013 589.6375 
L 72.984013 17.82 
" style="fill: none; stroke: #000000; stroke-width: 0.8; stroke-linejoin: miter; stroke-linecap: square"/>
   </g>
   <g id="patch_4">
    <path d="M 72.984013 589.6375 
L 628.2 589.6375 
" style="fill: none; stroke: #000000; stroke-width: 0.8; stroke-linejoin: miter; stroke-linecap: square"/>
   </g>
  </g>
 </g>
 <defs>
  <clipPath id="p7949f990da">
   <rect x="72.984013" y="17.82" width="555.215987" height="571.8175"/>
  </clipPath>
 </defs>
</svg>
