<?xml version="1.0" encoding="UTF-8" standalone="no"?>
<svg
   width="648pt"
   height="648pt"
   viewBox="0 0 648 648"
   version="1.1"
   id="svg220"
   sodipodi:docname="irradiated_wo_field_70K.svg"
   inkscape:version="1.3.2 (091e20e, 2023-11-25)"
   inkscape:export-filename="irradiated_wo_field_70K.png"
   inkscape:export-xdpi="96"
   inkscape:export-ydpi="96"
   xmlns:inkscape="http://www.inkscape.org/namespaces/inkscape"
   xmlns:sodipodi="http://sodipodi.sourceforge.net/DTD/sodipodi-0.dtd"
   xmlns:xlink="http://www.w3.org/1999/xlink"
   xmlns="http://www.w3.org/2000/svg"
   xmlns:svg="http://www.w3.org/2000/svg"
   xmlns:rdf="http://www.w3.org/1999/02/22-rdf-syntax-ns#"
   xmlns:cc="http://creativecommons.org/ns#"
   xmlns:dc="http://purl.org/dc/elements/1.1/">
  <sodipodi:namedview
     id="namedview220"
     pagecolor="#ffffff"
     bordercolor="#000000"
     borderopacity="0.25"
     inkscape:showpageshadow="2"
     inkscape:pageopacity="0.0"
     inkscape:pagecheckerboard="0"
     inkscape:deskcolor="#d1d1d1"
     inkscape:document-units="pt"
     inkscape:zoom="0.42374479"
     inkscape:cx="429.50381"
     inkscape:cy="488.50159"
     inkscape:window-width="1432"
     inkscape:window-height="797"
     inkscape:window-x="155"
     inkscape:window-y="89"
     inkscape:window-maximized="0"
     inkscape:current-layer="svg220" />
  <metadata
     id="metadata1">
    <rdf:RDF>
      <cc:Work>
        <dc:type
           rdf:resource="http://purl.org/dc/dcmitype/StillImage" />
        <dc:date>2025-09-01T18:46:29.365738</dc:date>
        <dc:format>image/svg+xml</dc:format>
        <dc:creator>
          <cc:Agent>
            <dc:title>Matplotlib v3.10.0, https://matplotlib.org/</dc:title>
          </cc:Agent>
        </dc:creator>
      </cc:Work>
    </rdf:RDF>
  </metadata>
  <defs
     id="defs1">
    <style
       type="text/css"
       id="style1">*{stroke-linejoin: round; stroke-linecap: butt}</style>
  </defs>
  <g
     id="figure_1">
    <g
       id="patch_1">
      <path
         d="M 0 648  L 648 648  L 648 0  L 0 0  z "
         style="fill: #ffffff"
         id="path1" />
    </g>
    <g
       id="axes_1">
      <g
         id="patch_2">
        <path
           d="M 87.788 569.79475  L 637.2 569.79475  L 637.2 14.280427  L 87.788 14.280427  z "
           style="fill: #ffffff"
           id="path2" />
      </g>
      <g
         id="matplotlib.axis_1">
        <g
           id="xtick_1">
          <g
             id="line2d_1">
            <defs
               id="defs2">
              <path
                 id="m1e0adc5cd9"
                 d="M 0 0  L 0 8  "
                 style="stroke: #000000; stroke-width: 2" />
            </defs>
            <g
               id="g2">
              <use
                 xlink:href="#m1e0adc5cd9"
                 x="87.788"
                 y="569.79475"
                 style="stroke: #000000; stroke-width: 2"
                 id="use2" />
            </g>
          </g>
          <g
             id="text_1">
            <!-- 0 -->
            <g
               transform="translate(81.788 597.95225) scale(0.24 -0.24)"
               id="g3">
              <defs
                 id="defs3">
                <path
                   id="CMUSerif-Roman-30"
                   d="M 250 2048  C 250 1568 275 992 538 506  C 813 -13 1280 -141 1594 -141  C 1939 -141 2426 -6 2707 602  C 2912 1043 2944 1542 2944 2048  C 2944 2560 2912 3072 2688 3546  C 2394 4160 1869 4262 1600 4262  C 1216 4262 749 4096 486 3501  C 282 3059 250 2560 250 2048  z M 781 2125  C 781 2534 781 2957 832 3302  C 954 4064 1434 4122 1594 4122  C 1805 4122 2227 4006 2349 3373  C 2413 3014 2413 2528 2413 2125  C 2413 1645 2413 1210 2342 800  C 2246 192 1882 0 1594 0  C 1344 0 966 160 851 774  C 781 1158 781 1747 781 2125  z "
                   transform="scale(0.015625)" />
              </defs>
              <use
                 xlink:href="#CMUSerif-Roman-30"
                 id="use3" />
            </g>
          </g>
        </g>
        <g
           id="xtick_2">
          <g
             id="line2d_2">
            <g
               id="g4">
              <use
                 xlink:href="#m1e0adc5cd9"
                 x="242.551944"
                 y="569.79475"
                 style="stroke: #000000; stroke-width: 2"
                 id="use4" />
            </g>
          </g>
          <g
             id="text_2">
            <!-- 2 -->
            <g
               transform="translate(236.551944 597.95225) scale(0.24 -0.24)"
               id="g5">
              <defs
                 id="defs4">
                <path
                   id="CMUSerif-Roman-32"
                   d="M 320 0  L 2694 0  L 2874 1114  L 2714 1114  C 2682 922 2637 640 2573 544  C 2528 493 2106 493 1965 493  L 813 493  L 1491 1152  C 2490 2035 2874 2381 2874 3021  C 2874 3750 2298 4262 1517 4262  C 794 4262 320 3674 320 3104  C 320 2746 640 2746 659 2746  C 768 2746 992 2822 992 3085  C 992 3251 877 3418 653 3418  C 602 3418 589 3418 570 3411  C 717 3827 1062 4064 1434 4064  C 2016 4064 2291 3546 2291 3021  C 2291 2509 1971 2003 1619 1606  L 390 237  C 320 166 320 154 320 0  z "
                   transform="scale(0.015625)" />
              </defs>
              <use
                 xlink:href="#CMUSerif-Roman-32"
                 id="use5" />
            </g>
          </g>
        </g>
        <g
           id="xtick_3">
          <g
             id="line2d_3">
            <g
               id="g6">
              <use
                 xlink:href="#m1e0adc5cd9"
                 x="397.315887"
                 y="569.79475"
                 style="stroke: #000000; stroke-width: 2"
                 id="use6" />
            </g>
          </g>
          <g
             id="text_3">
            <!-- 4 -->
            <g
               transform="translate(391.315887 597.95225) scale(0.24 -0.24)"
               id="g7">
              <defs
                 id="defs6">
                <path
                   id="CMUSerif-Roman-34"
                   d="M 179 1056  L 1882 1056  L 1882 499  C 1882 269 1869 198 1395 198  L 1261 198  L 1261 0  C 1523 19 1856 19 2125 19  C 2394 19 2733 19 2995 0  L 2995 198  L 2861 198  C 2387 198 2374 269 2374 499  L 2374 1056  L 3014 1056  L 3014 1254  L 2374 1254  L 2374 4166  C 2374 4294 2374 4333 2272 4333  C 2214 4333 2195 4333 2144 4256  L 179 1254  L 179 1056  z M 358 1254  L 1920 3642  L 1920 1254  L 358 1254  z "
                   transform="scale(0.015625)" />
              </defs>
              <use
                 xlink:href="#CMUSerif-Roman-34"
                 id="use7" />
            </g>
          </g>
        </g>
        <g
           id="xtick_4">
          <g
             id="line2d_4">
            <g
               id="g8">
              <use
                 xlink:href="#m1e0adc5cd9"
                 x="552.079831"
                 y="569.79475"
                 style="stroke: #000000; stroke-width: 2"
                 id="use8" />
            </g>
          </g>
          <g
             id="text_4">
            <!-- 6 -->
            <g
               transform="translate(546.079831 597.95225) scale(0.24 -0.24)"
               id="g9">
              <defs
                 id="defs8">
                <path
                   id="CMUSerif-Roman-36"
                   d="M 269 2022  C 269 314 1011 -141 1606 -141  C 2317 -141 2925 461 2925 1306  C 2925 2118 2355 2733 1645 2733  C 1210 2733 973 2406 845 2099  L 845 2253  C 845 3872 1638 4102 1965 4102  C 2118 4102 2387 4064 2528 3846  C 2432 3846 2176 3846 2176 3558  C 2176 3360 2330 3264 2470 3264  C 2573 3264 2765 3322 2765 3571  C 2765 3955 2483 4262 1952 4262  C 1133 4262 269 3437 269 2022  z M 858 1446  C 858 1946 1062 2586 1638 2586  C 1741 2586 2035 2586 2234 2189  C 2349 1952 2349 1626 2349 1312  C 2349 1005 2349 685 2240 454  C 2048 70 1754 38 1606 38  C 1203 38 1011 422 973 518  C 858 819 858 1331 858 1446  z "
                   transform="scale(0.015625)" />
              </defs>
              <use
                 xlink:href="#CMUSerif-Roman-36"
                 id="use9" />
            </g>
          </g>
        </g>
        <g
           id="text_5">
          <!-- 1200 keV proton fluence [$\mathrm{10^{20} m^{-2}}$] -->
          <g
             transform="translate(180.334 627.24975) scale(0.24 -0.24)"
             id="g42">
            <defs
               id="defs9">
              <path
                 id="CMUSerif-Roman-31"
                 d="M 570 3654  C 698 3654 1075 3654 1408 3821  L 1408 506  C 1408 275 1389 198 813 198  L 608 198  L 608 0  C 832 19 1389 19 1645 19  C 1901 19 2458 19 2682 0  L 2682 198  L 2477 198  C 1901 198 1882 269 1882 506  L 1882 4096  C 1882 4250 1882 4262 1734 4262  C 1338 3853 774 3853 570 3853  L 570 3654  z "
                 transform="scale(0.015625)" />
              <path
                 id="CMUSerif-Roman-20"
                 transform="scale(0.015625)" />
              <path
                 id="CMUSerif-Roman-6b"
                 d="M 179 0  C 390 6 691 19 877 19  C 1069 19 1325 13 1581 0  L 1581 198  C 1152 198 1082 198 1082 486  L 1082 1146  L 1491 1498  C 1984 819 2253 461 2253 346  C 2253 224 2144 198 2022 198  L 2022 0  C 2202 6 2579 19 2714 19  C 2899 19 3085 13 3270 0  L 3270 198  C 3034 198 2893 198 2650 538  L 1837 1683  C 1830 1696 1798 1734 1798 1754  C 1798 1779 2253 2163 2317 2214  C 2720 2541 2989 2554 3123 2560  L 3123 2758  C 2938 2739 2854 2739 2675 2739  C 2445 2739 2048 2752 1958 2758  L 1958 2560  C 2080 2554 2144 2483 2144 2400  C 2144 2272 2054 2195 2003 2150  L 1101 1370  L 1101 4442  L 179 4371  L 179 4173  C 627 4173 678 4128 678 3814  L 678 486  C 678 198 608 198 179 198  L 179 0  z "
                 transform="scale(0.015625)" />
              <path
                 id="CMUSerif-Roman-65"
                 d="M 179 1408  C 179 550 851 -70 1587 -70  C 2368 -70 2656 640 2656 762  C 2656 826 2605 838 2573 838  C 2515 838 2502 800 2490 749  C 2266 90 1690 90 1626 90  C 1306 90 1050 282 902 518  C 710 826 710 1248 710 1478  L 2496 1478  C 2637 1478 2656 1478 2656 1613  C 2656 2246 2310 2867 1510 2867  C 768 2867 179 2208 179 1408  z M 717 1613  C 755 2566 1293 2726 1510 2726  C 2170 2726 2234 1862 2234 1613  L 717 1613  z "
                 transform="scale(0.015625)" />
              <path
                 id="CMUSerif-Roman-56"
                 d="M 122 4173  C 538 4173 659 4173 749 3930  L 2234 0  C 2278 -122 2310 -141 2394 -141  C 2502 -141 2515 -109 2547 -19  L 3974 3744  C 4064 3981 4237 4166 4672 4173  L 4672 4371  C 4474 4358 4218 4352 4051 4352  C 3859 4352 3488 4365 3322 4371  L 3322 4173  C 3654 4166 3789 4000 3789 3853  C 3789 3802 3770 3763 3757 3725  L 2586 640  L 1363 3872  C 1325 3962 1325 3974 1325 3987  C 1325 4173 1690 4173 1850 4173  L 1850 4371  C 1619 4352 1178 4352 934 4352  C 627 4352 352 4365 122 4371  L 122 4173  z "
                 transform="scale(0.015625)" />
              <path
                 id="CMUSerif-Roman-70"
                 d="M 179 -1043  L 179 -1242  C 397 -1235 730 -1222 896 -1222  C 1069 -1222 1395 -1235 1619 -1242  L 1619 -1043  C 1190 -1043 1120 -1043 1120 -755  L 1120 320  L 1120 378  C 1152 275 1421 -70 1907 -70  C 2669 -70 3334 557 3334 1382  C 3334 2195 2714 2829 1997 2829  C 1498 2829 1229 2547 1101 2406  L 1101 2829  L 179 2758  L 179 2560  C 634 2560 678 2522 678 2240  L 678 -755  C 678 -1043 608 -1043 179 -1043  z M 1120 730  L 1120 2157  C 1306 2483 1619 2669 1946 2669  C 2413 2669 2803 2106 2803 1382  C 2803 608 2355 70 1882 70  C 1626 70 1382 198 1210 461  C 1120 595 1120 602 1120 730  z "
                 transform="scale(0.015625)" />
              <path
                 id="CMUSerif-Roman-72"
                 d="M 179 0  C 429 6 730 19 909 19  C 1165 19 1466 19 1722 0  L 1722 198  L 1587 198  C 1114 198 1101 269 1101 499  L 1101 1485  C 1101 2118 1370 2688 1856 2688  C 1901 2688 1914 2688 1926 2682  C 1907 2675 1779 2598 1779 2432  C 1779 2253 1914 2157 2054 2157  C 2170 2157 2330 2234 2330 2438  C 2330 2643 2131 2829 1856 2829  C 1389 2829 1158 2400 1069 2125  L 1069 2829  L 179 2758  L 179 2560  C 627 2560 678 2515 678 2202  L 678 486  C 678 198 608 198 179 198  L 179 0  z "
                 transform="scale(0.015625)" />
              <path
                 id="CMUSerif-Roman-6f"
                 d="M 179 1370  C 179 544 845 -70 1594 -70  C 2368 -70 3014 557 3014 1370  C 3014 2189 2374 2867 1600 2867  C 800 2867 179 2170 179 1370  z M 710 1421  C 710 1670 710 2016 864 2298  C 1037 2592 1338 2726 1594 2726  C 1875 2726 2150 2586 2317 2310  C 2483 2035 2483 1664 2483 1421  C 2483 1190 2483 845 2342 563  C 2202 275 1920 90 1600 90  C 1325 90 1043 224 870 518  C 710 800 710 1190 710 1421  z "
                 transform="scale(0.015625)" />
              <path
                 id="CMUSerif-Roman-74"
                 d="M 122 2560  L 666 2560  L 666 794  C 666 6 1261 -70 1491 -70  C 1946 -70 2125 384 2125 794  L 2125 1158  L 1965 1158  L 1965 806  C 1965 333 1773 90 1536 90  C 1107 90 1107 672 1107 781  L 1107 2560  L 2022 2560  L 2022 2758  L 1107 2758  L 1107 3936  L 947 3936  C 941 3411 749 2726 122 2701  L 122 2560  z "
                 transform="scale(0.015625)" />
              <path
                 id="CMUSerif-Roman-6e"
                 d="M 205 0  C 429 6 755 19 928 19  C 1094 19 1427 6 1645 0  L 1645 198  C 1216 198 1146 198 1146 486  L 1146 1664  C 1146 2330 1600 2688 2010 2688  C 2413 2688 2483 2342 2483 1978  L 2483 486  C 2483 198 2413 198 1984 198  L 1984 0  C 2208 6 2534 19 2707 19  C 2874 19 3206 6 3424 0  L 3424 198  C 3091 198 2931 198 2925 390  L 2925 1613  C 2925 2163 2925 2362 2726 2592  C 2637 2701 2426 2829 2054 2829  C 1587 2829 1286 2554 1107 2157  L 1107 2829  L 205 2758  L 205 2560  C 653 2560 704 2515 704 2202  L 704 486  C 704 198 634 198 205 198  L 205 0  z "
                 transform="scale(0.015625)" />
              <path
                 id="CMUSerif-Roman-66"
                 d="M 211 2560  L 717 2560  L 717 486  C 717 198 646 198 218 198  L 218 0  C 467 6 768 19 947 19  C 1203 19 1504 19 1760 0  L 1760 198  L 1626 198  C 1152 198 1139 269 1139 499  L 1139 2560  L 1869 2560  L 1869 2758  L 1120 2758  L 1120 3501  C 1120 4064 1427 4371 1709 4371  C 1728 4371 1824 4371 1920 4326  C 1843 4301 1728 4218 1728 4058  C 1728 3910 1830 3782 2003 3782  C 2189 3782 2285 3910 2285 4064  C 2285 4301 2048 4512 1709 4512  C 1261 4512 717 4173 717 3494  L 717 2758  L 211 2758  L 211 2560  z "
                 transform="scale(0.015625)" />
              <path
                 id="CMUSerif-Roman-6c"
                 d="M 211 0  C 422 6 762 19 922 19  C 1082 19 1395 6 1632 0  L 1632 198  C 1203 198 1133 198 1133 486  L 1133 4442  L 211 4371  L 211 4173  C 659 4173 710 4128 710 3814  L 710 486  C 710 198 640 198 211 198  L 211 0  z "
                 transform="scale(0.015625)" />
              <path
                 id="CMUSerif-Roman-75"
                 d="M 205 2560  C 704 2560 704 2541 704 1971  L 704 1011  C 704 512 704 -70 1677 -70  C 2035 -70 2317 109 2502 506  L 2502 -70  L 3424 0  L 3424 198  C 2976 198 2925 243 2925 557  L 2925 2829  L 1984 2758  L 1984 2560  C 2432 2560 2483 2515 2483 2202  L 2483 1062  C 2483 506 2176 70 1709 70  C 1171 70 1146 371 1146 704  L 1146 2829  L 205 2758  L 205 2560  z "
                 transform="scale(0.015625)" />
              <path
                 id="CMUSerif-Roman-63"
                 d="M 218 1382  C 218 563 851 -70 1594 -70  C 2451 -70 2656 698 2656 762  C 2656 826 2592 826 2573 826  C 2515 826 2502 800 2490 762  C 2304 166 1888 90 1651 90  C 1312 90 749 365 749 1395  C 749 2438 1274 2707 1613 2707  C 1670 2707 2074 2701 2298 2470  C 2035 2451 1997 2259 1997 2176  C 1997 2010 2112 1882 2291 1882  C 2458 1882 2586 1990 2586 2182  C 2586 2618 2099 2867 1606 2867  C 806 2867 218 2176 218 1382  z "
                 transform="scale(0.015625)" />
              <path
                 id="CMUSerif-Roman-5b"
                 d="M 666 -1600  L 1632 -1600  L 1632 -1453  L 1094 -1453  L 1094 4653  L 1632 4653  L 1632 4800  L 666 4800  L 666 -1600  z "
                 transform="scale(0.015625)" />
              <path
                 id="Cmr10-31"
                 d="M 594 0  L 594 225  Q 1394 225 1394 428  L 1394 3788  Q 1063 3628 556 3628  L 556 3853  Q 1341 3853 1741 4263  L 1831 4263  Q 1853 4263 1873 4245  Q 1894 4228 1894 4206  L 1894 428  Q 1894 225 2694 225  L 2694 0  L 594 0  z "
                 transform="scale(0.015625)" />
              <path
                 id="Cmr10-30"
                 d="M 1600 -141  Q 816 -141 533 504  Q 250 1150 250 2041  Q 250 2597 351 3087  Q 453 3578 754 3920  Q 1056 4263 1600 4263  Q 2022 4263 2290 4056  Q 2559 3850 2700 3523  Q 2841 3197 2892 2823  Q 2944 2450 2944 2041  Q 2944 1491 2842 1011  Q 2741 531 2444 195  Q 2147 -141 1600 -141  z M 1600 25  Q 1956 25 2131 390  Q 2306 756 2347 1200  Q 2388 1644 2388 2144  Q 2388 2625 2347 3031  Q 2306 3438 2132 3767  Q 1959 4097 1600 4097  Q 1238 4097 1063 3765  Q 888 3434 847 3029  Q 806 2625 806 2144  Q 806 1788 823 1472  Q 841 1156 916 820  Q 991 484 1158 254  Q 1325 25 1600 25  z "
                 transform="scale(0.015625)" />
              <path
                 id="Cmr10-32"
                 d="M 319 0  L 319 172  Q 319 188 331 206  L 1325 1306  Q 1550 1550 1690 1715  Q 1831 1881 1968 2097  Q 2106 2313 2186 2536  Q 2266 2759 2266 3009  Q 2266 3272 2169 3511  Q 2072 3750 1880 3894  Q 1688 4038 1416 4038  Q 1138 4038 916 3870  Q 694 3703 603 3438  Q 628 3444 672 3444  Q 816 3444 917 3347  Q 1019 3250 1019 3097  Q 1019 2950 917 2848  Q 816 2747 672 2747  Q 522 2747 420 2851  Q 319 2956 319 3097  Q 319 3338 409 3548  Q 500 3759 670 3923  Q 841 4088 1055 4175  Q 1269 4263 1509 4263  Q 1875 4263 2190 4108  Q 2506 3953 2690 3670  Q 2875 3388 2875 3009  Q 2875 2731 2753 2481  Q 2631 2231 2440 2026  Q 2250 1822 1953 1562  Q 1656 1303 1563 1216  L 838 519  L 1453 519  Q 1906 519 2211 526  Q 2516 534 2534 550  Q 2609 631 2688 1141  L 2875 1141  L 2694 0  L 319 0  z "
                 transform="scale(0.015625)" />
              <path
                 id="Cmr10-6d"
                 d="M 191 0  L 191 225  Q 409 225 550 259  Q 691 294 691 428  L 691 2175  Q 691 2347 639 2423  Q 588 2500 491 2517  Q 394 2534 191 2534  L 191 2759  L 1119 2828  L 1119 2203  Q 1247 2478 1498 2653  Q 1750 2828 2047 2828  Q 2784 2828 2913 2228  Q 3041 2497 3287 2662  Q 3534 2828 3828 2828  Q 4119 2828 4317 2734  Q 4516 2641 4616 2448  Q 4716 2256 4716 1966  L 4716 428  Q 4716 294 4858 259  Q 5000 225 5216 225  L 5216 0  L 3750 0  L 3750 225  Q 3969 225 4109 259  Q 4250 294 4250 428  L 4250 1947  Q 4250 2269 4159 2466  Q 4069 2663 3788 2663  Q 3419 2663 3178 2366  Q 2938 2069 2938 1691  L 2938 428  Q 2938 294 3078 259  Q 3219 225 3438 225  L 3438 0  L 1972 0  L 1972 225  Q 2191 225 2331 259  Q 2472 294 2472 428  L 2472 1947  Q 2472 2259 2381 2461  Q 2291 2663 2009 2663  Q 1638 2663 1398 2366  Q 1159 2069 1159 1691  L 1159 428  Q 1159 294 1300 259  Q 1441 225 1656 225  L 1656 0  L 191 0  z "
                 transform="scale(0.015625)" />
              <path
                 id="Cmsy10-a1"
                 d="M 653 1472  Q 600 1472 565 1512  Q 531 1553 531 1600  Q 531 1647 565 1687  Q 600 1728 653 1728  L 4325 1728  Q 4375 1728 4408 1687  Q 4441 1647 4441 1600  Q 4441 1553 4408 1512  Q 4375 1472 4325 1472  L 653 1472  z "
                 transform="scale(0.015625)" />
              <path
                 id="CMUSerif-Roman-5d"
                 d="M 134 -1453  L 134 -1600  L 1101 -1600  L 1101 4800  L 134 4800  L 134 4653  L 672 4653  L 672 -1453  L 134 -1453  z "
                 transform="scale(0.015625)" />
            </defs>
            <use
               xlink:href="#CMUSerif-Roman-31"
               transform="translate(0 0.223438)"
               id="use10" />
            <use
               xlink:href="#CMUSerif-Roman-32"
               transform="translate(49.999985 0.223438)"
               id="use11" />
            <use
               xlink:href="#CMUSerif-Roman-30"
               transform="translate(99.999969 0.223438)"
               id="use12" />
            <use
               xlink:href="#CMUSerif-Roman-30"
               transform="translate(149.999954 0.223438)"
               id="use13" />
            <use
               xlink:href="#CMUSerif-Roman-20"
               transform="translate(199.999939 0.223438)"
               id="use14" />
            <use
               xlink:href="#CMUSerif-Roman-6b"
               transform="translate(233.299927 0.223438)"
               id="use15" />
            <use
               xlink:href="#CMUSerif-Roman-65"
               transform="translate(285.999924 0.223438)"
               id="use16" />
            <use
               xlink:href="#CMUSerif-Roman-56"
               transform="translate(330.399918 0.223438)"
               id="use17" />
            <use
               xlink:href="#CMUSerif-Roman-20"
               transform="translate(405.399902 0.223438)"
               id="use18" />
            <use
               xlink:href="#CMUSerif-Roman-70"
               transform="translate(438.69989 0.223438)"
               id="use19" />
            <use
               xlink:href="#CMUSerif-Roman-72"
               transform="translate(494.199875 0.223438)"
               id="use20" />
            <use
               xlink:href="#CMUSerif-Roman-6f"
               transform="translate(533.299866 0.223438)"
               id="use21" />
            <use
               xlink:href="#CMUSerif-Roman-74"
               transform="translate(583.29985 0.223438)"
               id="use22" />
            <use
               xlink:href="#CMUSerif-Roman-6f"
               transform="translate(622.099838 0.223438)"
               id="use23" />
            <use
               xlink:href="#CMUSerif-Roman-6e"
               transform="translate(672.099823 0.223438)"
               id="use24" />
            <use
               xlink:href="#CMUSerif-Roman-20"
               transform="translate(727.599808 0.223438)"
               id="use25" />
            <use
               xlink:href="#CMUSerif-Roman-66"
               transform="translate(760.899796 0.223438)"
               id="use26" />
            <use
               xlink:href="#CMUSerif-Roman-6c"
               transform="translate(791.39978 0.223438)"
               id="use27" />
            <use
               xlink:href="#CMUSerif-Roman-75"
               transform="translate(819.099777 0.223438)"
               id="use28" />
            <use
               xlink:href="#CMUSerif-Roman-65"
               transform="translate(874.599762 0.223438)"
               id="use29" />
            <use
               xlink:href="#CMUSerif-Roman-6e"
               transform="translate(918.999756 0.223438)"
               id="use30" />
            <use
               xlink:href="#CMUSerif-Roman-63"
               transform="translate(974.499741 0.223438)"
               id="use31" />
            <use
               xlink:href="#CMUSerif-Roman-65"
               transform="translate(1018.899734 0.223438)"
               id="use32" />
            <use
               xlink:href="#CMUSerif-Roman-20"
               transform="translate(1063.299728 0.223438)"
               id="use33" />
            <use
               xlink:href="#CMUSerif-Roman-5b"
               transform="translate(1096.599716 0.223438)"
               id="use34" />
            <use
               xlink:href="#Cmr10-31"
               transform="translate(1124.399704 0.223438)"
               id="use35" />
            <use
               xlink:href="#Cmr10-30"
               transform="translate(1174.399704 0.223438)"
               id="use36" />
            <use
               xlink:href="#Cmr10-32"
               transform="translate(1228.967204 39.373438) scale(0.7)"
               id="use37" />
            <use
               xlink:href="#Cmr10-30"
               transform="translate(1263.967204 39.373438) scale(0.7)"
               id="use38" />
            <use
               xlink:href="#Cmr10-6d"
               transform="translate(1305.492204 0.223438)"
               id="use39" />
            <use
               xlink:href="#Cmsy10-a1"
               transform="translate(1393.360485 39.373438) scale(0.7)"
               id="use40" />
            <use
               xlink:href="#Cmr10-32"
               transform="translate(1447.740368 39.373438) scale(0.7)"
               id="use41" />
            <use
               xlink:href="#CMUSerif-Roman-5d"
               transform="translate(1489.265368 0.223438)"
               id="use42" />
          </g>
        </g>
      </g>
      <g
         id="matplotlib.axis_2">
        <g
           id="ytick_1">
          <g
             id="line2d_5">
            <defs
               id="defs42">
              <path
                 id="mee2b6cca2a"
                 d="M 0 0  L -8 0  "
                 style="stroke: #000000; stroke-width: 2" />
            </defs>
            <g
               id="g43">
              <use
                 xlink:href="#mee2b6cca2a"
                 x="87.788"
                 y="569.79475"
                 style="stroke: #000000; stroke-width: 2"
                 id="use43" />
            </g>
          </g>
          <g
             id="text_6">
            <!-- 0.0 -->
            <g
               transform="translate(45.61675 578.1235) scale(0.24 -0.24)"
               id="g46">
              <defs
                 id="defs43">
                <path
                   id="CMUSerif-Roman-2e"
                   d="M 544 339  C 544 166 685 0 883 0  C 1050 0 1216 141 1216 339  C 1216 538 1062 672 883 672  C 685 672 544 512 544 339  z "
                   transform="scale(0.015625)" />
              </defs>
              <use
                 xlink:href="#CMUSerif-Roman-30"
                 id="use44" />
              <use
                 xlink:href="#CMUSerif-Roman-2e"
                 transform="translate(49.999985 0)"
                 id="use45" />
              <use
                 xlink:href="#CMUSerif-Roman-30"
                 transform="translate(77.799973 0)"
                 id="use46" />
            </g>
          </g>
        </g>
        <g
           id="ytick_2">
          <g
             id="line2d_6">
            <g
               id="g47">
              <use
                 xlink:href="#mee2b6cca2a"
                 x="87.788"
                 y="459.791914"
                 style="stroke: #000000; stroke-width: 2"
                 id="use47" />
            </g>
          </g>
          <g
             id="text_7">
            <!-- 0.2 -->
            <g
               transform="translate(45.61675 468.120664) scale(0.24 -0.24)"
               id="g50">
              <use
                 xlink:href="#CMUSerif-Roman-30"
                 id="use48" />
              <use
                 xlink:href="#CMUSerif-Roman-2e"
                 transform="translate(49.999985 0)"
                 id="use49" />
              <use
                 xlink:href="#CMUSerif-Roman-32"
                 transform="translate(77.799973 0)"
                 id="use50" />
            </g>
          </g>
        </g>
        <g
           id="ytick_3">
          <g
             id="line2d_7">
            <g
               id="g51">
              <use
                 xlink:href="#mee2b6cca2a"
                 x="87.788"
                 y="349.789078"
                 style="stroke: #000000; stroke-width: 2"
                 id="use51" />
            </g>
          </g>
          <g
             id="text_8">
            <!-- 0.4 -->
            <g
               transform="translate(45.61675 358.117828) scale(0.24 -0.24)"
               id="g54">
              <use
                 xlink:href="#CMUSerif-Roman-30"
                 id="use52" />
              <use
                 xlink:href="#CMUSerif-Roman-2e"
                 transform="translate(49.999985 0)"
                 id="use53" />
              <use
                 xlink:href="#CMUSerif-Roman-34"
                 transform="translate(77.799973 0)"
                 id="use54" />
            </g>
          </g>
        </g>
        <g
           id="ytick_4">
          <g
             id="line2d_8">
            <g
               id="g55">
              <use
                 xlink:href="#mee2b6cca2a"
                 x="87.788"
                 y="239.786241"
                 style="stroke: #000000; stroke-width: 2"
                 id="use55" />
            </g>
          </g>
          <g
             id="text_9">
            <!-- 0.6 -->
            <g
               transform="translate(45.61675 248.114991) scale(0.24 -0.24)"
               id="g58">
              <use
                 xlink:href="#CMUSerif-Roman-30"
                 id="use56" />
              <use
                 xlink:href="#CMUSerif-Roman-2e"
                 transform="translate(49.999985 0)"
                 id="use57" />
              <use
                 xlink:href="#CMUSerif-Roman-36"
                 transform="translate(77.799973 0)"
                 id="use58" />
            </g>
          </g>
        </g>
        <g
           id="ytick_5">
          <g
             id="line2d_9">
            <g
               id="g59">
              <use
                 xlink:href="#mee2b6cca2a"
                 x="87.788"
                 y="129.783405"
                 style="stroke: #000000; stroke-width: 2"
                 id="use59" />
            </g>
          </g>
          <g
             id="text_10">
            <!-- 0.8 -->
            <g
               transform="translate(45.61675 138.112155) scale(0.24 -0.24)"
               id="g62">
              <defs
                 id="defs59">
                <path
                   id="CMUSerif-Roman-38"
                   d="M 269 966  C 269 288 922 -141 1594 -141  C 2317 -141 2925 390 2925 1075  C 2925 1306 2854 1594 2611 1862  C 2490 1997 2387 2061 1978 2317  C 2438 2554 2752 2886 2752 3309  C 2752 3898 2182 4262 1600 4262  C 960 4262 442 3789 442 3194  C 442 3078 454 2790 723 2490  C 794 2413 1030 2253 1190 2144  C 819 1958 269 1600 269 966  z M 589 966  C 589 1338 794 1747 1338 2048  L 2125 1549  C 2304 1427 2605 1235 2605 845  C 2605 371 2125 38 1600 38  C 1050 38 589 435 589 966  z M 723 3443  C 723 3834 1139 4102 1594 4102  C 2061 4102 2470 3770 2470 3309  C 2470 2944 2221 2637 1837 2413  L 1043 2925  C 749 3117 723 3334 723 3443  z "
                   transform="scale(0.015625)" />
              </defs>
              <use
                 xlink:href="#CMUSerif-Roman-30"
                 id="use60" />
              <use
                 xlink:href="#CMUSerif-Roman-2e"
                 transform="translate(49.999985 0)"
                 id="use61" />
              <use
                 xlink:href="#CMUSerif-Roman-38"
                 transform="translate(77.799973 0)"
                 id="use62" />
            </g>
          </g>
        </g>
        <g
           id="ytick_6">
          <g
             id="line2d_10">
            <g
               id="g63">
              <use
                 xlink:href="#mee2b6cca2a"
                 x="87.788"
                 y="19.780569"
                 style="stroke: #000000; stroke-width: 2"
                 id="use63" />
            </g>
          </g>
          <g
             id="text_11">
            <!-- 1.0 -->
            <g
               transform="translate(45.61675 28.109319) scale(0.24 -0.24)"
               id="g66">
              <use
                 xlink:href="#CMUSerif-Roman-31"
                 id="use64" />
              <use
                 xlink:href="#CMUSerif-Roman-2e"
                 transform="translate(49.999985 0)"
                 id="use65" />
              <use
                 xlink:href="#CMUSerif-Roman-30"
                 transform="translate(77.799973 0)"
                 id="use66" />
            </g>
          </g>
        </g>
        <g
           id="text_12">
          <!-- $i_c\mathrm{(  70\; K) = I_c \; / \; I_c^{unirradiated}}$ -->
          <g
             transform="translate(35.13675 419.837588) rotate(-90) scale(0.24 -0.24)"
             id="g91">
            <defs
               id="defs66">
              <path
                 id="Cmmi10-69"
                 d="M 500 459  Q 500 578 550 709  L 1069 2088  Q 1153 2322 1153 2472  Q 1153 2663 1013 2663  Q 759 2663 595 2402  Q 431 2141 353 1819  Q 341 1778 300 1778  L 225 1778  Q 172 1778 172 1838  L 172 1856  Q 275 2238 487 2533  Q 700 2828 1025 2828  Q 1253 2828 1411 2678  Q 1569 2528 1569 2297  Q 1569 2178 1516 2047  L 997 672  Q 909 459 909 288  Q 909 97 1056 97  Q 1306 97 1473 364  Q 1641 631 1709 941  Q 1722 978 1759 978  L 1838 978  Q 1863 978 1878 961  Q 1894 944 1894 922  Q 1894 916 1888 903  Q 1800 541 1583 234  Q 1366 -72 1044 -72  Q 819 -72 659 83  Q 500 238 500 459  z M 1222 3878  Q 1222 4013 1334 4122  Q 1447 4231 1581 4231  Q 1691 4231 1761 4164  Q 1831 4097 1831 3994  Q 1831 3850 1717 3742  Q 1603 3634 1466 3634  Q 1363 3634 1292 3704  Q 1222 3775 1222 3878  z "
                 transform="scale(0.015625)" />
              <path
                 id="Cmmi10-63"
                 d="M 750 763  Q 750 484 892 290  Q 1034 97 1300 97  Q 1681 97 2032 272  Q 2384 447 2606 756  Q 2625 775 2656 775  Q 2688 775 2720 739  Q 2753 703 2753 672  Q 2753 647 2741 634  Q 2506 306 2109 117  Q 1713 -72 1288 -72  Q 981 -72 747 73  Q 513 219 384 462  Q 256 706 256 1013  Q 256 1444 497 1869  Q 738 2294 1138 2561  Q 1538 2828 1978 2828  Q 2266 2828 2495 2689  Q 2725 2550 2725 2278  Q 2725 2103 2623 1979  Q 2522 1856 2350 1856  Q 2247 1856 2176 1920  Q 2106 1984 2106 2088  Q 2106 2238 2215 2344  Q 2325 2450 2472 2450  L 2484 2450  Q 2409 2559 2267 2611  Q 2125 2663 1972 2663  Q 1597 2663 1315 2342  Q 1034 2022 892 1576  Q 750 1131 750 763  z "
                 transform="scale(0.015625)" />
              <path
                 id="Cmr10-28"
                 d="M 1984 -1588  Q 1628 -1306 1370 -942  Q 1113 -578 948 -165  Q 784 247 703 697  Q 622 1147 622 1600  Q 622 2059 703 2509  Q 784 2959 951 3375  Q 1119 3791 1378 4153  Q 1638 4516 1984 4788  Q 1984 4800 2016 4800  L 2075 4800  Q 2094 4800 2109 4783  Q 2125 4766 2125 4744  Q 2125 4716 2113 4703  Q 1800 4397 1592 4047  Q 1384 3697 1257 3301  Q 1131 2906 1075 2482  Q 1019 2059 1019 1600  Q 1019 -434 2106 -1491  Q 2125 -1509 2125 -1544  Q 2125 -1559 2108 -1579  Q 2091 -1600 2075 -1600  L 2016 -1600  Q 1984 -1600 1984 -1588  z "
                 transform="scale(0.015625)" />
              <path
                 id="Cmr10-37"
                 d="M 1113 166  Q 1113 522 1175 862  Q 1238 1203 1358 1536  Q 1478 1869 1648 2189  Q 1819 2509 2022 2791  L 2606 3603  L 1875 3603  Q 738 3603 703 3572  Q 619 3469 544 2981  L 359 2981  L 569 4325  L 756 4325  L 756 4306  Q 756 4191 1147 4156  Q 1538 4122 1913 4122  L 3103 4122  L 3103 3956  Q 3103 3950 3101 3947  Q 3100 3944 3097 3938  L 2216 2700  Q 1891 2219 1809 1631  Q 1728 1044 1728 166  Q 1728 41 1637 -50  Q 1547 -141 1422 -141  Q 1294 -141 1203 -50  Q 1113 41 1113 166  z "
                 transform="scale(0.015625)" />
              <path
                 id="Cmr10-4b"
                 d="M 197 0  L 197 225  Q 856 225 856 428  L 856 3944  Q 856 4147 197 4147  L 197 4372  L 2113 4372  L 2113 4147  Q 1453 4147 1453 3944  L 1453 1869  L 3431 3769  Q 3513 3856 3513 3944  Q 3513 4044 3427 4095  Q 3341 4147 3231 4147  L 3231 4372  L 4622 4372  L 4622 4147  Q 4097 4147 3700 3769  L 2566 2681  L 3969 603  Q 4141 350 4270 287  Q 4400 225 4709 225  L 4709 0  L 3034 0  L 3034 225  Q 3188 225 3292 256  Q 3397 288 3397 403  Q 3397 481 3316 603  L 2169 2303  L 1453 1613  L 1453 428  Q 1453 225 2113 225  L 2113 0  L 197 0  z "
                 transform="scale(0.015625)" />
              <path
                 id="Cmr10-29"
                 d="M 416 -1600  Q 359 -1600 359 -1544  Q 359 -1516 372 -1503  Q 1466 -434 1466 1600  Q 1466 3634 384 4691  Q 359 4706 359 4744  Q 359 4766 376 4783  Q 394 4800 416 4800  L 475 4800  Q 494 4800 506 4788  Q 966 4425 1272 3906  Q 1578 3388 1720 2800  Q 1863 2213 1863 1600  Q 1863 1147 1786 708  Q 1709 269 1542 -157  Q 1375 -584 1119 -945  Q 863 -1306 506 -1588  Q 494 -1600 475 -1600  L 416 -1600  z "
                 transform="scale(0.015625)" />
              <path
                 id="Cmr10-3d"
                 d="M 481 850  Q 428 850 393 890  Q 359 931 359 978  Q 359 1031 393 1068  Q 428 1106 481 1106  L 4500 1106  Q 4547 1106 4581 1068  Q 4616 1031 4616 978  Q 4616 931 4581 890  Q 4547 850 4500 850  L 481 850  z M 481 2094  Q 428 2094 393 2131  Q 359 2169 359 2222  Q 359 2269 393 2309  Q 428 2350 481 2350  L 4500 2350  Q 4547 2350 4581 2309  Q 4616 2269 4616 2222  Q 4616 2169 4581 2131  Q 4547 2094 4500 2094  L 481 2094  z "
                 transform="scale(0.015625)" />
              <path
                 id="Cmr10-49"
                 d="M 166 0  L 166 225  Q 856 225 856 428  L 856 3944  Q 856 4147 166 4147  L 166 4372  L 2144 4372  L 2144 4147  Q 1453 4147 1453 3944  L 1453 428  Q 1453 225 2144 225  L 2144 0  L 166 0  z "
                 transform="scale(0.015625)" />
              <path
                 id="Cmr10-63"
                 d="M 1594 -72  Q 1206 -72 890 129  Q 575 331 394 667  Q 213 1003 213 1381  Q 213 1759 392 2106  Q 572 2453 889 2661  Q 1206 2869 1594 2869  Q 1969 2869 2276 2722  Q 2584 2575 2584 2241  Q 2584 2116 2495 2023  Q 2406 1931 2278 1931  Q 2150 1931 2061 2023  Q 1972 2116 1972 2241  Q 1972 2353 2044 2436  Q 2116 2519 2222 2541  Q 2000 2681 1600 2681  Q 1294 2681 1106 2478  Q 919 2275 844 1975  Q 769 1675 769 1381  Q 769 1072 861 783  Q 953 494 1158 305  Q 1363 116 1672 116  Q 1975 116 2187 302  Q 2400 488 2478 788  Q 2478 825 2528 825  L 2606 825  Q 2625 825 2640 808  Q 2656 791 2656 769  L 2656 750  Q 2559 372 2271 150  Q 1984 -72 1594 -72  z "
                 transform="scale(0.015625)" />
              <path
                 id="Cmmi10-3d"
                 d="M 359 -1472  Q 359 -1453 366 -1447  L 2591 4722  Q 2603 4759 2634 4779  Q 2666 4800 2706 4800  Q 2763 4800 2798 4765  Q 2834 4731 2834 4672  L 2834 4647  L 609 -1522  Q 572 -1600 488 -1600  Q 434 -1600 396 -1562  Q 359 -1525 359 -1472  z "
                 transform="scale(0.015625)" />
              <path
                 id="Cmr10-75"
                 d="M 691 763  L 691 2175  Q 691 2347 639 2423  Q 588 2500 491 2517  Q 394 2534 191 2534  L 191 2759  L 1159 2828  L 1159 763  Q 1159 513 1195 373  Q 1231 234 1348 165  Q 1466 97 1722 97  Q 2066 97 2269 384  Q 2472 672 2472 1038  L 2472 2175  Q 2472 2347 2419 2423  Q 2366 2500 2270 2517  Q 2175 2534 1972 2534  L 1972 2759  L 2938 2828  L 2938 581  Q 2938 413 2989 336  Q 3041 259 3137 242  Q 3234 225 3438 225  L 3438 0  L 2491 -72  L 2491 469  Q 2372 228 2159 78  Q 1947 -72 1691 -72  Q 1231 -72 961 123  Q 691 319 691 763  z "
                 transform="scale(0.015625)" />
              <path
                 id="Cmr10-6e"
                 d="M 191 0  L 191 225  Q 409 225 550 259  Q 691 294 691 428  L 691 2175  Q 691 2347 639 2423  Q 588 2500 491 2517  Q 394 2534 191 2534  L 191 2759  L 1119 2828  L 1119 2203  Q 1247 2478 1498 2653  Q 1750 2828 2047 2828  Q 2491 2828 2714 2615  Q 2938 2403 2938 1966  L 2938 428  Q 2938 294 3078 259  Q 3219 225 3438 225  L 3438 0  L 1972 0  L 1972 225  Q 2191 225 2331 259  Q 2472 294 2472 428  L 2472 1947  Q 2472 2259 2381 2461  Q 2291 2663 2009 2663  Q 1638 2663 1398 2366  Q 1159 2069 1159 1691  L 1159 428  Q 1159 294 1300 259  Q 1441 225 1656 225  L 1656 0  L 191 0  z "
                 transform="scale(0.015625)" />
              <path
                 id="Cmr10-69"
                 d="M 197 0  L 197 225  Q 416 225 556 259  Q 697 294 697 428  L 697 2175  Q 697 2422 601 2478  Q 506 2534 225 2534  L 225 2759  L 1147 2828  L 1147 428  Q 1147 294 1269 259  Q 1391 225 1594 225  L 1594 0  L 197 0  z M 469 3928  Q 469 4069 575 4175  Q 681 4281 819 4281  Q 909 4281 993 4234  Q 1078 4188 1125 4103  Q 1172 4019 1172 3928  Q 1172 3791 1065 3684  Q 959 3578 819 3578  Q 681 3578 575 3684  Q 469 3791 469 3928  z "
                 transform="scale(0.015625)" />
              <path
                 id="Cmr10-72"
                 d="M 166 0  L 166 225  Q 384 225 525 259  Q 666 294 666 428  L 666 2175  Q 666 2347 614 2423  Q 563 2500 466 2517  Q 369 2534 166 2534  L 166 2759  L 1081 2828  L 1081 2203  Q 1184 2481 1375 2654  Q 1566 2828 1838 2828  Q 2028 2828 2178 2715  Q 2328 2603 2328 2419  Q 2328 2303 2245 2217  Q 2163 2131 2041 2131  Q 1922 2131 1837 2215  Q 1753 2300 1753 2419  Q 1753 2591 1875 2663  L 1838 2663  Q 1578 2663 1414 2475  Q 1250 2288 1181 2009  Q 1113 1731 1113 1478  L 1113 428  Q 1113 225 1734 225  L 1734 0  L 166 0  z "
                 transform="scale(0.015625)" />
              <path
                 id="Cmr10-61"
                 d="M 256 628  Q 256 1009 556 1248  Q 856 1488 1276 1586  Q 1697 1684 2075 1684  L 2075 1947  Q 2075 2131 1994 2304  Q 1913 2478 1759 2589  Q 1606 2700 1422 2700  Q 997 2700 775 2509  Q 897 2509 976 2417  Q 1056 2325 1056 2203  Q 1056 2075 965 1984  Q 875 1894 750 1894  Q 622 1894 531 1984  Q 441 2075 441 2203  Q 441 2541 747 2705  Q 1053 2869 1422 2869  Q 1681 2869 1943 2758  Q 2206 2647 2373 2440  Q 2541 2234 2541 1959  L 2541 519  Q 2541 394 2594 289  Q 2647 184 2759 184  Q 2866 184 2917 290  Q 2969 397 2969 519  L 2969 928  L 3156 928  L 3156 519  Q 3156 375 3081 245  Q 3006 116 2879 39  Q 2753 -38 2606 -38  Q 2419 -38 2283 107  Q 2147 253 2131 453  Q 2013 213 1781 70  Q 1550 -72 1288 -72  Q 1044 -72 808 0  Q 572 72 414 226  Q 256 381 256 628  z M 775 628  Q 775 403 940 250  Q 1106 97 1331 97  Q 1538 97 1706 200  Q 1875 303 1975 481  Q 2075 659 2075 856  L 2075 1522  Q 1784 1522 1479 1426  Q 1175 1331 975 1128  Q 775 925 775 628  z "
                 transform="scale(0.015625)" />
              <path
                 id="Cmr10-64"
                 d="M 1563 -72  Q 1184 -72 871 133  Q 559 338 386 672  Q 213 1006 213 1381  Q 213 1769 402 2101  Q 591 2434 916 2631  Q 1241 2828 1631 2828  Q 1866 2828 2075 2729  Q 2284 2631 2438 2456  L 2438 3788  Q 2438 3959 2386 4036  Q 2334 4113 2239 4130  Q 2144 4147 1941 4147  L 1941 4372  L 2888 4441  L 2888 581  Q 2888 413 2939 336  Q 2991 259 3086 242  Q 3181 225 3384 225  L 3384 0  L 2419 -72  L 2419 331  Q 2253 141 2025 34  Q 1797 -72 1563 -72  z M 909 556  Q 1019 347 1201 222  Q 1384 97 1600 97  Q 1866 97 2087 250  Q 2309 403 2419 647  L 2419 2181  Q 2344 2322 2230 2433  Q 2116 2544 1973 2603  Q 1831 2663 1672 2663  Q 1338 2663 1134 2473  Q 931 2284 850 1990  Q 769 1697 769 1375  Q 769 1119 795 928  Q 822 738 909 556  z "
                 transform="scale(0.015625)" />
              <path
                 id="Cmr10-74"
                 d="M 653 769  L 653 2534  L 122 2534  L 122 2700  Q 541 2700 737 3090  Q 934 3481 934 3938  L 1119 3938  L 1119 2759  L 2022 2759  L 2022 2534  L 1119 2534  L 1119 781  Q 1119 516 1208 316  Q 1297 116 1528 116  Q 1747 116 1844 327  Q 1941 538 1941 781  L 1941 1159  L 2125 1159  L 2125 769  Q 2125 569 2051 373  Q 1978 178 1834 53  Q 1691 -72 1484 -72  Q 1100 -72 876 158  Q 653 388 653 769  z "
                 transform="scale(0.015625)" />
              <path
                 id="Cmr10-65"
                 d="M 1594 -72  Q 1203 -72 876 133  Q 550 338 364 680  Q 178 1022 178 1403  Q 178 1778 348 2115  Q 519 2453 823 2661  Q 1128 2869 1503 2869  Q 1797 2869 2014 2770  Q 2231 2672 2372 2497  Q 2513 2322 2584 2084  Q 2656 1847 2656 1563  Q 2656 1478 2591 1478  L 738 1478  L 738 1409  Q 738 878 952 497  Q 1166 116 1650 116  Q 1847 116 2014 203  Q 2181 291 2304 447  Q 2428 603 2472 781  Q 2478 803 2495 820  Q 2513 838 2534 838  L 2591 838  Q 2656 838 2656 756  Q 2566 394 2266 161  Q 1966 -72 1594 -72  z M 744 1638  L 2203 1638  Q 2203 1878 2136 2125  Q 2069 2372 1912 2536  Q 1756 2700 1503 2700  Q 1141 2700 942 2361  Q 744 2022 744 1638  z "
                 transform="scale(0.015625)" />
            </defs>
            <use
               xlink:href="#Cmmi10-69"
               transform="translate(0 0.276562)"
               id="use67" />
            <use
               xlink:href="#Cmmi10-63"
               transform="translate(34.423828 -16.729688) scale(0.7)"
               id="use68" />
            <use
               xlink:href="#Cmr10-28"
               transform="translate(71.050195 0.276562)"
               id="use69" />
            <use
               xlink:href="#Cmr10-37"
               transform="translate(109.868555 0.276562)"
               id="use70" />
            <use
               xlink:href="#Cmr10-30"
               transform="translate(159.868555 0.276562)"
               id="use71" />
            <use
               xlink:href="#Cmr10-4b"
               transform="translate(234.255686 0.276562)"
               id="use72" />
            <use
               xlink:href="#Cmr10-29"
               transform="translate(311.941232 0.276562)"
               id="use73" />
            <use
               xlink:href="#Cmr10-3d"
               transform="translate(368.318186 0.276562)"
               id="use74" />
            <use
               xlink:href="#Cmr10-49"
               transform="translate(463.562326 0.276562)"
               id="use75" />
            <use
               xlink:href="#Cmr10-63"
               transform="translate(504.213811 -17.123438) scale(0.7)"
               id="use76" />
            <use
               xlink:href="#Cmmi10-3d"
               transform="translate(566.195277 0.276562)"
               id="use77" />
            <use
               xlink:href="#Cmr10-49"
               transform="translate(640.582408 0.276562)"
               id="use78" />
            <use
               xlink:href="#Cmr10-75"
               transform="translate(681.233893 39.426563) scale(0.7)"
               id="use79" />
            <use
               xlink:href="#Cmr10-6e"
               transform="translate(720.096197 39.426563) scale(0.7)"
               id="use80" />
            <use
               xlink:href="#Cmr10-69"
               transform="translate(758.958502 39.426563) scale(0.7)"
               id="use81" />
            <use
               xlink:href="#Cmr10-72"
               transform="translate(778.338385 39.426563) scale(0.7)"
               id="use82" />
            <use
               xlink:href="#Cmr10-72"
               transform="translate(805.716314 39.426563) scale(0.7)"
               id="use83" />
            <use
               xlink:href="#Cmr10-61"
               transform="translate(833.094244 39.426563) scale(0.7)"
               id="use84" />
            <use
               xlink:href="#Cmr10-64"
               transform="translate(868.094244 39.426563) scale(0.7)"
               id="use85" />
            <use
               xlink:href="#Cmr10-69"
               transform="translate(906.956549 39.426563) scale(0.7)"
               id="use86" />
            <use
               xlink:href="#Cmr10-61"
               transform="translate(926.336432 39.426563) scale(0.7)"
               id="use87" />
            <use
               xlink:href="#Cmr10-74"
               transform="translate(961.336432 39.426563) scale(0.7)"
               id="use88" />
            <use
               xlink:href="#Cmr10-65"
               transform="translate(988.509283 39.426563) scale(0.7)"
               id="use89" />
            <use
               xlink:href="#Cmr10-64"
               transform="translate(1019.578619 39.426563) scale(0.7)"
               id="use90" />
            <use
               xlink:href="#Cmr10-63"
               transform="translate(681.233893 -25.823437) scale(0.7)"
               id="use91" />
          </g>
        </g>
      </g>
      <g
         id="LineCollection_1">
        <path
           d="M 87.788 19.780569  L 87.788 19.780569  "
           clip-path="url(#p6dd9fa8f36)"
           style="fill: none; stroke: #ff00ff; stroke-width: 0.5"
           id="path91" />
        <path
           d="M 195.128559 206.430681  L 206.427566 206.430681  "
           clip-path="url(#p6dd9fa8f36)"
           style="fill: none; stroke: #ff00ff; stroke-width: 0.5"
           id="path92" />
        <path
           d="M 411.359472 546.24337  L 445.419626 546.24337  "
           clip-path="url(#p6dd9fa8f36)"
           style="fill: none; stroke: #ff00ff; stroke-width: 0.5"
           id="path93" />
      </g>
      <g
         id="LineCollection_2">
        <path
           d="M 87.788 25.74626  L 87.788 13.814877  "
           clip-path="url(#p6dd9fa8f36)"
           style="fill: none; stroke: #ff00ff; stroke-width: 0.5"
           id="path94" />
        <path
           d="M 200.778063 210.123723  L 200.778063 202.737639  "
           clip-path="url(#p6dd9fa8f36)"
           style="fill: none; stroke: #ff00ff; stroke-width: 0.5"
           id="path95" />
        <path
           d="M 428.389549 547.355596  L 428.389549 545.131145  "
           clip-path="url(#p6dd9fa8f36)"
           style="fill: none; stroke: #ff00ff; stroke-width: 0.5"
           id="path96" />
      </g>
      <g
         id="LineCollection_3">
        <path
           d="M 87.788 19.780569  L 87.788 19.780569  "
           clip-path="url(#p6dd9fa8f36)"
           style="fill: none; stroke: #000000; stroke-width: 0.5"
           id="path97" />
        <path
           d="M 195.128559 196.566118  L 206.427566 196.566118  "
           clip-path="url(#p6dd9fa8f36)"
           style="fill: none; stroke: #000000; stroke-width: 0.5"
           id="path98" />
        <path
           d="M 411.359472 528.769903  L 445.419626 528.769903  "
           clip-path="url(#p6dd9fa8f36)"
           style="fill: none; stroke: #000000; stroke-width: 0.5"
           id="path99" />
      </g>
      <g
         id="LineCollection_4">
        <path
           d="M 87.788 23.850398  L 87.788 15.710739  "
           clip-path="url(#p6dd9fa8f36)"
           style="fill: none; stroke: #000000; stroke-width: 0.5"
           id="path100" />
        <path
           d="M 200.778063 199.106846  L 200.778063 194.025389  "
           clip-path="url(#p6dd9fa8f36)"
           style="fill: none; stroke: #000000; stroke-width: 0.5"
           id="path101" />
        <path
           d="M 428.389549 530.106509  L 428.389549 527.433297  "
           clip-path="url(#p6dd9fa8f36)"
           style="fill: none; stroke: #000000; stroke-width: 0.5"
           id="path102" />
      </g>
      <g
         id="LineCollection_5">
        <path
           d="M 87.788 19.780569  L 87.788 19.780569  "
           clip-path="url(#p6dd9fa8f36)"
           style="fill: none; stroke: #ff0000; stroke-width: 0.5"
           id="path103" />
        <path
           d="M 428.72279 522.5337  L 464.610662 522.5337  "
           clip-path="url(#p6dd9fa8f36)"
           style="fill: none; stroke: #ff0000; stroke-width: 0.5"
           id="path104" />
      </g>
      <g
         id="LineCollection_6">
        <path
           d="M 87.788 51.342349  L 87.788 -1  "
           clip-path="url(#p6dd9fa8f36)"
           style="fill: none; stroke: #ff0000; stroke-width: 0.5"
           id="path105" />
        <path
           d="M 446.666726 523.200234  L 446.666726 521.867167  "
           clip-path="url(#p6dd9fa8f36)"
           style="fill: none; stroke: #ff0000; stroke-width: 0.5"
           id="path106" />
      </g>
      <g
         id="line2d_11">
        <path
           d="M 87.788 19.780569  L 200.778063 206.430681  L 428.389549 546.24337  "
           clip-path="url(#p6dd9fa8f36)"
           style="fill: none; stroke-dasharray: 1.85,0.8; stroke-dashoffset: 0; stroke: #ff00ff; stroke-width: 0.5"
           id="path107" />
        <defs
           id="defs107">
          <path
             id="m6852c89633"
             d="M 0 5  C 1.326016 5 2.597899 4.473168 3.535534 3.535534  C 4.473168 2.597899 5 1.326016 5 0  C 5 -1.326016 4.473168 -2.597899 3.535534 -3.535534  C 2.597899 -4.473168 1.326016 -5 0 -5  C -1.326016 -5 -2.597899 -4.473168 -3.535534 -3.535534  C -4.473168 -2.597899 -5 -1.326016 -5 0  C -5 1.326016 -4.473168 2.597899 -3.535534 3.535534  C -2.597899 4.473168 -1.326016 5 0 5  z "
             style="stroke: #ff00ff" />
        </defs>
        <g
           clip-path="url(#p6dd9fa8f36)"
           id="g109">
          <use
             xlink:href="#m6852c89633"
             x="87.788"
             y="19.780569"
             style="fill: #ff00ff; stroke: #ff00ff"
             id="use107" />
          <use
             xlink:href="#m6852c89633"
             x="200.778063"
             y="206.430681"
             style="fill: #ff00ff; stroke: #ff00ff"
             id="use108" />
          <use
             xlink:href="#m6852c89633"
             x="428.389549"
             y="546.24337"
             style="fill: #ff00ff; stroke: #ff00ff"
             id="use109" />
        </g>
      </g>
      <g
         id="line2d_12">
        <path
           d="M 87.788 19.780569  L 200.778063 196.566118  L 428.389549 528.769903  "
           clip-path="url(#p6dd9fa8f36)"
           style="fill: none; stroke-dasharray: 1.85,0.8; stroke-dashoffset: 0; stroke: #000000; stroke-width: 0.5"
           id="path109" />
        <defs
           id="defs109">
          <path
             id="m9a48651a72"
             d="M 0 5  C 1.326016 5 2.597899 4.473168 3.535534 3.535534  C 4.473168 2.597899 5 1.326016 5 0  C 5 -1.326016 4.473168 -2.597899 3.535534 -3.535534  C 2.597899 -4.473168 1.326016 -5 0 -5  C -1.326016 -5 -2.597899 -4.473168 -3.535534 -3.535534  C -4.473168 -2.597899 -5 -1.326016 -5 0  C -5 1.326016 -4.473168 2.597899 -3.535534 3.535534  C -2.597899 4.473168 -1.326016 5 0 5  z "
             style="stroke: #000000" />
        </defs>
        <g
           clip-path="url(#p6dd9fa8f36)"
           id="g112">
          <use
             xlink:href="#m9a48651a72"
             x="87.788"
             y="19.780569"
             style="stroke: #000000"
             id="use110" />
          <use
             xlink:href="#m9a48651a72"
             x="200.778063"
             y="196.566118"
             style="stroke: #000000"
             id="use111" />
          <use
             xlink:href="#m9a48651a72"
             x="428.389549"
             y="528.769903"
             style="stroke: #000000"
             id="use112" />
        </g>
      </g>
      <g
         id="line2d_13">
        <path
           d="M 87.788 19.780569  L 446.666726 522.5337  "
           clip-path="url(#p6dd9fa8f36)"
           style="fill: none; stroke-dasharray: 1.85,0.8; stroke-dashoffset: 0; stroke: #ff0000; stroke-width: 0.5"
           id="path112" />
        <defs
           id="defs112">
          <path
             id="mbbe1503b69"
             d="M -5 5  L 5 5  L 5 -5  L -5 -5  z "
             style="stroke: #ff0000; stroke-linejoin: miter" />
        </defs>
        <g
           clip-path="url(#p6dd9fa8f36)"
           id="g114">
          <use
             xlink:href="#mbbe1503b69"
             x="87.788"
             y="19.780569"
             style="fill: #ff0000; stroke: #ff0000; stroke-linejoin: miter"
             id="use113" />
          <use
             xlink:href="#mbbe1503b69"
             x="446.666726"
             y="522.5337"
             style="fill: #ff0000; stroke: #ff0000; stroke-linejoin: miter"
             id="use114" />
        </g>
      </g>
      <g
         id="patch_3">
        <path
           d="M 87.788 569.79475  L 87.788 14.280427  "
           style="fill: none; stroke: #000000; stroke-width: 0.8; stroke-linejoin: miter; stroke-linecap: square"
           id="path114" />
      </g>
      <g
         id="patch_4">
        <path
           d="M 87.788 569.79475  L 637.2 569.79475  "
           style="fill: none; stroke: #000000; stroke-width: 0.8; stroke-linejoin: miter; stroke-linecap: square"
           id="path115" />
      </g>
      <g
         id="legend_1">
        <g
           id="LineCollection_7">
          <path
             d="M 344.08 35.080427  L 360.08 35.080427  "
             style="fill: none; stroke: #ff00ff; stroke-width: 0.5"
             id="path116" />
        </g>
        <g
           id="LineCollection_8">
          <path
             d="M 352.08 43.080427  L 352.08 27.080427  "
             style="fill: none; stroke: #ff00ff; stroke-width: 0.5"
             id="path117" />
        </g>
        <g
           id="line2d_14">
          <path
             d="M 336.08 35.080427  L 368.08 35.080427  "
             style="fill: none; stroke-dasharray: 1.85,0.8; stroke-dashoffset: 0; stroke: #ff00ff; stroke-width: 0.5"
             id="path118" />
        </g>
        <g
           id="line2d_15">
          <g
             id="g118">
            <use
               xlink:href="#m6852c89633"
               x="352.08"
               y="35.080427"
               style="fill: #ff00ff; stroke: #ff00ff"
               id="use118" />
          </g>
        </g>
        <g
           id="text_13">
          <!-- $\mathbf{Irr.}$  22 K, 0.33 T |  $\mathbf{Meas.}$ 0.33 T -->
          <g
             transform="translate(380.88 40.680427) scale(0.16 -0.16)"
             id="g152">
            <defs
               id="defs118">
              <path
                 id="Cmb10-49"
                 d="M 166 0  L 166 325  L 800 325  L 800 4063  L 166 4063  L 166 4391  L 2369 4391  L 2369 4063  L 1734 4063  L 1734 325  L 2369 325  L 2369 0  L 166 0  z "
                 transform="scale(0.015625)" />
              <path
                 id="Cmb10-72"
                 d="M 91 0  L 91 325  L 531 325  L 531 2322  Q 531 2503 91 2503  L 91 2828  L 1178 2881  L 1178 2356  Q 1269 2594 1436 2737  Q 1603 2881 1838 2881  Q 2006 2881 2173 2822  Q 2341 2763 2450 2641  Q 2559 2519 2559 2344  Q 2559 2178 2443 2059  Q 2328 1941 2156 1941  Q 1984 1941 1868 2059  Q 1753 2178 1753 2344  Q 1753 2513 1856 2625  L 1838 2625  Q 1488 2625 1367 2248  Q 1247 1872 1247 1416  L 1247 325  L 1806 325  L 1806 0  L 91 0  z "
                 transform="scale(0.015625)" />
              <path
                 id="Cmmi10-3a"
                 d="M 538 353  Q 538 497 644 600  Q 750 703 891 703  Q 978 703 1062 656  Q 1147 609 1194 525  Q 1241 441 1241 353  Q 1241 213 1137 106  Q 1034 0 891 0  Q 750 0 644 106  Q 538 213 538 353  z "
                 transform="scale(0.015625)" />
              <path
                 id="CMUSerif-Roman-4b"
                 d="M 211 0  C 435 19 909 19 1152 19  C 1395 19 1875 19 2099 0  L 2099 198  L 1946 198  C 1453 198 1440 269 1440 499  L 1440 1619  L 2182 2323  L 3341 608  C 3379 550 3437 467 3437 390  C 3437 198 3187 198 3059 198  L 3059 0  C 3283 19 3731 19 3974 19  C 4198 19 4442 13 4710 0  L 4710 198  C 4365 198 4230 224 4038 506  L 2560 2682  L 3712 3789  C 3763 3840 4102 4166 4621 4173  L 4621 4371  C 4454 4352 4250 4352 4077 4352  C 3846 4352 3482 4352 3264 4371  L 3264 4173  C 3520 4166 3558 4019 3558 3962  C 3558 3859 3494 3795 3443 3750  L 1440 1837  L 1440 3872  C 1440 4102 1453 4173 1946 4173  L 2099 4173  L 2099 4371  C 1875 4352 1402 4352 1158 4352  C 915 4352 435 4352 211 4371  L 211 4173  L 365 4173  C 858 4173 870 4102 870 3872  L 870 499  C 870 269 858 198 365 198  L 211 198  L 211 0  z "
                 transform="scale(0.015625)" />
              <path
                 id="CMUSerif-Roman-2c"
                 d="M 550 339  C 550 173 659 0 890 0  C 992 0 1069 38 1133 90  L 1146 102  C 1152 102 1158 96 1158 6  C 1158 -403 979 -794 698 -1094  C 659 -1133 653 -1139 653 -1165  C 653 -1210 685 -1235 717 -1235  C 794 -1235 1299 -730 1299 6  C 1299 416 1146 678 890 678  C 666 678 550 506 550 339  z "
                 transform="scale(0.015625)" />
              <path
                 id="CMUSerif-Roman-33"
                 d="M 269 864  C 269 282 864 -141 1562 -141  C 2342 -141 2925 442 2925 1094  C 2925 1619 2522 2118 1856 2253  C 2381 2426 2752 2874 2752 3379  C 2752 3904 2189 4262 1574 4262  C 928 4262 442 3878 442 3392  C 442 3181 582 3059 768 3059  C 966 3059 1094 3200 1094 3386  C 1094 3706 794 3706 698 3706  C 896 4019 1318 4102 1549 4102  C 1811 4102 2163 3962 2163 3386  C 2163 3309 2150 2938 1984 2656  C 1792 2349 1574 2330 1414 2323  C 1363 2317 1210 2304 1165 2304  C 1114 2298 1069 2291 1069 2227  C 1069 2157 1114 2157 1222 2157  L 1504 2157  C 2029 2157 2266 1722 2266 1094  C 2266 224 1824 38 1542 38  C 1267 38 787 147 563 525  C 787 493 986 634 986 877  C 986 1107 813 1235 627 1235  C 474 1235 269 1146 269 864  z "
                 transform="scale(0.015625)" />
              <path
                 id="CMUSerif-Roman-54"
                 d="M 230 2893  L 390 2893  C 480 3923 576 4134 1542 4134  C 1658 4134 1824 4134 1888 4122  C 2022 4096 2022 4026 2022 3878  L 2022 506  C 2022 288 2022 198 1350 198  L 1094 198  L 1094 0  C 1357 19 2010 19 2304 19  C 2598 19 3258 19 3520 0  L 3520 198  L 3264 198  C 2592 198 2592 288 2592 506  L 2592 3878  C 2592 4006 2592 4096 2707 4122  C 2778 4134 2950 4134 3072 4134  C 4038 4134 4134 3923 4224 2893  L 4384 2893  L 4262 4333  L 352 4333  L 230 2893  z "
                 transform="scale(0.015625)" />
              <path
                 id="CMUSerif-Roman-7c"
                 d="M 755 -1402  C 755 -1478 768 -1594 883 -1594  C 1011 -1594 1011 -1459 1011 -1357  L 1011 4602  C 1011 4768 934 4794 883 4794  C 755 4794 755 4659 755 4557  L 755 -1402  z "
                 transform="scale(0.015625)" />
              <path
                 id="Cmb10-4d"
                 d="M 219 0  L 219 325  Q 519 325 666 341  Q 819 341 819 384  L 819 4063  L 219 4063  L 219 4391  L 1672 4391  Q 1797 4391 1838 4275  L 3041 1063  L 4244 4275  Q 4284 4391 4409 4391  L 5856 4391  L 5856 4063  L 5253 4063  L 5253 325  L 5856 325  L 5856 0  L 3828 0  L 3828 325  L 4428 325  L 4428 4006  L 2975 116  Q 2934 0 2809 0  L 2766 0  Q 2641 0 2597 116  L 1184 3903  L 1184 384  Q 1184 341 1338 341  Q 1484 325 1784 325  L 1784 0  L 219 0  z "
                 transform="scale(0.015625)" />
              <path
                 id="Cmb10-65"
                 d="M 178 1441  Q 178 1856 350 2189  Q 522 2522 842 2711  Q 1163 2900 1581 2900  Q 2003 2900 2275 2726  Q 2547 2553 2675 2242  Q 2803 1931 2803 1522  Q 2803 1428 2700 1394  L 1025 1394  Q 1025 1078 1070 829  Q 1116 581 1275 412  Q 1434 244 1741 244  Q 2000 244 2208 394  Q 2416 544 2484 788  Q 2519 847 2578 863  L 2700 863  Q 2803 841 2803 750  Q 2803 744 2797 709  Q 2722 475 2553 308  Q 2384 141 2150 51  Q 1916 -38 1672 -38  Q 1347 -38 1072 67  Q 797 172 597 367  Q 397 563 287 836  Q 178 1109 178 1441  z M 1025 1631  L 2169 1631  Q 2169 1869 2120 2095  Q 2072 2322 1940 2483  Q 1809 2644 1581 2644  Q 1250 2644 1137 2341  Q 1025 2038 1025 1631  z "
                 transform="scale(0.015625)" />
              <path
                 id="Cmb10-61"
                 d="M 178 716  Q 178 1081 468 1304  Q 759 1528 1157 1618  Q 1556 1709 1925 1709  L 1925 1947  Q 1925 2228 1803 2436  Q 1681 2644 1416 2644  Q 1244 2644 1050 2613  Q 1184 2488 1184 2297  Q 1184 2119 1068 2000  Q 953 1881 775 1881  Q 597 1881 478 2000  Q 359 2119 359 2297  Q 359 2541 529 2675  Q 700 2809 937 2854  Q 1175 2900 1422 2900  Q 1731 2900 2018 2804  Q 2306 2709 2493 2498  Q 2681 2288 2681 1966  L 2681 453  Q 2709 325 3003 325  Q 3084 306 3103 225  L 3103 103  Q 3084 19 3003 0  L 2559 0  Q 2366 0 2200 100  Q 2034 200 2034 384  L 2034 434  Q 1922 219 1709 90  Q 1497 -38 1253 -38  Q 850 -38 514 153  Q 178 344 178 716  z M 1331 219  Q 1497 219 1633 305  Q 1769 391 1847 533  Q 1925 675 1925 838  L 1925 1478  Q 1697 1478 1472 1389  Q 1247 1300 1100 1125  Q 953 950 953 716  Q 953 534 1058 376  Q 1163 219 1331 219  z "
                 transform="scale(0.015625)" />
              <path
                 id="Cmb10-73"
                 d="M 213 44  L 213 934  Q 228 994 294 1013  L 459 1013  Q 522 991 538 934  Q 703 219 1259 219  Q 1825 219 1825 684  Q 1825 800 1765 892  Q 1706 984 1609 1045  Q 1513 1106 1403 1131  L 1019 1209  Q 672 1294 442 1508  Q 213 1722 213 2041  Q 213 2272 292 2440  Q 372 2609 517 2711  Q 663 2813 847 2856  Q 1031 2900 1259 2900  Q 1559 2900 1759 2791  L 1966 2894  L 1991 2900  L 2069 2900  Q 2128 2884 2144 2822  L 2144 2119  Q 2128 2050 2069 2034  L 1900 2034  Q 1834 2050 1819 2119  Q 1819 2288 1748 2411  Q 1678 2534 1550 2601  Q 1422 2669 1247 2669  Q 691 2669 691 2284  Q 691 2144 811 2048  Q 931 1953 1088 1913  L 1478 1838  Q 1713 1778 1897 1654  Q 2081 1531 2192 1339  Q 2303 1147 2303 909  Q 2303 428 2022 195  Q 1741 -38 1259 -38  Q 897 -38 659 141  L 391 -31  L 366 -38  L 294 -38  Q 228 -22 213 44  z "
                 transform="scale(0.015625)" />
            </defs>
            <use
               xlink:href="#Cmb10-49"
               transform="translate(0 0.09375)"
               id="use119" />
            <use
               xlink:href="#Cmb10-72"
               transform="translate(39.697266 0.09375)"
               id="use120" />
            <use
               xlink:href="#Cmb10-72"
               transform="translate(82.373047 0.09375)"
               id="use121" />
            <use
               xlink:href="#Cmmi10-3a"
               transform="translate(125.048828 0.09375)"
               id="use122" />
            <use
               xlink:href="#CMUSerif-Roman-20"
               transform="translate(170.292969 0.09375)"
               id="use123" />
            <use
               xlink:href="#CMUSerif-Roman-20"
               transform="translate(203.592957 0.09375)"
               id="use124" />
            <use
               xlink:href="#CMUSerif-Roman-32"
               transform="translate(236.892944 0.09375)"
               id="use125" />
            <use
               xlink:href="#CMUSerif-Roman-32"
               transform="translate(286.892929 0.09375)"
               id="use126" />
            <use
               xlink:href="#CMUSerif-Roman-20"
               transform="translate(336.892914 0.09375)"
               id="use127" />
            <use
               xlink:href="#CMUSerif-Roman-4b"
               transform="translate(370.192902 0.09375)"
               id="use128" />
            <use
               xlink:href="#CMUSerif-Roman-2c"
               transform="translate(447.892883 0.09375)"
               id="use129" />
            <use
               xlink:href="#CMUSerif-Roman-20"
               transform="translate(475.59288 0.09375)"
               id="use130" />
            <use
               xlink:href="#CMUSerif-Roman-30"
               transform="translate(508.892868 0.09375)"
               id="use131" />
            <use
               xlink:href="#CMUSerif-Roman-2e"
               transform="translate(558.892853 0.09375)"
               id="use132" />
            <use
               xlink:href="#CMUSerif-Roman-33"
               transform="translate(586.692841 0.09375)"
               id="use133" />
            <use
               xlink:href="#CMUSerif-Roman-33"
               transform="translate(636.692825 0.09375)"
               id="use134" />
            <use
               xlink:href="#CMUSerif-Roman-20"
               transform="translate(686.69281 0.09375)"
               id="use135" />
            <use
               xlink:href="#CMUSerif-Roman-54"
               transform="translate(719.992798 0.09375)"
               id="use136" />
            <use
               xlink:href="#CMUSerif-Roman-20"
               transform="translate(792.19278 0.09375)"
               id="use137" />
            <use
               xlink:href="#CMUSerif-Roman-7c"
               transform="translate(825.492767 0.09375)"
               id="use138" />
            <use
               xlink:href="#CMUSerif-Roman-20"
               transform="translate(853.292755 0.09375)"
               id="use139" />
            <use
               xlink:href="#CMUSerif-Roman-20"
               transform="translate(886.592743 0.09375)"
               id="use140" />
            <use
               xlink:href="#Cmb10-4d"
               transform="translate(919.892731 0.09375)"
               id="use141" />
            <use
               xlink:href="#Cmb10-65"
               transform="translate(1014.912262 0.09375)"
               id="use142" />
            <use
               xlink:href="#Cmb10-61"
               transform="translate(1061.494293 0.09375)"
               id="use143" />
            <use
               xlink:href="#Cmb10-73"
               transform="translate(1110.078278 0.09375)"
               id="use144" />
            <use
               xlink:href="#Cmmi10-3a"
               transform="translate(1149.482574 0.09375)"
               id="use145" />
            <use
               xlink:href="#CMUSerif-Roman-20"
               transform="translate(1194.726715 0.09375)"
               id="use146" />
            <use
               xlink:href="#CMUSerif-Roman-30"
               transform="translate(1228.026703 0.09375)"
               id="use147" />
            <use
               xlink:href="#CMUSerif-Roman-2e"
               transform="translate(1278.026688 0.09375)"
               id="use148" />
            <use
               xlink:href="#CMUSerif-Roman-33"
               transform="translate(1305.826675 0.09375)"
               id="use149" />
            <use
               xlink:href="#CMUSerif-Roman-33"
               transform="translate(1355.82666 0.09375)"
               id="use150" />
            <use
               xlink:href="#CMUSerif-Roman-20"
               transform="translate(1405.826645 0.09375)"
               id="use151" />
            <use
               xlink:href="#CMUSerif-Roman-54"
               transform="translate(1439.126633 0.09375)"
               id="use152" />
          </g>
        </g>
        <g
           id="LineCollection_9">
          <path
             d="M 344.08 59.080427  L 360.08 59.080427  "
             style="fill: none; stroke: #000000; stroke-width: 0.5"
             id="path152" />
        </g>
        <g
           id="LineCollection_10">
          <path
             d="M 352.08 67.080427  L 352.08 51.080427  "
             style="fill: none; stroke: #000000; stroke-width: 0.5"
             id="path153" />
        </g>
        <g
           id="line2d_16">
          <path
             d="M 336.08 59.080427  L 368.08 59.080427  "
             style="fill: none; stroke-dasharray: 1.85,0.8; stroke-dashoffset: 0; stroke: #000000; stroke-width: 0.5"
             id="path154" />
        </g>
        <g
           id="line2d_17">
          <g
             id="g154">
            <use
               xlink:href="#m9a48651a72"
               x="352.08"
               y="59.080427"
               style="stroke: #000000"
               id="use154" />
          </g>
        </g>
        <g
           id="text_14">
          <!-- $\mathbf{Irr.}$  22 K, 0.33 T |  $\mathbf{Meas.}$ s.f. -->
          <g
             transform="translate(380.88 64.680427) scale(0.16 -0.16)"
             id="g186">
            <defs
               id="defs154">
              <path
                 id="CMUSerif-Roman-73"
                 d="M 211 83  C 211 -26 211 -70 282 -70  C 314 -70 320 -64 442 58  C 454 70 454 83 570 205  C 851 -64 1139 -70 1274 -70  C 2010 -70 2304 358 2304 819  C 2304 1158 2112 1350 2035 1427  C 1824 1632 1574 1683 1306 1734  C 947 1805 518 1888 518 2259  C 518 2483 685 2746 1235 2746  C 1939 2746 1971 2170 1984 1971  C 1990 1914 2048 1914 2061 1914  C 2144 1914 2144 1946 2144 2067  L 2144 2714  C 2144 2822 2144 2867 2074 2867  C 2042 2867 2029 2867 1946 2790  C 1926 2765 1862 2707 1837 2688  C 1594 2867 1331 2867 1235 2867  C 454 2867 211 2438 211 2080  C 211 1856 314 1677 486 1536  C 691 1370 870 1331 1331 1242  C 1472 1216 1997 1114 1997 653  C 1997 326 1773 70 1274 70  C 736 70 506 435 384 979  C 365 1062 358 1088 294 1088  C 211 1088 211 1043 211 928  L 211 83  z "
                 transform="scale(0.015625)" />
            </defs>
            <use
               xlink:href="#Cmb10-49"
               transform="translate(0 0.09375)"
               id="use155" />
            <use
               xlink:href="#Cmb10-72"
               transform="translate(39.697266 0.09375)"
               id="use156" />
            <use
               xlink:href="#Cmb10-72"
               transform="translate(82.373047 0.09375)"
               id="use157" />
            <use
               xlink:href="#Cmmi10-3a"
               transform="translate(125.048828 0.09375)"
               id="use158" />
            <use
               xlink:href="#CMUSerif-Roman-20"
               transform="translate(170.292969 0.09375)"
               id="use159" />
            <use
               xlink:href="#CMUSerif-Roman-20"
               transform="translate(203.592957 0.09375)"
               id="use160" />
            <use
               xlink:href="#CMUSerif-Roman-32"
               transform="translate(236.892944 0.09375)"
               id="use161" />
            <use
               xlink:href="#CMUSerif-Roman-32"
               transform="translate(286.892929 0.09375)"
               id="use162" />
            <use
               xlink:href="#CMUSerif-Roman-20"
               transform="translate(336.892914 0.09375)"
               id="use163" />
            <use
               xlink:href="#CMUSerif-Roman-4b"
               transform="translate(370.192902 0.09375)"
               id="use164" />
            <use
               xlink:href="#CMUSerif-Roman-2c"
               transform="translate(447.892883 0.09375)"
               id="use165" />
            <use
               xlink:href="#CMUSerif-Roman-20"
               transform="translate(475.59288 0.09375)"
               id="use166" />
            <use
               xlink:href="#CMUSerif-Roman-30"
               transform="translate(508.892868 0.09375)"
               id="use167" />
            <use
               xlink:href="#CMUSerif-Roman-2e"
               transform="translate(558.892853 0.09375)"
               id="use168" />
            <use
               xlink:href="#CMUSerif-Roman-33"
               transform="translate(586.692841 0.09375)"
               id="use169" />
            <use
               xlink:href="#CMUSerif-Roman-33"
               transform="translate(636.692825 0.09375)"
               id="use170" />
            <use
               xlink:href="#CMUSerif-Roman-20"
               transform="translate(686.69281 0.09375)"
               id="use171" />
            <use
               xlink:href="#CMUSerif-Roman-54"
               transform="translate(719.992798 0.09375)"
               id="use172" />
            <use
               xlink:href="#CMUSerif-Roman-20"
               transform="translate(792.19278 0.09375)"
               id="use173" />
            <use
               xlink:href="#CMUSerif-Roman-7c"
               transform="translate(825.492767 0.09375)"
               id="use174" />
            <use
               xlink:href="#CMUSerif-Roman-20"
               transform="translate(853.292755 0.09375)"
               id="use175" />
            <use
               xlink:href="#CMUSerif-Roman-20"
               transform="translate(886.592743 0.09375)"
               id="use176" />
            <use
               xlink:href="#Cmb10-4d"
               transform="translate(919.892731 0.09375)"
               id="use177" />
            <use
               xlink:href="#Cmb10-65"
               transform="translate(1014.912262 0.09375)"
               id="use178" />
            <use
               xlink:href="#Cmb10-61"
               transform="translate(1061.494293 0.09375)"
               id="use179" />
            <use
               xlink:href="#Cmb10-73"
               transform="translate(1110.078278 0.09375)"
               id="use180" />
            <use
               xlink:href="#Cmmi10-3a"
               transform="translate(1149.482574 0.09375)"
               id="use181" />
            <use
               xlink:href="#CMUSerif-Roman-20"
               transform="translate(1194.726715 0.09375)"
               id="use182" />
            <use
               xlink:href="#CMUSerif-Roman-73"
               transform="translate(1228.026703 0.09375)"
               id="use183" />
            <use
               xlink:href="#CMUSerif-Roman-2e"
               transform="translate(1267.426697 0.09375)"
               id="use184" />
            <use
               xlink:href="#CMUSerif-Roman-66"
               transform="translate(1295.226685 0.09375)"
               id="use185" />
            <use
               xlink:href="#CMUSerif-Roman-2e"
               transform="translate(1325.726669 0.09375)"
               id="use186" />
          </g>
        </g>
        <g
           id="LineCollection_11">
          <path
             d="M 344.08 83.080427  L 360.08 83.080427  "
             style="fill: none; stroke: #ff0000; stroke-width: 0.5"
             id="path186" />
        </g>
        <g
           id="LineCollection_12">
          <path
             d="M 352.08 91.080427  L 352.08 75.080427  "
             style="fill: none; stroke: #ff0000; stroke-width: 0.5"
             id="path187" />
        </g>
        <g
           id="line2d_18">
          <path
             d="M 336.08 83.080427  L 368.08 83.080427  "
             style="fill: none; stroke-dasharray: 1.85,0.8; stroke-dashoffset: 0; stroke: #ff0000; stroke-width: 0.5"
             id="path188" />
        </g>
        <g
           id="line2d_19">
          <g
             id="g188">
            <use
               xlink:href="#mbbe1503b69"
               x="352.08"
               y="83.080427"
               style="fill: #ff0000; stroke: #ff0000; stroke-linejoin: miter"
               id="use188" />
          </g>
        </g>
        <g
           id="text_15">
          <!-- $\mathbf{Irr.}$ 300 K,    0 T |  $\mathbf{Meas.}$ s.f. -->
          <g
             transform="translate(380.88 88.680427) scale(0.16 -0.16)"
             id="g220">
            <use
               xlink:href="#Cmb10-49"
               transform="translate(0 0.09375)"
               id="use189" />
            <use
               xlink:href="#Cmb10-72"
               transform="translate(39.697266 0.09375)"
               id="use190" />
            <use
               xlink:href="#Cmb10-72"
               transform="translate(82.373047 0.09375)"
               id="use191" />
            <use
               xlink:href="#Cmmi10-3a"
               transform="translate(125.048828 0.09375)"
               id="use192" />
            <use
               xlink:href="#CMUSerif-Roman-20"
               transform="translate(170.292969 0.09375)"
               id="use193" />
            <use
               xlink:href="#CMUSerif-Roman-33"
               transform="translate(203.592957 0.09375)"
               id="use194" />
            <use
               xlink:href="#CMUSerif-Roman-30"
               transform="translate(253.592941 0.09375)"
               id="use195" />
            <use
               xlink:href="#CMUSerif-Roman-30"
               transform="translate(303.592926 0.09375)"
               id="use196" />
            <use
               xlink:href="#CMUSerif-Roman-20"
               transform="translate(353.592911 0.09375)"
               id="use197" />
            <use
               xlink:href="#CMUSerif-Roman-4b"
               transform="translate(386.892899 0.09375)"
               id="use198" />
            <use
               xlink:href="#CMUSerif-Roman-2c"
               transform="translate(464.59288 0.09375)"
               id="use199" />
            <use
               xlink:href="#CMUSerif-Roman-20"
               transform="translate(492.292877 0.09375)"
               id="use200" />
            <use
               xlink:href="#CMUSerif-Roman-20"
               transform="translate(525.592865 0.09375)"
               id="use201" />
            <use
               xlink:href="#CMUSerif-Roman-20"
               transform="translate(558.892853 0.09375)"
               id="use202" />
            <use
               xlink:href="#CMUSerif-Roman-20"
               transform="translate(592.192841 0.09375)"
               id="use203" />
            <use
               xlink:href="#CMUSerif-Roman-30"
               transform="translate(625.492828 0.09375)"
               id="use204" />
            <use
               xlink:href="#CMUSerif-Roman-20"
               transform="translate(675.492813 0.09375)"
               id="use205" />
            <use
               xlink:href="#CMUSerif-Roman-54"
               transform="translate(708.792801 0.09375)"
               id="use206" />
            <use
               xlink:href="#CMUSerif-Roman-20"
               transform="translate(780.992783 0.09375)"
               id="use207" />
            <use
               xlink:href="#CMUSerif-Roman-7c"
               transform="translate(814.29277 0.09375)"
               id="use208" />
            <use
               xlink:href="#CMUSerif-Roman-20"
               transform="translate(842.092758 0.09375)"
               id="use209" />
            <use
               xlink:href="#CMUSerif-Roman-20"
               transform="translate(875.392746 0.09375)"
               id="use210" />
            <use
               xlink:href="#Cmb10-4d"
               transform="translate(908.692734 0.09375)"
               id="use211" />
            <use
               xlink:href="#Cmb10-65"
               transform="translate(1003.712265 0.09375)"
               id="use212" />
            <use
               xlink:href="#Cmb10-61"
               transform="translate(1050.294296 0.09375)"
               id="use213" />
            <use
               xlink:href="#Cmb10-73"
               transform="translate(1098.878281 0.09375)"
               id="use214" />
            <use
               xlink:href="#Cmmi10-3a"
               transform="translate(1138.282578 0.09375)"
               id="use215" />
            <use
               xlink:href="#CMUSerif-Roman-20"
               transform="translate(1183.526718 0.09375)"
               id="use216" />
            <use
               xlink:href="#CMUSerif-Roman-73"
               transform="translate(1216.826706 0.09375)"
               id="use217" />
            <use
               xlink:href="#CMUSerif-Roman-2e"
               transform="translate(1256.2267 0.09375)"
               id="use218" />
            <use
               xlink:href="#CMUSerif-Roman-66"
               transform="translate(1284.026688 0.09375)"
               id="use219" />
            <use
               xlink:href="#CMUSerif-Roman-2e"
               transform="translate(1314.526672 0.09375)"
               id="use220" />
          </g>
        </g>
      </g>
    </g>
  </g>
  <defs
     id="defs220">
    <clipPath
       id="p6dd9fa8f36">
      <rect
         x="87.788"
         y="14.280427"
         width="549.412"
         height="555.514323"
         id="rect220" />
    </clipPath>
  </defs>
  <text
     xml:space="preserve"
     style="font-size:28px;line-height:1;font-family:'CMU Serif';-inkscape-font-specification:'CMU Serif, Normal';word-spacing:0px;fill:#ff0000;fill-opacity:1;stroke-width:1.13386;paint-order:markers stroke fill"
     x="534.88031"
     y="-81.668457"
     id="text220"
     transform="rotate(55.193552)"><tspan
       sodipodi:role="line"
       id="tspan220"
       style="fill:#ff0000;fill-opacity:1;stroke-width:1.13386"
       x="534.88031"
       y="-81.668457">r = -19.7%</tspan></text>
  <text
     xml:space="preserve"
     style="font-size:28px;line-height:1;font-family:'CMU Serif';-inkscape-font-specification:'CMU Serif, Normal';word-spacing:0px;fill:#000000;fill-opacity:1;stroke-width:1.13386;stroke-linecap:butt;stroke-linejoin:round;paint-order:markers stroke fill"
     x="256.60394"
     y="-20.115808"
     id="text220-7"
     transform="rotate(55.987874)"><tspan
       sodipodi:role="line"
       id="tspan220-3"
       style="fill:#000000;fill-opacity:1;stroke-width:1.13386"
       x="256.60394"
       y="-20.115808">r = -21.5 0.4%</tspan></text>
</svg>
