<?xml version="1.0" encoding="UTF-8" standalone="no"?>
<svg
   width="576pt"
   height="576pt"
   viewBox="0 0 576 576"
   version="1.1"
   id="svg213"
   sodipodi:docname="icrecovery.svg"
   inkscape:version="1.3.2 (091e20e, 2023-11-25)"
   inkscape:export-filename="icrecovery.png"
   inkscape:export-xdpi="96"
   inkscape:export-ydpi="96"
   xmlns:inkscape="http://www.inkscape.org/namespaces/inkscape"
   xmlns:sodipodi="http://sodipodi.sourceforge.net/DTD/sodipodi-0.dtd"
   xmlns:xlink="http://www.w3.org/1999/xlink"
   xmlns="http://www.w3.org/2000/svg"
   xmlns:svg="http://www.w3.org/2000/svg"
   xmlns:rdf="http://www.w3.org/1999/02/22-rdf-syntax-ns#"
   xmlns:cc="http://creativecommons.org/ns#"
   xmlns:dc="http://purl.org/dc/elements/1.1/">
  <sodipodi:namedview
     id="namedview213"
     pagecolor="#ffffff"
     bordercolor="#000000"
     borderopacity="0.25"
     inkscape:showpageshadow="2"
     inkscape:pageopacity="0.0"
     inkscape:pagecheckerboard="0"
     inkscape:deskcolor="#d1d1d1"
     inkscape:document-units="pt"
     inkscape:zoom="0.7423415"
     inkscape:cx="732.81636"
     inkscape:cy="420.29174"
     inkscape:window-width="1872"
     inkscape:window-height="999"
     inkscape:window-x="58"
     inkscape:window-y="25"
     inkscape:window-maximized="0"
     inkscape:current-layer="axes_1" />
  <metadata
     id="metadata1">
    <rdf:RDF>
      <cc:Work>
        <dc:type
           rdf:resource="http://purl.org/dc/dcmitype/StillImage" />
        <dc:date>2025-08-28T22:24:53.570104</dc:date>
        <dc:format>image/svg+xml</dc:format>
        <dc:creator>
          <cc:Agent>
            <dc:title>Matplotlib v3.10.0, https://matplotlib.org/</dc:title>
          </cc:Agent>
        </dc:creator>
      </cc:Work>
    </rdf:RDF>
  </metadata>
  <defs
     id="defs1">
    <marker
       style="overflow:visible"
       id="Triangle"
       refX="0"
       refY="0"
       orient="auto-start-reverse"
       inkscape:stockid="Triangle arrow"
       markerWidth="1"
       markerHeight="1"
       viewBox="0 0 1 1"
       inkscape:isstock="true"
       inkscape:collect="always"
       preserveAspectRatio="xMidYMid">
      <path
         transform="scale(0.5)"
         style="fill:context-stroke;fill-rule:evenodd;stroke:context-stroke;stroke-width:1pt"
         d="M 5.77,0 -2.88,5 V -5 Z"
         id="path135" />
    </marker>
    <style
       type="text/css"
       id="style1">*{stroke-linejoin: round; stroke-linecap: butt}</style>
    <marker
       style="overflow:visible"
       id="Triangle-8"
       refX="0"
       refY="0"
       orient="auto-start-reverse"
       inkscape:stockid="Triangle arrow"
       markerWidth="1"
       markerHeight="1"
       viewBox="0 0 1 1"
       inkscape:isstock="true"
       inkscape:collect="always"
       preserveAspectRatio="xMidYMid">
      <path
         transform="scale(0.5)"
         style="fill:context-stroke;fill-rule:evenodd;stroke:context-stroke;stroke-width:1pt"
         d="M 5.77,0 -2.88,5 V -5 Z"
         id="path135-3" />
    </marker>
    <marker
       style="overflow:visible"
       id="Triangle-8-0"
       refX="0"
       refY="0"
       orient="auto-start-reverse"
       inkscape:stockid="Triangle arrow"
       markerWidth="1"
       markerHeight="1"
       viewBox="0 0 1 1"
       inkscape:isstock="true"
       inkscape:collect="always"
       preserveAspectRatio="xMidYMid">
      <path
         transform="scale(0.5)"
         style="fill:context-stroke;fill-rule:evenodd;stroke:context-stroke;stroke-width:1pt"
         d="M 5.77,0 -2.88,5 V -5 Z"
         id="path135-3-3" />
    </marker>
    <marker
       style="overflow:visible"
       id="Triangle-8-7"
       refX="0"
       refY="0"
       orient="auto-start-reverse"
       inkscape:stockid="Triangle arrow"
       markerWidth="1"
       markerHeight="1"
       viewBox="0 0 1 1"
       inkscape:isstock="true"
       inkscape:collect="always"
       preserveAspectRatio="xMidYMid">
      <path
         transform="scale(0.5)"
         style="fill:context-stroke;fill-rule:evenodd;stroke:context-stroke;stroke-width:1pt"
         d="M 5.77,0 -2.88,5 V -5 Z"
         id="path135-3-1" />
    </marker>
  </defs>
  <g
     id="figure_1">
    <g
       id="patch_1">
      <path
         d="M 0 576  L 576 576  L 576 0  L 0 0  L 0 576  z "
         style="fill: none"
         id="path1" />
    </g>
    <g
       id="axes_1">
      <g
         id="patch_2">
        <path
           d="M 77.744 516.1525  L 561.988033 516.1525  L 561.988033 10.8  L 77.744 10.8  L 77.744 516.1525  z "
           style="fill: none"
           id="path2" />
      </g>
      <g
         id="matplotlib.axis_1">
        <g
           id="xtick_1">
          <g
             id="line2d_1">
            <defs
               id="defs2">
              <path
                 id="m85abdca88a"
                 d="M 0 0  L 0 8  "
                 style="stroke: #000000; stroke-width: 2" />
            </defs>
            <g
               id="g2">
              <use
                 xlink:href="#m85abdca88a"
                 x="77.744"
                 y="516.1525"
                 style="stroke: #000000; stroke-width: 2"
                 id="use2" />
            </g>
          </g>
          <g
             id="text_1">
            <!-- 0 -->
            <g
               transform="translate(74.244 537.369375) scale(0.14 -0.14)"
               id="g3">
              <defs
                 id="defs3">
                <path
                   id="CMUSerif-Roman-30"
                   d="M 250 2048  C 250 1568 275 992 538 506  C 813 -13 1280 -141 1594 -141  C 1939 -141 2426 -6 2707 602  C 2912 1043 2944 1542 2944 2048  C 2944 2560 2912 3072 2688 3546  C 2394 4160 1869 4262 1600 4262  C 1216 4262 749 4096 486 3501  C 282 3059 250 2560 250 2048  z M 781 2125  C 781 2534 781 2957 832 3302  C 954 4064 1434 4122 1594 4122  C 1805 4122 2227 4006 2349 3373  C 2413 3014 2413 2528 2413 2125  C 2413 1645 2413 1210 2342 800  C 2246 192 1882 0 1594 0  C 1344 0 966 160 851 774  C 781 1158 781 1747 781 2125  z "
                   transform="scale(0.015625)" />
              </defs>
              <use
                 xlink:href="#CMUSerif-Roman-30"
                 id="use3" />
            </g>
          </g>
        </g>
        <g
           id="xtick_2">
          <g
             id="line2d_2">
            <g
               id="g4">
              <use
                 xlink:href="#m85abdca88a"
                 x="157.128268"
                 y="516.1525"
                 style="stroke: #000000; stroke-width: 2"
                 id="use4" />
            </g>
          </g>
          <g
             id="text_2">
            <!-- 50 -->
            <g
               transform="translate(150.128268 537.369375) scale(0.14 -0.14)"
               id="g6">
              <defs
                 id="defs4">
                <path
                   id="CMUSerif-Roman-35"
                   d="M 320 1030  C 320 480 762 -141 1478 -141  C 2221 -141 2874 474 2874 1286  C 2874 2048 2349 2688 1658 2688  C 1350 2688 1075 2586 845 2362  L 845 3610  C 973 3571 1184 3526 1389 3526  C 2176 3526 2624 4109 2624 4192  C 2624 4230 2605 4262 2560 4262  C 2554 4262 2541 4262 2509 4243  C 2381 4186 2067 4058 1638 4058  C 1382 4058 1088 4102 787 4237  C 736 4256 723 4256 710 4256  C 646 4256 646 4205 646 4102  L 646 2208  C 646 2093 646 2042 736 2042  C 781 2042 794 2061 819 2099  C 890 2202 1126 2547 1645 2547  C 1978 2547 2138 2253 2189 2138  C 2291 1901 2304 1651 2304 1331  C 2304 1107 2304 723 2150 454  C 1997 205 1760 38 1466 38  C 998 38 634 378 525 755  C 544 749 563 742 634 742  C 845 742 954 902 954 1056  C 954 1210 845 1370 634 1370  C 544 1370 320 1325 320 1030  z "
                   transform="scale(0.015625)" />
              </defs>
              <use
                 xlink:href="#CMUSerif-Roman-35"
                 id="use5" />
              <use
                 xlink:href="#CMUSerif-Roman-30"
                 transform="translate(49.999985 0)"
                 id="use6" />
            </g>
          </g>
        </g>
        <g
           id="xtick_3">
          <g
             id="line2d_3">
            <g
               id="g7">
              <use
                 xlink:href="#m85abdca88a"
                 x="236.512535"
                 y="516.1525"
                 style="stroke: #000000; stroke-width: 2"
                 id="use7" />
            </g>
          </g>
          <g
             id="text_3">
            <!-- 100 -->
            <g
               transform="translate(226.012535 537.369375) scale(0.14 -0.14)"
               id="g10">
              <defs
                 id="defs7">
                <path
                   id="CMUSerif-Roman-31"
                   d="M 570 3654  C 698 3654 1075 3654 1408 3821  L 1408 506  C 1408 275 1389 198 813 198  L 608 198  L 608 0  C 832 19 1389 19 1645 19  C 1901 19 2458 19 2682 0  L 2682 198  L 2477 198  C 1901 198 1882 269 1882 506  L 1882 4096  C 1882 4250 1882 4262 1734 4262  C 1338 3853 774 3853 570 3853  L 570 3654  z "
                   transform="scale(0.015625)" />
              </defs>
              <use
                 xlink:href="#CMUSerif-Roman-31"
                 id="use8" />
              <use
                 xlink:href="#CMUSerif-Roman-30"
                 transform="translate(49.999985 0)"
                 id="use9" />
              <use
                 xlink:href="#CMUSerif-Roman-30"
                 transform="translate(99.999969 0)"
                 id="use10" />
            </g>
          </g>
        </g>
        <g
           id="xtick_4">
          <g
             id="line2d_4">
            <g
               id="g11">
              <use
                 xlink:href="#m85abdca88a"
                 x="315.896803"
                 y="516.1525"
                 style="stroke: #000000; stroke-width: 2"
                 id="use11" />
            </g>
          </g>
          <g
             id="text_4">
            <!-- 150 -->
            <g
               transform="translate(305.396803 537.369375) scale(0.14 -0.14)"
               id="g14">
              <use
                 xlink:href="#CMUSerif-Roman-31"
                 id="use12" />
              <use
                 xlink:href="#CMUSerif-Roman-35"
                 transform="translate(49.999985 0)"
                 id="use13" />
              <use
                 xlink:href="#CMUSerif-Roman-30"
                 transform="translate(99.999969 0)"
                 id="use14" />
            </g>
          </g>
        </g>
        <g
           id="xtick_5">
          <g
             id="line2d_5">
            <g
               id="g15">
              <use
                 xlink:href="#m85abdca88a"
                 x="395.281071"
                 y="516.1525"
                 style="stroke: #000000; stroke-width: 2"
                 id="use15" />
            </g>
          </g>
          <g
             id="text_5">
            <!-- 200 -->
            <g
               transform="translate(384.781071 537.369375) scale(0.14 -0.14)"
               id="g18">
              <defs
                 id="defs15">
                <path
                   id="CMUSerif-Roman-32"
                   d="M 320 0  L 2694 0  L 2874 1114  L 2714 1114  C 2682 922 2637 640 2573 544  C 2528 493 2106 493 1965 493  L 813 493  L 1491 1152  C 2490 2035 2874 2381 2874 3021  C 2874 3750 2298 4262 1517 4262  C 794 4262 320 3674 320 3104  C 320 2746 640 2746 659 2746  C 768 2746 992 2822 992 3085  C 992 3251 877 3418 653 3418  C 602 3418 589 3418 570 3411  C 717 3827 1062 4064 1434 4064  C 2016 4064 2291 3546 2291 3021  C 2291 2509 1971 2003 1619 1606  L 390 237  C 320 166 320 154 320 0  z "
                   transform="scale(0.015625)" />
              </defs>
              <use
                 xlink:href="#CMUSerif-Roman-32"
                 id="use16" />
              <use
                 xlink:href="#CMUSerif-Roman-30"
                 transform="translate(49.999985 0)"
                 id="use17" />
              <use
                 xlink:href="#CMUSerif-Roman-30"
                 transform="translate(99.999969 0)"
                 id="use18" />
            </g>
          </g>
        </g>
        <g
           id="xtick_6">
          <g
             id="line2d_6">
            <g
               id="g19">
              <use
                 xlink:href="#m85abdca88a"
                 x="474.665338"
                 y="516.1525"
                 style="stroke: #000000; stroke-width: 2"
                 id="use19" />
            </g>
          </g>
          <g
             id="text_6">
            <!-- 250 -->
            <g
               transform="translate(464.165338 537.369375) scale(0.14 -0.14)"
               id="g22">
              <use
                 xlink:href="#CMUSerif-Roman-32"
                 id="use20" />
              <use
                 xlink:href="#CMUSerif-Roman-35"
                 transform="translate(49.999985 0)"
                 id="use21" />
              <use
                 xlink:href="#CMUSerif-Roman-30"
                 transform="translate(99.999969 0)"
                 id="use22" />
            </g>
          </g>
        </g>
        <g
           id="xtick_7">
          <g
             id="line2d_7">
            <g
               id="g23">
              <use
                 xlink:href="#m85abdca88a"
                 x="554.049606"
                 y="516.1525"
                 style="stroke: #000000; stroke-width: 2"
                 id="use23" />
            </g>
          </g>
          <g
             id="text_7">
            <!-- 300 -->
            <g
               transform="translate(543.549606 537.369375) scale(0.14 -0.14)"
               id="g26">
              <defs
                 id="defs23">
                <path
                   id="CMUSerif-Roman-33"
                   d="M 269 864  C 269 282 864 -141 1562 -141  C 2342 -141 2925 442 2925 1094  C 2925 1619 2522 2118 1856 2253  C 2381 2426 2752 2874 2752 3379  C 2752 3904 2189 4262 1574 4262  C 928 4262 442 3878 442 3392  C 442 3181 582 3059 768 3059  C 966 3059 1094 3200 1094 3386  C 1094 3706 794 3706 698 3706  C 896 4019 1318 4102 1549 4102  C 1811 4102 2163 3962 2163 3386  C 2163 3309 2150 2938 1984 2656  C 1792 2349 1574 2330 1414 2323  C 1363 2317 1210 2304 1165 2304  C 1114 2298 1069 2291 1069 2227  C 1069 2157 1114 2157 1222 2157  L 1504 2157  C 2029 2157 2266 1722 2266 1094  C 2266 224 1824 38 1542 38  C 1267 38 787 147 563 525  C 787 493 986 634 986 877  C 986 1107 813 1235 627 1235  C 474 1235 269 1146 269 864  z "
                   transform="scale(0.015625)" />
              </defs>
              <use
                 xlink:href="#CMUSerif-Roman-33"
                 id="use24" />
              <use
                 xlink:href="#CMUSerif-Roman-30"
                 transform="translate(49.999985 0)"
                 id="use25" />
              <use
                 xlink:href="#CMUSerif-Roman-30"
                 transform="translate(99.999969 0)"
                 id="use26" />
            </g>
          </g>
        </g>
        <g
           id="text_8">
          <!-- Anneal Temperature [K] -->
          <g
             transform="translate(212.395704 559.08625) scale(0.2 -0.2)"
             id="g48">
            <defs
               id="defs26">
              <path
                 id="CMUSerif-Roman-41"
                 d="M 205 0  C 352 6 627 19 858 19  C 1056 19 1389 6 1594 0  L 1594 198  C 1274 198 1114 358 1114 525  C 1114 544 1120 608 1126 621  L 1421 1459  L 3002 1459  L 3341 480  C 3347 454 3360 416 3360 390  C 3360 198 3002 198 2829 198  L 2829 0  C 3059 19 3507 19 3750 19  C 4026 19 4320 13 4589 0  L 4589 198  L 4474 198  C 4090 198 4000 243 3930 454  L 2547 4454  C 2515 4538 2502 4582 2400 4582  C 2298 4582 2278 4544 2246 4454  L 922 627  C 806 301 550 205 205 198  L 205 0  z M 1491 1658  L 2208 3738  L 2931 1658  L 1491 1658  z "
                 transform="scale(0.015625)" />
              <path
                 id="CMUSerif-Roman-6e"
                 d="M 205 0  C 429 6 755 19 928 19  C 1094 19 1427 6 1645 0  L 1645 198  C 1216 198 1146 198 1146 486  L 1146 1664  C 1146 2330 1600 2688 2010 2688  C 2413 2688 2483 2342 2483 1978  L 2483 486  C 2483 198 2413 198 1984 198  L 1984 0  C 2208 6 2534 19 2707 19  C 2874 19 3206 6 3424 0  L 3424 198  C 3091 198 2931 198 2925 390  L 2925 1613  C 2925 2163 2925 2362 2726 2592  C 2637 2701 2426 2829 2054 2829  C 1587 2829 1286 2554 1107 2157  L 1107 2829  L 205 2758  L 205 2560  C 653 2560 704 2515 704 2202  L 704 486  C 704 198 634 198 205 198  L 205 0  z "
                 transform="scale(0.015625)" />
              <path
                 id="CMUSerif-Roman-65"
                 d="M 179 1408  C 179 550 851 -70 1587 -70  C 2368 -70 2656 640 2656 762  C 2656 826 2605 838 2573 838  C 2515 838 2502 800 2490 749  C 2266 90 1690 90 1626 90  C 1306 90 1050 282 902 518  C 710 826 710 1248 710 1478  L 2496 1478  C 2637 1478 2656 1478 2656 1613  C 2656 2246 2310 2867 1510 2867  C 768 2867 179 2208 179 1408  z M 717 1613  C 755 2566 1293 2726 1510 2726  C 2170 2726 2234 1862 2234 1613  L 717 1613  z "
                 transform="scale(0.015625)" />
              <path
                 id="CMUSerif-Roman-61"
                 d="M 269 608  C 269 90 890 -70 1293 -70  C 1715 -70 2010 186 2131 486  C 2157 230 2330 -38 2630 -38  C 2765 -38 3155 51 3155 570  L 3155 928  L 2995 928  L 2995 570  C 2995 198 2835 160 2765 160  C 2554 160 2528 448 2528 480  L 2528 1760  C 2528 2029 2528 2278 2298 2515  C 2048 2765 1728 2867 1421 2867  C 896 2867 454 2566 454 2144  C 454 1952 582 1843 749 1843  C 928 1843 1043 1971 1043 2138  C 1043 2214 1011 2426 717 2432  C 890 2656 1203 2726 1408 2726  C 1722 2726 2086 2477 2086 1907  L 2086 1670  C 1760 1651 1312 1632 909 1440  C 429 1222 269 890 269 608  z M 762 614  C 762 966 1030 1498 2086 1536  L 2086 896  C 2086 288 1626 70 1338 70  C 1024 70 762 294 762 614  z "
                 transform="scale(0.015625)" />
              <path
                 id="CMUSerif-Roman-6c"
                 d="M 211 0  C 422 6 762 19 922 19  C 1082 19 1395 6 1632 0  L 1632 198  C 1203 198 1133 198 1133 486  L 1133 4442  L 211 4371  L 211 4173  C 659 4173 710 4128 710 3814  L 710 486  C 710 198 640 198 211 198  L 211 0  z "
                 transform="scale(0.015625)" />
              <path
                 id="CMUSerif-Roman-20"
                 transform="scale(0.015625)" />
              <path
                 id="CMUSerif-Roman-54"
                 d="M 230 2893  L 390 2893  C 480 3923 576 4134 1542 4134  C 1658 4134 1824 4134 1888 4122  C 2022 4096 2022 4026 2022 3878  L 2022 506  C 2022 288 2022 198 1350 198  L 1094 198  L 1094 0  C 1357 19 2010 19 2304 19  C 2598 19 3258 19 3520 0  L 3520 198  L 3264 198  C 2592 198 2592 288 2592 506  L 2592 3878  C 2592 4006 2592 4096 2707 4122  C 2778 4134 2950 4134 3072 4134  C 4038 4134 4134 3923 4224 2893  L 4384 2893  L 4262 4333  L 352 4333  L 230 2893  z "
                 transform="scale(0.015625)" />
              <path
                 id="CMUSerif-Roman-6d"
                 d="M 205 0  C 429 6 755 19 928 19  C 1094 19 1427 6 1645 0  L 1645 198  C 1216 198 1146 198 1146 486  L 1146 1664  C 1146 2330 1600 2688 2010 2688  C 2413 2688 2483 2342 2483 1978  L 2483 486  C 2483 198 2413 198 1984 198  L 1984 0  C 2208 6 2534 19 2707 19  C 2874 19 3206 6 3424 0  L 3424 198  C 2995 198 2925 198 2925 486  L 2925 1664  C 2925 2330 3379 2688 3789 2688  C 4192 2688 4262 2342 4262 1978  L 4262 486  C 4262 198 4192 198 3763 198  L 3763 0  C 3987 6 4314 19 4486 19  C 4653 19 4986 6 5203 0  L 5203 198  C 4870 198 4710 198 4704 390  L 4704 1613  C 4704 2163 4704 2362 4506 2592  C 4416 2701 4205 2829 3834 2829  C 3296 2829 3014 2445 2906 2202  C 2816 2758 2342 2829 2054 2829  C 1587 2829 1286 2554 1107 2157  L 1107 2829  L 205 2758  L 205 2560  C 653 2560 704 2515 704 2202  L 704 486  C 704 198 634 198 205 198  L 205 0  z "
                 transform="scale(0.015625)" />
              <path
                 id="CMUSerif-Roman-70"
                 d="M 179 -1043  L 179 -1242  C 397 -1235 730 -1222 896 -1222  C 1069 -1222 1395 -1235 1619 -1242  L 1619 -1043  C 1190 -1043 1120 -1043 1120 -755  L 1120 320  L 1120 378  C 1152 275 1421 -70 1907 -70  C 2669 -70 3334 557 3334 1382  C 3334 2195 2714 2829 1997 2829  C 1498 2829 1229 2547 1101 2406  L 1101 2829  L 179 2758  L 179 2560  C 634 2560 678 2522 678 2240  L 678 -755  C 678 -1043 608 -1043 179 -1043  z M 1120 730  L 1120 2157  C 1306 2483 1619 2669 1946 2669  C 2413 2669 2803 2106 2803 1382  C 2803 608 2355 70 1882 70  C 1626 70 1382 198 1210 461  C 1120 595 1120 602 1120 730  z "
                 transform="scale(0.015625)" />
              <path
                 id="CMUSerif-Roman-72"
                 d="M 179 0  C 429 6 730 19 909 19  C 1165 19 1466 19 1722 0  L 1722 198  L 1587 198  C 1114 198 1101 269 1101 499  L 1101 1485  C 1101 2118 1370 2688 1856 2688  C 1901 2688 1914 2688 1926 2682  C 1907 2675 1779 2598 1779 2432  C 1779 2253 1914 2157 2054 2157  C 2170 2157 2330 2234 2330 2438  C 2330 2643 2131 2829 1856 2829  C 1389 2829 1158 2400 1069 2125  L 1069 2829  L 179 2758  L 179 2560  C 627 2560 678 2515 678 2202  L 678 486  C 678 198 608 198 179 198  L 179 0  z "
                 transform="scale(0.015625)" />
              <path
                 id="CMUSerif-Roman-74"
                 d="M 122 2560  L 666 2560  L 666 794  C 666 6 1261 -70 1491 -70  C 1946 -70 2125 384 2125 794  L 2125 1158  L 1965 1158  L 1965 806  C 1965 333 1773 90 1536 90  C 1107 90 1107 672 1107 781  L 1107 2560  L 2022 2560  L 2022 2758  L 1107 2758  L 1107 3936  L 947 3936  C 941 3411 749 2726 122 2701  L 122 2560  z "
                 transform="scale(0.015625)" />
              <path
                 id="CMUSerif-Roman-75"
                 d="M 205 2560  C 704 2560 704 2541 704 1971  L 704 1011  C 704 512 704 -70 1677 -70  C 2035 -70 2317 109 2502 506  L 2502 -70  L 3424 0  L 3424 198  C 2976 198 2925 243 2925 557  L 2925 2829  L 1984 2758  L 1984 2560  C 2432 2560 2483 2515 2483 2202  L 2483 1062  C 2483 506 2176 70 1709 70  C 1171 70 1146 371 1146 704  L 1146 2829  L 205 2758  L 205 2560  z "
                 transform="scale(0.015625)" />
              <path
                 id="CMUSerif-Roman-5b"
                 d="M 666 -1600  L 1632 -1600  L 1632 -1453  L 1094 -1453  L 1094 4653  L 1632 4653  L 1632 4800  L 666 4800  L 666 -1600  z "
                 transform="scale(0.015625)" />
              <path
                 id="CMUSerif-Roman-4b"
                 d="M 211 0  C 435 19 909 19 1152 19  C 1395 19 1875 19 2099 0  L 2099 198  L 1946 198  C 1453 198 1440 269 1440 499  L 1440 1619  L 2182 2323  L 3341 608  C 3379 550 3437 467 3437 390  C 3437 198 3187 198 3059 198  L 3059 0  C 3283 19 3731 19 3974 19  C 4198 19 4442 13 4710 0  L 4710 198  C 4365 198 4230 224 4038 506  L 2560 2682  L 3712 3789  C 3763 3840 4102 4166 4621 4173  L 4621 4371  C 4454 4352 4250 4352 4077 4352  C 3846 4352 3482 4352 3264 4371  L 3264 4173  C 3520 4166 3558 4019 3558 3962  C 3558 3859 3494 3795 3443 3750  L 1440 1837  L 1440 3872  C 1440 4102 1453 4173 1946 4173  L 2099 4173  L 2099 4371  C 1875 4352 1402 4352 1158 4352  C 915 4352 435 4352 211 4371  L 211 4173  L 365 4173  C 858 4173 870 4102 870 3872  L 870 499  C 870 269 858 198 365 198  L 211 198  L 211 0  z "
                 transform="scale(0.015625)" />
              <path
                 id="CMUSerif-Roman-5d"
                 d="M 134 -1453  L 134 -1600  L 1101 -1600  L 1101 4800  L 134 4800  L 134 4653  L 672 4653  L 672 -1453  L 134 -1453  z "
                 transform="scale(0.015625)" />
            </defs>
            <use
               xlink:href="#CMUSerif-Roman-41"
               id="use27" />
            <use
               xlink:href="#CMUSerif-Roman-6e"
               transform="translate(74.999985 0)"
               id="use28" />
            <use
               xlink:href="#CMUSerif-Roman-6e"
               transform="translate(130.499969 0)"
               id="use29" />
            <use
               xlink:href="#CMUSerif-Roman-65"
               transform="translate(185.999954 0)"
               id="use30" />
            <use
               xlink:href="#CMUSerif-Roman-61"
               transform="translate(230.399948 0)"
               id="use31" />
            <use
               xlink:href="#CMUSerif-Roman-6c"
               transform="translate(280.399933 0)"
               id="use32" />
            <use
               xlink:href="#CMUSerif-Roman-20"
               transform="translate(308.09993 0)"
               id="use33" />
            <use
               xlink:href="#CMUSerif-Roman-54"
               transform="translate(341.399918 0)"
               id="use34" />
            <use
               xlink:href="#CMUSerif-Roman-65"
               transform="translate(413.599899 0)"
               id="use35" />
            <use
               xlink:href="#CMUSerif-Roman-6d"
               transform="translate(457.999893 0)"
               id="use36" />
            <use
               xlink:href="#CMUSerif-Roman-70"
               transform="translate(541.299881 0)"
               id="use37" />
            <use
               xlink:href="#CMUSerif-Roman-65"
               transform="translate(596.799866 0)"
               id="use38" />
            <use
               xlink:href="#CMUSerif-Roman-72"
               transform="translate(641.19986 0)"
               id="use39" />
            <use
               xlink:href="#CMUSerif-Roman-61"
               transform="translate(680.29985 0)"
               id="use40" />
            <use
               xlink:href="#CMUSerif-Roman-74"
               transform="translate(730.299835 0)"
               id="use41" />
            <use
               xlink:href="#CMUSerif-Roman-75"
               transform="translate(769.099823 0)"
               id="use42" />
            <use
               xlink:href="#CMUSerif-Roman-72"
               transform="translate(824.599808 0)"
               id="use43" />
            <use
               xlink:href="#CMUSerif-Roman-65"
               transform="translate(863.699799 0)"
               id="use44" />
            <use
               xlink:href="#CMUSerif-Roman-20"
               transform="translate(908.099792 0)"
               id="use45" />
            <use
               xlink:href="#CMUSerif-Roman-5b"
               transform="translate(941.39978 0)"
               id="use46" />
            <use
               xlink:href="#CMUSerif-Roman-4b"
               transform="translate(969.199768 0)"
               id="use47" />
            <use
               xlink:href="#CMUSerif-Roman-5d"
               transform="translate(1046.89975 0)"
               id="use48" />
          </g>
        </g>
      </g>
      <g
         id="matplotlib.axis_2">
        <g
           id="ytick_1">
          <g
             id="line2d_8">
            <defs
               id="defs48">
              <path
                 id="mb98193f879"
                 d="M 0 0  L -8 0  "
                 style="stroke: #000000; stroke-width: 2" />
            </defs>
            <g
               id="g49">
              <use
                 xlink:href="#mb98193f879"
                 x="77.744"
                 y="516.1525"
                 style="stroke: #000000; stroke-width: 2"
                 id="use49" />
            </g>
          </g>
          <g
             id="text_9">
            <!-- 0.00 -->
            <g
               transform="translate(41.352438 521.010937) scale(0.14 -0.14)"
               id="g53">
              <defs
                 id="defs49">
                <path
                   id="CMUSerif-Roman-2e"
                   d="M 544 339  C 544 166 685 0 883 0  C 1050 0 1216 141 1216 339  C 1216 538 1062 672 883 672  C 685 672 544 512 544 339  z "
                   transform="scale(0.015625)" />
              </defs>
              <use
                 xlink:href="#CMUSerif-Roman-30"
                 id="use50" />
              <use
                 xlink:href="#CMUSerif-Roman-2e"
                 transform="translate(49.999985 0)"
                 id="use51" />
              <use
                 xlink:href="#CMUSerif-Roman-30"
                 transform="translate(77.799973 0)"
                 id="use52" />
              <use
                 xlink:href="#CMUSerif-Roman-30"
                 transform="translate(127.799957 0)"
                 id="use53" />
            </g>
          </g>
        </g>
        <g
           id="ytick_2">
          <g
             id="line2d_9">
            <g
               id="g54">
              <use
                 xlink:href="#mb98193f879"
                 x="77.744"
                 y="418.969327"
                 style="stroke: #000000; stroke-width: 2"
                 id="use54" />
            </g>
          </g>
          <g
             id="text_10">
            <!-- 0.05 -->
            <g
               transform="translate(41.352438 423.827764) scale(0.14 -0.14)"
               id="g58">
              <use
                 xlink:href="#CMUSerif-Roman-30"
                 id="use55" />
              <use
                 xlink:href="#CMUSerif-Roman-2e"
                 transform="translate(49.999985 0)"
                 id="use56" />
              <use
                 xlink:href="#CMUSerif-Roman-30"
                 transform="translate(77.799973 0)"
                 id="use57" />
              <use
                 xlink:href="#CMUSerif-Roman-35"
                 transform="translate(127.799957 0)"
                 id="use58" />
            </g>
          </g>
        </g>
        <g
           id="ytick_3">
          <g
             id="line2d_10">
            <g
               id="g59">
              <use
                 xlink:href="#mb98193f879"
                 x="77.744"
                 y="321.786154"
                 style="stroke: #000000; stroke-width: 2"
                 id="use59" />
            </g>
          </g>
          <g
             id="text_11">
            <!-- 0.10 -->
            <g
               transform="translate(41.352438 326.644591) scale(0.14 -0.14)"
               id="g63">
              <use
                 xlink:href="#CMUSerif-Roman-30"
                 id="use60" />
              <use
                 xlink:href="#CMUSerif-Roman-2e"
                 transform="translate(49.999985 0)"
                 id="use61" />
              <use
                 xlink:href="#CMUSerif-Roman-31"
                 transform="translate(77.799973 0)"
                 id="use62" />
              <use
                 xlink:href="#CMUSerif-Roman-30"
                 transform="translate(127.799957 0)"
                 id="use63" />
            </g>
          </g>
        </g>
        <g
           id="ytick_4">
          <g
             id="line2d_11">
            <g
               id="g64">
              <use
                 xlink:href="#mb98193f879"
                 x="77.744"
                 y="224.602981"
                 style="stroke: #000000; stroke-width: 2"
                 id="use64" />
            </g>
          </g>
          <g
             id="text_12">
            <!-- 0.15 -->
            <g
               transform="translate(41.352438 229.461418) scale(0.14 -0.14)"
               id="g68">
              <use
                 xlink:href="#CMUSerif-Roman-30"
                 id="use65" />
              <use
                 xlink:href="#CMUSerif-Roman-2e"
                 transform="translate(49.999985 0)"
                 id="use66" />
              <use
                 xlink:href="#CMUSerif-Roman-31"
                 transform="translate(77.799973 0)"
                 id="use67" />
              <use
                 xlink:href="#CMUSerif-Roman-35"
                 transform="translate(127.799957 0)"
                 id="use68" />
            </g>
          </g>
        </g>
        <g
           id="ytick_5">
          <g
             id="line2d_12">
            <g
               id="g69">
              <use
                 xlink:href="#mb98193f879"
                 x="77.744"
                 y="127.419808"
                 style="stroke: #000000; stroke-width: 2"
                 id="use69" />
            </g>
          </g>
          <g
             id="text_13">
            <!-- 0.20 -->
            <g
               transform="translate(41.352438 132.278245) scale(0.14 -0.14)"
               id="g73">
              <use
                 xlink:href="#CMUSerif-Roman-30"
                 id="use70" />
              <use
                 xlink:href="#CMUSerif-Roman-2e"
                 transform="translate(49.999985 0)"
                 id="use71" />
              <use
                 xlink:href="#CMUSerif-Roman-32"
                 transform="translate(77.799973 0)"
                 id="use72" />
              <use
                 xlink:href="#CMUSerif-Roman-30"
                 transform="translate(127.799957 0)"
                 id="use73" />
            </g>
          </g>
        </g>
        <g
           id="ytick_6">
          <g
             id="line2d_13">
            <g
               id="g74">
              <use
                 xlink:href="#mb98193f879"
                 x="77.744"
                 y="30.236635"
                 style="stroke: #000000; stroke-width: 2"
                 id="use74" />
            </g>
          </g>
          <g
             id="text_14">
            <!-- 0.25 -->
            <g
               transform="translate(41.352438 35.095072) scale(0.14 -0.14)"
               id="g78">
              <use
                 xlink:href="#CMUSerif-Roman-30"
                 id="use75" />
              <use
                 xlink:href="#CMUSerif-Roman-2e"
                 transform="translate(49.999985 0)"
                 id="use76" />
              <use
                 xlink:href="#CMUSerif-Roman-32"
                 transform="translate(77.799973 0)"
                 id="use77" />
              <use
                 xlink:href="#CMUSerif-Roman-35"
                 transform="translate(127.799957 0)"
                 id="use78" />
            </g>
          </g>
        </g>
        <g
           id="text_15">
          <!-- $i_c \mathrm{(20\, K) = I_c \; / \; I_c^{unirradiated}}$ (20 K) -->
          <g
             transform="translate(31.952438 401.27625) rotate(-90) scale(0.2 -0.2)"
             id="g110">
            <defs
               id="defs78">
              <path
                 id="Cmmi10-69"
                 d="M 500 459  Q 500 578 550 709  L 1069 2088  Q 1153 2322 1153 2472  Q 1153 2663 1013 2663  Q 759 2663 595 2402  Q 431 2141 353 1819  Q 341 1778 300 1778  L 225 1778  Q 172 1778 172 1838  L 172 1856  Q 275 2238 487 2533  Q 700 2828 1025 2828  Q 1253 2828 1411 2678  Q 1569 2528 1569 2297  Q 1569 2178 1516 2047  L 997 672  Q 909 459 909 288  Q 909 97 1056 97  Q 1306 97 1473 364  Q 1641 631 1709 941  Q 1722 978 1759 978  L 1838 978  Q 1863 978 1878 961  Q 1894 944 1894 922  Q 1894 916 1888 903  Q 1800 541 1583 234  Q 1366 -72 1044 -72  Q 819 -72 659 83  Q 500 238 500 459  z M 1222 3878  Q 1222 4013 1334 4122  Q 1447 4231 1581 4231  Q 1691 4231 1761 4164  Q 1831 4097 1831 3994  Q 1831 3850 1717 3742  Q 1603 3634 1466 3634  Q 1363 3634 1292 3704  Q 1222 3775 1222 3878  z "
                 transform="scale(0.015625)" />
              <path
                 id="Cmmi10-63"
                 d="M 750 763  Q 750 484 892 290  Q 1034 97 1300 97  Q 1681 97 2032 272  Q 2384 447 2606 756  Q 2625 775 2656 775  Q 2688 775 2720 739  Q 2753 703 2753 672  Q 2753 647 2741 634  Q 2506 306 2109 117  Q 1713 -72 1288 -72  Q 981 -72 747 73  Q 513 219 384 462  Q 256 706 256 1013  Q 256 1444 497 1869  Q 738 2294 1138 2561  Q 1538 2828 1978 2828  Q 2266 2828 2495 2689  Q 2725 2550 2725 2278  Q 2725 2103 2623 1979  Q 2522 1856 2350 1856  Q 2247 1856 2176 1920  Q 2106 1984 2106 2088  Q 2106 2238 2215 2344  Q 2325 2450 2472 2450  L 2484 2450  Q 2409 2559 2267 2611  Q 2125 2663 1972 2663  Q 1597 2663 1315 2342  Q 1034 2022 892 1576  Q 750 1131 750 763  z "
                 transform="scale(0.015625)" />
              <path
                 id="Cmr10-28"
                 d="M 1984 -1588  Q 1628 -1306 1370 -942  Q 1113 -578 948 -165  Q 784 247 703 697  Q 622 1147 622 1600  Q 622 2059 703 2509  Q 784 2959 951 3375  Q 1119 3791 1378 4153  Q 1638 4516 1984 4788  Q 1984 4800 2016 4800  L 2075 4800  Q 2094 4800 2109 4783  Q 2125 4766 2125 4744  Q 2125 4716 2113 4703  Q 1800 4397 1592 4047  Q 1384 3697 1257 3301  Q 1131 2906 1075 2482  Q 1019 2059 1019 1600  Q 1019 -434 2106 -1491  Q 2125 -1509 2125 -1544  Q 2125 -1559 2108 -1579  Q 2091 -1600 2075 -1600  L 2016 -1600  Q 1984 -1600 1984 -1588  z "
                 transform="scale(0.015625)" />
              <path
                 id="Cmr10-32"
                 d="M 319 0  L 319 172  Q 319 188 331 206  L 1325 1306  Q 1550 1550 1690 1715  Q 1831 1881 1968 2097  Q 2106 2313 2186 2536  Q 2266 2759 2266 3009  Q 2266 3272 2169 3511  Q 2072 3750 1880 3894  Q 1688 4038 1416 4038  Q 1138 4038 916 3870  Q 694 3703 603 3438  Q 628 3444 672 3444  Q 816 3444 917 3347  Q 1019 3250 1019 3097  Q 1019 2950 917 2848  Q 816 2747 672 2747  Q 522 2747 420 2851  Q 319 2956 319 3097  Q 319 3338 409 3548  Q 500 3759 670 3923  Q 841 4088 1055 4175  Q 1269 4263 1509 4263  Q 1875 4263 2190 4108  Q 2506 3953 2690 3670  Q 2875 3388 2875 3009  Q 2875 2731 2753 2481  Q 2631 2231 2440 2026  Q 2250 1822 1953 1562  Q 1656 1303 1563 1216  L 838 519  L 1453 519  Q 1906 519 2211 526  Q 2516 534 2534 550  Q 2609 631 2688 1141  L 2875 1141  L 2694 0  L 319 0  z "
                 transform="scale(0.015625)" />
              <path
                 id="Cmr10-30"
                 d="M 1600 -141  Q 816 -141 533 504  Q 250 1150 250 2041  Q 250 2597 351 3087  Q 453 3578 754 3920  Q 1056 4263 1600 4263  Q 2022 4263 2290 4056  Q 2559 3850 2700 3523  Q 2841 3197 2892 2823  Q 2944 2450 2944 2041  Q 2944 1491 2842 1011  Q 2741 531 2444 195  Q 2147 -141 1600 -141  z M 1600 25  Q 1956 25 2131 390  Q 2306 756 2347 1200  Q 2388 1644 2388 2144  Q 2388 2625 2347 3031  Q 2306 3438 2132 3767  Q 1959 4097 1600 4097  Q 1238 4097 1063 3765  Q 888 3434 847 3029  Q 806 2625 806 2144  Q 806 1788 823 1472  Q 841 1156 916 820  Q 991 484 1158 254  Q 1325 25 1600 25  z "
                 transform="scale(0.015625)" />
              <path
                 id="Cmr10-4b"
                 d="M 197 0  L 197 225  Q 856 225 856 428  L 856 3944  Q 856 4147 197 4147  L 197 4372  L 2113 4372  L 2113 4147  Q 1453 4147 1453 3944  L 1453 1869  L 3431 3769  Q 3513 3856 3513 3944  Q 3513 4044 3427 4095  Q 3341 4147 3231 4147  L 3231 4372  L 4622 4372  L 4622 4147  Q 4097 4147 3700 3769  L 2566 2681  L 3969 603  Q 4141 350 4270 287  Q 4400 225 4709 225  L 4709 0  L 3034 0  L 3034 225  Q 3188 225 3292 256  Q 3397 288 3397 403  Q 3397 481 3316 603  L 2169 2303  L 1453 1613  L 1453 428  Q 1453 225 2113 225  L 2113 0  L 197 0  z "
                 transform="scale(0.015625)" />
              <path
                 id="Cmr10-29"
                 d="M 416 -1600  Q 359 -1600 359 -1544  Q 359 -1516 372 -1503  Q 1466 -434 1466 1600  Q 1466 3634 384 4691  Q 359 4706 359 4744  Q 359 4766 376 4783  Q 394 4800 416 4800  L 475 4800  Q 494 4800 506 4788  Q 966 4425 1272 3906  Q 1578 3388 1720 2800  Q 1863 2213 1863 1600  Q 1863 1147 1786 708  Q 1709 269 1542 -157  Q 1375 -584 1119 -945  Q 863 -1306 506 -1588  Q 494 -1600 475 -1600  L 416 -1600  z "
                 transform="scale(0.015625)" />
              <path
                 id="Cmr10-3d"
                 d="M 481 850  Q 428 850 393 890  Q 359 931 359 978  Q 359 1031 393 1068  Q 428 1106 481 1106  L 4500 1106  Q 4547 1106 4581 1068  Q 4616 1031 4616 978  Q 4616 931 4581 890  Q 4547 850 4500 850  L 481 850  z M 481 2094  Q 428 2094 393 2131  Q 359 2169 359 2222  Q 359 2269 393 2309  Q 428 2350 481 2350  L 4500 2350  Q 4547 2350 4581 2309  Q 4616 2269 4616 2222  Q 4616 2169 4581 2131  Q 4547 2094 4500 2094  L 481 2094  z "
                 transform="scale(0.015625)" />
              <path
                 id="Cmr10-49"
                 d="M 166 0  L 166 225  Q 856 225 856 428  L 856 3944  Q 856 4147 166 4147  L 166 4372  L 2144 4372  L 2144 4147  Q 1453 4147 1453 3944  L 1453 428  Q 1453 225 2144 225  L 2144 0  L 166 0  z "
                 transform="scale(0.015625)" />
              <path
                 id="Cmr10-63"
                 d="M 1594 -72  Q 1206 -72 890 129  Q 575 331 394 667  Q 213 1003 213 1381  Q 213 1759 392 2106  Q 572 2453 889 2661  Q 1206 2869 1594 2869  Q 1969 2869 2276 2722  Q 2584 2575 2584 2241  Q 2584 2116 2495 2023  Q 2406 1931 2278 1931  Q 2150 1931 2061 2023  Q 1972 2116 1972 2241  Q 1972 2353 2044 2436  Q 2116 2519 2222 2541  Q 2000 2681 1600 2681  Q 1294 2681 1106 2478  Q 919 2275 844 1975  Q 769 1675 769 1381  Q 769 1072 861 783  Q 953 494 1158 305  Q 1363 116 1672 116  Q 1975 116 2187 302  Q 2400 488 2478 788  Q 2478 825 2528 825  L 2606 825  Q 2625 825 2640 808  Q 2656 791 2656 769  L 2656 750  Q 2559 372 2271 150  Q 1984 -72 1594 -72  z "
                 transform="scale(0.015625)" />
              <path
                 id="Cmmi10-3d"
                 d="M 359 -1472  Q 359 -1453 366 -1447  L 2591 4722  Q 2603 4759 2634 4779  Q 2666 4800 2706 4800  Q 2763 4800 2798 4765  Q 2834 4731 2834 4672  L 2834 4647  L 609 -1522  Q 572 -1600 488 -1600  Q 434 -1600 396 -1562  Q 359 -1525 359 -1472  z "
                 transform="scale(0.015625)" />
              <path
                 id="Cmr10-75"
                 d="M 691 763  L 691 2175  Q 691 2347 639 2423  Q 588 2500 491 2517  Q 394 2534 191 2534  L 191 2759  L 1159 2828  L 1159 763  Q 1159 513 1195 373  Q 1231 234 1348 165  Q 1466 97 1722 97  Q 2066 97 2269 384  Q 2472 672 2472 1038  L 2472 2175  Q 2472 2347 2419 2423  Q 2366 2500 2270 2517  Q 2175 2534 1972 2534  L 1972 2759  L 2938 2828  L 2938 581  Q 2938 413 2989 336  Q 3041 259 3137 242  Q 3234 225 3438 225  L 3438 0  L 2491 -72  L 2491 469  Q 2372 228 2159 78  Q 1947 -72 1691 -72  Q 1231 -72 961 123  Q 691 319 691 763  z "
                 transform="scale(0.015625)" />
              <path
                 id="Cmr10-6e"
                 d="M 191 0  L 191 225  Q 409 225 550 259  Q 691 294 691 428  L 691 2175  Q 691 2347 639 2423  Q 588 2500 491 2517  Q 394 2534 191 2534  L 191 2759  L 1119 2828  L 1119 2203  Q 1247 2478 1498 2653  Q 1750 2828 2047 2828  Q 2491 2828 2714 2615  Q 2938 2403 2938 1966  L 2938 428  Q 2938 294 3078 259  Q 3219 225 3438 225  L 3438 0  L 1972 0  L 1972 225  Q 2191 225 2331 259  Q 2472 294 2472 428  L 2472 1947  Q 2472 2259 2381 2461  Q 2291 2663 2009 2663  Q 1638 2663 1398 2366  Q 1159 2069 1159 1691  L 1159 428  Q 1159 294 1300 259  Q 1441 225 1656 225  L 1656 0  L 191 0  z "
                 transform="scale(0.015625)" />
              <path
                 id="Cmr10-69"
                 d="M 197 0  L 197 225  Q 416 225 556 259  Q 697 294 697 428  L 697 2175  Q 697 2422 601 2478  Q 506 2534 225 2534  L 225 2759  L 1147 2828  L 1147 428  Q 1147 294 1269 259  Q 1391 225 1594 225  L 1594 0  L 197 0  z M 469 3928  Q 469 4069 575 4175  Q 681 4281 819 4281  Q 909 4281 993 4234  Q 1078 4188 1125 4103  Q 1172 4019 1172 3928  Q 1172 3791 1065 3684  Q 959 3578 819 3578  Q 681 3578 575 3684  Q 469 3791 469 3928  z "
                 transform="scale(0.015625)" />
              <path
                 id="Cmr10-72"
                 d="M 166 0  L 166 225  Q 384 225 525 259  Q 666 294 666 428  L 666 2175  Q 666 2347 614 2423  Q 563 2500 466 2517  Q 369 2534 166 2534  L 166 2759  L 1081 2828  L 1081 2203  Q 1184 2481 1375 2654  Q 1566 2828 1838 2828  Q 2028 2828 2178 2715  Q 2328 2603 2328 2419  Q 2328 2303 2245 2217  Q 2163 2131 2041 2131  Q 1922 2131 1837 2215  Q 1753 2300 1753 2419  Q 1753 2591 1875 2663  L 1838 2663  Q 1578 2663 1414 2475  Q 1250 2288 1181 2009  Q 1113 1731 1113 1478  L 1113 428  Q 1113 225 1734 225  L 1734 0  L 166 0  z "
                 transform="scale(0.015625)" />
              <path
                 id="Cmr10-61"
                 d="M 256 628  Q 256 1009 556 1248  Q 856 1488 1276 1586  Q 1697 1684 2075 1684  L 2075 1947  Q 2075 2131 1994 2304  Q 1913 2478 1759 2589  Q 1606 2700 1422 2700  Q 997 2700 775 2509  Q 897 2509 976 2417  Q 1056 2325 1056 2203  Q 1056 2075 965 1984  Q 875 1894 750 1894  Q 622 1894 531 1984  Q 441 2075 441 2203  Q 441 2541 747 2705  Q 1053 2869 1422 2869  Q 1681 2869 1943 2758  Q 2206 2647 2373 2440  Q 2541 2234 2541 1959  L 2541 519  Q 2541 394 2594 289  Q 2647 184 2759 184  Q 2866 184 2917 290  Q 2969 397 2969 519  L 2969 928  L 3156 928  L 3156 519  Q 3156 375 3081 245  Q 3006 116 2879 39  Q 2753 -38 2606 -38  Q 2419 -38 2283 107  Q 2147 253 2131 453  Q 2013 213 1781 70  Q 1550 -72 1288 -72  Q 1044 -72 808 0  Q 572 72 414 226  Q 256 381 256 628  z M 775 628  Q 775 403 940 250  Q 1106 97 1331 97  Q 1538 97 1706 200  Q 1875 303 1975 481  Q 2075 659 2075 856  L 2075 1522  Q 1784 1522 1479 1426  Q 1175 1331 975 1128  Q 775 925 775 628  z "
                 transform="scale(0.015625)" />
              <path
                 id="Cmr10-64"
                 d="M 1563 -72  Q 1184 -72 871 133  Q 559 338 386 672  Q 213 1006 213 1381  Q 213 1769 402 2101  Q 591 2434 916 2631  Q 1241 2828 1631 2828  Q 1866 2828 2075 2729  Q 2284 2631 2438 2456  L 2438 3788  Q 2438 3959 2386 4036  Q 2334 4113 2239 4130  Q 2144 4147 1941 4147  L 1941 4372  L 2888 4441  L 2888 581  Q 2888 413 2939 336  Q 2991 259 3086 242  Q 3181 225 3384 225  L 3384 0  L 2419 -72  L 2419 331  Q 2253 141 2025 34  Q 1797 -72 1563 -72  z M 909 556  Q 1019 347 1201 222  Q 1384 97 1600 97  Q 1866 97 2087 250  Q 2309 403 2419 647  L 2419 2181  Q 2344 2322 2230 2433  Q 2116 2544 1973 2603  Q 1831 2663 1672 2663  Q 1338 2663 1134 2473  Q 931 2284 850 1990  Q 769 1697 769 1375  Q 769 1119 795 928  Q 822 738 909 556  z "
                 transform="scale(0.015625)" />
              <path
                 id="Cmr10-74"
                 d="M 653 769  L 653 2534  L 122 2534  L 122 2700  Q 541 2700 737 3090  Q 934 3481 934 3938  L 1119 3938  L 1119 2759  L 2022 2759  L 2022 2534  L 1119 2534  L 1119 781  Q 1119 516 1208 316  Q 1297 116 1528 116  Q 1747 116 1844 327  Q 1941 538 1941 781  L 1941 1159  L 2125 1159  L 2125 769  Q 2125 569 2051 373  Q 1978 178 1834 53  Q 1691 -72 1484 -72  Q 1100 -72 876 158  Q 653 388 653 769  z "
                 transform="scale(0.015625)" />
              <path
                 id="Cmr10-65"
                 d="M 1594 -72  Q 1203 -72 876 133  Q 550 338 364 680  Q 178 1022 178 1403  Q 178 1778 348 2115  Q 519 2453 823 2661  Q 1128 2869 1503 2869  Q 1797 2869 2014 2770  Q 2231 2672 2372 2497  Q 2513 2322 2584 2084  Q 2656 1847 2656 1563  Q 2656 1478 2591 1478  L 738 1478  L 738 1409  Q 738 878 952 497  Q 1166 116 1650 116  Q 1847 116 2014 203  Q 2181 291 2304 447  Q 2428 603 2472 781  Q 2478 803 2495 820  Q 2513 838 2534 838  L 2591 838  Q 2656 838 2656 756  Q 2566 394 2266 161  Q 1966 -72 1594 -72  z M 744 1638  L 2203 1638  Q 2203 1878 2136 2125  Q 2069 2372 1912 2536  Q 1756 2700 1503 2700  Q 1141 2700 942 2361  Q 744 2022 744 1638  z "
                 transform="scale(0.015625)" />
              <path
                 id="CMUSerif-Roman-28"
                 d="M 634 1600  C 634 1101 704 326 1056 -397  C 1440 -1184 1990 -1600 2054 -1600  C 2093 -1600 2118 -1581 2118 -1536  C 2118 -1517 2118 -1504 2010 -1395  C 1210 -589 1005 621 1005 1600  C 1005 2714 1248 3827 2035 4627  C 2118 4704 2118 4717 2118 4736  C 2118 4781 2093 4800 2054 4800  C 1990 4800 1414 4365 1037 3552  C 710 2848 634 2138 634 1600  z "
                 transform="scale(0.015625)" />
              <path
                 id="CMUSerif-Roman-29"
                 d="M 365 -1536  C 365 -1574 390 -1600 429 -1600  C 493 -1600 1069 -1165 1446 -352  C 1773 352 1850 1062 1850 1600  C 1850 2099 1779 2874 1427 3597  C 1043 4384 493 4800 429 4800  C 390 4800 365 4774 365 4736  C 365 4717 365 4704 486 4589  C 1114 3955 1478 2938 1478 1600  C 1478 506 1242 -621 448 -1427  C 365 -1504 365 -1517 365 -1536  z "
                 transform="scale(0.015625)" />
            </defs>
            <use
               xlink:href="#Cmmi10-69"
               transform="translate(0 0.276562)"
               id="use79" />
            <use
               xlink:href="#Cmmi10-63"
               transform="translate(34.423828 -16.729688) scale(0.7)"
               id="use80" />
            <use
               xlink:href="#Cmr10-28"
               transform="translate(71.050195 0.276562)"
               id="use81" />
            <use
               xlink:href="#Cmr10-32"
               transform="translate(109.868555 0.276562)"
               id="use82" />
            <use
               xlink:href="#Cmr10-30"
               transform="translate(159.868555 0.276562)"
               id="use83" />
            <use
               xlink:href="#Cmr10-4b"
               transform="translate(224.501009 0.276562)"
               id="use84" />
            <use
               xlink:href="#Cmr10-29"
               transform="translate(302.186556 0.276562)"
               id="use85" />
            <use
               xlink:href="#Cmr10-3d"
               transform="translate(358.563509 0.276562)"
               id="use86" />
            <use
               xlink:href="#Cmr10-49"
               transform="translate(453.807649 0.276562)"
               id="use87" />
            <use
               xlink:href="#Cmr10-63"
               transform="translate(494.459134 -17.123438) scale(0.7)"
               id="use88" />
            <use
               xlink:href="#Cmmi10-3d"
               transform="translate(556.440601 0.276562)"
               id="use89" />
            <use
               xlink:href="#Cmr10-49"
               transform="translate(630.827731 0.276562)"
               id="use90" />
            <use
               xlink:href="#Cmr10-75"
               transform="translate(671.479216 39.426563) scale(0.7)"
               id="use91" />
            <use
               xlink:href="#Cmr10-6e"
               transform="translate(710.341521 39.426563) scale(0.7)"
               id="use92" />
            <use
               xlink:href="#Cmr10-69"
               transform="translate(749.203825 39.426563) scale(0.7)"
               id="use93" />
            <use
               xlink:href="#Cmr10-72"
               transform="translate(768.583708 39.426563) scale(0.7)"
               id="use94" />
            <use
               xlink:href="#Cmr10-72"
               transform="translate(795.961638 39.426563) scale(0.7)"
               id="use95" />
            <use
               xlink:href="#Cmr10-61"
               transform="translate(823.339567 39.426563) scale(0.7)"
               id="use96" />
            <use
               xlink:href="#Cmr10-64"
               transform="translate(858.339567 39.426563) scale(0.7)"
               id="use97" />
            <use
               xlink:href="#Cmr10-69"
               transform="translate(897.201872 39.426563) scale(0.7)"
               id="use98" />
            <use
               xlink:href="#Cmr10-61"
               transform="translate(916.581755 39.426563) scale(0.7)"
               id="use99" />
            <use
               xlink:href="#Cmr10-74"
               transform="translate(951.581755 39.426563) scale(0.7)"
               id="use100" />
            <use
               xlink:href="#Cmr10-65"
               transform="translate(978.754606 39.426563) scale(0.7)"
               id="use101" />
            <use
               xlink:href="#Cmr10-64"
               transform="translate(1009.823942 39.426563) scale(0.7)"
               id="use102" />
            <use
               xlink:href="#Cmr10-63"
               transform="translate(671.479216 -25.823437) scale(0.7)"
               id="use103" />
            <use
               xlink:href="#CMUSerif-Roman-20"
               transform="translate(1055.211247 0.276562)"
               id="use104" />
            <use
               xlink:href="#CMUSerif-Roman-28"
               transform="translate(1088.511235 0.276562)"
               id="use105" />
            <use
               xlink:href="#CMUSerif-Roman-32"
               transform="translate(1127.311223 0.276562)"
               id="use106" />
            <use
               xlink:href="#CMUSerif-Roman-30"
               transform="translate(1177.311207 0.276562)"
               id="use107" />
            <use
               xlink:href="#CMUSerif-Roman-20"
               transform="translate(1227.311192 0.276562)"
               id="use108" />
            <use
               xlink:href="#CMUSerif-Roman-4b"
               transform="translate(1260.61118 0.276562)"
               id="use109" />
            <use
               xlink:href="#CMUSerif-Roman-29"
               transform="translate(1338.311162 0.276562)"
               id="use110" />
          </g>
        </g>
      </g>
      <g
         id="line2d_14">
        <path
           d="M 109.497707 344.659723  L 212.736987 344.54868  L 229.201872 344.288102  L 241.661785 343.870779  L 251.896714 343.30886  L 260.796652 342.606287  L 268.806596 341.764532  L 276.371543 340.75549  L 283.491493 339.58944  L 290.166447 338.284061  L 296.8414 336.753735  L 303.071357 335.106189  L 309.301313 333.232298  L 315.53127 331.118532  L 321.316229 328.929883  L 327.101189 326.514068  L 332.886149 323.862406  L 338.671108 320.966977  L 344.456068 317.820629  L 350.241028 314.41699  L 356.025987 310.750458  L 361.810947 306.8162  L 367.595907 302.610131  L 373.380866 298.128896  L 379.165826 293.369848  L 384.950786 288.331017  L 390.735745 283.011087  L 396.965702 276.966777  L 403.195658 270.595541  L 409.425615 263.898007  L 415.655571 256.875492  L 421.885528 249.529956  L 428.560481 241.304197  L 435.235435 232.714397  L 441.910388 223.765043  L 449.030339 213.828493  L 456.150289 203.495465  L 463.270239 192.773394  L 470.835186 180.963836  L 478.400134 168.734206  L 485.965081 156.095122  L 493.975025 142.278543  L 501.984969 128.028808  L 510.43991 112.532799  L 519.339848 95.734711  L 528.239786 78.456903  L 537.584721 59.820482  L 547.374653 39.777576  L 554.049606 25.820661  L 554.049606 25.820661  "
           clip-path="url(#pe6545898b3)"
           style="fill: none; stroke: #000000; stroke-opacity: 0.2; stroke-width: 8; stroke-linecap: round"
           id="path110" />
      </g>
      <g
         id="LineCollection_1">
        <path
           d="M 109.497707 297.916822  L 109.497707 296.849547  "
           clip-path="url(#pe6545898b3)"
           style="fill: none; stroke: #0000ff; stroke-width: 0.5"
           id="path111" />
        <path
           d="M 141.251414 305.613075  L 141.251414 294.910806  "
           clip-path="url(#pe6545898b3)"
           style="fill: none; stroke: #0000ff; stroke-width: 0.5"
           id="path112" />
        <path
           d="M 204.758828 290.535463  L 204.758828 286.133299  "
           clip-path="url(#pe6545898b3)"
           style="fill: none; stroke: #0000ff; stroke-width: 0.5"
           id="path113" />
        <path
           d="M 220.635682 283.970628  L 220.635682 283.623756  "
           clip-path="url(#pe6545898b3)"
           style="fill: none; stroke: #0000ff; stroke-width: 0.5"
           id="path114" />
        <path
           d="M 236.512535 281.491884  L 236.512535 280.446057  "
           clip-path="url(#pe6545898b3)"
           style="fill: none; stroke: #0000ff; stroke-width: 0.5"
           id="path115" />
        <path
           d="M 109.497707 352.670789  L 109.497707 332.495111  "
           clip-path="url(#pe6545898b3)"
           style="fill: none; stroke: #0000ff; stroke-width: 0.5"
           id="path116" />
        <path
           d="M 315.896803 325.082176  L 315.896803 324.490495  "
           clip-path="url(#pe6545898b3)"
           style="fill: none; stroke: #0000ff; stroke-width: 0.5"
           id="path117" />
        <path
           d="M 395.281071 272.927031  L 395.281071 272.365627  "
           clip-path="url(#pe6545898b3)"
           style="fill: none; stroke: #0000ff; stroke-width: 0.5"
           id="path118" />
        <path
           d="M 474.665338 183.847548  L 474.665338 182.429878  "
           clip-path="url(#pe6545898b3)"
           style="fill: none; stroke: #0000ff; stroke-width: 0.5"
           id="path119" />
        <path
           d="M 554.049606 24.820312  L 554.049606 20.974259  "
           clip-path="url(#pe6545898b3)"
           style="fill: none; stroke: #0000ff; stroke-width: 0.5"
           id="path120" />
      </g>
      <g
         id="line2d_15">
        <path
           d="M 109.497707 297.383184  L 141.251414 300.26194  L 204.758828 288.334381  L 220.635682 283.797192  L 236.512535 280.96897  L 109.497707 342.58295  L 315.896803 324.786336  L 395.281071 272.646329  L 474.665338 183.138713  L 554.049606 22.897286  "
           clip-path="url(#pe6545898b3)"
           style="fill: none; stroke-dasharray: 1.85,0.8; stroke-dashoffset: 0; stroke: #0000ff; stroke-width: 0.5"
           id="path121" />
        <defs
           id="defs121">
          <path
             id="m0fe6998615"
             d="M -0 10.606602  L 6.363961 0  L 0 -10.606602  L -6.363961 -0  z "
             style="stroke: #0000ff; stroke-linejoin: miter" />
        </defs>
        <g
           clip-path="url(#pe6545898b3)"
           id="g130">
          <use
             xlink:href="#m0fe6998615"
             x="109.497707"
             y="297.383184"
             style="fill: #0000ff; stroke: #0000ff; stroke-linejoin: miter"
             id="use121" />
          <use
             xlink:href="#m0fe6998615"
             x="141.251414"
             y="300.26194"
             style="fill: #0000ff; stroke: #0000ff; stroke-linejoin: miter"
             id="use122" />
          <use
             xlink:href="#m0fe6998615"
             x="204.758828"
             y="288.334381"
             style="fill: #0000ff; stroke: #0000ff; stroke-linejoin: miter"
             id="use123" />
          <use
             xlink:href="#m0fe6998615"
             x="220.635682"
             y="283.797192"
             style="fill: #0000ff; stroke: #0000ff; stroke-linejoin: miter"
             id="use124" />
          <use
             xlink:href="#m0fe6998615"
             x="236.512535"
             y="280.96897"
             style="fill: #0000ff; stroke: #0000ff; stroke-linejoin: miter"
             id="use125" />
          <use
             xlink:href="#m0fe6998615"
             x="109.497707"
             y="342.58295"
             style="fill: #0000ff; stroke: #0000ff; stroke-linejoin: miter"
             id="use126" />
          <use
             xlink:href="#m0fe6998615"
             x="315.896803"
             y="324.786336"
             style="fill: #0000ff; stroke: #0000ff; stroke-linejoin: miter"
             id="use127" />
          <use
             xlink:href="#m0fe6998615"
             x="395.281071"
             y="272.646329"
             style="fill: #0000ff; stroke: #0000ff; stroke-linejoin: miter"
             id="use128" />
          <use
             xlink:href="#m0fe6998615"
             x="474.665338"
             y="183.138713"
             style="fill: #0000ff; stroke: #0000ff; stroke-linejoin: miter"
             id="use129" />
          <use
             xlink:href="#m0fe6998615"
             x="554.049606"
             y="22.897286"
             style="fill: #0000ff; stroke: #0000ff; stroke-linejoin: miter"
             id="use130" />
        </g>
      </g>
      <g
         id="patch_3">
        <path
           d="M 77.744 516.1525  L 77.744 10.8  "
           style="fill: none; stroke: #000000; stroke-width: 0.8; stroke-linejoin: miter; stroke-linecap: square"
           id="path130" />
      </g>
      <g
         id="patch_4">
        <path
           d="M 77.744 516.1525  L 561.988033 516.1525  "
           style="fill: none; stroke: #000000; stroke-width: 0.8; stroke-linejoin: miter; stroke-linecap: square"
           id="path131" />
      </g>
      <text
         xml:space="preserve"
         style="font-style:normal;font-variant:normal;font-weight:normal;font-stretch:normal;font-size:24px;line-height:0.8;font-family:'CMU Serif';-inkscape-font-specification:'CMU Serif, Normal';font-variant-ligatures:normal;font-variant-caps:normal;font-variant-numeric:normal;font-variant-east-asian:normal;word-spacing:0px;opacity:1;fill:#000000;fill-opacity:0.355263;stroke:#000000;stroke-width:2;stroke-linecap:butt;stroke-linejoin:round;stroke-dasharray:none;stroke-opacity:0.16842106;paint-order:markers stroke fill"
         x="397.05447"
         y="424.33298"
         id="text217"><tspan
           sodipodi:role="line"
           id="tspan217"
           style="font-style:normal;font-variant:normal;font-weight:normal;font-stretch:normal;font-size:24px;font-family:'CMU Serif';-inkscape-font-specification:'CMU Serif, Normal';font-variant-ligatures:normal;font-variant-caps:normal;font-variant-numeric:normal;font-variant-east-asian:normal;fill:#000000;fill-opacity:0.355263;stroke-width:2;stroke:#000000;stroke-opacity:0.16842106"
           x="397.05447"
           y="424.33298"><tspan
             style="stroke:#000000;stroke-opacity:0.16842106"
             id="tspan220">E<tspan
   style="font-size:65%;baseline-shift:sub;stroke:#000000;stroke-opacity:0.16842106"
   id="tspan222">a</tspan> = 0.08 eV</tspan></tspan></text>
    </g>
  </g>
  <defs
     id="defs213">
    <clipPath
       id="pe6545898b3">
      <rect
         x="77.744"
         y="10.8"
         width="484.244033"
         height="505.3525"
         id="rect213" />
    </clipPath>
  </defs>
  <path
     style="fill:#b3b3b3;fill-opacity:0;stroke:#000000;stroke-width:2;stroke-linecap:butt;stroke-linejoin:round;stroke-dasharray:none;marker-end:url(#Triangle-8);paint-order:markers stroke fill"
     d="m 195.05353,301.04558 -60.61001,28.76179"
     id="path213-9" />
  <path
     style="fill:#b3b3b3;fill-opacity:0;stroke:#000000;stroke-width:2;stroke-linecap:butt;stroke-linejoin:round;stroke-dasharray:none;marker-end:url(#Triangle-8-7);paint-order:markers stroke fill"
     d="m 410.92154,254.83184 44.51814,-50.18913"
     id="path213-9-3" />
  <path
     style="fill:#b3b3b3;fill-opacity:0;stroke:#000000;stroke-width:2;stroke-linecap:butt;stroke-linejoin:round;stroke-dasharray:none;marker-end:url(#Triangle-8-0);paint-order:markers stroke fill"
     d="m 154.35564,298.19129 30.46483,-6.40107"
     id="path213-9-9" />
  <text
     xml:space="preserve"
     style="font-size:24px;line-height:0.8;font-family:'CMU Serif';-inkscape-font-specification:'CMU Serif, Normal';word-spacing:0px;opacity:1;fill:#000000;fill-opacity:0;stroke:none;stroke-width:2;stroke-dasharray:none;paint-order:markers stroke fill"
     x="177.8644"
     y="215.6713"
     id="text213"><tspan
       sodipodi:role="line"
       id="tspan213"
       style="stroke-width:2"
       x="177.8644"
       y="215.6713">1</tspan></text>
  <text
     xml:space="preserve"
     style="font-size:24px;line-height:0.8;font-family:'CMU Serif';-inkscape-font-specification:'CMU Serif, Normal';word-spacing:0px;opacity:1;fill:#000000;fill-opacity:0;stroke:none;stroke-width:2;stroke-dasharray:none;paint-order:markers stroke fill"
     x="159.82018"
     y="186.45688"
     id="text214"><tspan
       sodipodi:role="line"
       id="tspan214"
       style="stroke-width:2"
       x="159.82018"
       y="186.45688">sd</tspan></text>
  <text
     xml:space="preserve"
     style="font-size:24px;line-height:0.8;font-family:'CMU Serif';-inkscape-font-specification:'CMU Serif, Normal';word-spacing:0px;opacity:1;fill:#ffff00;fill-opacity:0;stroke:none;stroke-width:0;stroke-dasharray:none;stroke-opacity:1;paint-order:markers stroke fill"
     x="-48.117905"
     y="118.57626"
     id="text215"><tspan
       sodipodi:role="line"
       id="tspan215"
       style="stroke-width:0"
       x="-48.117905"
       y="118.57626">zaaa</tspan></text>
  <path
     style="opacity:1;fill:#ffff00;fill-opacity:0;stroke:#000000;stroke-width:2;stroke-dasharray:none;stroke-opacity:1;marker-end:url(#Triangle);paint-order:markers stroke fill"
     d="M 109.12453,31.792182 V 257.35331"
     id="path215" />
  <text
     xml:space="preserve"
     style="font-style:normal;font-variant:normal;font-weight:normal;font-stretch:normal;font-size:18px;line-height:0.8;font-family:'CMU Serif';-inkscape-font-specification:'CMU Serif, Normal';font-variant-ligatures:normal;font-variant-caps:normal;font-variant-numeric:normal;font-variant-east-asian:normal;word-spacing:0px;opacity:1;fill:#000000;fill-opacity:1;stroke:#000000;stroke-width:2;stroke-dasharray:none;stroke-opacity:1;paint-order:markers stroke fill"
     x="-101.40425"
     y="125.52096"
     id="text216"
     transform="rotate(-90)"><tspan
       sodipodi:role="line"
       id="tspan216"
       style="font-style:normal;font-variant:normal;font-weight:normal;font-stretch:normal;font-size:18px;font-family:'CMU Serif';-inkscape-font-specification:'CMU Serif, Normal';font-variant-ligatures:normal;font-variant-caps:normal;font-variant-numeric:normal;font-variant-east-asian:normal;fill:#000000;fill-opacity:1;stroke:none;stroke-width:2"
       x="-101.40425"
       y="125.52096">irradiate</tspan></text>
  <text
     xml:space="preserve"
     style="font-style:normal;font-variant:normal;font-weight:normal;font-stretch:normal;font-size:18px;line-height:0.8;font-family:'CMU Serif';-inkscape-font-specification:'CMU Serif, Normal';font-variant-ligatures:normal;font-variant-caps:normal;font-variant-numeric:normal;font-variant-east-asian:normal;word-spacing:0px;fill:#000000;fill-opacity:1;stroke:#000000;stroke-width:2;stroke-linecap:butt;stroke-linejoin:round;stroke-dasharray:none;stroke-opacity:1;paint-order:markers stroke fill"
     x="-9.4208755"
     y="370.30264"
     id="text216-1"
     transform="rotate(-25.403681)"><tspan
       sodipodi:role="line"
       id="tspan216-2"
       style="font-style:normal;font-variant:normal;font-weight:normal;font-stretch:normal;font-size:18px;font-family:'CMU Serif';-inkscape-font-specification:'CMU Serif, Normal';font-variant-ligatures:normal;font-variant-caps:normal;font-variant-numeric:normal;font-variant-east-asian:normal;fill:#000000;fill-opacity:1;stroke:none;stroke-width:2"
       x="-9.4208755"
       y="370.30264">irradiate</tspan></text>
  <text
     xml:space="preserve"
     style="font-style:normal;font-variant:normal;font-weight:normal;font-stretch:normal;font-size:18px;line-height:0.8;font-family:'CMU Serif';-inkscape-font-specification:'CMU Serif, Normal';font-variant-ligatures:normal;font-variant-caps:normal;font-variant-numeric:normal;font-variant-east-asian:normal;word-spacing:0px;fill:#000000;fill-opacity:1;stroke:#000000;stroke-width:2;stroke-linecap:butt;stroke-linejoin:round;stroke-dasharray:none;stroke-opacity:1;paint-order:markers stroke fill"
     x="96.297798"
     y="306.68677"
     id="text216-2"
     transform="rotate(-9.4165042)"><tspan
       sodipodi:role="line"
       id="tspan216-8"
       style="font-style:normal;font-variant:normal;font-weight:normal;font-stretch:normal;font-size:18px;font-family:'CMU Serif';-inkscape-font-specification:'CMU Serif, Normal';font-variant-ligatures:normal;font-variant-caps:normal;font-variant-numeric:normal;font-variant-east-asian:normal;fill:#000000;fill-opacity:1;stroke:none;stroke-width:2"
       x="96.297798"
       y="306.68677">anneal</tspan></text>
  <text
     xml:space="preserve"
     style="font-style:normal;font-variant:normal;font-weight:normal;font-stretch:normal;font-size:18px;line-height:0.8;font-family:'CMU Serif';-inkscape-font-specification:'CMU Serif, Normal';font-variant-ligatures:normal;font-variant-caps:normal;font-variant-numeric:normal;font-variant-east-asian:normal;word-spacing:0px;fill:#000000;fill-opacity:1;stroke:#000000;stroke-width:2;stroke-linecap:butt;stroke-linejoin:round;stroke-dasharray:none;stroke-opacity:1;paint-order:markers stroke fill"
     x="97.94532"
     y="466.03775"
     id="text216-2-4"
     transform="rotate(-46.982486)"><tspan
       sodipodi:role="line"
       id="tspan216-8-4"
       style="font-style:normal;font-variant:normal;font-weight:normal;font-stretch:normal;font-size:18px;font-family:'CMU Serif';-inkscape-font-specification:'CMU Serif, Normal';font-variant-ligatures:normal;font-variant-caps:normal;font-variant-numeric:normal;font-variant-east-asian:normal;fill:#000000;fill-opacity:1;stroke:none;stroke-width:2"
       x="97.94532"
       y="466.03775">anneal</tspan></text>
</svg>
