<?xml version="1.0" encoding="utf-8" standalone="no"?>
<!DOCTYPE svg PUBLIC "-//W3C//DTD SVG 1.1//EN"
  "http://www.w3.org/Graphics/SVG/1.1/DTD/svg11.dtd">
<svg xmlns:xlink="http://www.w3.org/1999/xlink" width="648pt" height="648pt" viewBox="0 0 648 648" xmlns="http://www.w3.org/2000/svg" version="1.1">
 <metadata>
  <rdf:RDF xmlns:dc="http://purl.org/dc/elements/1.1/" xmlns:cc="http://creativecommons.org/ns#" xmlns:rdf="http://www.w3.org/1999/02/22-rdf-syntax-ns#">
   <cc:Work>
    <dc:type rdf:resource="http://purl.org/dc/dcmitype/StillImage"/>
    <dc:date>2025-08-28T15:35:40.147788</dc:date>
    <dc:format>image/svg+xml</dc:format>
    <dc:creator>
     <cc:Agent>
      <dc:title>Matplotlib v3.10.0, https://matplotlib.org/</dc:title>
     </cc:Agent>
    </dc:creator>
   </cc:Work>
  </rdf:RDF>
 </metadata>
 <defs>
  <style type="text/css">*{stroke-linejoin: round; stroke-linecap: butt}</style>
 </defs>
 <g id="figure_1">
  <g id="patch_1">
   <path d="M 0 648 
L 648 648 
L 648 0 
L 0 0 
L 0 648 
z
" style="fill: none"/>
  </g>
  <g id="axes_1">
   <g id="patch_2">
    <path d="M 82.55 576.23875 
L 625.23 576.23875 
L 625.23 19.220625 
L 82.55 19.220625 
L 82.55 576.23875 
z
" style="fill: none"/>
   </g>
   <g id="matplotlib.axis_1">
    <g id="xtick_1">
     <g id="line2d_1">
      <defs>
       <path id="m2a727ca992" d="M 0 0 
L 0 8 
" style="stroke: #000000; stroke-width: 2"/>
      </defs>
      <g>
       <use xlink:href="#m2a727ca992" x="82.55" y="576.23875" style="stroke: #000000; stroke-width: 2"/>
      </g>
     </g>
     <g id="text_1">
      <!-- 0 -->
      <g transform="translate(76.55 604.39625) scale(0.24 -0.24)">
       <defs>
        <path id="CMUSerif-Roman-30" d="M 250 2048 
C 250 1568 275 992 538 506 
C 813 -13 1280 -141 1594 -141 
C 1939 -141 2426 -6 2707 602 
C 2912 1043 2944 1542 2944 2048 
C 2944 2560 2912 3072 2688 3546 
C 2394 4160 1869 4262 1600 4262 
C 1216 4262 749 4096 486 3501 
C 282 3059 250 2560 250 2048 
z
M 781 2125 
C 781 2534 781 2957 832 3302 
C 954 4064 1434 4122 1594 4122 
C 1805 4122 2227 4006 2349 3373 
C 2413 3014 2413 2528 2413 2125 
C 2413 1645 2413 1210 2342 800 
C 2246 192 1882 0 1594 0 
C 1344 0 966 160 851 774 
C 781 1158 781 1747 781 2125 
z
" transform="scale(0.015625)"/>
       </defs>
       <use xlink:href="#CMUSerif-Roman-30"/>
      </g>
     </g>
    </g>
    <g id="xtick_2">
     <g id="line2d_2">
      <g>
       <use xlink:href="#m2a727ca992" x="191.086" y="576.23875" style="stroke: #000000; stroke-width: 2"/>
      </g>
     </g>
     <g id="text_2">
      <!-- 10 -->
      <g transform="translate(179.086 604.39625) scale(0.24 -0.24)">
       <defs>
        <path id="CMUSerif-Roman-31" d="M 570 3654 
C 698 3654 1075 3654 1408 3821 
L 1408 506 
C 1408 275 1389 198 813 198 
L 608 198 
L 608 0 
C 832 19 1389 19 1645 19 
C 1901 19 2458 19 2682 0 
L 2682 198 
L 2477 198 
C 1901 198 1882 269 1882 506 
L 1882 4096 
C 1882 4250 1882 4262 1734 4262 
C 1338 3853 774 3853 570 3853 
L 570 3654 
z
" transform="scale(0.015625)"/>
       </defs>
       <use xlink:href="#CMUSerif-Roman-31"/>
       <use xlink:href="#CMUSerif-Roman-30" transform="translate(49.999985 0)"/>
      </g>
     </g>
    </g>
    <g id="xtick_3">
     <g id="line2d_3">
      <g>
       <use xlink:href="#m2a727ca992" x="299.622" y="576.23875" style="stroke: #000000; stroke-width: 2"/>
      </g>
     </g>
     <g id="text_3">
      <!-- 20 -->
      <g transform="translate(287.622 604.39625) scale(0.24 -0.24)">
       <defs>
        <path id="CMUSerif-Roman-32" d="M 320 0 
L 2694 0 
L 2874 1114 
L 2714 1114 
C 2682 922 2637 640 2573 544 
C 2528 493 2106 493 1965 493 
L 813 493 
L 1491 1152 
C 2490 2035 2874 2381 2874 3021 
C 2874 3750 2298 4262 1517 4262 
C 794 4262 320 3674 320 3104 
C 320 2746 640 2746 659 2746 
C 768 2746 992 2822 992 3085 
C 992 3251 877 3418 653 3418 
C 602 3418 589 3418 570 3411 
C 717 3827 1062 4064 1434 4064 
C 2016 4064 2291 3546 2291 3021 
C 2291 2509 1971 2003 1619 1606 
L 390 237 
C 320 166 320 154 320 0 
z
" transform="scale(0.015625)"/>
       </defs>
       <use xlink:href="#CMUSerif-Roman-32"/>
       <use xlink:href="#CMUSerif-Roman-30" transform="translate(49.999985 0)"/>
      </g>
     </g>
    </g>
    <g id="xtick_4">
     <g id="line2d_4">
      <g>
       <use xlink:href="#m2a727ca992" x="408.158" y="576.23875" style="stroke: #000000; stroke-width: 2"/>
      </g>
     </g>
     <g id="text_4">
      <!-- 30 -->
      <g transform="translate(396.158 604.39625) scale(0.24 -0.24)">
       <defs>
        <path id="CMUSerif-Roman-33" d="M 269 864 
C 269 282 864 -141 1562 -141 
C 2342 -141 2925 442 2925 1094 
C 2925 1619 2522 2118 1856 2253 
C 2381 2426 2752 2874 2752 3379 
C 2752 3904 2189 4262 1574 4262 
C 928 4262 442 3878 442 3392 
C 442 3181 582 3059 768 3059 
C 966 3059 1094 3200 1094 3386 
C 1094 3706 794 3706 698 3706 
C 896 4019 1318 4102 1549 4102 
C 1811 4102 2163 3962 2163 3386 
C 2163 3309 2150 2938 1984 2656 
C 1792 2349 1574 2330 1414 2323 
C 1363 2317 1210 2304 1165 2304 
C 1114 2298 1069 2291 1069 2227 
C 1069 2157 1114 2157 1222 2157 
L 1504 2157 
C 2029 2157 2266 1722 2266 1094 
C 2266 224 1824 38 1542 38 
C 1267 38 787 147 563 525 
C 787 493 986 634 986 877 
C 986 1107 813 1235 627 1235 
C 474 1235 269 1146 269 864 
z
" transform="scale(0.015625)"/>
       </defs>
       <use xlink:href="#CMUSerif-Roman-33"/>
       <use xlink:href="#CMUSerif-Roman-30" transform="translate(49.999985 0)"/>
      </g>
     </g>
    </g>
    <g id="xtick_5">
     <g id="line2d_5">
      <g>
       <use xlink:href="#m2a727ca992" x="516.694" y="576.23875" style="stroke: #000000; stroke-width: 2"/>
      </g>
     </g>
     <g id="text_5">
      <!-- 40 -->
      <g transform="translate(504.694 604.39625) scale(0.24 -0.24)">
       <defs>
        <path id="CMUSerif-Roman-34" d="M 179 1056 
L 1882 1056 
L 1882 499 
C 1882 269 1869 198 1395 198 
L 1261 198 
L 1261 0 
C 1523 19 1856 19 2125 19 
C 2394 19 2733 19 2995 0 
L 2995 198 
L 2861 198 
C 2387 198 2374 269 2374 499 
L 2374 1056 
L 3014 1056 
L 3014 1254 
L 2374 1254 
L 2374 4166 
C 2374 4294 2374 4333 2272 4333 
C 2214 4333 2195 4333 2144 4256 
L 179 1254 
L 179 1056 
z
M 358 1254 
L 1920 3642 
L 1920 1254 
L 358 1254 
z
" transform="scale(0.015625)"/>
       </defs>
       <use xlink:href="#CMUSerif-Roman-34"/>
       <use xlink:href="#CMUSerif-Roman-30" transform="translate(49.999985 0)"/>
      </g>
     </g>
    </g>
    <g id="xtick_6">
     <g id="line2d_6">
      <g>
       <use xlink:href="#m2a727ca992" x="625.23" y="576.23875" style="stroke: #000000; stroke-width: 2"/>
      </g>
     </g>
     <g id="text_6">
      <!-- 50 -->
      <g transform="translate(613.23 604.39625) scale(0.24 -0.24)">
       <defs>
        <path id="CMUSerif-Roman-35" d="M 320 1030 
C 320 480 762 -141 1478 -141 
C 2221 -141 2874 474 2874 1286 
C 2874 2048 2349 2688 1658 2688 
C 1350 2688 1075 2586 845 2362 
L 845 3610 
C 973 3571 1184 3526 1389 3526 
C 2176 3526 2624 4109 2624 4192 
C 2624 4230 2605 4262 2560 4262 
C 2554 4262 2541 4262 2509 4243 
C 2381 4186 2067 4058 1638 4058 
C 1382 4058 1088 4102 787 4237 
C 736 4256 723 4256 710 4256 
C 646 4256 646 4205 646 4102 
L 646 2208 
C 646 2093 646 2042 736 2042 
C 781 2042 794 2061 819 2099 
C 890 2202 1126 2547 1645 2547 
C 1978 2547 2138 2253 2189 2138 
C 2291 1901 2304 1651 2304 1331 
C 2304 1107 2304 723 2150 454 
C 1997 205 1760 38 1466 38 
C 998 38 634 378 525 755 
C 544 749 563 742 634 742 
C 845 742 954 902 954 1056 
C 954 1210 845 1370 634 1370 
C 544 1370 320 1325 320 1030 
z
" transform="scale(0.015625)"/>
       </defs>
       <use xlink:href="#CMUSerif-Roman-35"/>
       <use xlink:href="#CMUSerif-Roman-30" transform="translate(49.999985 0)"/>
      </g>
     </g>
    </g>
    <g id="text_7">
     <!-- Time [s] -->
     <g transform="translate(311.18125 631.05375) scale(0.24 -0.24)">
      <defs>
       <path id="CMUSerif-Roman-54" d="M 230 2893 
L 390 2893 
C 480 3923 576 4134 1542 4134 
C 1658 4134 1824 4134 1888 4122 
C 2022 4096 2022 4026 2022 3878 
L 2022 506 
C 2022 288 2022 198 1350 198 
L 1094 198 
L 1094 0 
C 1357 19 2010 19 2304 19 
C 2598 19 3258 19 3520 0 
L 3520 198 
L 3264 198 
C 2592 198 2592 288 2592 506 
L 2592 3878 
C 2592 4006 2592 4096 2707 4122 
C 2778 4134 2950 4134 3072 4134 
C 4038 4134 4134 3923 4224 2893 
L 4384 2893 
L 4262 4333 
L 352 4333 
L 230 2893 
z
" transform="scale(0.015625)"/>
       <path id="CMUSerif-Roman-69" d="M 480 3942 
C 480 3770 621 3603 819 3603 
C 998 3603 1158 3738 1158 3942 
C 1158 4147 998 4282 819 4282 
C 621 4282 480 4109 480 3942 
z
M 211 0 
C 416 6 762 19 915 19 
C 1139 19 1363 6 1581 0 
L 1581 198 
C 1158 198 1133 230 1133 480 
L 1133 2829 
L 237 2758 
L 237 2560 
C 653 2560 710 2522 710 2208 
L 710 486 
C 710 198 640 198 211 198 
L 211 0 
z
" transform="scale(0.015625)"/>
       <path id="CMUSerif-Roman-6d" d="M 205 0 
C 429 6 755 19 928 19 
C 1094 19 1427 6 1645 0 
L 1645 198 
C 1216 198 1146 198 1146 486 
L 1146 1664 
C 1146 2330 1600 2688 2010 2688 
C 2413 2688 2483 2342 2483 1978 
L 2483 486 
C 2483 198 2413 198 1984 198 
L 1984 0 
C 2208 6 2534 19 2707 19 
C 2874 19 3206 6 3424 0 
L 3424 198 
C 2995 198 2925 198 2925 486 
L 2925 1664 
C 2925 2330 3379 2688 3789 2688 
C 4192 2688 4262 2342 4262 1978 
L 4262 486 
C 4262 198 4192 198 3763 198 
L 3763 0 
C 3987 6 4314 19 4486 19 
C 4653 19 4986 6 5203 0 
L 5203 198 
C 4870 198 4710 198 4704 390 
L 4704 1613 
C 4704 2163 4704 2362 4506 2592 
C 4416 2701 4205 2829 3834 2829 
C 3296 2829 3014 2445 2906 2202 
C 2816 2758 2342 2829 2054 2829 
C 1587 2829 1286 2554 1107 2157 
L 1107 2829 
L 205 2758 
L 205 2560 
C 653 2560 704 2515 704 2202 
L 704 486 
C 704 198 634 198 205 198 
L 205 0 
z
" transform="scale(0.015625)"/>
       <path id="CMUSerif-Roman-65" d="M 179 1408 
C 179 550 851 -70 1587 -70 
C 2368 -70 2656 640 2656 762 
C 2656 826 2605 838 2573 838 
C 2515 838 2502 800 2490 749 
C 2266 90 1690 90 1626 90 
C 1306 90 1050 282 902 518 
C 710 826 710 1248 710 1478 
L 2496 1478 
C 2637 1478 2656 1478 2656 1613 
C 2656 2246 2310 2867 1510 2867 
C 768 2867 179 2208 179 1408 
z
M 717 1613 
C 755 2566 1293 2726 1510 2726 
C 2170 2726 2234 1862 2234 1613 
L 717 1613 
z
" transform="scale(0.015625)"/>
       <path id="CMUSerif-Roman-20" transform="scale(0.015625)"/>
       <path id="CMUSerif-Roman-5b" d="M 666 -1600 
L 1632 -1600 
L 1632 -1453 
L 1094 -1453 
L 1094 4653 
L 1632 4653 
L 1632 4800 
L 666 4800 
L 666 -1600 
z
" transform="scale(0.015625)"/>
       <path id="CMUSerif-Roman-73" d="M 211 83 
C 211 -26 211 -70 282 -70 
C 314 -70 320 -64 442 58 
C 454 70 454 83 570 205 
C 851 -64 1139 -70 1274 -70 
C 2010 -70 2304 358 2304 819 
C 2304 1158 2112 1350 2035 1427 
C 1824 1632 1574 1683 1306 1734 
C 947 1805 518 1888 518 2259 
C 518 2483 685 2746 1235 2746 
C 1939 2746 1971 2170 1984 1971 
C 1990 1914 2048 1914 2061 1914 
C 2144 1914 2144 1946 2144 2067 
L 2144 2714 
C 2144 2822 2144 2867 2074 2867 
C 2042 2867 2029 2867 1946 2790 
C 1926 2765 1862 2707 1837 2688 
C 1594 2867 1331 2867 1235 2867 
C 454 2867 211 2438 211 2080 
C 211 1856 314 1677 486 1536 
C 691 1370 870 1331 1331 1242 
C 1472 1216 1997 1114 1997 653 
C 1997 326 1773 70 1274 70 
C 736 70 506 435 384 979 
C 365 1062 358 1088 294 1088 
C 211 1088 211 1043 211 928 
L 211 83 
z
" transform="scale(0.015625)"/>
       <path id="CMUSerif-Roman-5d" d="M 134 -1453 
L 134 -1600 
L 1101 -1600 
L 1101 4800 
L 134 4800 
L 134 4653 
L 672 4653 
L 672 -1453 
L 134 -1453 
z
" transform="scale(0.015625)"/>
      </defs>
      <use xlink:href="#CMUSerif-Roman-54"/>
      <use xlink:href="#CMUSerif-Roman-69" transform="translate(72.199982 0)"/>
      <use xlink:href="#CMUSerif-Roman-6d" transform="translate(99.899979 0)"/>
      <use xlink:href="#CMUSerif-Roman-65" transform="translate(183.199966 0)"/>
      <use xlink:href="#CMUSerif-Roman-20" transform="translate(227.59996 0)"/>
      <use xlink:href="#CMUSerif-Roman-5b" transform="translate(260.899948 0)"/>
      <use xlink:href="#CMUSerif-Roman-73" transform="translate(288.699936 0)"/>
      <use xlink:href="#CMUSerif-Roman-5d" transform="translate(328.09993 0)"/>
     </g>
    </g>
   </g>
   <g id="matplotlib.axis_2">
    <g id="ytick_1">
     <g id="line2d_7">
      <defs>
       <path id="m75afd161c9" d="M 0 0 
L -8 0 
" style="stroke: #000000; stroke-width: 2"/>
      </defs>
      <g>
       <use xlink:href="#m75afd161c9" x="82.55" y="576.23875" style="stroke: #000000; stroke-width: 2"/>
      </g>
     </g>
     <g id="text_8">
      <!-- -20 -->
      <g transform="translate(39.05875 584.5675) scale(0.24 -0.24)">
       <defs>
        <path id="CMUSerif-Roman-2d" d="M 64 1190 
L 1766 1190 
L 1766 1568 
L 64 1568 
L 64 1190 
z
" transform="scale(0.015625)"/>
       </defs>
       <use xlink:href="#CMUSerif-Roman-2d"/>
       <use xlink:href="#CMUSerif-Roman-32" transform="translate(33.299988 0)"/>
       <use xlink:href="#CMUSerif-Roman-30" transform="translate(83.299973 0)"/>
      </g>
     </g>
    </g>
    <g id="ytick_2">
     <g id="line2d_8">
      <g>
       <use xlink:href="#m75afd161c9" x="82.55" y="464.835125" style="stroke: #000000; stroke-width: 2"/>
      </g>
     </g>
     <g id="text_9">
      <!-- 0 -->
      <g transform="translate(59.05 473.163875) scale(0.24 -0.24)">
       <use xlink:href="#CMUSerif-Roman-30"/>
      </g>
     </g>
    </g>
    <g id="ytick_3">
     <g id="line2d_9">
      <g>
       <use xlink:href="#m75afd161c9" x="82.55" y="353.4315" style="stroke: #000000; stroke-width: 2"/>
      </g>
     </g>
     <g id="text_10">
      <!-- 20 -->
      <g transform="translate(47.05 361.76025) scale(0.24 -0.24)">
       <use xlink:href="#CMUSerif-Roman-32"/>
       <use xlink:href="#CMUSerif-Roman-30" transform="translate(49.999985 0)"/>
      </g>
     </g>
    </g>
    <g id="ytick_4">
     <g id="line2d_10">
      <g>
       <use xlink:href="#m75afd161c9" x="82.55" y="242.027875" style="stroke: #000000; stroke-width: 2"/>
      </g>
     </g>
     <g id="text_11">
      <!-- 40 -->
      <g transform="translate(47.05 250.356625) scale(0.24 -0.24)">
       <use xlink:href="#CMUSerif-Roman-34"/>
       <use xlink:href="#CMUSerif-Roman-30" transform="translate(49.999985 0)"/>
      </g>
     </g>
    </g>
    <g id="ytick_5">
     <g id="line2d_11">
      <g>
       <use xlink:href="#m75afd161c9" x="82.55" y="130.62425" style="stroke: #000000; stroke-width: 2"/>
      </g>
     </g>
     <g id="text_12">
      <!-- 60 -->
      <g transform="translate(47.05 138.953) scale(0.24 -0.24)">
       <defs>
        <path id="CMUSerif-Roman-36" d="M 269 2022 
C 269 314 1011 -141 1606 -141 
C 2317 -141 2925 461 2925 1306 
C 2925 2118 2355 2733 1645 2733 
C 1210 2733 973 2406 845 2099 
L 845 2253 
C 845 3872 1638 4102 1965 4102 
C 2118 4102 2387 4064 2528 3846 
C 2432 3846 2176 3846 2176 3558 
C 2176 3360 2330 3264 2470 3264 
C 2573 3264 2765 3322 2765 3571 
C 2765 3955 2483 4262 1952 4262 
C 1133 4262 269 3437 269 2022 
z
M 858 1446 
C 858 1946 1062 2586 1638 2586 
C 1741 2586 2035 2586 2234 2189 
C 2349 1952 2349 1626 2349 1312 
C 2349 1005 2349 685 2240 454 
C 2048 70 1754 38 1606 38 
C 1203 38 1011 422 973 518 
C 858 819 858 1331 858 1446 
z
" transform="scale(0.015625)"/>
       </defs>
       <use xlink:href="#CMUSerif-Roman-36"/>
       <use xlink:href="#CMUSerif-Roman-30" transform="translate(49.999985 0)"/>
      </g>
     </g>
    </g>
    <g id="ytick_6">
     <g id="line2d_12">
      <g>
       <use xlink:href="#m75afd161c9" x="82.55" y="19.220625" style="stroke: #000000; stroke-width: 2"/>
      </g>
     </g>
     <g id="text_13">
      <!-- 80 -->
      <g transform="translate(47.05 27.549375) scale(0.24 -0.24)">
       <defs>
        <path id="CMUSerif-Roman-38" d="M 269 966 
C 269 288 922 -141 1594 -141 
C 2317 -141 2925 390 2925 1075 
C 2925 1306 2854 1594 2611 1862 
C 2490 1997 2387 2061 1978 2317 
C 2438 2554 2752 2886 2752 3309 
C 2752 3898 2182 4262 1600 4262 
C 960 4262 442 3789 442 3194 
C 442 3078 454 2790 723 2490 
C 794 2413 1030 2253 1190 2144 
C 819 1958 269 1600 269 966 
z
M 589 966 
C 589 1338 794 1747 1338 2048 
L 2125 1549 
C 2304 1427 2605 1235 2605 845 
C 2605 371 2125 38 1600 38 
C 1050 38 589 435 589 966 
z
M 723 3443 
C 723 3834 1139 4102 1594 4102 
C 2061 4102 2470 3770 2470 3309 
C 2470 2944 2221 2637 1837 2413 
L 1043 2925 
C 749 3117 723 3334 723 3443 
z
" transform="scale(0.015625)"/>
       </defs>
       <use xlink:href="#CMUSerif-Roman-38"/>
       <use xlink:href="#CMUSerif-Roman-30" transform="translate(49.999985 0)"/>
      </g>
     </g>
    </g>
    <g id="text_14">
     <!-- Beam Current [nA] -->
     <g transform="translate(29.05875 399.223437) rotate(-90) scale(0.24 -0.24)">
      <defs>
       <path id="CMUSerif-Roman-42" d="M 230 0 
L 2739 0 
C 3590 0 4166 570 4166 1171 
C 4166 1728 3642 2208 2931 2285 
C 3552 2406 3994 2816 3994 3290 
C 3994 3846 3405 4371 2573 4371 
L 230 4371 
L 230 4173 
L 384 4173 
C 877 4173 890 4102 890 3872 
L 890 499 
C 890 269 877 198 384 198 
L 230 198 
L 230 0 
z
M 1421 454 
L 1421 2202 
L 2624 2202 
C 3258 2202 3526 1606 3526 1178 
C 3526 723 3194 198 2534 198 
L 1734 198 
C 1434 198 1421 243 1421 454 
z
M 1421 2342 
L 1421 3917 
C 1421 4128 1434 4173 1734 4173 
L 2528 4173 
C 3149 4173 3373 3629 3373 3290 
C 3373 2880 3059 2342 2349 2342 
L 1421 2342 
z
" transform="scale(0.015625)"/>
       <path id="CMUSerif-Roman-61" d="M 269 608 
C 269 90 890 -70 1293 -70 
C 1715 -70 2010 186 2131 486 
C 2157 230 2330 -38 2630 -38 
C 2765 -38 3155 51 3155 570 
L 3155 928 
L 2995 928 
L 2995 570 
C 2995 198 2835 160 2765 160 
C 2554 160 2528 448 2528 480 
L 2528 1760 
C 2528 2029 2528 2278 2298 2515 
C 2048 2765 1728 2867 1421 2867 
C 896 2867 454 2566 454 2144 
C 454 1952 582 1843 749 1843 
C 928 1843 1043 1971 1043 2138 
C 1043 2214 1011 2426 717 2432 
C 890 2656 1203 2726 1408 2726 
C 1722 2726 2086 2477 2086 1907 
L 2086 1670 
C 1760 1651 1312 1632 909 1440 
C 429 1222 269 890 269 608 
z
M 762 614 
C 762 966 1030 1498 2086 1536 
L 2086 896 
C 2086 288 1626 70 1338 70 
C 1024 70 762 294 762 614 
z
" transform="scale(0.015625)"/>
       <path id="CMUSerif-Roman-43" d="M 358 2189 
C 358 864 1395 -141 2586 -141 
C 3629 -141 4256 749 4256 1491 
C 4256 1555 4256 1600 4173 1600 
C 4102 1600 4102 1562 4096 1498 
C 4045 582 3360 58 2662 58 
C 2272 58 1018 275 1018 2182 
C 1018 4096 2266 4314 2656 4314 
C 3354 4314 3923 3731 4051 2797 
C 4064 2707 4064 2688 4154 2688 
C 4256 2688 4256 2707 4256 2842 
L 4256 4358 
C 4256 4467 4256 4512 4186 4512 
C 4160 4512 4134 4512 4083 4435 
L 3763 3962 
C 3526 4192 3200 4512 2586 4512 
C 1389 4512 358 3494 358 2189 
z
" transform="scale(0.015625)"/>
       <path id="CMUSerif-Roman-75" d="M 205 2560 
C 704 2560 704 2541 704 1971 
L 704 1011 
C 704 512 704 -70 1677 -70 
C 2035 -70 2317 109 2502 506 
L 2502 -70 
L 3424 0 
L 3424 198 
C 2976 198 2925 243 2925 557 
L 2925 2829 
L 1984 2758 
L 1984 2560 
C 2432 2560 2483 2515 2483 2202 
L 2483 1062 
C 2483 506 2176 70 1709 70 
C 1171 70 1146 371 1146 704 
L 1146 2829 
L 205 2758 
L 205 2560 
z
" transform="scale(0.015625)"/>
       <path id="CMUSerif-Roman-72" d="M 179 0 
C 429 6 730 19 909 19 
C 1165 19 1466 19 1722 0 
L 1722 198 
L 1587 198 
C 1114 198 1101 269 1101 499 
L 1101 1485 
C 1101 2118 1370 2688 1856 2688 
C 1901 2688 1914 2688 1926 2682 
C 1907 2675 1779 2598 1779 2432 
C 1779 2253 1914 2157 2054 2157 
C 2170 2157 2330 2234 2330 2438 
C 2330 2643 2131 2829 1856 2829 
C 1389 2829 1158 2400 1069 2125 
L 1069 2829 
L 179 2758 
L 179 2560 
C 627 2560 678 2515 678 2202 
L 678 486 
C 678 198 608 198 179 198 
L 179 0 
z
" transform="scale(0.015625)"/>
       <path id="CMUSerif-Roman-6e" d="M 205 0 
C 429 6 755 19 928 19 
C 1094 19 1427 6 1645 0 
L 1645 198 
C 1216 198 1146 198 1146 486 
L 1146 1664 
C 1146 2330 1600 2688 2010 2688 
C 2413 2688 2483 2342 2483 1978 
L 2483 486 
C 2483 198 2413 198 1984 198 
L 1984 0 
C 2208 6 2534 19 2707 19 
C 2874 19 3206 6 3424 0 
L 3424 198 
C 3091 198 2931 198 2925 390 
L 2925 1613 
C 2925 2163 2925 2362 2726 2592 
C 2637 2701 2426 2829 2054 2829 
C 1587 2829 1286 2554 1107 2157 
L 1107 2829 
L 205 2758 
L 205 2560 
C 653 2560 704 2515 704 2202 
L 704 486 
C 704 198 634 198 205 198 
L 205 0 
z
" transform="scale(0.015625)"/>
       <path id="CMUSerif-Roman-74" d="M 122 2560 
L 666 2560 
L 666 794 
C 666 6 1261 -70 1491 -70 
C 1946 -70 2125 384 2125 794 
L 2125 1158 
L 1965 1158 
L 1965 806 
C 1965 333 1773 90 1536 90 
C 1107 90 1107 672 1107 781 
L 1107 2560 
L 2022 2560 
L 2022 2758 
L 1107 2758 
L 1107 3936 
L 947 3936 
C 941 3411 749 2726 122 2701 
L 122 2560 
z
" transform="scale(0.015625)"/>
       <path id="CMUSerif-Roman-41" d="M 205 0 
C 352 6 627 19 858 19 
C 1056 19 1389 6 1594 0 
L 1594 198 
C 1274 198 1114 358 1114 525 
C 1114 544 1120 608 1126 621 
L 1421 1459 
L 3002 1459 
L 3341 480 
C 3347 454 3360 416 3360 390 
C 3360 198 3002 198 2829 198 
L 2829 0 
C 3059 19 3507 19 3750 19 
C 4026 19 4320 13 4589 0 
L 4589 198 
L 4474 198 
C 4090 198 4000 243 3930 454 
L 2547 4454 
C 2515 4538 2502 4582 2400 4582 
C 2298 4582 2278 4544 2246 4454 
L 922 627 
C 806 301 550 205 205 198 
L 205 0 
z
M 1491 1658 
L 2208 3738 
L 2931 1658 
L 1491 1658 
z
" transform="scale(0.015625)"/>
      </defs>
      <use xlink:href="#CMUSerif-Roman-42"/>
      <use xlink:href="#CMUSerif-Roman-65" transform="translate(70.799988 0)"/>
      <use xlink:href="#CMUSerif-Roman-61" transform="translate(115.199982 0)"/>
      <use xlink:href="#CMUSerif-Roman-6d" transform="translate(165.199966 0)"/>
      <use xlink:href="#CMUSerif-Roman-20" transform="translate(248.499954 0)"/>
      <use xlink:href="#CMUSerif-Roman-43" transform="translate(281.799942 0)"/>
      <use xlink:href="#CMUSerif-Roman-75" transform="translate(353.999924 0)"/>
      <use xlink:href="#CMUSerif-Roman-72" transform="translate(409.499908 0)"/>
      <use xlink:href="#CMUSerif-Roman-72" transform="translate(448.599899 0)"/>
      <use xlink:href="#CMUSerif-Roman-65" transform="translate(487.69989 0)"/>
      <use xlink:href="#CMUSerif-Roman-6e" transform="translate(532.099884 0)"/>
      <use xlink:href="#CMUSerif-Roman-74" transform="translate(587.599869 0)"/>
      <use xlink:href="#CMUSerif-Roman-20" transform="translate(626.399857 0)"/>
      <use xlink:href="#CMUSerif-Roman-5b" transform="translate(659.699844 0)"/>
      <use xlink:href="#CMUSerif-Roman-6e" transform="translate(687.499832 0)"/>
      <use xlink:href="#CMUSerif-Roman-41" transform="translate(742.999817 0)"/>
      <use xlink:href="#CMUSerif-Roman-5d" transform="translate(817.999802 0)"/>
     </g>
    </g>
   </g>
   <g id="line2d_13">
    <path d="M 81.46464 464.761042 
L 84.72072 464.556616 
L 91.23288 464.445212 
L 94.48896 464.723721 
L 101.00112 464.500914 
L 107.51328 464.612318 
L 133.56192 463.999598 
L 136.818 464.240787 
L 140.07408 464.166703 
L 143.33016 463.943896 
L 146.58624 463.981216 
L 149.84232 464.185085 
L 153.0984 464.185085 
L 156.35448 463.776791 
L 159.61056 464.09262 
L 166.12272 464.185085 
L 169.3788 463.850874 
L 172.63488 464.389511 
L 179.14704 464.278107 
L 182.40312 464.09262 
L 185.6592 464.66802 
L 188.91528 463.572365 
L 192.17136 445.989531 
L 195.42744 387.966624 
L 198.68352 348.826631 
L 201.9396 325.952125 
L 205.19568 313.177471 
L 208.45176 306.307767 
L 211.70784 302.687149 
L 214.96392 300.496397 
L 218.22 299.30772 
L 221.47608 299.140614 
L 224.73216 298.565215 
L 227.98824 298.15692 
L 234.5004 298.026578 
L 237.75648 297.618284 
L 241.01256 297.599902 
L 244.26864 297.228371 
L 247.52472 542.186561 
L 250.7808 517.918952 
L 254.03688 423.355656 
L 257.29296 367.802568 
L 260.54904 336.442447 
L 263.80512 320.251601 
L 267.0612 317.800722 
L 270.31728 314.941548 
L 273.57336 315.108653 
L 276.82944 316.129667 
L 280.08552 318.35774 
L 283.3416 318.116551 
L 286.59768 318.227955 
L 293.10984 319.731903 
L 296.36592 318.320977 
L 299.622 318.172253 
L 302.87808 318.673569 
L 306.13416 319.435013 
L 309.39024 318.339358 
L 312.64632 318.023529 
L 315.9024 319.063482 
L 319.15848 319.137565 
L 322.41456 318.35774 
L 325.67064 318.488082 
L 328.92672 319.880627 
L 332.1828 318.673569 
L 335.43888 318.655187 
L 341.95104 319.824925 
L 345.20712 319.230587 
L 348.4632 318.896376 
L 351.71928 318.840674 
L 354.97536 319.416074 
L 358.23144 319.174885 
L 361.48752 318.803354 
L 364.7436 319.230587 
L 367.99968 319.824925 
L 371.25576 319.527478 
L 374.51184 318.599486 
L 377.76792 321.402958 
L 381.024 321.14283 
L 384.28008 320.363005 
L 387.53616 319.063482 
L 390.79224 319.992031 
L 394.04832 320.23322 
L 397.3044 319.843307 
L 400.56048 319.304671 
L 403.81656 320.511729 
L 407.07264 320.567431 
L 410.32872 319.899009 
L 413.5848 319.100802 
L 416.84088 320.214838 
L 420.09696 319.6205 
L 423.35304 318.413442 
L 426.60912 318.599486 
L 429.8652 319.973092 
L 433.12128 319.861689 
L 436.37736 318.952078 
L 439.63344 312.991984 
L 442.88952 75.850987 
L 446.1456 96.404956 
L 449.40168 178.082194 
L 452.65776 230.609003 
L 455.91384 260.33539 
L 459.16992 276.28449 
L 462.426 285.698096 
L 465.68208 290.154241 
L 468.93816 292.772226 
L 472.19424 294.238855 
L 475.45032 295.483233 
L 478.7064 295.464295 
L 481.96248 295.6314 
L 488.47464 296.318761 
L 491.73072 296.207357 
L 494.9868 296.263059 
L 498.24288 296.634033 
L 501.49896 296.652971 
L 504.75504 296.411226 
L 508.01112 296.318761 
L 511.2672 296.615651 
L 514.52328 296.263059 
L 517.77936 296.207357 
L 521.03544 296.59727 
L 524.29152 296.727055 
L 527.5476 296.28144 
L 530.80368 296.615651 
L 534.05976 299.883677 
L 537.31584 344.240701 
L 540.57192 395.838961 
L 543.828 426.382493 
L 547.08408 443.16712 
L 550.34016 452.543406 
L 553.59624 457.649591 
L 556.85232 460.508765 
L 560.1084 462.105736 
L 563.36448 462.941263 
L 566.62056 463.609685 
L 569.87664 463.572365 
L 573.13272 463.906576 
L 576.3888 463.981216 
L 579.64488 464.389511 
L 582.90096 463.943896 
L 586.15704 464.240787 
L 592.6692 464.630699 
L 595.92528 464.09262 
L 599.18136 464.538234 
L 605.69352 464.70534 
L 608.9496 464.240787 
L 612.20568 464.686401 
L 615.46176 464.761042 
L 621.97392 464.371129 
L 625.23 464.70534 
L 625.23 464.70534 
" clip-path="url(#pec512c04a2)" style="fill: none; stroke: #000000; stroke-width: 1.5; stroke-linecap: round"/>
   </g>
   <g id="line2d_14">
    <defs>
     <path id="m87df6e6194" d="M -5 0 
L 5 0 
M 0 5 
L 0 -5 
" style="stroke: #472d7b"/>
    </defs>
    <g clip-path="url(#pec512c04a2)">
     <use xlink:href="#m87df6e6194" x="485.21856" y="296.002931" style="fill: #472d7b; stroke: #472d7b"/>
     <use xlink:href="#m87df6e6194" x="488.47464" y="296.318761" style="fill: #472d7b; stroke: #472d7b"/>
     <use xlink:href="#m87df6e6194" x="491.73072" y="296.207357" style="fill: #472d7b; stroke: #472d7b"/>
     <use xlink:href="#m87df6e6194" x="494.9868" y="296.263059" style="fill: #472d7b; stroke: #472d7b"/>
     <use xlink:href="#m87df6e6194" x="498.24288" y="296.634033" style="fill: #472d7b; stroke: #472d7b"/>
     <use xlink:href="#m87df6e6194" x="501.49896" y="296.652971" style="fill: #472d7b; stroke: #472d7b"/>
     <use xlink:href="#m87df6e6194" x="504.75504" y="296.411226" style="fill: #472d7b; stroke: #472d7b"/>
     <use xlink:href="#m87df6e6194" x="508.01112" y="296.318761" style="fill: #472d7b; stroke: #472d7b"/>
     <use xlink:href="#m87df6e6194" x="511.2672" y="296.615651" style="fill: #472d7b; stroke: #472d7b"/>
     <use xlink:href="#m87df6e6194" x="514.52328" y="296.263059" style="fill: #472d7b; stroke: #472d7b"/>
     <use xlink:href="#m87df6e6194" x="517.77936" y="296.207357" style="fill: #472d7b; stroke: #472d7b"/>
     <use xlink:href="#m87df6e6194" x="521.03544" y="296.59727" style="fill: #472d7b; stroke: #472d7b"/>
     <use xlink:href="#m87df6e6194" x="524.29152" y="296.727055" style="fill: #472d7b; stroke: #472d7b"/>
    </g>
   </g>
   <g id="line2d_15">
    <g clip-path="url(#pec512c04a2)">
     <use xlink:href="#m87df6e6194" x="573.13272" y="463.906576" style="fill: #472d7b; stroke: #472d7b"/>
     <use xlink:href="#m87df6e6194" x="576.3888" y="463.981216" style="fill: #472d7b; stroke: #472d7b"/>
     <use xlink:href="#m87df6e6194" x="579.64488" y="464.389511" style="fill: #472d7b; stroke: #472d7b"/>
     <use xlink:href="#m87df6e6194" x="582.90096" y="463.943896" style="fill: #472d7b; stroke: #472d7b"/>
     <use xlink:href="#m87df6e6194" x="586.15704" y="464.240787" style="fill: #472d7b; stroke: #472d7b"/>
     <use xlink:href="#m87df6e6194" x="589.41312" y="464.389511" style="fill: #472d7b; stroke: #472d7b"/>
     <use xlink:href="#m87df6e6194" x="592.6692" y="464.630699" style="fill: #472d7b; stroke: #472d7b"/>
     <use xlink:href="#m87df6e6194" x="595.92528" y="464.09262" style="fill: #472d7b; stroke: #472d7b"/>
     <use xlink:href="#m87df6e6194" x="599.18136" y="464.538234" style="fill: #472d7b; stroke: #472d7b"/>
     <use xlink:href="#m87df6e6194" x="602.43744" y="464.630699" style="fill: #472d7b; stroke: #472d7b"/>
     <use xlink:href="#m87df6e6194" x="605.69352" y="464.70534" style="fill: #472d7b; stroke: #472d7b"/>
     <use xlink:href="#m87df6e6194" x="608.9496" y="464.240787" style="fill: #472d7b; stroke: #472d7b"/>
     <use xlink:href="#m87df6e6194" x="612.20568" y="464.686401" style="fill: #472d7b; stroke: #472d7b"/>
    </g>
   </g>
   <g id="line2d_16">
    <g clip-path="url(#pec512c04a2)">
     <use xlink:href="#m87df6e6194" x="485.21856" y="296.002931" style="fill: #472d7b; stroke: #472d7b"/>
     <use xlink:href="#m87df6e6194" x="488.47464" y="296.318761" style="fill: #472d7b; stroke: #472d7b"/>
     <use xlink:href="#m87df6e6194" x="491.73072" y="296.207357" style="fill: #472d7b; stroke: #472d7b"/>
     <use xlink:href="#m87df6e6194" x="494.9868" y="296.263059" style="fill: #472d7b; stroke: #472d7b"/>
     <use xlink:href="#m87df6e6194" x="498.24288" y="296.634033" style="fill: #472d7b; stroke: #472d7b"/>
     <use xlink:href="#m87df6e6194" x="501.49896" y="296.652971" style="fill: #472d7b; stroke: #472d7b"/>
     <use xlink:href="#m87df6e6194" x="504.75504" y="296.411226" style="fill: #472d7b; stroke: #472d7b"/>
     <use xlink:href="#m87df6e6194" x="508.01112" y="296.318761" style="fill: #472d7b; stroke: #472d7b"/>
     <use xlink:href="#m87df6e6194" x="511.2672" y="296.615651" style="fill: #472d7b; stroke: #472d7b"/>
     <use xlink:href="#m87df6e6194" x="514.52328" y="296.263059" style="fill: #472d7b; stroke: #472d7b"/>
     <use xlink:href="#m87df6e6194" x="517.77936" y="296.207357" style="fill: #472d7b; stroke: #472d7b"/>
     <use xlink:href="#m87df6e6194" x="521.03544" y="296.59727" style="fill: #472d7b; stroke: #472d7b"/>
     <use xlink:href="#m87df6e6194" x="524.29152" y="296.727055" style="fill: #472d7b; stroke: #472d7b"/>
    </g>
   </g>
   <g id="patch_3">
    <path d="M 82.55 576.23875 
L 82.55 19.220625 
" style="fill: none; stroke: #000000; stroke-width: 0.8; stroke-linejoin: miter; stroke-linecap: square"/>
   </g>
   <g id="patch_4">
    <path d="M 82.55 576.23875 
L 625.23 576.23875 
" style="fill: none; stroke: #000000; stroke-width: 0.8; stroke-linejoin: miter; stroke-linecap: square"/>
   </g>
  </g>
 </g>
 <defs>
  <clipPath id="pec512c04a2">
   <rect x="82.55" y="19.220625" width="542.68" height="557.018125"/>
  </clipPath>
 </defs>
</svg>
