<?xml version="1.0" encoding="UTF-8" standalone="no"?>
<!-- Created with Inkscape (http://www.inkscape.org/) -->

<svg
   width="383.94543mm"
   height="103.32229mm"
   viewBox="0 0 383.94543 103.32229"
   version="1.1"
   id="svg1"
   inkscape:version="1.3.2 (091e20e, 2023-11-25)"
   sodipodi:docname="contact.svg"
   inkscape:export-filename="contact.png"
   inkscape:export-xdpi="96"
   inkscape:export-ydpi="96"
   xmlns:inkscape="http://www.inkscape.org/namespaces/inkscape"
   xmlns:sodipodi="http://sodipodi.sourceforge.net/DTD/sodipodi-0.dtd"
   xmlns="http://www.w3.org/2000/svg"
   xmlns:svg="http://www.w3.org/2000/svg">
  <sodipodi:namedview
     id="namedview1"
     pagecolor="#ffffff"
     bordercolor="#000000"
     borderopacity="0.25"
     inkscape:showpageshadow="2"
     inkscape:pageopacity="0.0"
     inkscape:pagecheckerboard="0"
     inkscape:deskcolor="#d1d1d1"
     inkscape:document-units="mm"
     inkscape:zoom="0.36478241"
     inkscape:cx="774.43427"
     inkscape:cy="349.52343"
     inkscape:window-width="1424"
     inkscape:window-height="836"
     inkscape:window-x="242"
     inkscape:window-y="306"
     inkscape:window-maximized="0"
     inkscape:current-layer="layer1" />
  <defs
     id="defs1">
    <marker
       style="overflow:visible"
       id="Triangle"
       refX="0"
       refY="0"
       orient="auto-start-reverse"
       inkscape:stockid="Triangle arrow"
       markerWidth="1"
       markerHeight="1"
       viewBox="0 0 1 1"
       inkscape:isstock="true"
       inkscape:collect="always"
       preserveAspectRatio="xMidYMid"
       markerUnits="userSpaceOnUse">
      <path
         transform="scale(0.5)"
         style="fill:context-stroke;fill-rule:evenodd;stroke:context-stroke;stroke-width:1pt"
         d="M 5.77,0 -2.88,5 V -5 Z"
         id="path135" />
    </marker>
    <marker
       style="overflow:visible"
       id="Triangle-7"
       refX="0"
       refY="0"
       orient="auto-start-reverse"
       inkscape:stockid="Triangle arrow"
       markerWidth="1"
       markerHeight="1"
       viewBox="0 0 1 1"
       inkscape:isstock="true"
       inkscape:collect="always"
       preserveAspectRatio="xMidYMid"
       markerUnits="userSpaceOnUse">
      <path
         transform="scale(0.5)"
         style="fill:context-stroke;fill-rule:evenodd;stroke:context-stroke;stroke-width:1pt"
         d="M 5.77,0 -2.88,5 V -5 Z"
         id="path135-2" />
    </marker>
    <marker
       style="overflow:visible"
       id="Triangle-7-1"
       refX="0"
       refY="0"
       orient="auto-start-reverse"
       inkscape:stockid="Triangle arrow"
       markerWidth="0.5"
       markerHeight="0.5"
       viewBox="0 0 1 1"
       inkscape:isstock="true"
       inkscape:collect="always"
       preserveAspectRatio="xMidYMid"
       markerUnits="strokeWidth">
      <path
         transform="scale(0.5)"
         style="fill:context-stroke;fill-rule:evenodd;stroke:context-stroke;stroke-width:1pt"
         d="M 5.77,0 -2.88,5 V -5 Z"
         id="path135-2-9" />
    </marker>
    <marker
       style="overflow:visible"
       id="Triangle-7-9"
       refX="0"
       refY="0"
       orient="auto-start-reverse"
       inkscape:stockid="Triangle arrow"
       markerWidth="1"
       markerHeight="1"
       viewBox="0 0 1 1"
       inkscape:isstock="true"
       inkscape:collect="always"
       preserveAspectRatio="xMidYMid"
       markerUnits="userSpaceOnUse">
      <path
         transform="scale(0.5)"
         style="fill:context-stroke;fill-rule:evenodd;stroke:context-stroke;stroke-width:1pt"
         d="M 5.77,0 -2.88,5 V -5 Z"
         id="path135-2-6" />
    </marker>
    <marker
       style="overflow:visible"
       id="Triangle-7-9-4"
       refX="0"
       refY="0"
       orient="auto-start-reverse"
       inkscape:stockid="Triangle arrow"
       markerWidth="1"
       markerHeight="1"
       viewBox="0 0 1 1"
       inkscape:isstock="true"
       inkscape:collect="always"
       preserveAspectRatio="xMidYMid"
       markerUnits="userSpaceOnUse">
      <path
         transform="scale(0.5)"
         style="fill:context-stroke;fill-rule:evenodd;stroke:context-stroke;stroke-width:1pt"
         d="M 5.77,0 -2.88,5 V -5 Z"
         id="path135-2-6-9" />
    </marker>
  </defs>
  <g
     inkscape:label="Layer 1"
     inkscape:groupmode="layer"
     id="layer1"
     transform="translate(-20,-32.764948)">
    <g
       id="g12">
      <g
         id="g10"
         transform="translate(25.40454,8.769744)">
        <rect
           style="fill:#ffff00;fill-opacity:1;stroke:none;stroke-width:0.1;stroke-dasharray:none"
           id="rect8"
           width="67.479294"
           height="6.2238178"
           x="310.83524"
           y="37.124531" />
        <g
           id="g8"
           transform="translate(0,-1.0583333)">
          <path
             style="fill:#e6e6e6;stroke:#000000;stroke-width:0.705556"
             d="m 377.95349,40.153923 -2.6503,-0.805838 -2.09373,0.945961 -1.54136,-0.42037 -1.26112,-0.113349 -1.40124,0.673845 -1.26111,-0.980868 -2.24199,0.700619 -2.66235,-0.420373 -1.1803,-0.156387 -1.90243,0.156387 -2.24199,0.28025 -1.96173,-0.326164 -2.27977,-0.05117 -2.06408,0.09708 -2.80248,0.420373 -1.6681,-0.466287 -1.2745,0.04591 h -0.98087 l -0.5605,-0.560488 -1.12099,0.980869 -2.24198,-0.980869 -0.94309,0.347682 -1.57914,-0.347682 -1.41087,0.175415 -0.9937,-0.140123 -1.09854,-0.455662 -0.64945,0.441891 -1.03203,0.398852 h -1.96174 l -0.70062,0.04304 -1.68149,0.229078 -2.38211,-0.131994 -2.24198,0.28025 -1.68149,-0.229078 -2.66236,0.369201 -2.22859,-0.118606 -2.25537,-0.02152 -0.84075,-0.140124 -1.68149,-0.140126 -1.34776,0.140126 V 25.406315 h 66.76549 z"
             id="path2-9-3-2"
             sodipodi:nodetypes="cccccccccccccccccccccccccccccccccccccccccccc" />
        </g>
        <path
           style="fill:#ff9955;fill-opacity:1;stroke:#000000;stroke-width:0.705556"
           d="M 378.1881,58.788743 H 311.18811 V 41.79837 l 2.94942,-1.006139 1.58459,-0.02118 0.99379,-0.06355 2.12338,1.061688 2.21246,-1.097802 1.82533,-0.09871 2.18597,-0.04767 1.81474,-0.424191 1.77333,0.266267 1.41174,-0.721276 1.61636,0.843086 1.78826,-0.784829 2.20716,0.548422 2.42672,0.606679 1.88931,-0.08055 1.69876,-0.771209 2.24465,0.288121 1.5312,0.0037 1.65387,0.258476 1.68173,0.05847 1.34498,-0.624623 2.16575,0.857057 3.16918,0.01155 3.44074,-0.779532 2.08196,-0.131445 1.82004,1.061688 1.36503,-0.151669 2.27504,0.910018 0.75835,-0.758349 2.57839,0.30334 1.8677,-0.710684 1.52729,0.188743 2.0863,-0.188743 2.90647,-0.135785 z"
           id="path1-5-9-7"
           sodipodi:nodetypes="cccccccccccccccccccccccccccccccccccccc" />
        <text
           xml:space="preserve"
           style="font-size:5.64444px;font-family:Sans;-inkscape-font-specification:'Sans, Normal';text-align:end;text-anchor:end;fill:#000000;fill-opacity:1;stroke:none;stroke-width:0.1;stroke-dasharray:none"
           x="370.20636"
           y="52.190796"
           id="text4-6-7-1"><tspan
             sodipodi:role="line"
             id="tspan4-2-7-0"
             style="fill:#000000;fill-opacity:1;stroke:none;stroke-width:0.1"
             x="370.20636"
             y="52.190796">Too much grease!</tspan></text>
      </g>
      <path
         style="fill:#ff9955;fill-opacity:1;stroke:#000000;stroke-width:0.705556"
         d="m 87.352778,101.45526 h -67 V 86.584181 l 2.94943,-3.517593 1.82003,0.606679 0.75835,1.820037 2.12338,1.061688 1.82004,-2.275046 1.66836,-1.668367 2.578392,1.365027 1.971707,0.910019 0.910018,1.365028 2.275047,-1.820037 0.910018,-1.668368 h 2.730055 l 1.971707,2.275047 2.426719,0.606679 1.668367,-1.516698 1.213358,-1.061688 2.730055,0.910018 1.516698,1.971707 1.668367,-1.820037 0.455009,-0.758349 3.185068,0.15167 0.910018,2.426716 3.640074,-2.578386 4.853435,-0.151669 1.061688,1.516697 1.820037,1.061688 1.365028,-0.151669 2.275045,0.910018 0.75835,-0.758349 2.57839,0.30334 0.45501,-2.123377 1.21336,-0.910018 3.18506,0.910018 3.53433,-0.606679 z"
         id="path1"
         sodipodi:nodetypes="cccccccccccccccccccccccccccccccccccccc" />
      <path
         style="fill:#e6e6e6;stroke:#000000;stroke-width:0.705556"
         d="m 87.352778,82.820437 -2.6503,-0.805838 -2.09373,0.945961 -1.54136,-0.42037 -1.26112,-0.113349 -1.40124,0.673845 -1.26111,-0.980868 -2.241986,0.700619 -2.662357,-0.420373 -1.180295,-0.156387 -1.902434,0.156387 -2.241984,0.28025 -1.961737,-0.326164 -2.279766,-0.05117 -2.064079,0.09708 -2.80248,0.420373 -1.668101,-0.466287 -1.274504,0.04591 h -0.980866 l -0.560496,-0.560488 -1.120992,0.980869 -2.241987,-0.980869 -0.943083,0.347682 -1.579147,-0.347682 -1.410867,0.175415 -0.993699,-0.140123 -1.098536,-0.455662 -0.649451,0.441891 -1.032037,0.398852 h -1.961737 l -0.70062,0.04304 -1.681487,0.229078 -2.382108,-0.131994 -2.241984,0.28025 -1.68149,-0.229078 -2.66236,0.369201 -2.228595,-0.118606 -2.255365,-0.02152 -0.84075,-0.140124 -1.68149,-0.140126 -1.58227,0.140126 V 68.455257 h 67 z"
         id="path2"
         sodipodi:nodetypes="cccccccccccccccccccccccccccccccccccccccccccc" />
      <text
         xml:space="preserve"
         style="font-size:5.64444px;font-family:Sans;-inkscape-font-specification:'Sans, Normal';text-align:end;text-anchor:end;fill:#000000;fill-opacity:1;stroke:none;stroke-width:0.1;stroke-dasharray:none"
         x="72.610619"
         y="95.94146"
         id="text4"><tspan
           sodipodi:role="line"
           id="tspan4"
           style="fill:#000000;fill-opacity:1;stroke:none;stroke-width:0.1"
           x="72.610619"
           y="95.94146">Target holder</tspan></text>
      <text
         xml:space="preserve"
         style="font-size:5.64444px;font-family:Sans;-inkscape-font-specification:'Sans, Normal';text-align:end;text-anchor:end;fill:#000000;fill-opacity:1;stroke:none;stroke-width:0.1;stroke-dasharray:none"
         x="60.533501"
         y="76.674713"
         id="text4-5"><tspan
           sodipodi:role="line"
           id="tspan4-3"
           style="fill:#000000;fill-opacity:1;stroke:none;stroke-width:0.1"
           x="60.533501"
           y="76.674713">Tape</tspan></text>
      <path
         style="fill:#e6e6e6;stroke:#000000;stroke-width:0.705556"
         d="m 192.68781,83.349604 -2.6503,-0.805838 -2.09373,0.945961 -1.54136,-0.42037 -1.26112,-0.113349 -1.40124,0.673845 -1.26111,-0.980868 -2.24199,0.700619 -2.66235,-0.420373 -1.1803,-0.156387 -1.90243,0.156387 -2.24199,0.28025 -1.96173,-0.326164 -2.27977,-0.05117 -2.06408,0.09708 -2.80248,0.420373 -1.6681,-0.466287 -1.2745,0.04591 h -0.98087 l -0.5605,-0.560488 -1.12099,0.980869 -2.24198,-0.980869 -0.94309,0.347682 -1.57914,-0.347682 -1.41087,0.175415 -0.9937,-0.140123 -1.09854,-0.455662 -0.64945,0.441891 -1.03203,0.398852 h -1.96174 l -0.70062,0.04304 -1.68149,0.229078 -2.38211,-0.131994 -2.24198,0.28025 -1.68149,-0.229078 -2.66236,0.369201 -2.22859,-0.118606 -2.25537,-0.02152 -0.84075,-0.140124 -1.68149,-0.140126 -1.58227,0.140126 V 68.455257 h 67 z"
         id="path2-9"
         sodipodi:nodetypes="cccccccccccccccccccccccccccccccccccccccccccc" />
      <path
         style="fill:#ff9955;fill-opacity:1;stroke:#000000;stroke-width:0.705556"
         d="M 192.92242,101.45526 H 125.92243 V 85.464884 l 2.94942,-1.006139 1.58459,-0.02118 0.99379,-0.06355 2.12338,1.061688 2.21246,-1.097802 1.82533,-0.09871 2.18597,-0.04767 1.81474,-0.424191 1.77333,0.266267 1.41174,-0.721276 1.61636,0.843086 1.78826,-0.784829 2.20716,0.548422 2.42672,0.606679 1.88931,-0.08055 1.69876,-0.771209 2.24465,0.288121 1.5312,0.0037 1.65387,0.258476 1.68173,0.05847 1.34498,-0.624623 2.16575,0.857057 3.16918,0.01155 3.44074,-0.779532 2.08196,-0.131445 1.82004,1.061688 1.36503,-0.151669 2.27504,0.910018 0.75835,-0.758349 2.57839,0.30334 1.8677,-0.710684 1.52729,0.188743 2.0863,-0.188743 2.90647,-0.135785 z"
         id="path1-5"
         sodipodi:nodetypes="cccccccccccccccccccccccccccccccccccccc" />
      <path
         style="fill:#ffff00;fill-opacity:1;stroke:#000000;stroke-width:2;stroke-dasharray:none;marker-end:url(#Triangle)"
         d="M 91.281844,84.955257 H 117.105"
         id="path11" />
      <path
         style="fill:#ffff00;fill-opacity:1;stroke:#000000;stroke-width:2;stroke-dasharray:none;marker-end:url(#Triangle-7)"
         d="m 195.38851,84.955257 h 25.82316"
         id="path11-1" />
      <path
         style="fill:#ffff00;fill-opacity:1;stroke:#000000;stroke-width:2;stroke-dasharray:none;marker-end:url(#Triangle-7-9)"
         d="m 303.50395,74.55318 21.7372,-13.940212"
         id="path11-1-2" />
      <path
         style="fill:#ffff00;fill-opacity:1;stroke:#000000;stroke-width:2;stroke-dasharray:none;marker-end:url(#Triangle-7-9-4)"
         d="m 303.50395,98.097344 21.7372,13.940216"
         id="path11-1-2-1" />
      <path
         style="fill:#ffff00;fill-opacity:1;stroke:#000000;stroke-width:4;stroke-dasharray:none;marker-end:url(#Triangle-7-1)"
         d="M 264.75748,47.254994 V 59.866309"
         id="path11-1-9"
         sodipodi:nodetypes="cc" />
      <g
         id="g4-7-2-3"
         transform="translate(106.10055,18.646471)">
        <g
           id="g5-3-7">
          <path
             style="fill:#e6e6e6;stroke:#000000;stroke-width:0.705556"
             d="m 191.92237,64.36518 -2.6503,-0.805838 -2.09373,0.945961 -1.54136,-0.42037 -1.26112,-0.113349 -1.40124,0.673845 -1.26111,-0.980868 -2.24199,0.700619 -2.66235,-0.420373 -1.1803,-0.156387 -1.90243,0.156387 -2.24199,0.28025 -1.96173,-0.326164 -2.27977,-0.05117 -2.06408,0.09708 -2.80248,0.420373 -1.6681,-0.466287 -1.2745,0.04591 h -0.98087 l -0.5605,-0.560488 -1.12099,0.980869 -2.24198,-0.980869 -0.94309,0.347682 -1.57914,-0.347682 -1.41087,0.175415 -0.9937,-0.140123 -1.09854,-0.455662 -0.64945,0.441891 -1.03203,0.398852 h -1.96174 l -0.70062,0.04304 -1.68149,0.229078 -2.38211,-0.131994 -2.24198,0.28025 -1.68149,-0.229078 -2.66236,0.369201 -2.22859,-0.118606 -2.25537,-0.02152 -0.84075,-0.140124 -1.68149,-0.140126 -1.34776,0.140126 V 49.617572 h 66.76549 z"
             id="path2-9-3-2-0"
             sodipodi:nodetypes="cccccccccccccccccccccccccccccccccccccccccccc" />
          <path
             style="fill:#ff9955;fill-opacity:1;stroke:#000000;stroke-width:0.705556"
             d="M 192.15698,83 H 125.15699 V 66.009627 l 2.94942,-1.006139 1.58459,-0.02118 0.99379,-0.06355 2.12338,1.061688 2.21246,-1.097802 1.82533,-0.09871 2.18597,-0.04767 1.81474,-0.424191 1.77333,0.266267 1.41174,-0.721276 1.61636,0.843086 1.78826,-0.784829 2.20716,0.548422 2.42672,0.606679 1.88931,-0.08055 1.69876,-0.771209 2.24465,0.288121 1.5312,0.0037 1.65387,0.258476 1.68173,0.05847 1.34498,-0.624623 2.16575,0.857057 3.16918,0.01155 3.44074,-0.779532 2.08196,-0.131445 1.82004,1.061688 1.36503,-0.151669 2.27504,0.910018 0.75835,-0.758349 2.57839,0.30334 1.8677,-0.710684 1.52729,0.188743 2.0863,-0.188743 2.90647,-0.135785 z"
             id="path1-5-9-7-1"
             sodipodi:nodetypes="cccccccccccccccccccccccccccccccccccccc" />
        </g>
      </g>
      <g
         id="g9"
         transform="translate(24.363112,19.598315)">
        <rect
           style="fill:#ffff00;fill-opacity:1;stroke:none;stroke-width:0.1;stroke-dasharray:none"
           id="rect8-4"
           width="67.479294"
           height="6.2238178"
           x="311.87665"
           y="94.872856" />
        <g
           id="g4-7-2-3-2"
           transform="translate(187.07255,33.13614)">
          <g
             id="g5-3-7-6">
            <path
               style="fill:#e6e6e6;stroke:#000000;stroke-width:0.705556"
               d="m 191.92237,64.36518 -2.6503,-0.805838 -2.09373,0.945961 -1.54136,-0.42037 -1.26112,-0.113349 -1.40124,0.673845 -1.26111,-0.980868 -2.24199,0.700619 -2.66235,-0.420373 -1.1803,-0.156387 -1.90243,0.156387 -2.24199,0.28025 -1.96173,-0.326164 -2.27977,-0.05117 -2.06408,0.09708 -2.80248,0.420373 -1.6681,-0.466287 -1.2745,0.04591 h -0.98087 l -0.5605,-0.560488 -1.12099,0.980869 -2.24198,-0.980869 -0.94309,0.347682 -1.57914,-0.347682 -1.41087,0.175415 -0.9937,-0.140123 -1.09854,-0.455662 -0.64945,0.441891 -1.03203,0.398852 h -1.96174 l -0.70062,0.04304 -1.68149,0.229078 -2.38211,-0.131994 -2.24198,0.28025 -1.68149,-0.229078 -2.66236,0.369201 -2.22859,-0.118606 -2.25537,-0.02152 -0.84075,-0.140124 -1.68149,-0.140126 -1.34776,0.140126 V 49.617572 h 66.76549 z"
               id="path2-9-3-2-0-6"
               sodipodi:nodetypes="cccccccccccccccccccccccccccccccccccccccccccc" />
            <path
               style="fill:#ff9955;fill-opacity:1;stroke:#000000;stroke-width:0.705556"
               d="M 192.15698,83 H 125.15699 V 66.009627 l 2.94942,-1.006139 1.58459,-0.02118 0.99379,-0.06355 2.12338,1.061688 2.21246,-1.097802 1.82533,-0.09871 2.18597,-0.04767 1.81474,-0.424191 1.77333,0.266267 1.41174,-0.721276 1.61636,0.843086 1.78826,-0.784829 2.20716,0.548422 2.42672,0.606679 1.88931,-0.08055 1.69876,-0.771209 2.24465,0.288121 1.5312,0.0037 1.65387,0.258476 1.68173,0.05847 1.34498,-0.624623 2.16575,0.857057 3.16918,0.01155 3.44074,-0.779532 2.08196,-0.131445 1.82004,1.061688 1.36503,-0.151669 2.27504,0.910018 0.75835,-0.758349 2.57839,0.30334 1.8677,-0.710684 1.52729,0.188743 2.0863,-0.188743 2.90647,-0.135785 z"
               id="path1-5-9-7-1-5"
               sodipodi:nodetypes="cccccccccccccccccccccccccccccccccccccc" />
          </g>
        </g>
      </g>
      <text
         xml:space="preserve"
         style="font-size:5.64444px;font-family:Sans;-inkscape-font-specification:'Sans, Normal';text-align:end;text-anchor:end;fill:#000000;fill-opacity:1;stroke:none;stroke-width:0.1;stroke-dasharray:none"
         x="159.40038"
         y="91.355347"
         id="text4-3"><tspan
           sodipodi:role="line"
           id="tspan4-2"
           style="text-align:center;text-anchor:middle;fill:#000000;fill-opacity:1;stroke:none;stroke-width:0.1"
           x="159.40038"
           y="91.355347">Polished </tspan><tspan
           sodipodi:role="line"
           style="text-align:center;text-anchor:middle;fill:#000000;fill-opacity:1;stroke:none;stroke-width:0.1"
           x="159.40038"
           y="98.410896"
           id="tspan11">Target holder</tspan></text>
      <text
         xml:space="preserve"
         style="font-size:5.64444px;font-family:Sans;-inkscape-font-specification:'Sans, Normal';text-align:end;text-anchor:end;fill:#000000;fill-opacity:1;stroke:none;stroke-width:0.1;stroke-dasharray:none"
         x="264.89529"
         y="41.849625"
         id="text4-3-5"><tspan
           sodipodi:role="line"
           style="text-align:center;text-anchor:middle;fill:#000000;fill-opacity:1;stroke:none;stroke-width:0.1"
           x="264.89529"
           y="41.849625"
           id="tspan11-5">TB pressure</tspan></text>
      <text
         xml:space="preserve"
         style="font-size:5.64444px;font-family:Sans;-inkscape-font-specification:'Sans, Normal';text-align:end;text-anchor:end;fill:#000000;fill-opacity:1;stroke:none;stroke-width:0.1;stroke-dasharray:none"
         x="370.07193"
         y="128.24593"
         id="text4-3-5-1"><tspan
           sodipodi:role="line"
           style="text-align:center;text-anchor:middle;fill:#000000;fill-opacity:1;stroke:none;stroke-width:0.1"
           x="370.07193"
           y="128.24593"
           id="tspan11-5-0">Cryogenic grease</tspan></text>
    </g>
  </g>
</svg>
