<?xml version="1.0" encoding="UTF-8" standalone="no"?>
<svg
   width="648pt"
   height="648pt"
   viewBox="0 0 648 648"
   version="1.1"
   id="svg279"
   sodipodi:docname="150v2400keV.svg"
   inkscape:version="1.3.2 (091e20e, 2023-11-25)"
   inkscape:export-filename="150v2400keV.png"
   inkscape:export-xdpi="96"
   inkscape:export-ydpi="96"
   xmlns:inkscape="http://www.inkscape.org/namespaces/inkscape"
   xmlns:sodipodi="http://sodipodi.sourceforge.net/DTD/sodipodi-0.dtd"
   xmlns:xlink="http://www.w3.org/1999/xlink"
   xmlns="http://www.w3.org/2000/svg"
   xmlns:svg="http://www.w3.org/2000/svg"
   xmlns:rdf="http://www.w3.org/1999/02/22-rdf-syntax-ns#"
   xmlns:cc="http://creativecommons.org/ns#"
   xmlns:dc="http://purl.org/dc/elements/1.1/">
  <sodipodi:namedview
     id="namedview279"
     pagecolor="#ffffff"
     bordercolor="#000000"
     borderopacity="0.25"
     inkscape:showpageshadow="2"
     inkscape:pageopacity="0.0"
     inkscape:pagecheckerboard="0"
     inkscape:deskcolor="#d1d1d1"
     inkscape:document-units="pt"
     inkscape:zoom="0.74680768"
     inkscape:cx="461.96633"
     inkscape:cy="429.82954"
     inkscape:window-width="1888"
     inkscape:window-height="903"
     inkscape:window-x="226"
     inkscape:window-y="477"
     inkscape:window-maximized="0"
     inkscape:current-layer="svg279" />
  <metadata
     id="metadata1">
    <rdf:RDF>
      <cc:Work>
        <dc:type
           rdf:resource="http://purl.org/dc/dcmitype/StillImage" />
        <dc:date>2025-08-28T13:19:53.293987</dc:date>
        <dc:format>image/svg+xml</dc:format>
        <dc:creator>
          <cc:Agent>
            <dc:title>Matplotlib v3.10.0, https://matplotlib.org/</dc:title>
          </cc:Agent>
        </dc:creator>
      </cc:Work>
    </rdf:RDF>
  </metadata>
  <defs
     id="defs1">
    <style
       type="text/css"
       id="style1">*{stroke-linejoin: round; stroke-linecap: butt}</style>
  </defs>
  <g
     id="figure_1">
    <g
       id="patch_1">
      <path
         d="M 0 648  L 648 648  L 648 0  L 0 0  L 0 648  z "
         style="fill: none"
         id="path1" />
    </g>
    <g
       id="axes_1">
      <g
         id="patch_2">
        <path
           d="M 81.884 576.23875  L 625.23 576.23875  L 625.23 19.220625  L 81.884 19.220625  L 81.884 576.23875  z "
           style="fill: none"
           id="path2" />
      </g>
      <g
         id="matplotlib.axis_1">
        <g
           id="xtick_1">
          <g
             id="line2d_1">
            <defs
               id="defs2">
              <path
                 id="m79c302ec6d"
                 d="M 0 0  L 0 8  "
                 style="stroke: #000000; stroke-width: 2" />
            </defs>
            <g
               id="g2">
              <use
                 xlink:href="#m79c302ec6d"
                 x="81.884"
                 y="576.23875"
                 style="stroke: #000000; stroke-width: 2"
                 id="use2" />
            </g>
          </g>
          <g
             id="text_1">
            <!-- 0 -->
            <g
               transform="translate(75.884 604.39625) scale(0.24 -0.24)"
               id="g3">
              <defs
                 id="defs3">
                <path
                   id="CMUSerif-Roman-30"
                   d="M 250 2048  C 250 1568 275 992 538 506  C 813 -13 1280 -141 1594 -141  C 1939 -141 2426 -6 2707 602  C 2912 1043 2944 1542 2944 2048  C 2944 2560 2912 3072 2688 3546  C 2394 4160 1869 4262 1600 4262  C 1216 4262 749 4096 486 3501  C 282 3059 250 2560 250 2048  z M 781 2125  C 781 2534 781 2957 832 3302  C 954 4064 1434 4122 1594 4122  C 1805 4122 2227 4006 2349 3373  C 2413 3014 2413 2528 2413 2125  C 2413 1645 2413 1210 2342 800  C 2246 192 1882 0 1594 0  C 1344 0 966 160 851 774  C 781 1158 781 1747 781 2125  z "
                   transform="scale(0.015625)" />
              </defs>
              <use
                 xlink:href="#CMUSerif-Roman-30"
                 id="use3" />
            </g>
          </g>
        </g>
        <g
           id="xtick_2">
          <g
             id="line2d_2">
            <g
               id="g4">
              <use
                 xlink:href="#m79c302ec6d"
                 x="217.7205"
                 y="576.23875"
                 style="stroke: #000000; stroke-width: 2"
                 id="use4" />
            </g>
          </g>
          <g
             id="text_2">
            <!-- 20 -->
            <g
               transform="translate(205.7205 604.39625) scale(0.24 -0.24)"
               id="g6">
              <defs
                 id="defs4">
                <path
                   id="CMUSerif-Roman-32"
                   d="M 320 0  L 2694 0  L 2874 1114  L 2714 1114  C 2682 922 2637 640 2573 544  C 2528 493 2106 493 1965 493  L 813 493  L 1491 1152  C 2490 2035 2874 2381 2874 3021  C 2874 3750 2298 4262 1517 4262  C 794 4262 320 3674 320 3104  C 320 2746 640 2746 659 2746  C 768 2746 992 2822 992 3085  C 992 3251 877 3418 653 3418  C 602 3418 589 3418 570 3411  C 717 3827 1062 4064 1434 4064  C 2016 4064 2291 3546 2291 3021  C 2291 2509 1971 2003 1619 1606  L 390 237  C 320 166 320 154 320 0  z "
                   transform="scale(0.015625)" />
              </defs>
              <use
                 xlink:href="#CMUSerif-Roman-32"
                 id="use5" />
              <use
                 xlink:href="#CMUSerif-Roman-30"
                 transform="translate(49.999985 0)"
                 id="use6" />
            </g>
          </g>
        </g>
        <g
           id="xtick_3">
          <g
             id="line2d_3">
            <g
               id="g7">
              <use
                 xlink:href="#m79c302ec6d"
                 x="353.557"
                 y="576.23875"
                 style="stroke: #000000; stroke-width: 2"
                 id="use7" />
            </g>
          </g>
          <g
             id="text_3">
            <!-- 40 -->
            <g
               transform="translate(341.557 604.39625) scale(0.24 -0.24)"
               id="g9">
              <defs
                 id="defs7">
                <path
                   id="CMUSerif-Roman-34"
                   d="M 179 1056  L 1882 1056  L 1882 499  C 1882 269 1869 198 1395 198  L 1261 198  L 1261 0  C 1523 19 1856 19 2125 19  C 2394 19 2733 19 2995 0  L 2995 198  L 2861 198  C 2387 198 2374 269 2374 499  L 2374 1056  L 3014 1056  L 3014 1254  L 2374 1254  L 2374 4166  C 2374 4294 2374 4333 2272 4333  C 2214 4333 2195 4333 2144 4256  L 179 1254  L 179 1056  z M 358 1254  L 1920 3642  L 1920 1254  L 358 1254  z "
                   transform="scale(0.015625)" />
              </defs>
              <use
                 xlink:href="#CMUSerif-Roman-34"
                 id="use8" />
              <use
                 xlink:href="#CMUSerif-Roman-30"
                 transform="translate(49.999985 0)"
                 id="use9" />
            </g>
          </g>
        </g>
        <g
           id="xtick_4">
          <g
             id="line2d_4">
            <g
               id="g10">
              <use
                 xlink:href="#m79c302ec6d"
                 x="489.3935"
                 y="576.23875"
                 style="stroke: #000000; stroke-width: 2"
                 id="use10" />
            </g>
          </g>
          <g
             id="text_4">
            <!-- 60 -->
            <g
               transform="translate(477.3935 604.39625) scale(0.24 -0.24)"
               id="g12">
              <defs
                 id="defs10">
                <path
                   id="CMUSerif-Roman-36"
                   d="M 269 2022  C 269 314 1011 -141 1606 -141  C 2317 -141 2925 461 2925 1306  C 2925 2118 2355 2733 1645 2733  C 1210 2733 973 2406 845 2099  L 845 2253  C 845 3872 1638 4102 1965 4102  C 2118 4102 2387 4064 2528 3846  C 2432 3846 2176 3846 2176 3558  C 2176 3360 2330 3264 2470 3264  C 2573 3264 2765 3322 2765 3571  C 2765 3955 2483 4262 1952 4262  C 1133 4262 269 3437 269 2022  z M 858 1446  C 858 1946 1062 2586 1638 2586  C 1741 2586 2035 2586 2234 2189  C 2349 1952 2349 1626 2349 1312  C 2349 1005 2349 685 2240 454  C 2048 70 1754 38 1606 38  C 1203 38 1011 422 973 518  C 858 819 858 1331 858 1446  z "
                   transform="scale(0.015625)" />
              </defs>
              <use
                 xlink:href="#CMUSerif-Roman-36"
                 id="use11" />
              <use
                 xlink:href="#CMUSerif-Roman-30"
                 transform="translate(49.999985 0)"
                 id="use12" />
            </g>
          </g>
        </g>
        <g
           id="xtick_5">
          <g
             id="line2d_5">
            <g
               id="g13">
              <use
                 xlink:href="#m79c302ec6d"
                 x="625.23"
                 y="576.23875"
                 style="stroke: #000000; stroke-width: 2"
                 id="use13" />
            </g>
          </g>
          <g
             id="text_5">
            <!-- 80 -->
            <g
               transform="translate(613.23 604.39625) scale(0.24 -0.24)"
               id="g15">
              <defs
                 id="defs13">
                <path
                   id="CMUSerif-Roman-38"
                   d="M 269 966  C 269 288 922 -141 1594 -141  C 2317 -141 2925 390 2925 1075  C 2925 1306 2854 1594 2611 1862  C 2490 1997 2387 2061 1978 2317  C 2438 2554 2752 2886 2752 3309  C 2752 3898 2182 4262 1600 4262  C 960 4262 442 3789 442 3194  C 442 3078 454 2790 723 2490  C 794 2413 1030 2253 1190 2144  C 819 1958 269 1600 269 966  z M 589 966  C 589 1338 794 1747 1338 2048  L 2125 1549  C 2304 1427 2605 1235 2605 845  C 2605 371 2125 38 1600 38  C 1050 38 589 435 589 966  z M 723 3443  C 723 3834 1139 4102 1594 4102  C 2061 4102 2470 3770 2470 3309  C 2470 2944 2221 2637 1837 2413  L 1043 2925  C 749 3117 723 3334 723 3443  z "
                   transform="scale(0.015625)" />
              </defs>
              <use
                 xlink:href="#CMUSerif-Roman-38"
                 id="use14" />
              <use
                 xlink:href="#CMUSerif-Roman-30"
                 transform="translate(49.999985 0)"
                 id="use15" />
            </g>
          </g>
        </g>
        <g
           id="text_6">
          <!-- Ion Beam Power [mW] -->
          <g
             transform="translate(232.92325 631.05375) scale(0.24 -0.24)"
             id="g34">
            <defs
               id="defs15">
              <path
                 id="CMUSerif-Roman-49"
                 d="M 179 0  C 403 19 909 19 1152 19  C 1402 19 1907 19 2131 0  L 2131 198  L 1965 198  C 1459 198 1440 269 1440 499  L 1440 3872  C 1440 4102 1459 4173 1965 4173  L 2131 4173  L 2131 4371  C 1907 4352 1402 4352 1158 4352  C 909 4352 403 4352 179 4371  L 179 4173  L 346 4173  C 851 4173 870 4102 870 3872  L 870 499  C 870 269 851 198 346 198  L 179 198  L 179 0  z "
                 transform="scale(0.015625)" />
              <path
                 id="CMUSerif-Roman-6f"
                 d="M 179 1370  C 179 544 845 -70 1594 -70  C 2368 -70 3014 557 3014 1370  C 3014 2189 2374 2867 1600 2867  C 800 2867 179 2170 179 1370  z M 710 1421  C 710 1670 710 2016 864 2298  C 1037 2592 1338 2726 1594 2726  C 1875 2726 2150 2586 2317 2310  C 2483 2035 2483 1664 2483 1421  C 2483 1190 2483 845 2342 563  C 2202 275 1920 90 1600 90  C 1325 90 1043 224 870 518  C 710 800 710 1190 710 1421  z "
                 transform="scale(0.015625)" />
              <path
                 id="CMUSerif-Roman-6e"
                 d="M 205 0  C 429 6 755 19 928 19  C 1094 19 1427 6 1645 0  L 1645 198  C 1216 198 1146 198 1146 486  L 1146 1664  C 1146 2330 1600 2688 2010 2688  C 2413 2688 2483 2342 2483 1978  L 2483 486  C 2483 198 2413 198 1984 198  L 1984 0  C 2208 6 2534 19 2707 19  C 2874 19 3206 6 3424 0  L 3424 198  C 3091 198 2931 198 2925 390  L 2925 1613  C 2925 2163 2925 2362 2726 2592  C 2637 2701 2426 2829 2054 2829  C 1587 2829 1286 2554 1107 2157  L 1107 2829  L 205 2758  L 205 2560  C 653 2560 704 2515 704 2202  L 704 486  C 704 198 634 198 205 198  L 205 0  z "
                 transform="scale(0.015625)" />
              <path
                 id="CMUSerif-Roman-20"
                 transform="scale(0.015625)" />
              <path
                 id="CMUSerif-Roman-42"
                 d="M 230 0  L 2739 0  C 3590 0 4166 570 4166 1171  C 4166 1728 3642 2208 2931 2285  C 3552 2406 3994 2816 3994 3290  C 3994 3846 3405 4371 2573 4371  L 230 4371  L 230 4173  L 384 4173  C 877 4173 890 4102 890 3872  L 890 499  C 890 269 877 198 384 198  L 230 198  L 230 0  z M 1421 454  L 1421 2202  L 2624 2202  C 3258 2202 3526 1606 3526 1178  C 3526 723 3194 198 2534 198  L 1734 198  C 1434 198 1421 243 1421 454  z M 1421 2342  L 1421 3917  C 1421 4128 1434 4173 1734 4173  L 2528 4173  C 3149 4173 3373 3629 3373 3290  C 3373 2880 3059 2342 2349 2342  L 1421 2342  z "
                 transform="scale(0.015625)" />
              <path
                 id="CMUSerif-Roman-65"
                 d="M 179 1408  C 179 550 851 -70 1587 -70  C 2368 -70 2656 640 2656 762  C 2656 826 2605 838 2573 838  C 2515 838 2502 800 2490 749  C 2266 90 1690 90 1626 90  C 1306 90 1050 282 902 518  C 710 826 710 1248 710 1478  L 2496 1478  C 2637 1478 2656 1478 2656 1613  C 2656 2246 2310 2867 1510 2867  C 768 2867 179 2208 179 1408  z M 717 1613  C 755 2566 1293 2726 1510 2726  C 2170 2726 2234 1862 2234 1613  L 717 1613  z "
                 transform="scale(0.015625)" />
              <path
                 id="CMUSerif-Roman-61"
                 d="M 269 608  C 269 90 890 -70 1293 -70  C 1715 -70 2010 186 2131 486  C 2157 230 2330 -38 2630 -38  C 2765 -38 3155 51 3155 570  L 3155 928  L 2995 928  L 2995 570  C 2995 198 2835 160 2765 160  C 2554 160 2528 448 2528 480  L 2528 1760  C 2528 2029 2528 2278 2298 2515  C 2048 2765 1728 2867 1421 2867  C 896 2867 454 2566 454 2144  C 454 1952 582 1843 749 1843  C 928 1843 1043 1971 1043 2138  C 1043 2214 1011 2426 717 2432  C 890 2656 1203 2726 1408 2726  C 1722 2726 2086 2477 2086 1907  L 2086 1670  C 1760 1651 1312 1632 909 1440  C 429 1222 269 890 269 608  z M 762 614  C 762 966 1030 1498 2086 1536  L 2086 896  C 2086 288 1626 70 1338 70  C 1024 70 762 294 762 614  z "
                 transform="scale(0.015625)" />
              <path
                 id="CMUSerif-Roman-6d"
                 d="M 205 0  C 429 6 755 19 928 19  C 1094 19 1427 6 1645 0  L 1645 198  C 1216 198 1146 198 1146 486  L 1146 1664  C 1146 2330 1600 2688 2010 2688  C 2413 2688 2483 2342 2483 1978  L 2483 486  C 2483 198 2413 198 1984 198  L 1984 0  C 2208 6 2534 19 2707 19  C 2874 19 3206 6 3424 0  L 3424 198  C 2995 198 2925 198 2925 486  L 2925 1664  C 2925 2330 3379 2688 3789 2688  C 4192 2688 4262 2342 4262 1978  L 4262 486  C 4262 198 4192 198 3763 198  L 3763 0  C 3987 6 4314 19 4486 19  C 4653 19 4986 6 5203 0  L 5203 198  C 4870 198 4710 198 4704 390  L 4704 1613  C 4704 2163 4704 2362 4506 2592  C 4416 2701 4205 2829 3834 2829  C 3296 2829 3014 2445 2906 2202  C 2816 2758 2342 2829 2054 2829  C 1587 2829 1286 2554 1107 2157  L 1107 2829  L 205 2758  L 205 2560  C 653 2560 704 2515 704 2202  L 704 486  C 704 198 634 198 205 198  L 205 0  z "
                 transform="scale(0.015625)" />
              <path
                 id="CMUSerif-Roman-50"
                 d="M 224 0  C 448 19 922 19 1165 19  C 1408 19 1888 19 2112 0  L 2112 198  L 1958 198  C 1466 198 1453 269 1453 499  L 1453 2022  L 2534 2022  C 3302 2022 3994 2541 3994 3181  C 3994 3808 3360 4371 2483 4371  L 224 4371  L 224 4173  L 378 4173  C 870 4173 883 4102 883 3872  L 883 499  C 883 269 870 198 378 198  L 224 198  L 224 0  z M 1434 2189  L 1434 3917  C 1434 4128 1446 4173 1747 4173  L 2317 4173  C 3334 4173 3334 3494 3334 3181  C 3334 2880 3334 2189 2317 2189  L 1434 2189  z "
                 transform="scale(0.015625)" />
              <path
                 id="CMUSerif-Roman-77"
                 d="M 115 2560  C 435 2560 512 2541 589 2336  L 1395 70  C 1427 -19 1446 -70 1530 -70  C 1613 -70 1626 -32 1658 58  L 2304 1869  L 2957 51  C 2982 -19 3002 -70 3085 -70  C 3168 -70 3187 -13 3213 51  L 3962 2150  C 4077 2470 4275 2554 4499 2560  L 4499 2758  C 4358 2746 4173 2739 4032 2739  C 3846 2739 3558 2752 3437 2758  L 3437 2560  C 3667 2554 3808 2438 3808 2253  C 3808 2214 3808 2202 3776 2118  L 3194 480  L 2560 2266  C 2534 2342 2528 2355 2528 2387  C 2528 2560 2778 2560 2906 2560  L 2906 2758  C 2720 2752 2394 2739 2240 2739  C 2048 2739 1862 2746 1670 2758  L 1670 2560  C 1907 2560 2010 2547 2074 2464  C 2106 2426 2176 2234 2221 2112  L 1670 563  L 1062 2272  C 1030 2349 1030 2362 1030 2387  C 1030 2560 1280 2560 1408 2560  L 1408 2758  C 1216 2752 858 2739 710 2739  C 685 2739 346 2746 115 2758  L 115 2560  z "
                 transform="scale(0.015625)" />
              <path
                 id="CMUSerif-Roman-72"
                 d="M 179 0  C 429 6 730 19 909 19  C 1165 19 1466 19 1722 0  L 1722 198  L 1587 198  C 1114 198 1101 269 1101 499  L 1101 1485  C 1101 2118 1370 2688 1856 2688  C 1901 2688 1914 2688 1926 2682  C 1907 2675 1779 2598 1779 2432  C 1779 2253 1914 2157 2054 2157  C 2170 2157 2330 2234 2330 2438  C 2330 2643 2131 2829 1856 2829  C 1389 2829 1158 2400 1069 2125  L 1069 2829  L 179 2758  L 179 2560  C 627 2560 678 2515 678 2202  L 678 486  C 678 198 608 198 179 198  L 179 0  z "
                 transform="scale(0.015625)" />
              <path
                 id="CMUSerif-Roman-5b"
                 d="M 666 -1600  L 1632 -1600  L 1632 -1453  L 1094 -1453  L 1094 4653  L 1632 4653  L 1632 4800  L 666 4800  L 666 -1600  z "
                 transform="scale(0.015625)" />
              <path
                 id="CMUSerif-Roman-57"
                 d="M 115 4173  C 595 4173 621 4141 698 3904  L 1978 -19  C 1997 -77 2016 -141 2099 -141  C 2189 -141 2202 -96 2227 -13  L 3283 3238  L 4346 -19  C 4365 -77 4384 -141 4467 -141  C 4557 -141 4570 -96 4595 -13  L 5818 3744  C 5933 4109 6208 4173 6458 4173  L 6458 4371  C 6266 4358 6067 4352 5875 4352  C 5690 4352 5280 4365 5114 4371  L 5114 4173  C 5542 4166 5670 3955 5670 3834  C 5670 3795 5651 3744 5638 3706  L 4678 749  L 3654 3885  C 3648 3910 3635 3949 3635 3981  C 3635 4173 4006 4173 4173 4173  L 4173 4371  C 3942 4352 3507 4352 3264 4352  C 3021 4352 2746 4365 2483 4371  L 2483 4173  C 2848 4173 2982 4173 3059 3942  L 3200 3494  L 2310 749  L 1280 3898  C 1274 3917 1267 3962 1267 3981  C 1267 4173 1638 4173 1805 4173  L 1805 4371  C 1574 4352 1139 4352 896 4352  C 653 4352 378 4365 115 4371  L 115 4173  z "
                 transform="scale(0.015625)" />
              <path
                 id="CMUSerif-Roman-5d"
                 d="M 134 -1453  L 134 -1600  L 1101 -1600  L 1101 4800  L 134 4800  L 134 4653  L 672 4653  L 672 -1453  L 134 -1453  z "
                 transform="scale(0.015625)" />
            </defs>
            <use
               xlink:href="#CMUSerif-Roman-49"
               id="use16" />
            <use
               xlink:href="#CMUSerif-Roman-6f"
               transform="translate(36.099991 0)"
               id="use17" />
            <use
               xlink:href="#CMUSerif-Roman-6e"
               transform="translate(86.099976 0)"
               id="use18" />
            <use
               xlink:href="#CMUSerif-Roman-20"
               transform="translate(141.59996 0)"
               id="use19" />
            <use
               xlink:href="#CMUSerif-Roman-42"
               transform="translate(174.899948 0)"
               id="use20" />
            <use
               xlink:href="#CMUSerif-Roman-65"
               transform="translate(245.699936 0)"
               id="use21" />
            <use
               xlink:href="#CMUSerif-Roman-61"
               transform="translate(290.09993 0)"
               id="use22" />
            <use
               xlink:href="#CMUSerif-Roman-6d"
               transform="translate(340.099915 0)"
               id="use23" />
            <use
               xlink:href="#CMUSerif-Roman-20"
               transform="translate(423.399902 0)"
               id="use24" />
            <use
               xlink:href="#CMUSerif-Roman-50"
               transform="translate(456.69989 0)"
               id="use25" />
            <use
               xlink:href="#CMUSerif-Roman-6f"
               transform="translate(524.699875 0)"
               id="use26" />
            <use
               xlink:href="#CMUSerif-Roman-77"
               transform="translate(574.69986 0)"
               id="use27" />
            <use
               xlink:href="#CMUSerif-Roman-65"
               transform="translate(646.899841 0)"
               id="use28" />
            <use
               xlink:href="#CMUSerif-Roman-72"
               transform="translate(691.299835 0)"
               id="use29" />
            <use
               xlink:href="#CMUSerif-Roman-20"
               transform="translate(730.399826 0)"
               id="use30" />
            <use
               xlink:href="#CMUSerif-Roman-5b"
               transform="translate(763.699814 0)"
               id="use31" />
            <use
               xlink:href="#CMUSerif-Roman-6d"
               transform="translate(791.499802 0)"
               id="use32" />
            <use
               xlink:href="#CMUSerif-Roman-57"
               transform="translate(874.799789 0)"
               id="use33" />
            <use
               xlink:href="#CMUSerif-Roman-5d"
               transform="translate(977.499771 0)"
               id="use34" />
          </g>
        </g>
      </g>
      <g
         id="matplotlib.axis_2">
        <g
           id="ytick_1">
          <g
             id="line2d_6">
            <defs
               id="defs34">
              <path
                 id="mc2078daaa0"
                 d="M 0 0  L -8 0  "
                 style="stroke: #000000; stroke-width: 2" />
            </defs>
            <g
               id="g35">
              <use
                 xlink:href="#mc2078daaa0"
                 x="81.884"
                 y="576.23875"
                 style="stroke: #000000; stroke-width: 2"
                 id="use35" />
            </g>
          </g>
          <g
             id="text_7">
            <!-- 0 -->
            <g
               transform="translate(58.384 584.5675) scale(0.24 -0.24)"
               id="g36">
              <use
                 xlink:href="#CMUSerif-Roman-30"
                 id="use36" />
            </g>
          </g>
        </g>
        <g
           id="ytick_2">
          <g
             id="line2d_7">
            <g
               id="g37">
              <use
                 xlink:href="#mc2078daaa0"
                 x="81.884"
                 y="496.664732"
                 style="stroke: #000000; stroke-width: 2"
                 id="use37" />
            </g>
          </g>
          <g
             id="text_8">
            <!-- 5 -->
            <g
               transform="translate(58.384 504.993482) scale(0.24 -0.24)"
               id="g38">
              <defs
                 id="defs37">
                <path
                   id="CMUSerif-Roman-35"
                   d="M 320 1030  C 320 480 762 -141 1478 -141  C 2221 -141 2874 474 2874 1286  C 2874 2048 2349 2688 1658 2688  C 1350 2688 1075 2586 845 2362  L 845 3610  C 973 3571 1184 3526 1389 3526  C 2176 3526 2624 4109 2624 4192  C 2624 4230 2605 4262 2560 4262  C 2554 4262 2541 4262 2509 4243  C 2381 4186 2067 4058 1638 4058  C 1382 4058 1088 4102 787 4237  C 736 4256 723 4256 710 4256  C 646 4256 646 4205 646 4102  L 646 2208  C 646 2093 646 2042 736 2042  C 781 2042 794 2061 819 2099  C 890 2202 1126 2547 1645 2547  C 1978 2547 2138 2253 2189 2138  C 2291 1901 2304 1651 2304 1331  C 2304 1107 2304 723 2150 454  C 1997 205 1760 38 1466 38  C 998 38 634 378 525 755  C 544 749 563 742 634 742  C 845 742 954 902 954 1056  C 954 1210 845 1370 634 1370  C 544 1370 320 1325 320 1030  z "
                   transform="scale(0.015625)" />
              </defs>
              <use
                 xlink:href="#CMUSerif-Roman-35"
                 id="use38" />
            </g>
          </g>
        </g>
        <g
           id="ytick_3">
          <g
             id="line2d_8">
            <g
               id="g39">
              <use
                 xlink:href="#mc2078daaa0"
                 x="81.884"
                 y="417.090714"
                 style="stroke: #000000; stroke-width: 2"
                 id="use39" />
            </g>
          </g>
          <g
             id="text_9">
            <!-- 10 -->
            <g
               transform="translate(46.384 425.419464) scale(0.24 -0.24)"
               id="g41">
              <defs
                 id="defs39">
                <path
                   id="CMUSerif-Roman-31"
                   d="M 570 3654  C 698 3654 1075 3654 1408 3821  L 1408 506  C 1408 275 1389 198 813 198  L 608 198  L 608 0  C 832 19 1389 19 1645 19  C 1901 19 2458 19 2682 0  L 2682 198  L 2477 198  C 1901 198 1882 269 1882 506  L 1882 4096  C 1882 4250 1882 4262 1734 4262  C 1338 3853 774 3853 570 3853  L 570 3654  z "
                   transform="scale(0.015625)" />
              </defs>
              <use
                 xlink:href="#CMUSerif-Roman-31"
                 id="use40" />
              <use
                 xlink:href="#CMUSerif-Roman-30"
                 transform="translate(49.999985 0)"
                 id="use41" />
            </g>
          </g>
        </g>
        <g
           id="ytick_4">
          <g
             id="line2d_9">
            <g
               id="g42">
              <use
                 xlink:href="#mc2078daaa0"
                 x="81.884"
                 y="337.516696"
                 style="stroke: #000000; stroke-width: 2"
                 id="use42" />
            </g>
          </g>
          <g
             id="text_10">
            <!-- 15 -->
            <g
               transform="translate(46.384 345.845446) scale(0.24 -0.24)"
               id="g44">
              <use
                 xlink:href="#CMUSerif-Roman-31"
                 id="use43" />
              <use
                 xlink:href="#CMUSerif-Roman-35"
                 transform="translate(49.999985 0)"
                 id="use44" />
            </g>
          </g>
        </g>
        <g
           id="ytick_5">
          <g
             id="line2d_10">
            <g
               id="g45">
              <use
                 xlink:href="#mc2078daaa0"
                 x="81.884"
                 y="257.942679"
                 style="stroke: #000000; stroke-width: 2"
                 id="use45" />
            </g>
          </g>
          <g
             id="text_11">
            <!-- 20 -->
            <g
               transform="translate(46.384 266.271429) scale(0.24 -0.24)"
               id="g47">
              <use
                 xlink:href="#CMUSerif-Roman-32"
                 id="use46" />
              <use
                 xlink:href="#CMUSerif-Roman-30"
                 transform="translate(49.999985 0)"
                 id="use47" />
            </g>
          </g>
        </g>
        <g
           id="ytick_6">
          <g
             id="line2d_11">
            <g
               id="g48">
              <use
                 xlink:href="#mc2078daaa0"
                 x="81.884"
                 y="178.368661"
                 style="stroke: #000000; stroke-width: 2"
                 id="use48" />
            </g>
          </g>
          <g
             id="text_12">
            <!-- 25 -->
            <g
               transform="translate(46.384 186.697411) scale(0.24 -0.24)"
               id="g50">
              <use
                 xlink:href="#CMUSerif-Roman-32"
                 id="use49" />
              <use
                 xlink:href="#CMUSerif-Roman-35"
                 transform="translate(49.999985 0)"
                 id="use50" />
            </g>
          </g>
        </g>
        <g
           id="ytick_7">
          <g
             id="line2d_12">
            <g
               id="g51">
              <use
                 xlink:href="#mc2078daaa0"
                 x="81.884"
                 y="98.794643"
                 style="stroke: #000000; stroke-width: 2"
                 id="use51" />
            </g>
          </g>
          <g
             id="text_13">
            <!-- 30 -->
            <g
               transform="translate(46.384 107.123393) scale(0.24 -0.24)"
               id="g53">
              <defs
                 id="defs51">
                <path
                   id="CMUSerif-Roman-33"
                   d="M 269 864  C 269 282 864 -141 1562 -141  C 2342 -141 2925 442 2925 1094  C 2925 1619 2522 2118 1856 2253  C 2381 2426 2752 2874 2752 3379  C 2752 3904 2189 4262 1574 4262  C 928 4262 442 3878 442 3392  C 442 3181 582 3059 768 3059  C 966 3059 1094 3200 1094 3386  C 1094 3706 794 3706 698 3706  C 896 4019 1318 4102 1549 4102  C 1811 4102 2163 3962 2163 3386  C 2163 3309 2150 2938 1984 2656  C 1792 2349 1574 2330 1414 2323  C 1363 2317 1210 2304 1165 2304  C 1114 2298 1069 2291 1069 2227  C 1069 2157 1114 2157 1222 2157  L 1504 2157  C 2029 2157 2266 1722 2266 1094  C 2266 224 1824 38 1542 38  C 1267 38 787 147 563 525  C 787 493 986 634 986 877  C 986 1107 813 1235 627 1235  C 474 1235 269 1146 269 864  z "
                   transform="scale(0.015625)" />
              </defs>
              <use
                 xlink:href="#CMUSerif-Roman-33"
                 id="use52" />
              <use
                 xlink:href="#CMUSerif-Roman-30"
                 transform="translate(49.999985 0)"
                 id="use53" />
            </g>
          </g>
        </g>
        <g
           id="ytick_8">
          <g
             id="line2d_13">
            <g
               id="g54">
              <use
                 xlink:href="#mc2078daaa0"
                 x="81.884"
                 y="19.220625"
                 style="stroke: #000000; stroke-width: 2"
                 id="use54" />
            </g>
          </g>
          <g
             id="text_14">
            <!-- 35 -->
            <g
               transform="translate(46.384 27.549375) scale(0.24 -0.24)"
               id="g56">
              <use
                 xlink:href="#CMUSerif-Roman-33"
                 id="use55" />
              <use
                 xlink:href="#CMUSerif-Roman-35"
                 transform="translate(49.999985 0)"
                 id="use56" />
            </g>
          </g>
        </g>
        <g
           id="text_15">
          <!-- Suppression $\mathrm{1 - I_c^{On}\, /\, I_c^{Off}}$ [%] -->
          <g
             transform="translate(35.904 447.729688) rotate(-90) scale(0.24 -0.24)"
             id="g84">
            <defs
               id="defs56">
              <path
                 id="CMUSerif-Roman-53"
                 d="M 358 13  C 358 -96 358 -141 429 -141  C 474 -141 480 -128 525 -58  C 525 -51 544 -32 755 307  C 954 90 1363 -141 1933 -141  C 2682 -141 3194 486 3194 1190  C 3194 1830 2771 2355 2234 2483  L 1414 2682  C 1018 2778 768 3123 768 3494  C 768 3942 1114 4333 1613 4333  C 2682 4333 2822 3283 2861 2995  C 2867 2957 2867 2918 2938 2918  C 3021 2918 3021 2950 3021 3072  L 3021 4358  C 3021 4467 3021 4512 2950 4512  C 2906 4512 2899 4506 2854 4429  L 2630 4064  C 2438 4250 2176 4512 1606 4512  C 896 4512 358 3949 358 3270  C 358 2739 698 2272 1197 2099  C 1267 2074 1594 1997 2042 1888  C 2214 1843 2406 1798 2586 1562  C 2720 1395 2784 1184 2784 973  C 2784 518 2464 58 1926 58  C 1741 58 1254 90 915 403  C 544 749 525 1158 518 1389  C 512 1453 461 1453 442 1453  C 358 1453 358 1408 358 1293  L 358 13  z "
                 transform="scale(0.015625)" />
              <path
                 id="CMUSerif-Roman-75"
                 d="M 205 2560  C 704 2560 704 2541 704 1971  L 704 1011  C 704 512 704 -70 1677 -70  C 2035 -70 2317 109 2502 506  L 2502 -70  L 3424 0  L 3424 198  C 2976 198 2925 243 2925 557  L 2925 2829  L 1984 2758  L 1984 2560  C 2432 2560 2483 2515 2483 2202  L 2483 1062  C 2483 506 2176 70 1709 70  C 1171 70 1146 371 1146 704  L 1146 2829  L 205 2758  L 205 2560  z "
                 transform="scale(0.015625)" />
              <path
                 id="CMUSerif-Roman-70"
                 d="M 179 -1043  L 179 -1242  C 397 -1235 730 -1222 896 -1222  C 1069 -1222 1395 -1235 1619 -1242  L 1619 -1043  C 1190 -1043 1120 -1043 1120 -755  L 1120 320  L 1120 378  C 1152 275 1421 -70 1907 -70  C 2669 -70 3334 557 3334 1382  C 3334 2195 2714 2829 1997 2829  C 1498 2829 1229 2547 1101 2406  L 1101 2829  L 179 2758  L 179 2560  C 634 2560 678 2522 678 2240  L 678 -755  C 678 -1043 608 -1043 179 -1043  z M 1120 730  L 1120 2157  C 1306 2483 1619 2669 1946 2669  C 2413 2669 2803 2106 2803 1382  C 2803 608 2355 70 1882 70  C 1626 70 1382 198 1210 461  C 1120 595 1120 602 1120 730  z "
                 transform="scale(0.015625)" />
              <path
                 id="CMUSerif-Roman-73"
                 d="M 211 83  C 211 -26 211 -70 282 -70  C 314 -70 320 -64 442 58  C 454 70 454 83 570 205  C 851 -64 1139 -70 1274 -70  C 2010 -70 2304 358 2304 819  C 2304 1158 2112 1350 2035 1427  C 1824 1632 1574 1683 1306 1734  C 947 1805 518 1888 518 2259  C 518 2483 685 2746 1235 2746  C 1939 2746 1971 2170 1984 1971  C 1990 1914 2048 1914 2061 1914  C 2144 1914 2144 1946 2144 2067  L 2144 2714  C 2144 2822 2144 2867 2074 2867  C 2042 2867 2029 2867 1946 2790  C 1926 2765 1862 2707 1837 2688  C 1594 2867 1331 2867 1235 2867  C 454 2867 211 2438 211 2080  C 211 1856 314 1677 486 1536  C 691 1370 870 1331 1331 1242  C 1472 1216 1997 1114 1997 653  C 1997 326 1773 70 1274 70  C 736 70 506 435 384 979  C 365 1062 358 1088 294 1088  C 211 1088 211 1043 211 928  L 211 83  z "
                 transform="scale(0.015625)" />
              <path
                 id="CMUSerif-Roman-69"
                 d="M 480 3942  C 480 3770 621 3603 819 3603  C 998 3603 1158 3738 1158 3942  C 1158 4147 998 4282 819 4282  C 621 4282 480 4109 480 3942  z M 211 0  C 416 6 762 19 915 19  C 1139 19 1363 6 1581 0  L 1581 198  C 1158 198 1133 230 1133 480  L 1133 2829  L 237 2758  L 237 2560  C 653 2560 710 2522 710 2208  L 710 486  C 710 198 640 198 211 198  L 211 0  z "
                 transform="scale(0.015625)" />
              <path
                 id="Cmr10-31"
                 d="M 594 0  L 594 225  Q 1394 225 1394 428  L 1394 3788  Q 1063 3628 556 3628  L 556 3853  Q 1341 3853 1741 4263  L 1831 4263  Q 1853 4263 1873 4245  Q 1894 4228 1894 4206  L 1894 428  Q 1894 225 2694 225  L 2694 0  L 594 0  z "
                 transform="scale(0.015625)" />
              <path
                 id="Cmsy10-a1"
                 d="M 653 1472  Q 600 1472 565 1512  Q 531 1553 531 1600  Q 531 1647 565 1687  Q 600 1728 653 1728  L 4325 1728  Q 4375 1728 4408 1687  Q 4441 1647 4441 1600  Q 4441 1553 4408 1512  Q 4375 1472 4325 1472  L 653 1472  z "
                 transform="scale(0.015625)" />
              <path
                 id="Cmr10-49"
                 d="M 166 0  L 166 225  Q 856 225 856 428  L 856 3944  Q 856 4147 166 4147  L 166 4372  L 2144 4372  L 2144 4147  Q 1453 4147 1453 3944  L 1453 428  Q 1453 225 2144 225  L 2144 0  L 166 0  z "
                 transform="scale(0.015625)" />
              <path
                 id="Cmr10-4f"
                 d="M 2491 -141  Q 1881 -141 1395 182  Q 909 506 634 1042  Q 359 1578 359 2169  Q 359 2606 517 3034  Q 675 3463 958 3794  Q 1241 4125 1637 4319  Q 2034 4513 2491 4513  Q 2944 4513 3342 4317  Q 3741 4122 4025 3787  Q 4309 3453 4462 3037  Q 4616 2622 4616 2169  Q 4616 1578 4341 1042  Q 4066 506 3578 182  Q 3091 -141 2491 -141  z M 1428 691  Q 1616 397 1891 223  Q 2166 50 2491 50  Q 2700 50 2901 134  Q 3103 219 3267 366  Q 3431 513 3547 691  Q 3928 1266 3928 2272  Q 3928 3194 3547 3731  Q 3359 4000 3079 4162  Q 2800 4325 2491 4325  Q 2178 4325 1897 4162  Q 1616 4000 1428 3731  Q 1278 3522 1195 3286  Q 1113 3050 1078 2797  Q 1044 2544 1044 2272  Q 1044 1981 1076 1704  Q 1109 1428 1198 1162  Q 1288 897 1428 691  z "
                 transform="scale(0.015625)" />
              <path
                 id="Cmr10-6e"
                 d="M 191 0  L 191 225  Q 409 225 550 259  Q 691 294 691 428  L 691 2175  Q 691 2347 639 2423  Q 588 2500 491 2517  Q 394 2534 191 2534  L 191 2759  L 1119 2828  L 1119 2203  Q 1247 2478 1498 2653  Q 1750 2828 2047 2828  Q 2491 2828 2714 2615  Q 2938 2403 2938 1966  L 2938 428  Q 2938 294 3078 259  Q 3219 225 3438 225  L 3438 0  L 1972 0  L 1972 225  Q 2191 225 2331 259  Q 2472 294 2472 428  L 2472 1947  Q 2472 2259 2381 2461  Q 2291 2663 2009 2663  Q 1638 2663 1398 2366  Q 1159 2069 1159 1691  L 1159 428  Q 1159 294 1300 259  Q 1441 225 1656 225  L 1656 0  L 191 0  z "
                 transform="scale(0.015625)" />
              <path
                 id="Cmr10-63"
                 d="M 1594 -72  Q 1206 -72 890 129  Q 575 331 394 667  Q 213 1003 213 1381  Q 213 1759 392 2106  Q 572 2453 889 2661  Q 1206 2869 1594 2869  Q 1969 2869 2276 2722  Q 2584 2575 2584 2241  Q 2584 2116 2495 2023  Q 2406 1931 2278 1931  Q 2150 1931 2061 2023  Q 1972 2116 1972 2241  Q 1972 2353 2044 2436  Q 2116 2519 2222 2541  Q 2000 2681 1600 2681  Q 1294 2681 1106 2478  Q 919 2275 844 1975  Q 769 1675 769 1381  Q 769 1072 861 783  Q 953 494 1158 305  Q 1363 116 1672 116  Q 1975 116 2187 302  Q 2400 488 2478 788  Q 2478 825 2528 825  L 2606 825  Q 2625 825 2640 808  Q 2656 791 2656 769  L 2656 750  Q 2559 372 2271 150  Q 1984 -72 1594 -72  z "
                 transform="scale(0.015625)" />
              <path
                 id="Cmmi10-3d"
                 d="M 359 -1472  Q 359 -1453 366 -1447  L 2591 4722  Q 2603 4759 2634 4779  Q 2666 4800 2706 4800  Q 2763 4800 2798 4765  Q 2834 4731 2834 4672  L 2834 4647  L 609 -1522  Q 572 -1600 488 -1600  Q 434 -1600 396 -1562  Q 359 -1525 359 -1472  z "
                 transform="scale(0.015625)" />
              <path
                 id="Cmr10-66"
                 d="M 206 0  L 206 225  Q 422 225 562 259  Q 703 294 703 428  L 703 2534  L 213 2534  L 213 2759  L 703 2759  L 703 3525  Q 703 3731 789 3911  Q 875 4091 1020 4225  Q 1166 4359 1355 4436  Q 1544 4513 1747 4513  Q 1963 4513 2136 4384  Q 2309 4256 2309 4044  Q 2309 3922 2226 3839  Q 2144 3756 2022 3756  Q 1900 3756 1814 3839  Q 1728 3922 1728 4044  Q 1728 4244 1900 4313  Q 1797 4347 1716 4347  Q 1528 4347 1395 4214  Q 1263 4081 1197 3890  Q 1131 3700 1131 3513  L 1131 2759  L 1869 2759  L 1869 2534  L 1153 2534  L 1153 428  Q 1153 297 1340 261  Q 1528 225 1772 225  L 1772 0  L 206 0  z "
                 transform="scale(0.015625)" />
              <path
                 id="CMUSerif-Roman-25"
                 d="M 358 3514  C 358 2739 819 2221 1299 2221  C 1766 2221 2131 2790 2131 3507  C 2131 3597 2131 3898 1997 4230  C 2413 3994 2733 3962 2963 3962  C 3450 3962 3776 4160 3814 4186  L 3821 4179  L 947 -102  C 890 -186 890 -218 890 -230  C 890 -301 954 -358 1018 -358  C 1082 -358 1094 -333 1146 -262  L 4384 4557  C 4422 4614 4435 4634 4435 4672  C 4435 4742 4378 4800 4307 4800  C 4243 4800 4211 4755 4173 4710  C 3853 4275 3424 4102 2957 4102  C 2509 4102 2112 4262 1760 4595  C 1638 4704 1504 4800 1299 4800  C 813 4800 358 4262 358 3514  z M 755 3507  C 755 4576 1171 4659 1306 4659  C 1645 4659 1971 4186 1971 3514  C 1971 2822 1638 2362 1306 2362  C 1178 2362 755 2445 755 3507  z M 3194 934  C 3194 160 3654 -358 4134 -358  C 4602 -358 4966 211 4966 928  C 4966 1664 4589 2221 4134 2221  C 3648 2221 3194 1683 3194 934  z M 3590 928  C 3590 1997 4006 2080 4141 2080  C 4480 2080 4806 1606 4806 934  C 4806 243 4474 -218 4141 -218  C 4013 -218 3590 -134 3590 928  z "
                 transform="scale(0.015625)" />
            </defs>
            <use
               xlink:href="#CMUSerif-Roman-53"
               transform="translate(0 0.489063)"
               id="use57" />
            <use
               xlink:href="#CMUSerif-Roman-75"
               transform="translate(55.499985 0.489063)"
               id="use58" />
            <use
               xlink:href="#CMUSerif-Roman-70"
               transform="translate(110.999969 0.489063)"
               id="use59" />
            <use
               xlink:href="#CMUSerif-Roman-70"
               transform="translate(166.499954 0.489063)"
               id="use60" />
            <use
               xlink:href="#CMUSerif-Roman-72"
               transform="translate(221.999939 0.489063)"
               id="use61" />
            <use
               xlink:href="#CMUSerif-Roman-65"
               transform="translate(261.09993 0.489063)"
               id="use62" />
            <use
               xlink:href="#CMUSerif-Roman-73"
               transform="translate(305.499924 0.489063)"
               id="use63" />
            <use
               xlink:href="#CMUSerif-Roman-73"
               transform="translate(344.899918 0.489063)"
               id="use64" />
            <use
               xlink:href="#CMUSerif-Roman-69"
               transform="translate(384.299911 0.489063)"
               id="use65" />
            <use
               xlink:href="#CMUSerif-Roman-6f"
               transform="translate(411.999908 0.489063)"
               id="use66" />
            <use
               xlink:href="#CMUSerif-Roman-6e"
               transform="translate(461.999893 0.489063)"
               id="use67" />
            <use
               xlink:href="#CMUSerif-Roman-20"
               transform="translate(517.499878 0.489063)"
               id="use68" />
            <use
               xlink:href="#Cmr10-31"
               transform="translate(550.799866 0.489063)"
               id="use69" />
            <use
               xlink:href="#Cmsy10-a1"
               transform="translate(618.358459 0.489063)"
               id="use70" />
            <use
               xlink:href="#Cmr10-49"
               transform="translate(713.6026 0.489063)"
               id="use71" />
            <use
               xlink:href="#Cmr10-4f"
               transform="translate(754.254084 39.639063) scale(0.7)"
               id="use72" />
            <use
               xlink:href="#Cmr10-6e"
               transform="translate(808.633967 39.639063) scale(0.7)"
               id="use73" />
            <use
               xlink:href="#Cmr10-63"
               transform="translate(754.254084 -25.610937) scale(0.7)"
               id="use74" />
            <use
               xlink:href="#Cmmi10-3d"
               transform="translate(868.653726 0.489063)"
               id="use75" />
            <use
               xlink:href="#Cmr10-49"
               transform="translate(933.28618 0.489063)"
               id="use76" />
            <use
               xlink:href="#Cmr10-4f"
               transform="translate(973.937665 39.639063) scale(0.7)"
               id="use77" />
            <use
               xlink:href="#Cmr10-66"
               transform="translate(1028.317547 39.639063) scale(0.7)"
               id="use78" />
            <use
               xlink:href="#Cmr10-66"
               transform="translate(1049.679852 39.639063) scale(0.7)"
               id="use79" />
            <use
               xlink:href="#Cmr10-63"
               transform="translate(973.937665 -25.610937) scale(0.7)"
               id="use80" />
            <use
               xlink:href="#CMUSerif-Roman-20"
               transform="translate(1077.567157 0.489063)"
               id="use81" />
            <use
               xlink:href="#CMUSerif-Roman-5b"
               transform="translate(1110.867145 0.489063)"
               id="use82" />
            <use
               xlink:href="#CMUSerif-Roman-25"
               transform="translate(1138.667132 0.489063)"
               id="use83" />
            <use
               xlink:href="#CMUSerif-Roman-5d"
               transform="translate(1221.96712 0.489063)"
               id="use84" />
          </g>
        </g>
      </g>
      <g
         id="line2d_14">
        <path
           d="M 81.884 576.23875  L 618.438175 106.622873  L 618.438175 106.622873  "
           clip-path="url(#p6b96aaad3d)"
           style="fill: none; stroke: #000000; stroke-opacity: 0.3; stroke-width: 2; stroke-linecap: round"
           id="path84" />
      </g>
      <g
         id="LineCollection_1">
        <path
           d="M 316.330634 343.51476  L 332.90653 343.51476  "
           clip-path="url(#p6b96aaad3d)"
           style="fill: none; stroke: #3b0f70; stroke-width: 1.5"
           id="path85" />
        <path
           d="M 156.003446 500.027826  L 161.121295 500.027826  "
           clip-path="url(#p6b96aaad3d)"
           style="fill: none; stroke: #3b0f70; stroke-width: 1.5"
           id="path86" />
        <path
           d="M 156.854923 500.340972  L 162.038926 500.340972  "
           clip-path="url(#p6b96aaad3d)"
           style="fill: none; stroke: #3b0f70; stroke-width: 1.5"
           id="path87" />
        <path
           d="M 157.138743 502.215389  L 162.343731 502.215389  "
           clip-path="url(#p6b96aaad3d)"
           style="fill: none; stroke: #3b0f70; stroke-width: 1.5"
           id="path88" />
        <path
           d="M 157.929424 504.380163  L 163.183088 504.380163  "
           clip-path="url(#p6b96aaad3d)"
           style="fill: none; stroke: #3b0f70; stroke-width: 1.5"
           id="path89" />
        <path
           d="M 162.87473 499.265899  L 168.465734 499.265899  "
           clip-path="url(#p6b96aaad3d)"
           style="fill: none; stroke: #3b0f70; stroke-width: 1.5"
           id="path90" />
        <path
           d="M 122.903094 544.321768  L 125.742189 544.321768  "
           clip-path="url(#p6b96aaad3d)"
           style="fill: none; stroke: #3b0f70; stroke-width: 1.5"
           id="path91" />
        <path
           d="M 123.206914 545.24081  L 126.060218 545.24081  "
           clip-path="url(#p6b96aaad3d)"
           style="fill: none; stroke: #3b0f70; stroke-width: 1.5"
           id="path92" />
        <path
           d="M 123.270833 544.596859  L 126.141838 544.596859  "
           clip-path="url(#p6b96aaad3d)"
           style="fill: none; stroke: #3b0f70; stroke-width: 1.5"
           id="path93" />
        <path
           d="M 123.817271 540.080375  L 126.721649 540.080375  "
           clip-path="url(#p6b96aaad3d)"
           style="fill: none; stroke: #3b0f70; stroke-width: 1.5"
           id="path94" />
        <path
           d="M 408.172901 349.879269  L 430.891654 349.879269  "
           clip-path="url(#p6b96aaad3d)"
           style="fill: none; stroke: #3b0f70; stroke-width: 1.5"
           id="path95" />
        <path
           d="M 408.185939 339.217284  L 430.733077 339.217284  "
           clip-path="url(#p6b96aaad3d)"
           style="fill: none; stroke: #3b0f70; stroke-width: 1.5"
           id="path96" />
        <path
           d="M 389.813415 342.471593  L 427.711352 342.471593  "
           clip-path="url(#p6b96aaad3d)"
           style="fill: none; stroke: #3b0f70; stroke-width: 1.5"
           id="path97" />
        <path
           d="M 267.086909 393.479436  L 280.026197 393.479436  "
           clip-path="url(#p6b96aaad3d)"
           style="fill: none; stroke: #3b0f70; stroke-width: 1.5"
           id="path98" />
        <path
           d="M 267.128497 399.928446  L 279.938649 399.928446  "
           clip-path="url(#p6b96aaad3d)"
           style="fill: none; stroke: #3b0f70; stroke-width: 1.5"
           id="path99" />
        <path
           d="M 266.886092 401.449942  L 279.644857 401.449942  "
           clip-path="url(#p6b96aaad3d)"
           style="fill: none; stroke: #3b0f70; stroke-width: 1.5"
           id="path100" />
        <path
           d="M 267.649252 400.580564  L 280.490288 400.580564  "
           clip-path="url(#p6b96aaad3d)"
           style="fill: none; stroke: #3b0f70; stroke-width: 1.5"
           id="path101" />
        <path
           d="M 207.376355 448.134683  L 216.092922 448.134683  "
           clip-path="url(#p6b96aaad3d)"
           style="fill: none; stroke: #3b0f70; stroke-width: 1.5"
           id="path102" />
        <path
           d="M 209.963554 450.411813  L 218.811836 450.411813  "
           clip-path="url(#p6b96aaad3d)"
           style="fill: none; stroke: #3b0f70; stroke-width: 1.5"
           id="path103" />
        <path
           d="M 207.280532 450.284991  L 218.146389 450.284991  "
           clip-path="url(#p6b96aaad3d)"
           style="fill: none; stroke: #3b0f70; stroke-width: 1.5"
           id="path104" />
        <path
           d="M 208.875513 450.606342  L 217.667958 450.606342  "
           clip-path="url(#p6b96aaad3d)"
           style="fill: none; stroke: #3b0f70; stroke-width: 1.5"
           id="path105" />
        <path
           d="M 441.723944 190.198625  L 466.59674 190.198625  "
           clip-path="url(#p6b96aaad3d)"
           style="fill: none; stroke: #3b0f70; stroke-width: 1.5"
           id="path106" />
        <path
           d="M 444.294614 188.768402  L 469.614688 188.768402  "
           clip-path="url(#p6b96aaad3d)"
           style="fill: none; stroke: #3b0f70; stroke-width: 1.5"
           id="path107" />
      </g>
      <g
         id="LineCollection_2">
        <path
           d="M 324.618582 343.514762  L 324.618582 343.514759  "
           clip-path="url(#p6b96aaad3d)"
           style="fill: none; stroke: #3b0f70; stroke-width: 1.5"
           id="path108" />
        <path
           d="M 158.56237 500.027827  L 158.56237 500.027824  "
           clip-path="url(#p6b96aaad3d)"
           style="fill: none; stroke: #3b0f70; stroke-width: 1.5"
           id="path109" />
        <path
           d="M 159.446924 500.340973  L 159.446924 500.340971  "
           clip-path="url(#p6b96aaad3d)"
           style="fill: none; stroke: #3b0f70; stroke-width: 1.5"
           id="path110" />
        <path
           d="M 159.741237 502.21539  L 159.741237 502.215388  "
           clip-path="url(#p6b96aaad3d)"
           style="fill: none; stroke: #3b0f70; stroke-width: 1.5"
           id="path111" />
        <path
           d="M 160.556256 504.380165  L 160.556256 504.380162  "
           clip-path="url(#p6b96aaad3d)"
           style="fill: none; stroke: #3b0f70; stroke-width: 1.5"
           id="path112" />
        <path
           d="M 165.670232 499.2659  L 165.670232 499.265897  "
           clip-path="url(#p6b96aaad3d)"
           style="fill: none; stroke: #3b0f70; stroke-width: 1.5"
           id="path113" />
        <path
           d="M 124.322641 544.321769  L 124.322641 544.321766  "
           clip-path="url(#p6b96aaad3d)"
           style="fill: none; stroke: #3b0f70; stroke-width: 1.5"
           id="path114" />
        <path
           d="M 124.633566 545.240812  L 124.633566 545.240809  "
           clip-path="url(#p6b96aaad3d)"
           style="fill: none; stroke: #3b0f70; stroke-width: 1.5"
           id="path115" />
        <path
           d="M 124.706335 544.59686  L 124.706335 544.596857  "
           clip-path="url(#p6b96aaad3d)"
           style="fill: none; stroke: #3b0f70; stroke-width: 1.5"
           id="path116" />
        <path
           d="M 125.26946 540.080377  L 125.26946 540.080374  "
           clip-path="url(#p6b96aaad3d)"
           style="fill: none; stroke: #3b0f70; stroke-width: 1.5"
           id="path117" />
        <path
           d="M 419.532277 349.87927  L 419.532277 349.879268  "
           clip-path="url(#p6b96aaad3d)"
           style="fill: none; stroke: #3b0f70; stroke-width: 1.5"
           id="path118" />
        <path
           d="M 419.459508 339.217285  L 419.459508 339.217283  "
           clip-path="url(#p6b96aaad3d)"
           style="fill: none; stroke: #3b0f70; stroke-width: 1.5"
           id="path119" />
        <path
           d="M 408.762383 342.471594  L 408.762383 342.471591  "
           clip-path="url(#p6b96aaad3d)"
           style="fill: none; stroke: #3b0f70; stroke-width: 1.5"
           id="path120" />
        <path
           d="M 273.556553 393.479437  L 273.556553 393.479434  "
           clip-path="url(#p6b96aaad3d)"
           style="fill: none; stroke: #3b0f70; stroke-width: 1.5"
           id="path121" />
        <path
           d="M 273.533573 399.928447  L 273.533573 399.928444  "
           clip-path="url(#p6b96aaad3d)"
           style="fill: none; stroke: #3b0f70; stroke-width: 1.5"
           id="path122" />
        <path
           d="M 273.265475 401.449943  L 273.265475 401.449941  "
           clip-path="url(#p6b96aaad3d)"
           style="fill: none; stroke: #3b0f70; stroke-width: 1.5"
           id="path123" />
        <path
           d="M 274.06977 400.580565  L 274.06977 400.580562  "
           clip-path="url(#p6b96aaad3d)"
           style="fill: none; stroke: #3b0f70; stroke-width: 1.5"
           id="path124" />
        <path
           d="M 211.734638 448.134684  L 211.734638 448.134681  "
           clip-path="url(#p6b96aaad3d)"
           style="fill: none; stroke: #3b0f70; stroke-width: 1.5"
           id="path125" />
        <path
           d="M 214.387695 450.411814  L 214.387695 450.411811  "
           clip-path="url(#p6b96aaad3d)"
           style="fill: none; stroke: #3b0f70; stroke-width: 1.5"
           id="path126" />
        <path
           d="M 212.71346 450.284992  L 212.71346 450.284989  "
           clip-path="url(#p6b96aaad3d)"
           style="fill: none; stroke: #3b0f70; stroke-width: 1.5"
           id="path127" />
        <path
           d="M 213.271735 450.606343  L 213.271735 450.60634  "
           clip-path="url(#p6b96aaad3d)"
           style="fill: none; stroke: #3b0f70; stroke-width: 1.5"
           id="path128" />
        <path
           d="M 454.160342 190.198626  L 454.160342 190.198624  "
           clip-path="url(#p6b96aaad3d)"
           style="fill: none; stroke: #3b0f70; stroke-width: 1.5"
           id="path129" />
        <path
           d="M 456.954651 188.768403  L 456.954651 188.7684  "
           clip-path="url(#p6b96aaad3d)"
           style="fill: none; stroke: #3b0f70; stroke-width: 1.5"
           id="path130" />
      </g>
      <g
         id="line2d_15">
        <defs
           id="defs130">
          <path
             id="mc66a158de3"
             d="M 0 4  C 1.060812 4 2.078319 3.578535 2.828427 2.828427  C 3.578535 2.078319 4 1.060812 4 0  C 4 -1.060812 3.578535 -2.078319 2.828427 -2.828427  C 2.078319 -3.578535 1.060812 -4 0 -4  C -1.060812 -4 -2.078319 -3.578535 -2.828427 -2.828427  C -3.578535 -2.078319 -4 -1.060812 -4 0  C -4 1.060812 -3.578535 2.078319 -2.828427 2.828427  C -2.078319 3.578535 -1.060812 4 0 4  z "
             style="stroke: #3b0f70" />
        </defs>
        <g
           clip-path="url(#p6b96aaad3d)"
           id="g152">
          <use
             xlink:href="#mc66a158de3"
             x="324.618582"
             y="343.51476"
             style="fill: #ffffff; stroke: #3b0f70"
             id="use130" />
          <use
             xlink:href="#mc66a158de3"
             x="158.56237"
             y="500.027826"
             style="fill: #ffffff; stroke: #3b0f70"
             id="use131" />
          <use
             xlink:href="#mc66a158de3"
             x="159.446924"
             y="500.340972"
             style="fill: #ffffff; stroke: #3b0f70"
             id="use132" />
          <use
             xlink:href="#mc66a158de3"
             x="159.741237"
             y="502.215389"
             style="fill: #ffffff; stroke: #3b0f70"
             id="use133" />
          <use
             xlink:href="#mc66a158de3"
             x="160.556256"
             y="504.380163"
             style="fill: #ffffff; stroke: #3b0f70"
             id="use134" />
          <use
             xlink:href="#mc66a158de3"
             x="165.670232"
             y="499.265899"
             style="fill: #ffffff; stroke: #3b0f70"
             id="use135" />
          <use
             xlink:href="#mc66a158de3"
             x="124.322641"
             y="544.321768"
             style="fill: #ffffff; stroke: #3b0f70"
             id="use136" />
          <use
             xlink:href="#mc66a158de3"
             x="124.633566"
             y="545.24081"
             style="fill: #ffffff; stroke: #3b0f70"
             id="use137" />
          <use
             xlink:href="#mc66a158de3"
             x="124.706335"
             y="544.596859"
             style="fill: #ffffff; stroke: #3b0f70"
             id="use138" />
          <use
             xlink:href="#mc66a158de3"
             x="125.26946"
             y="540.080375"
             style="fill: #ffffff; stroke: #3b0f70"
             id="use139" />
          <use
             xlink:href="#mc66a158de3"
             x="419.532277"
             y="349.879269"
             style="fill: #ffffff; stroke: #3b0f70"
             id="use140" />
          <use
             xlink:href="#mc66a158de3"
             x="419.459508"
             y="339.217284"
             style="fill: #ffffff; stroke: #3b0f70"
             id="use141" />
          <use
             xlink:href="#mc66a158de3"
             x="408.762383"
             y="342.471593"
             style="fill: #ffffff; stroke: #3b0f70"
             id="use142" />
          <use
             xlink:href="#mc66a158de3"
             x="273.556553"
             y="393.479436"
             style="fill: #ffffff; stroke: #3b0f70"
             id="use143" />
          <use
             xlink:href="#mc66a158de3"
             x="273.533573"
             y="399.928446"
             style="fill: #ffffff; stroke: #3b0f70"
             id="use144" />
          <use
             xlink:href="#mc66a158de3"
             x="273.265475"
             y="401.449942"
             style="fill: #ffffff; stroke: #3b0f70"
             id="use145" />
          <use
             xlink:href="#mc66a158de3"
             x="274.06977"
             y="400.580564"
             style="fill: #ffffff; stroke: #3b0f70"
             id="use146" />
          <use
             xlink:href="#mc66a158de3"
             x="211.734638"
             y="448.134683"
             style="fill: #ffffff; stroke: #3b0f70"
             id="use147" />
          <use
             xlink:href="#mc66a158de3"
             x="214.387695"
             y="450.411813"
             style="fill: #ffffff; stroke: #3b0f70"
             id="use148" />
          <use
             xlink:href="#mc66a158de3"
             x="212.71346"
             y="450.284991"
             style="fill: #ffffff; stroke: #3b0f70"
             id="use149" />
          <use
             xlink:href="#mc66a158de3"
             x="213.271735"
             y="450.606342"
             style="fill: #ffffff; stroke: #3b0f70"
             id="use150" />
          <use
             xlink:href="#mc66a158de3"
             x="454.160342"
             y="190.198625"
             style="fill: #ffffff; stroke: #3b0f70"
             id="use151" />
          <use
             xlink:href="#mc66a158de3"
             x="456.954651"
             y="188.768402"
             style="fill: #ffffff; stroke: #3b0f70"
             id="use152" />
        </g>
      </g>
      <g
         id="LineCollection_3">
        <path
           d="M 332.855838 337.581544  L 338.369662 337.581544  "
           clip-path="url(#p6b96aaad3d)"
           style="fill: none; stroke: #fe9f6d; stroke-width: 1.5"
           id="path152" />
        <path
           d="M 309.795785 344.072184  L 346.754382 344.072184  "
           clip-path="url(#p6b96aaad3d)"
           style="fill: none; stroke: #fe9f6d; stroke-width: 1.5"
           id="path153" />
        <path
           d="M 331.089356 343.889237  L 335.443572 343.889237  "
           clip-path="url(#p6b96aaad3d)"
           style="fill: none; stroke: #fe9f6d; stroke-width: 1.5"
           id="path154" />
        <path
           d="M 214.128243 447.409739  L 215.268956 447.409739  "
           clip-path="url(#p6b96aaad3d)"
           style="fill: none; stroke: #fe9f6d; stroke-width: 1.5"
           id="path155" />
        <path
           d="M 214.769194 443.449252  L 216.273739 443.449252  "
           clip-path="url(#p6b96aaad3d)"
           style="fill: none; stroke: #fe9f6d; stroke-width: 1.5"
           id="path156" />
        <path
           d="M 211.305626 448.019814  L 213.167939 448.019814  "
           clip-path="url(#p6b96aaad3d)"
           style="fill: none; stroke: #fe9f6d; stroke-width: 1.5"
           id="path157" />
        <path
           d="M 137.034274 520.835592  L 138.079764 520.835592  "
           clip-path="url(#p6b96aaad3d)"
           style="fill: none; stroke: #fe9f6d; stroke-width: 1.5"
           id="path158" />
        <path
           d="M 608.352229 79.48108  L 612.568201 79.48108  "
           clip-path="url(#p6b96aaad3d)"
           style="fill: none; stroke: #fe9f6d; stroke-width: 1.5"
           id="path159" />
        <path
           d="M 605.924634 72.826996  L 609.625315 72.826996  "
           clip-path="url(#p6b96aaad3d)"
           style="fill: none; stroke: #fe9f6d; stroke-width: 1.5"
           id="path160" />
        <path
           d="M 603.075432 86.588751  L 605.748073 86.588751  "
           clip-path="url(#p6b96aaad3d)"
           style="fill: none; stroke: #fe9f6d; stroke-width: 1.5"
           id="path161" />
        <path
           clip-path="url(#p6b96aaad3d)"
           style="fill: none; stroke: #fe9f6d; stroke-width: 1.5"
           id="path162" />
        <path
           clip-path="url(#p6b96aaad3d)"
           style="fill: none; stroke: #fe9f6d; stroke-width: 1.5"
           id="path163" />
        <path
           clip-path="url(#p6b96aaad3d)"
           style="fill: none; stroke: #fe9f6d; stroke-width: 1.5"
           id="path164" />
        <path
           clip-path="url(#p6b96aaad3d)"
           style="fill: none; stroke: #fe9f6d; stroke-width: 1.5"
           id="path165" />
        <path
           clip-path="url(#p6b96aaad3d)"
           style="fill: none; stroke: #fe9f6d; stroke-width: 1.5"
           id="path166" />
        <path
           clip-path="url(#p6b96aaad3d)"
           style="fill: none; stroke: #fe9f6d; stroke-width: 1.5"
           id="path167" />
        <path
           clip-path="url(#p6b96aaad3d)"
           style="fill: none; stroke: #fe9f6d; stroke-width: 1.5"
           id="path168" />
        <path
           clip-path="url(#p6b96aaad3d)"
           style="fill: none; stroke: #fe9f6d; stroke-width: 1.5"
           id="path169" />
        <path
           clip-path="url(#p6b96aaad3d)"
           style="fill: none; stroke: #fe9f6d; stroke-width: 1.5"
           id="path170" />
        <path
           clip-path="url(#p6b96aaad3d)"
           style="fill: none; stroke: #fe9f6d; stroke-width: 1.5"
           id="path171" />
        <path
           clip-path="url(#p6b96aaad3d)"
           style="fill: none; stroke: #fe9f6d; stroke-width: 1.5"
           id="path172" />
      </g>
      <g
         id="LineCollection_4">
        <path
           d="M 335.61275 337.581545  L 335.61275 337.581543  "
           clip-path="url(#p6b96aaad3d)"
           style="fill: none; stroke: #fe9f6d; stroke-width: 1.5"
           id="path173" />
        <path
           d="M 328.275083 344.072185  L 328.275083 344.072182  "
           clip-path="url(#p6b96aaad3d)"
           style="fill: none; stroke: #fe9f6d; stroke-width: 1.5"
           id="path174" />
        <path
           d="M 333.266464 343.889239  L 333.266464 343.889236  "
           clip-path="url(#p6b96aaad3d)"
           style="fill: none; stroke: #fe9f6d; stroke-width: 1.5"
           id="path175" />
        <path
           d="M 214.6986 447.40974  L 214.6986 447.409737  "
           clip-path="url(#p6b96aaad3d)"
           style="fill: none; stroke: #fe9f6d; stroke-width: 1.5"
           id="path176" />
        <path
           d="M 215.521466 443.449254  L 215.521466 443.449251  "
           clip-path="url(#p6b96aaad3d)"
           style="fill: none; stroke: #fe9f6d; stroke-width: 1.5"
           id="path177" />
        <path
           d="M 212.236783 448.019816  L 212.236783 448.019812  "
           clip-path="url(#p6b96aaad3d)"
           style="fill: none; stroke: #fe9f6d; stroke-width: 1.5"
           id="path178" />
        <path
           d="M 137.557019 520.835593  L 137.557019 520.83559  "
           clip-path="url(#p6b96aaad3d)"
           style="fill: none; stroke: #fe9f6d; stroke-width: 1.5"
           id="path179" />
        <path
           d="M 610.460215 79.481081  L 610.460215 79.481078  "
           clip-path="url(#p6b96aaad3d)"
           style="fill: none; stroke: #fe9f6d; stroke-width: 1.5"
           id="path180" />
        <path
           d="M 607.774975 72.826997  L 607.774975 72.826995  "
           clip-path="url(#p6b96aaad3d)"
           style="fill: none; stroke: #fe9f6d; stroke-width: 1.5"
           id="path181" />
        <path
           d="M 604.411752 86.588752  L 604.411752 86.58875  "
           clip-path="url(#p6b96aaad3d)"
           style="fill: none; stroke: #fe9f6d; stroke-width: 1.5"
           id="path182" />
        <path
           clip-path="url(#p6b96aaad3d)"
           style="fill: none; stroke: #fe9f6d; stroke-width: 1.5"
           id="path183" />
        <path
           clip-path="url(#p6b96aaad3d)"
           style="fill: none; stroke: #fe9f6d; stroke-width: 1.5"
           id="path184" />
        <path
           clip-path="url(#p6b96aaad3d)"
           style="fill: none; stroke: #fe9f6d; stroke-width: 1.5"
           id="path185" />
        <path
           clip-path="url(#p6b96aaad3d)"
           style="fill: none; stroke: #fe9f6d; stroke-width: 1.5"
           id="path186" />
        <path
           clip-path="url(#p6b96aaad3d)"
           style="fill: none; stroke: #fe9f6d; stroke-width: 1.5"
           id="path187" />
        <path
           clip-path="url(#p6b96aaad3d)"
           style="fill: none; stroke: #fe9f6d; stroke-width: 1.5"
           id="path188" />
        <path
           clip-path="url(#p6b96aaad3d)"
           style="fill: none; stroke: #fe9f6d; stroke-width: 1.5"
           id="path189" />
        <path
           clip-path="url(#p6b96aaad3d)"
           style="fill: none; stroke: #fe9f6d; stroke-width: 1.5"
           id="path190" />
        <path
           clip-path="url(#p6b96aaad3d)"
           style="fill: none; stroke: #fe9f6d; stroke-width: 1.5"
           id="path191" />
        <path
           clip-path="url(#p6b96aaad3d)"
           style="fill: none; stroke: #fe9f6d; stroke-width: 1.5"
           id="path192" />
        <path
           clip-path="url(#p6b96aaad3d)"
           style="fill: none; stroke: #fe9f6d; stroke-width: 1.5"
           id="path193" />
      </g>
      <g
         id="line2d_16">
        <defs
           id="defs193">
          <path
             id="m46cd9be0b8"
             d="M -0 4  L 4 -4  L -4 -4  z "
             style="stroke: #fe9f6d; stroke-linejoin: miter" />
        </defs>
        <g
           clip-path="url(#p6b96aaad3d)"
           id="g208">
          <use
             xlink:href="#m46cd9be0b8"
             x="335.61275"
             y="337.581544"
             style="fill: #fe9f6d; stroke: #fe9f6d; stroke-linejoin: miter"
             id="use193" />
          <use
             xlink:href="#m46cd9be0b8"
             x="328.275083"
             y="344.072184"
             style="fill: #fe9f6d; stroke: #fe9f6d; stroke-linejoin: miter"
             id="use194" />
          <use
             xlink:href="#m46cd9be0b8"
             x="333.266464"
             y="343.889237"
             style="fill: #fe9f6d; stroke: #fe9f6d; stroke-linejoin: miter"
             id="use195" />
          <use
             xlink:href="#m46cd9be0b8"
             x="214.6986"
             y="447.409739"
             style="fill: #fe9f6d; stroke: #fe9f6d; stroke-linejoin: miter"
             id="use196" />
          <use
             xlink:href="#m46cd9be0b8"
             x="215.521466"
             y="443.449252"
             style="fill: #fe9f6d; stroke: #fe9f6d; stroke-linejoin: miter"
             id="use197" />
          <use
             xlink:href="#m46cd9be0b8"
             x="212.236783"
             y="448.019814"
             style="fill: #fe9f6d; stroke: #fe9f6d; stroke-linejoin: miter"
             id="use198" />
          <use
             xlink:href="#m46cd9be0b8"
             x="137.557019"
             y="520.835592"
             style="fill: #fe9f6d; stroke: #fe9f6d; stroke-linejoin: miter"
             id="use199" />
          <use
             xlink:href="#m46cd9be0b8"
             x="610.460215"
             y="79.48108"
             style="fill: #fe9f6d; stroke: #fe9f6d; stroke-linejoin: miter"
             id="use200" />
          <use
             xlink:href="#m46cd9be0b8"
             x="607.774975"
             y="72.826996"
             style="fill: #fe9f6d; stroke: #fe9f6d; stroke-linejoin: miter"
             id="use201" />
          <use
             xlink:href="#m46cd9be0b8"
             x="604.411752"
             y="86.588751"
             style="fill: #fe9f6d; stroke: #fe9f6d; stroke-linejoin: miter"
             id="use202" />
          <use
             xlink:href="#m46cd9be0b8"
             x="754.796902"
             y="-1"
             style="fill: #fe9f6d; stroke: #fe9f6d; stroke-linejoin: miter"
             id="use203" />
          <use
             xlink:href="#m46cd9be0b8"
             x="815.540119"
             y="-1"
             style="fill: #fe9f6d; stroke: #fe9f6d; stroke-linejoin: miter"
             id="use204" />
          <use
             xlink:href="#m46cd9be0b8"
             x="751.535776"
             y="36.297965"
             style="fill: #fe9f6d; stroke: #fe9f6d; stroke-linejoin: miter"
             id="use205" />
          <use
             xlink:href="#m46cd9be0b8"
             x="735.036524"
             y="39.816115"
             style="fill: #fe9f6d; stroke: #fe9f6d; stroke-linejoin: miter"
             id="use206" />
          <use
             xlink:href="#m46cd9be0b8"
             x="738.125607"
             y="40.421718"
             style="fill: #fe9f6d; stroke: #fe9f6d; stroke-linejoin: miter"
             id="use207" />
          <use
             xlink:href="#m46cd9be0b8"
             x="798.714708"
             y="-1"
             style="fill: #fe9f6d; stroke: #fe9f6d; stroke-linejoin: miter"
             id="use208" />
        </g>
      </g>
      <g
         id="line2d_17" />
      <g
         id="line2d_18" />
      <g
         id="patch_3">
        <path
           d="M 81.884 576.23875  L 81.884 19.220625  "
           style="fill: none; stroke: #000000; stroke-width: 0.8; stroke-linejoin: miter; stroke-linecap: square"
           id="path208" />
      </g>
      <g
         id="patch_4">
        <path
           d="M 81.884 576.23875  L 625.23 576.23875  "
           style="fill: none; stroke: #000000; stroke-width: 0.8; stroke-linejoin: miter; stroke-linecap: square"
           id="path209" />
      </g>
      <g
         id="legend_1">
        <g
           id="line2d_19">
          <g
             id="g209">
            <use
               xlink:href="#mc66a158de3"
               x="112.284"
               y="40.020625"
               style="fill: #ffffff; stroke: #3b0f70"
               id="use209" />
          </g>
        </g>
        <g
           id="text_16">
          <!-- No damage in REBCO layer (150 keV) -->
          <g
             transform="translate(141.084 45.620625) scale(0.16 -0.16)"
             id="g243">
            <defs
               id="defs209">
              <path
                 id="CMUSerif-Roman-4e"
                 d="M 211 0  C 435 6 749 19 960 19  C 1171 19 1485 6 1709 0  L 1709 198  C 1050 198 1050 499 1050 672  L 1050 4000  C 1082 3968 1088 3962 1114 3923  L 3725 83  C 3782 6 3789 0 3834 0  C 3923 0 3923 45 3923 166  L 3923 3699  C 3923 3872 3923 4173 4582 4173  L 4582 4371  C 4358 4365 4045 4352 3834 4352  C 3622 4352 3309 4365 3085 4371  L 3085 4173  C 3744 4173 3744 3872 3744 3699  L 3744 966  L 1485 4288  C 1427 4365 1421 4371 1299 4371  L 211 4371  L 211 4173  L 397 4173  C 493 4173 621 4166 717 4160  C 864 4141 870 4134 870 4013  L 870 672  C 870 499 870 198 211 198  L 211 0  z "
                 transform="scale(0.015625)" />
              <path
                 id="CMUSerif-Roman-64"
                 d="M 218 1376  C 218 563 845 -70 1574 -70  C 1984 -70 2272 147 2432 352  L 2432 -70  L 3373 0  L 3373 198  C 2925 198 2874 243 2874 557  L 2874 4442  L 1952 4371  L 1952 4173  C 2400 4173 2451 4128 2451 3814  L 2451 2432  C 2266 2662 1990 2829 1645 2829  C 890 2829 218 2202 218 1376  z M 749 1370  C 749 1606 762 1990 947 2278  C 1082 2477 1325 2688 1670 2688  C 1894 2688 2163 2592 2362 2304  C 2432 2195 2432 2182 2432 2067  L 2432 755  C 2432 640 2432 627 2362 518  C 2170 211 1882 70 1606 70  C 1318 70 1088 237 934 480  C 768 742 749 1107 749 1370  z "
                 transform="scale(0.015625)" />
              <path
                 id="CMUSerif-Roman-67"
                 d="M 179 -506  C 179 -966 813 -1318 1594 -1318  C 2349 -1318 3014 -992 3014 -493  C 3014 -269 2925 58 2598 237  C 2259 416 1888 416 1498 416  C 1338 416 1062 416 1018 422  C 813 448 678 646 678 851  C 678 877 678 1024 787 1152  C 1037 973 1299 954 1421 954  C 2016 954 2458 1395 2458 1888  C 2458 2125 2355 2362 2195 2509  C 2426 2726 2656 2758 2771 2758  C 2784 2758 2816 2758 2835 2752  C 2765 2726 2733 2656 2733 2579  C 2733 2470 2816 2394 2918 2394  C 2982 2394 3104 2438 3104 2586  C 3104 2694 3027 2899 2778 2899  C 2650 2899 2368 2861 2099 2598  C 1830 2810 1562 2829 1421 2829  C 826 2829 384 2387 384 1894  C 384 1613 525 1370 685 1235  C 602 1139 486 928 486 704  C 486 506 570 262 768 134  C 384 26 179 -250 179 -506  z M 512 -506  C 512 -211 755 26 1037 45  L 1414 45  C 1965 45 2682 45 2682 -506  C 2682 -851 2227 -1171 1600 -1171  C 954 -1171 512 -845 512 -506  z M 864 1888  C 864 2061 870 2266 966 2426  C 1018 2502 1165 2682 1421 2682  C 1978 2682 1978 2042 1978 1894  C 1978 1722 1971 1517 1875 1357  C 1824 1280 1677 1101 1421 1101  C 864 1101 864 1741 864 1888  z "
                 transform="scale(0.015625)" />
              <path
                 id="CMUSerif-Roman-52"
                 d="M 224 0  C 454 19 909 19 1158 19  C 1408 19 1862 19 2093 0  L 2093 198  L 1939 198  C 1446 198 1434 269 1434 499  L 1434 2118  L 2170 2118  C 2272 2118 2541 2118 2765 1901  C 3008 1670 3008 1472 3008 1043  C 3008 627 3008 371 3270 128  C 3533 -102 3885 -141 4077 -141  C 4576 -141 4685 384 4685 563  C 4685 602 4685 672 4602 672  C 4531 672 4531 614 4525 570  C 4486 115 4262 0 4102 0  C 3789 0 3738 326 3648 922  L 3565 1434  C 3450 1843 3136 2054 2784 2176  C 3405 2330 3904 2720 3904 3219  C 3904 3834 3174 4371 2234 4371  L 224 4371  L 224 4173  L 378 4173  C 870 4173 883 4102 883 3872  L 883 499  C 883 269 870 198 378 198  L 224 198  L 224 0  z M 1434 2259  L 1434 3917  C 1434 4064 1434 4141 1574 4160  C 1638 4173 1824 4173 1952 4173  C 2528 4173 3245 4147 3245 3219  C 3245 2778 3091 2259 2144 2259  L 1434 2259  z "
                 transform="scale(0.015625)" />
              <path
                 id="CMUSerif-Roman-45"
                 d="M 211 0  L 3904 0  L 4173 1651  L 4013 1651  C 3853 666 3706 198 2605 198  L 1754 198  C 1453 198 1440 243 1440 454  L 1440 2163  L 2016 2163  C 2637 2163 2707 1958 2707 1414  L 2867 1414  L 2867 3110  L 2707 3110  C 2707 2560 2637 2362 2016 2362  L 1440 2362  L 1440 3898  C 1440 4109 1453 4154 1754 4154  L 2579 4154  C 3558 4154 3731 3802 3834 2912  L 3994 2912  L 3814 4352  L 211 4352  L 211 4154  L 365 4154  C 858 4154 870 4083 870 3853  L 870 499  C 870 269 858 198 365 198  L 211 198  L 211 0  z "
                 transform="scale(0.015625)" />
              <path
                 id="CMUSerif-Roman-43"
                 d="M 358 2189  C 358 864 1395 -141 2586 -141  C 3629 -141 4256 749 4256 1491  C 4256 1555 4256 1600 4173 1600  C 4102 1600 4102 1562 4096 1498  C 4045 582 3360 58 2662 58  C 2272 58 1018 275 1018 2182  C 1018 4096 2266 4314 2656 4314  C 3354 4314 3923 3731 4051 2797  C 4064 2707 4064 2688 4154 2688  C 4256 2688 4256 2707 4256 2842  L 4256 4358  C 4256 4467 4256 4512 4186 4512  C 4160 4512 4134 4512 4083 4435  L 3763 3962  C 3526 4192 3200 4512 2586 4512  C 1389 4512 358 3494 358 2189  z "
                 transform="scale(0.015625)" />
              <path
                 id="CMUSerif-Roman-4f"
                 d="M 358 2170  C 358 858 1344 -141 2483 -141  C 3648 -141 4614 877 4614 2170  C 4614 3475 3648 4512 2483 4512  C 1338 4512 358 3488 358 2170  z M 1018 2259  C 1018 3917 1952 4352 2483 4352  C 3040 4352 3955 3898 3955 2259  C 3955 563 3078 26 2490 26  C 1875 26 1018 589 1018 2259  z "
                 transform="scale(0.015625)" />
              <path
                 id="CMUSerif-Roman-6c"
                 d="M 211 0  C 422 6 762 19 922 19  C 1082 19 1395 6 1632 0  L 1632 198  C 1203 198 1133 198 1133 486  L 1133 4442  L 211 4371  L 211 4173  C 659 4173 710 4128 710 3814  L 710 486  C 710 198 640 198 211 198  L 211 0  z "
                 transform="scale(0.015625)" />
              <path
                 id="CMUSerif-Roman-79"
                 d="M 122 -794  C 122 -1082 390 -1312 710 -1312  C 1114 -1312 1376 -947 1530 -582  L 2656 2150  C 2822 2554 3149 2560 3251 2560  L 3251 2758  C 3104 2746 2918 2739 2771 2739  C 2656 2739 2355 2752 2214 2758  L 2214 2560  C 2413 2554 2515 2445 2515 2285  C 2515 2221 2509 2208 2477 2131  L 1830 557  L 1120 2278  C 1094 2342 1082 2368 1082 2394  C 1082 2560 1318 2560 1440 2560  L 1440 2758  C 1274 2752 851 2739 742 2739  C 570 2739 314 2746 122 2758  L 122 2560  C 429 2560 550 2560 640 2336  L 1600 0  C 1568 -83 1478 -294 1440 -378  C 1299 -730 1120 -1171 710 -1171  C 678 -1171 531 -1171 410 -1056  C 608 -1030 659 -890 659 -787  C 659 -621 538 -518 390 -518  C 262 -518 122 -602 122 -794  z "
                 transform="scale(0.015625)" />
              <path
                 id="CMUSerif-Roman-28"
                 d="M 634 1600  C 634 1101 704 326 1056 -397  C 1440 -1184 1990 -1600 2054 -1600  C 2093 -1600 2118 -1581 2118 -1536  C 2118 -1517 2118 -1504 2010 -1395  C 1210 -589 1005 621 1005 1600  C 1005 2714 1248 3827 2035 4627  C 2118 4704 2118 4717 2118 4736  C 2118 4781 2093 4800 2054 4800  C 1990 4800 1414 4365 1037 3552  C 710 2848 634 2138 634 1600  z "
                 transform="scale(0.015625)" />
              <path
                 id="CMUSerif-Roman-6b"
                 d="M 179 0  C 390 6 691 19 877 19  C 1069 19 1325 13 1581 0  L 1581 198  C 1152 198 1082 198 1082 486  L 1082 1146  L 1491 1498  C 1984 819 2253 461 2253 346  C 2253 224 2144 198 2022 198  L 2022 0  C 2202 6 2579 19 2714 19  C 2899 19 3085 13 3270 0  L 3270 198  C 3034 198 2893 198 2650 538  L 1837 1683  C 1830 1696 1798 1734 1798 1754  C 1798 1779 2253 2163 2317 2214  C 2720 2541 2989 2554 3123 2560  L 3123 2758  C 2938 2739 2854 2739 2675 2739  C 2445 2739 2048 2752 1958 2758  L 1958 2560  C 2080 2554 2144 2483 2144 2400  C 2144 2272 2054 2195 2003 2150  L 1101 1370  L 1101 4442  L 179 4371  L 179 4173  C 627 4173 678 4128 678 3814  L 678 486  C 678 198 608 198 179 198  L 179 0  z "
                 transform="scale(0.015625)" />
              <path
                 id="CMUSerif-Roman-56"
                 d="M 122 4173  C 538 4173 659 4173 749 3930  L 2234 0  C 2278 -122 2310 -141 2394 -141  C 2502 -141 2515 -109 2547 -19  L 3974 3744  C 4064 3981 4237 4166 4672 4173  L 4672 4371  C 4474 4358 4218 4352 4051 4352  C 3859 4352 3488 4365 3322 4371  L 3322 4173  C 3654 4166 3789 4000 3789 3853  C 3789 3802 3770 3763 3757 3725  L 2586 640  L 1363 3872  C 1325 3962 1325 3974 1325 3987  C 1325 4173 1690 4173 1850 4173  L 1850 4371  C 1619 4352 1178 4352 934 4352  C 627 4352 352 4365 122 4371  L 122 4173  z "
                 transform="scale(0.015625)" />
              <path
                 id="CMUSerif-Roman-29"
                 d="M 365 -1536  C 365 -1574 390 -1600 429 -1600  C 493 -1600 1069 -1165 1446 -352  C 1773 352 1850 1062 1850 1600  C 1850 2099 1779 2874 1427 3597  C 1043 4384 493 4800 429 4800  C 390 4800 365 4774 365 4736  C 365 4717 365 4704 486 4589  C 1114 3955 1478 2938 1478 1600  C 1478 506 1242 -621 448 -1427  C 365 -1504 365 -1517 365 -1536  z "
                 transform="scale(0.015625)" />
            </defs>
            <use
               xlink:href="#CMUSerif-Roman-4e"
               id="use210" />
            <use
               xlink:href="#CMUSerif-Roman-6f"
               transform="translate(74.999985 0)"
               id="use211" />
            <use
               xlink:href="#CMUSerif-Roman-20"
               transform="translate(124.999969 0)"
               id="use212" />
            <use
               xlink:href="#CMUSerif-Roman-64"
               transform="translate(158.299957 0)"
               id="use213" />
            <use
               xlink:href="#CMUSerif-Roman-61"
               transform="translate(213.799942 0)"
               id="use214" />
            <use
               xlink:href="#CMUSerif-Roman-6d"
               transform="translate(263.799927 0)"
               id="use215" />
            <use
               xlink:href="#CMUSerif-Roman-61"
               transform="translate(347.099915 0)"
               id="use216" />
            <use
               xlink:href="#CMUSerif-Roman-67"
               transform="translate(397.099899 0)"
               id="use217" />
            <use
               xlink:href="#CMUSerif-Roman-65"
               transform="translate(447.099884 0)"
               id="use218" />
            <use
               xlink:href="#CMUSerif-Roman-20"
               transform="translate(491.499878 0)"
               id="use219" />
            <use
               xlink:href="#CMUSerif-Roman-69"
               transform="translate(524.799866 0)"
               id="use220" />
            <use
               xlink:href="#CMUSerif-Roman-6e"
               transform="translate(552.499863 0)"
               id="use221" />
            <use
               xlink:href="#CMUSerif-Roman-20"
               transform="translate(607.999847 0)"
               id="use222" />
            <use
               xlink:href="#CMUSerif-Roman-52"
               transform="translate(641.299835 0)"
               id="use223" />
            <use
               xlink:href="#CMUSerif-Roman-45"
               transform="translate(714.899826 0)"
               id="use224" />
            <use
               xlink:href="#CMUSerif-Roman-42"
               transform="translate(782.899811 0)"
               id="use225" />
            <use
               xlink:href="#CMUSerif-Roman-43"
               transform="translate(853.699799 0)"
               id="use226" />
            <use
               xlink:href="#CMUSerif-Roman-4f"
               transform="translate(925.89978 0)"
               id="use227" />
            <use
               xlink:href="#CMUSerif-Roman-20"
               transform="translate(1003.599762 0)"
               id="use228" />
            <use
               xlink:href="#CMUSerif-Roman-6c"
               transform="translate(1036.89975 0)"
               id="use229" />
            <use
               xlink:href="#CMUSerif-Roman-61"
               transform="translate(1064.599747 0)"
               id="use230" />
            <use
               xlink:href="#CMUSerif-Roman-79"
               transform="translate(1114.599731 0)"
               id="use231" />
            <use
               xlink:href="#CMUSerif-Roman-65"
               transform="translate(1167.299728 0)"
               id="use232" />
            <use
               xlink:href="#CMUSerif-Roman-72"
               transform="translate(1211.699722 0)"
               id="use233" />
            <use
               xlink:href="#CMUSerif-Roman-20"
               transform="translate(1250.799713 0)"
               id="use234" />
            <use
               xlink:href="#CMUSerif-Roman-28"
               transform="translate(1284.099701 0)"
               id="use235" />
            <use
               xlink:href="#CMUSerif-Roman-31"
               transform="translate(1322.899689 0)"
               id="use236" />
            <use
               xlink:href="#CMUSerif-Roman-35"
               transform="translate(1372.899673 0)"
               id="use237" />
            <use
               xlink:href="#CMUSerif-Roman-30"
               transform="translate(1422.899658 0)"
               id="use238" />
            <use
               xlink:href="#CMUSerif-Roman-20"
               transform="translate(1472.899643 0)"
               id="use239" />
            <use
               xlink:href="#CMUSerif-Roman-6b"
               transform="translate(1506.199631 0)"
               id="use240" />
            <use
               xlink:href="#CMUSerif-Roman-65"
               transform="translate(1558.899628 0)"
               id="use241" />
            <use
               xlink:href="#CMUSerif-Roman-56"
               transform="translate(1603.299622 0)"
               id="use242" />
            <use
               xlink:href="#CMUSerif-Roman-29"
               transform="translate(1678.299606 0)"
               id="use243" />
          </g>
        </g>
        <g
           id="line2d_20">
          <g
             id="g244">
            <use
               xlink:href="#m46cd9be0b8"
               x="112.284"
               y="65.780625"
               style="fill: #fe9f6d; stroke: #fe9f6d; stroke-linejoin: miter"
               id="use244" />
          </g>
        </g>
        <g
           id="text_17">
          <!-- 4 x $\mathrm{10^{-5}}$ mdpa/s in REBCO (2400 keV) -->
          <g
             transform="translate(141.084 71.380625) scale(0.16 -0.16)"
             id="g279">
            <defs
               id="defs244">
              <path
                 id="CMUSerif-Roman-78"
                 d="M 77 0  C 243 13 442 19 608 19  C 794 19 1062 6 1216 0  L 1216 198  C 1075 218 1030 301 1030 397  C 1030 538 1216 749 1606 1210  L 2093 570  C 2144 499 2227 397 2227 358  C 2227 301 2170 205 1997 198  L 1997 0  C 2189 6 2547 19 2688 19  C 2861 19 3110 13 3302 0  L 3302 198  C 2957 198 2842 211 2694 397  L 1837 1504  C 2029 1747 2272 2061 2426 2227  C 2624 2458 2886 2554 3187 2560  L 3187 2758  C 3021 2746 2829 2739 2662 2739  C 2470 2739 2131 2752 2048 2758  L 2048 2560  C 2182 2547 2234 2464 2234 2362  C 2234 2259 2170 2176 2138 2138  L 1741 1638  L 1242 2285  C 1184 2349 1184 2362 1184 2400  C 1184 2496 1280 2554 1408 2560  L 1408 2758  C 1242 2752 819 2739 717 2739  C 582 2739 282 2746 109 2758  L 109 2560  C 557 2560 563 2554 864 2170  L 1498 1344  L 896 582  C 589 211 211 198 77 198  L 77 0  z "
                 transform="scale(0.015625)" />
              <path
                 id="Cmr10-30"
                 d="M 1600 -141  Q 816 -141 533 504  Q 250 1150 250 2041  Q 250 2597 351 3087  Q 453 3578 754 3920  Q 1056 4263 1600 4263  Q 2022 4263 2290 4056  Q 2559 3850 2700 3523  Q 2841 3197 2892 2823  Q 2944 2450 2944 2041  Q 2944 1491 2842 1011  Q 2741 531 2444 195  Q 2147 -141 1600 -141  z M 1600 25  Q 1956 25 2131 390  Q 2306 756 2347 1200  Q 2388 1644 2388 2144  Q 2388 2625 2347 3031  Q 2306 3438 2132 3767  Q 1959 4097 1600 4097  Q 1238 4097 1063 3765  Q 888 3434 847 3029  Q 806 2625 806 2144  Q 806 1788 823 1472  Q 841 1156 916 820  Q 991 484 1158 254  Q 1325 25 1600 25  z "
                 transform="scale(0.015625)" />
              <path
                 id="Cmr10-35"
                 d="M 556 728  Q 622 541 758 387  Q 894 234 1080 148  Q 1266 63 1466 63  Q 1928 63 2103 422  Q 2278 781 2278 1294  Q 2278 1516 2270 1667  Q 2263 1819 2228 1959  Q 2169 2184 2020 2353  Q 1872 2522 1656 2522  Q 1441 2522 1286 2456  Q 1131 2391 1034 2303  Q 938 2216 863 2119  Q 788 2022 769 2016  L 697 2016  Q 681 2016 657 2036  Q 634 2056 634 2075  L 634 4213  Q 634 4228 654 4245  Q 675 4263 697 4263  L 716 4263  Q 1147 4056 1631 4056  Q 2106 4056 2547 4263  L 2566 4263  Q 2588 4263 2606 4247  Q 2625 4231 2625 4213  L 2625 4153  Q 2625 4122 2613 4122  Q 2394 3831 2064 3668  Q 1734 3506 1381 3506  Q 1125 3506 856 3578  L 856 2369  Q 1069 2541 1236 2614  Q 1403 2688 1663 2688  Q 2016 2688 2295 2484  Q 2575 2281 2725 1954  Q 2875 1628 2875 1288  Q 2875 903 2686 575  Q 2497 247 2172 53  Q 1847 -141 1466 -141  Q 1150 -141 886 21  Q 622 184 470 459  Q 319 734 319 1044  Q 319 1188 412 1278  Q 506 1369 647 1369  Q 788 1369 883 1276  Q 978 1184 978 1044  Q 978 906 883 811  Q 788 716 647 716  Q 625 716 597 720  Q 569 725 556 728  z "
                 transform="scale(0.015625)" />
              <path
                 id="CMUSerif-Roman-2f"
                 d="M 365 -1510  C 365 -1549 384 -1587 422 -1587  C 474 -1587 493 -1555 544 -1414  L 2810 4627  C 2816 4653 2829 4685 2829 4710  C 2829 4762 2790 4787 2765 4787  C 2694 4787 2669 4672 2650 4627  L 390 -1408  C 365 -1478 365 -1491 365 -1510  z "
                 transform="scale(0.015625)" />
            </defs>
            <use
               xlink:href="#CMUSerif-Roman-34"
               transform="translate(0 0.223438)"
               id="use245" />
            <use
               xlink:href="#CMUSerif-Roman-20"
               transform="translate(49.999985 0.223438)"
               id="use246" />
            <use
               xlink:href="#CMUSerif-Roman-78"
               transform="translate(83.299973 0.223438)"
               id="use247" />
            <use
               xlink:href="#CMUSerif-Roman-20"
               transform="translate(135.999969 0.223438)"
               id="use248" />
            <use
               xlink:href="#Cmr10-31"
               transform="translate(169.299957 0.223438)"
               id="use249" />
            <use
               xlink:href="#Cmr10-30"
               transform="translate(219.299957 0.223438)"
               id="use250" />
            <use
               xlink:href="#Cmsy10-a1"
               transform="translate(273.867457 39.373438) scale(0.7)"
               id="use251" />
            <use
               xlink:href="#Cmr10-35"
               transform="translate(328.24734 39.373438) scale(0.7)"
               id="use252" />
            <use
               xlink:href="#CMUSerif-Roman-20"
               transform="translate(369.77234 0.223438)"
               id="use253" />
            <use
               xlink:href="#CMUSerif-Roman-6d"
               transform="translate(403.072328 0.223438)"
               id="use254" />
            <use
               xlink:href="#CMUSerif-Roman-64"
               transform="translate(486.372316 0.223438)"
               id="use255" />
            <use
               xlink:href="#CMUSerif-Roman-70"
               transform="translate(541.8723 0.223438)"
               id="use256" />
            <use
               xlink:href="#CMUSerif-Roman-61"
               transform="translate(597.372285 0.223438)"
               id="use257" />
            <use
               xlink:href="#CMUSerif-Roman-2f"
               transform="translate(647.37227 0.223438)"
               id="use258" />
            <use
               xlink:href="#CMUSerif-Roman-73"
               transform="translate(697.372255 0.223438)"
               id="use259" />
            <use
               xlink:href="#CMUSerif-Roman-20"
               transform="translate(736.772249 0.223438)"
               id="use260" />
            <use
               xlink:href="#CMUSerif-Roman-69"
               transform="translate(770.072236 0.223438)"
               id="use261" />
            <use
               xlink:href="#CMUSerif-Roman-6e"
               transform="translate(797.772233 0.223438)"
               id="use262" />
            <use
               xlink:href="#CMUSerif-Roman-20"
               transform="translate(853.272218 0.223438)"
               id="use263" />
            <use
               xlink:href="#CMUSerif-Roman-52"
               transform="translate(886.572206 0.223438)"
               id="use264" />
            <use
               xlink:href="#CMUSerif-Roman-45"
               transform="translate(960.172197 0.223438)"
               id="use265" />
            <use
               xlink:href="#CMUSerif-Roman-42"
               transform="translate(1028.172181 0.223438)"
               id="use266" />
            <use
               xlink:href="#CMUSerif-Roman-43"
               transform="translate(1098.972169 0.223438)"
               id="use267" />
            <use
               xlink:href="#CMUSerif-Roman-4f"
               transform="translate(1171.172151 0.223438)"
               id="use268" />
            <use
               xlink:href="#CMUSerif-Roman-20"
               transform="translate(1248.872133 0.223438)"
               id="use269" />
            <use
               xlink:href="#CMUSerif-Roman-28"
               transform="translate(1282.17212 0.223438)"
               id="use270" />
            <use
               xlink:href="#CMUSerif-Roman-32"
               transform="translate(1320.972108 0.223438)"
               id="use271" />
            <use
               xlink:href="#CMUSerif-Roman-34"
               transform="translate(1370.972093 0.223438)"
               id="use272" />
            <use
               xlink:href="#CMUSerif-Roman-30"
               transform="translate(1420.972078 0.223438)"
               id="use273" />
            <use
               xlink:href="#CMUSerif-Roman-30"
               transform="translate(1470.972062 0.223438)"
               id="use274" />
            <use
               xlink:href="#CMUSerif-Roman-20"
               transform="translate(1520.972047 0.223438)"
               id="use275" />
            <use
               xlink:href="#CMUSerif-Roman-6b"
               transform="translate(1554.272035 0.223438)"
               id="use276" />
            <use
               xlink:href="#CMUSerif-Roman-65"
               transform="translate(1606.972032 0.223438)"
               id="use277" />
            <use
               xlink:href="#CMUSerif-Roman-56"
               transform="translate(1651.372026 0.223438)"
               id="use278" />
            <use
               xlink:href="#CMUSerif-Roman-29"
               transform="translate(1726.37201 0.223438)"
               id="use279" />
          </g>
        </g>
      </g>
    </g>
  </g>
  <defs
     id="defs279">
    <clipPath
       id="p6b96aaad3d">
      <rect
         x="81.884"
         y="19.220625"
         width="543.346"
         height="557.018125"
         id="rect279" />
    </clipPath>
  </defs>
  <text
     xml:space="preserve"
     style="font-size:24px;line-height:0.8;font-family:'CMU Serif';-inkscape-font-specification:'CMU Serif, Normal';text-align:center;word-spacing:0px;text-anchor:middle;fill:#999999;fill-opacity:1;stroke:none;stroke-width:3;paint-order:markers stroke fill"
     x="255.18803"
     y="518.4505"
     id="text279"
     transform="rotate(-41.682753)"><tspan
       sodipodi:role="line"
       id="tspan279"
       style="fill:#999999;fill-opacity:1;stroke:none;stroke-width:3"
       x="255.18803"
       y="518.4505">ffj37 (fit line)</tspan></text>
</svg>
