<?xml version="1.0" encoding="UTF-8" standalone="no"?>
<svg
   width="700"
   height="580"
   viewBox="0 0 700 580"
   version="1.1"
   id="svg352"
   sodipodi:docname="histogram.svg"
   inkscape:version="1.3.2 (091e20e, 2023-11-25)"
   xml:space="preserve"
   inkscape:export-filename="histogram.png"
   inkscape:export-xdpi="96"
   inkscape:export-ydpi="96"
   xmlns:inkscape="http://www.inkscape.org/namespaces/inkscape"
   xmlns:sodipodi="http://sodipodi.sourceforge.net/DTD/sodipodi-0.dtd"
   xmlns:xlink="http://www.w3.org/1999/xlink"
   xmlns="http://www.w3.org/2000/svg"
   xmlns:svg="http://www.w3.org/2000/svg"><defs
     id="defs352"><clipPath
       id="clip2"
       clip-path="url(#clip1)"><path
         d="M -99999,53.5 V 100001 H 100001 V 53.5 Z"
         id="path6" /></clipPath><clipPath
       clipPathUnits="userSpaceOnUse"
       id="clipPath357"><g
         id="g358"
         transform="translate(1481.8136,-30.666608)"><path
           d="M -101480.31,111.16661 V 100032.17 H 98519.686 V 111.16661 Z"
           id="path357" /></g></clipPath><clipPath
       id="clip23-2"
       clip-path="url(#clip22)"><path
         d="m 1581.5,81.5 v 98 h 183 v -98 z"
         id="path266-0" /></clipPath><clipPath
       id="clip24"
       clip-path="url(#clip23-2)"><path
         d="M 1582,81.5 V 180 h 183 V 81.5 Z"
         id="path267" /></clipPath><clipPath
       id="clip25"
       clip-path="url(#clip23-2)"><path
         d="M 1582,81.5 V 180 h 183 V 81.5 Z"
         id="path274" /></clipPath><clipPath
       clipPathUnits="userSpaceOnUse"
       id="clipPath362"><g
         id="g365"
         transform="translate(1524.9059,30.833392)"><g
           id="g364"><g
             id="g363"
             transform="translate(-43.092285,-61.5)"><path
               d="m -99999.5,26.5 v 99974 h 200000 V 26.5 Z"
               id="path362" /></g></g></g></clipPath><clipPath
       clipPathUnits="userSpaceOnUse"
       id="clipPath368"><g
         id="g371"
         transform="translate(43.092285,61.5)"><g
           id="g370"><g
             id="g369"
             transform="translate(-43.092285,-61.5)"><path
               d="m -99999.5,26.5 v 99974 h 200000 V 26.5 Z"
               id="path368" /></g></g></g></clipPath><clipPath
       clipPathUnits="userSpaceOnUse"
       id="clipPath374"><g
         id="g377"
         transform="translate(43.092285,61.5)"><g
           id="g376"><g
             id="g375"
             transform="translate(-43.092285,-61.5)"><path
               d="m -99999.5,26.5 v 99974 h 200000 V 26.5 Z"
               id="path374" /></g></g></g></clipPath><clipPath
       clipPathUnits="userSpaceOnUse"
       id="clipPath377"><g
         id="g380"
         transform="translate(43.092285,61.5)"><g
           id="g379"><g
             id="g378"
             transform="translate(-43.092285,-61.5)"><path
               d="m -99999.5,26.5 v 99974 h 200000 V 26.5 Z"
               id="path377" /></g></g></g></clipPath><clipPath
       id="clip5"
       clip-path="url(#clip2)"><path
         d="m 36.5,535.5 v 28 h 679 v -28 z"
         id="path47" /></clipPath><clipPath
       clipPathUnits="userSpaceOnUse"
       id="clipPath30"><g
         id="g35"
         transform="translate(37.36792,66.416465)"><g
           id="g34"><g
             id="g33"
             transform="translate(5.724365,-4.916465)"><g
               id="g32"><g
                 id="g31"
                 transform="translate(-43.092285,-61.5)"><path
                   d="m -99999.5,26.5 v 99974 h 200000 V 26.5 Z"
                   id="path30" /></g></g></g></g></g></clipPath><style
       type="text/css"
       id="style1">*{stroke-linejoin: round; stroke-linecap: butt}</style><path
       id="me1b0c25e5e"
       d="M 0,0 V 3.5"
       style="stroke:#000000;stroke-width:0.8" /><path
       id="CenturyGothic-30"
       d="m 203,2297 q 0,909 195,1406 196,497 552,753 356,257 797,257 447,0 809,-258 363,-258 574,-774 211,-515 211,-1384 0,-866 -208,-1379 Q 2925,406 2559,145 2194,-116 1747,-116 1306,-116 953,137 600,391 401,892 203,1394 203,2297 Z m 435,-9 q 0,-779 139,-1177 139,-398 410,-605 272,-206 576,-206 306,0 571,201 266,202 404,605 171,491 171,1182 0,693 -153,1135 -153,443 -423,647 -270,205 -570,205 -307,0 -576,-205 Q 919,3866 778,3467 638,3069 638,2288 Z"
       transform="scale(0.015625)" /><path
       id="CenturyGothic-35"
       d="M 3147,4597 V 4159 H 1509 L 1281,2906 q 300,88 541,88 628,0 1036,-421 408,-420 408,-1076 0,-453 -210,-831 -209,-378 -567,-580 -358,-202 -826,-202 -560,0 -945,342 -384,343 -459,887 h 472 q 53,-266 180,-432 127,-165 337,-267 211,-101 443,-101 453,0 778,343 325,344 325,860 0,465 -294,756 -294,291 -784,291 -407,0 -985,-247 l 425,2281 z"
       transform="scale(0.015625)" /><path
       id="CenturyGothic-31"
       d="m 1184,4597 h 904 V 0 H 1631 V 4147 H 909 Z"
       transform="scale(0.015625)" /><path
       id="CenturyGothic-32"
       d="M 741,3156 H 300 q 19,682 455,1119 436,438 1076,438 635,0 1027,-410 392,-409 392,-965 0,-391 -188,-733 -187,-342 -728,-927 L 1191,444 H 3313 V 0 H 191 l 1756,1897 q 534,572 695,848 161,277 161,583 0,388 -289,667 -289,280 -708,280 -440,0 -733,-294 -292,-293 -332,-825 z"
       transform="scale(0.015625)" /><path
       id="CenturyGothic-33"
       d="M 847,3531 H 378 q 128,569 490,875 363,307 857,307 359,0 670,-165 311,-164 481,-442 171,-278 171,-581 0,-594 -591,-941 332,-134 544,-393 300,-366 300,-819 0,-391 -206,-746 Q 2888,272 2531,78 2175,-116 1734,-116 1141,-116 744,226 347,569 225,1231 h 450 q 119,-447 341,-647 284,-253 725,-253 500,0 803,300 303,300 303,703 0,269 -152,503 -151,235 -406,353 -255,119 -789,148 v 421 q 316,0 575,111 259,111 376,283 118,172 118,375 0,300 -239,519 -239,219 -605,219 -297,0 -513,-168 -215,-167 -365,-567 z"
       transform="scale(0.015625)" /><path
       id="CenturyGothic-49"
       d="M 494,4597 H 953 V 0 H 494 Z"
       transform="scale(0.015625)" /><path
       id="CenturyGothic-6f"
       d="m 2097,3488 q 784,0 1300,-569 469,-519 469,-1228 Q 3866,978 3370,445 2875,-88 2097,-88 1316,-88 820,445 325,978 325,1691 q 0,706 469,1225 515,572 1303,572 z m 0,-429 q -544,0 -935,-403 -390,-403 -390,-975 0,-368 178,-687 178,-319 481,-493 303,-173 666,-173 362,0 665,173 304,174 482,493 178,319 178,687 0,572 -392,975 -392,403 -933,403 z"
       transform="scale(0.015625)" /><path
       id="CenturyGothic-6e"
       d="m 488,3400 h 437 v -609 q 263,350 581,523 319,174 694,174 381,0 676,-194 296,-194 436,-522 141,-328 141,-1022 V 0 h -434 v 1622 q 0,587 -50,784 -78,338 -294,508 -216,170 -562,170 -397,0 -711,-263 -314,-262 -414,-649 -63,-253 -63,-925 V 0 H 488 Z"
       transform="scale(0.015625)" /><path
       id="CenturyGothic-20"
       transform="scale(0.015625)"
       d="" /><path
       id="CenturyGothic-42"
       d="m 572,4597 h 906 q 547,0 841,-130 294,-129 464,-398 170,-269 170,-597 0,-306 -150,-558 -150,-251 -440,-408 359,-122 552,-286 194,-164 302,-397 108,-232 108,-504 0,-553 -405,-936 Q 2516,0 1834,0 H 572 Z m 450,-450 V 2675 h 262 q 479,0 704,89 225,89 356,281 131,193 131,427 0,316 -221,495 -220,180 -701,180 z m 0,-1934 V 450 h 569 q 503,0 737,98 235,99 377,308 142,210 142,453 0,307 -200,535 -200,228 -550,312 -234,57 -816,57 z"
       transform="scale(0.015625)" /><path
       id="CenturyGothic-65"
       d="M 3350,1128 3719,934 Q 3538,578 3300,359 3063,141 2766,26 2469,-88 2094,-88 1263,-88 794,457 325,1003 325,1691 q 0,647 397,1153 503,644 1347,644 869,0 1387,-660 369,-465 375,-1162 H 775 q 13,-594 378,-974 366,-379 903,-379 260,0 505,90 245,91 417,241 172,150 372,484 z m 0,916 q -87,350 -255,559 -167,210 -442,338 -275,128 -578,128 -500,0 -859,-322 -263,-234 -397,-703 z"
       transform="scale(0.015625)" /><path
       id="CenturyGothic-61"
       d="M 3875,3400 V 0 H 3444 V 584 Q 3169,250 2826,81 2484,-88 2078,-88 1356,-88 845,435 334,959 334,1709 q 0,735 516,1257 516,522 1241,522 418,0 757,-179 340,-178 596,-534 v 625 z M 2125,3066 q -366,0 -675,-180 -309,-180 -492,-505 -183,-325 -183,-687 0,-360 184,-688 185,-328 496,-511 311,-182 667,-182 359,0 681,181 322,181 495,490 174,310 174,697 0,591 -389,988 -389,397 -958,397 z"
       transform="scale(0.015625)" /><path
       id="CenturyGothic-6d"
       d="m 484,3400 h 435 v -587 q 228,325 469,475 331,200 696,200 247,0 469,-97 222,-97 362,-258 141,-161 244,-461 219,400 547,608 328,208 707,208 353,0 623,-179 270,-178 401,-497 132,-318 132,-956 V 0 h -447 v 1856 q 0,547 -78,752 -78,205 -267,330 -189,125 -452,125 -319,0 -583,-188 -264,-187 -386,-500 -122,-312 -122,-1044 V 0 h -434 v 1741 q 0,615 -77,835 -76,221 -267,354 -190,133 -453,133 -303,0 -567,-183 Q 1172,2697 1045,2387 919,2078 919,1441 V 0 H 484 Z"
       transform="scale(0.015625)" /><path
       id="CenturyGothic-50"
       d="m 556,4597 h 916 q 787,0 1062,-69 394,-97 644,-399 250,-301 250,-757 0,-459 -244,-758 -243,-298 -671,-401 -313,-75 -1169,-75 H 1016 V 0 H 556 Z m 460,-447 V 2588 l 778,-10 q 472,0 690,86 219,86 344,278 125,192 125,430 0,231 -125,423 -125,193 -330,274 -204,81 -670,81 z"
       transform="scale(0.015625)" /><path
       id="CenturyGothic-77"
       d="M 28,3400 H 478 L 1519,931 2609,3400 h 79 L 3775,931 4834,3400 h 457 L 3816,0 h -85 L 2650,2434 1559,0 h -81 z"
       transform="scale(0.015625)" /><path
       id="CenturyGothic-72"
       d="m 322,3400 h 447 v -497 q 200,294 422,439 222,146 462,146 181,0 388,-116 l -228,-369 q -138,60 -232,60 -218,0 -422,-180 Q 956,2703 850,2325 769,2034 769,1150 V 0 H 322 Z"
       transform="scale(0.015625)" /><path
       id="CenturyGothic-5b"
       d="M 906,4713 H 1956 V 4269 H 1344 V -816 h 612 v -428 H 906 Z"
       transform="scale(0.015625)" /><path
       id="CenturyGothic-57"
       d="m 300,4597 h 472 l 934,-3313 1319,3313 h 94 l 1303,-3313 953,3313 h 469 L 4525,0 h -87 L 3075,3478 1684,0 h -87 z"
       transform="scale(0.015625)" /><path
       id="CenturyGothic-5d"
       d="M 1341,-1244 H 291 v 444 H 900 V 4284 H 291 v 429 h 1050 z"
       transform="scale(0.015625)" /><path
       id="m81d9f8d39d"
       d="M 0,0 H -3.5"
       style="stroke:#000000;stroke-width:0.8" /><path
       id="CenturyGothic-34"
       d="m 2725,4713 h 94 V 1509 h 556 V 1069 H 2819 V 0 H 2359 V 1069 H 163 Z M 2359,1509 V 3425 L 1006,1509 Z"
       transform="scale(0.015625)" /><path
       id="CenturyGothic-36"
       d="M 2347,4713 2725,4466 1484,2584 q 250,85 469,85 547,0 928,-396 382,-395 382,-973 0,-397 -185,-717 -184,-320 -523,-510 -339,-189 -730,-189 -378,0 -702,183 -323,183 -508,514 -184,332 -184,710 0,281 114,592 114,311 408,748 z M 1844,2266 q -400,0 -683,-283 -283,-283 -283,-686 0,-400 283,-683 283,-283 683,-283 400,0 682,283 283,283 283,683 0,403 -283,686 -282,283 -682,283 z"
       transform="scale(0.015625)" /><path
       id="CenturyGothic-37"
       d="M 459,4597 H 3375 L 916,-116 538,78 2663,4163 H 459 Z"
       transform="scale(0.015625)" /><path
       id="CenturyGothic-38"
       d="m 2459,2522 q 466,-231 667,-528 202,-297 202,-675 0,-531 -347,-938 -425,-497 -1215,-497 -763,0 -1157,436 -393,436 -393,961 0,385 206,692 206,308 687,549 -337,175 -506,434 -169,260 -169,557 0,300 180,585 180,286 497,450 317,165 686,165 359,0 665,-166 307,-166 480,-450 174,-284 174,-597 0,-312 -164,-556 -164,-244 -493,-422 z m -684,1744 q -378,0 -627,-224 -248,-223 -248,-533 0,-306 267,-555 267,-248 624,-248 228,0 431,112 203,113 317,308 114,196 114,393 0,278 -225,512 -225,235 -653,235 z m 22,-1975 q -475,0 -797,-308 -322,-308 -322,-717 0,-253 137,-478 138,-225 385,-347 247,-122 572,-122 503,0 800,297 297,297 297,693 0,385 -314,683 -314,299 -758,299 z"
       transform="scale(0.015625)" /><path
       id="DejaVuSans-3c1"
       d="m 863,2875 q 190,319 662,600 184,109 753,109 638,0 1036,-506 399,-506 399,-1331 Q 3713,922 3314,415 2916,-91 2278,-91 1894,-91 1617,61 1341,213 1159,525 V -1331 H 581 v 3047 q 0,722 282,1159 z M 3116,1747 q 0,634 -261,995 -261,361 -717,361 -457,0 -718,-361 -261,-361 -261,-995 0,-634 261,-995 261,-361 718,-361 456,0 717,361 261,361 261,995 z"
       transform="scale(0.015625)" /><path
       id="DejaVuSans-66"
       d="m 2375,4863 v -479 h -550 q -309,0 -430,-125 -120,-125 -120,-450 v -309 h 947 V 3053 H 1275 V 0 H 697 V 3053 H 147 v 447 h 550 v 244 q 0,584 272,851 272,268 862,268 z"
       transform="scale(0.015625)" /><path
       id="DejaVuSans-6a"
       d="m 603,3500 h 575 V -63 q 0,-668 -255,-968 -254,-300 -820,-300 h -219 v 487 H 38 q 328,0 446,152 119,151 119,629 z m 0,1363 h 575 V 4134 H 603 Z"
       transform="scale(0.015625)" /><path
       id="DejaVuSans-32"
       d="M 1228,531 H 3431 V 0 H 469 v 531 q 359,372 979,998 621,627 780,809 303,340 423,576 121,236 121,464 0,372 -261,606 -261,235 -680,235 -297,0 -627,-103 -329,-103 -704,-313 v 638 q 381,153 712,231 332,78 607,78 725,0 1156,-363 431,-362 431,-968 0,-288 -108,-546 -107,-257 -392,-607 -78,-91 -497,-524 Q 1991,1309 1228,531 Z"
       transform="scale(0.015625)" /><path
       id="DejaVuSans-38"
       d="m 2034,2216 q -450,0 -708,-241 -257,-241 -257,-662 0,-422 257,-663 258,-241 708,-241 450,0 709,242 260,243 260,662 0,421 -258,662 -257,241 -711,241 z m -631,268 q -406,100 -633,378 -226,279 -226,679 0,559 398,884 399,325 1092,325 697,0 1094,-325 397,-325 397,-884 0,-400 -227,-679 -226,-278 -629,-378 456,-106 710,-416 255,-309 255,-755 Q 3634,634 3220,271 2806,-91 2034,-91 1263,-91 848,271 434,634 434,1313 q 0,446 256,755 257,310 713,416 z m -231,997 q 0,-362 226,-565 227,-203 636,-203 407,0 636,203 230,203 230,565 0,363 -230,566 -229,203 -636,203 -409,0 -636,-203 -226,-203 -226,-566 z"
       transform="scale(0.015625)" /><path
       id="DejaVuSans-22c5"
       d="m 684,2619 h 660 V 1825 H 684 Z"
       transform="scale(0.015625)" /><path
       id="DejaVuSans-28"
       d="m 1984,4856 q -418,-718 -622,-1422 -203,-703 -203,-1425 0,-721 205,-1429 205,-708 620,-1424 h -500 q -468,735 -701,1444 -233,709 -233,1409 0,697 231,1403 232,707 703,1444 z"
       transform="scale(0.015625)" /><path
       id="DejaVuSans-54"
       d="M -19,4666 H 3928 V 4134 H 2272 V 0 H 1638 V 4134 H -19 Z"
       transform="scale(0.015625)" /><path
       id="DejaVuSans-52"
       d="m 2841,2188 q 203,-69 395,-294 192,-225 386,-619 L 4263,0 h -679 l -596,1197 q -232,469 -449,622 -217,153 -592,153 H 1259 V 0 H 628 v 4666 h 1425 q 800,0 1194,-335 394,-334 394,-1009 0,-441 -205,-732 -205,-290 -595,-402 z M 1259,4147 V 2491 h 794 q 456,0 689,211 233,211 233,620 0,409 -233,617 -233,208 -689,208 z"
       transform="scale(0.015625)" /><path
       id="DejaVuSans-45"
       d="M 628,4666 H 3578 V 4134 H 1259 V 2753 H 3481 V 2222 H 1259 V 531 H 3634 V 0 H 628 Z"
       transform="scale(0.015625)" /><path
       id="DejaVuSans-42"
       d="M 1259,2228 V 519 h 1013 q 509,0 754,211 246,211 246,645 0,438 -246,645 -245,208 -754,208 z m 0,1919 V 2741 h 935 q 462,0 688,173 227,174 227,530 0,353 -227,528 -226,175 -688,175 z m -631,519 h 1613 q 722,0 1112,-300 391,-300 391,-853 0,-429 -200,-682 -200,-253 -588,-315 466,-100 724,-418 258,-317 258,-792 0,-625 -425,-966 Q 3088,0 2303,0 H 628 Z"
       transform="scale(0.015625)" /><path
       id="DejaVuSans-43"
       d="m 4122,4306 v -665 q -319,297 -680,443 -361,147 -767,147 -800,0 -1225,-489 -425,-489 -425,-1414 0,-922 425,-1411 425,-489 1225,-489 406,0 767,147 361,147 680,444 V 359 Q 3791,134 3420,21 3050,-91 2638,-91 1578,-91 968,557 359,1206 359,2328 q 0,1125 609,1773 610,649 1670,649 418,0 788,-111 371,-111 696,-333 z"
       transform="scale(0.015625)" /><path
       id="DejaVuSans-4f"
       d="m 2522,4238 q -688,0 -1093,-513 -404,-512 -404,-1397 0,-881 404,-1394 405,-512 1093,-512 687,0 1089,512 402,513 402,1394 0,885 -402,1397 -402,513 -1089,513 z m 0,512 q 981,0 1568,-658 588,-658 588,-1764 0,-1103 -588,-1761 -587,-658 -1568,-658 -984,0 -1574,656 -589,657 -589,1763 0,1106 589,1764 590,658 1574,658 z"
       transform="scale(0.015625)" /><path
       id="DejaVuSans-2212"
       d="M 678,2272 H 4684 V 1741 H 678 Z"
       transform="scale(0.015625)" /><path
       id="DejaVuSans-6f"
       d="m 1959,3097 q -462,0 -731,-361 -269,-361 -269,-989 0,-628 267,-989 268,-361 733,-361 460,0 728,362 269,363 269,988 0,622 -269,986 -268,364 -728,364 z m 0,487 q 750,0 1178,-488 429,-487 429,-1349 Q 3566,888 3137,398 2709,-91 1959,-91 1206,-91 779,398 353,888 353,1747 q 0,862 426,1349 427,488 1180,488 z"
       transform="scale(0.015625)" /><path
       id="DejaVuSans-6c"
       d="m 603,4863 h 575 V 0 H 603 Z"
       transform="scale(0.015625)" /><path
       id="DejaVuSans-64"
       d="m 2906,2969 v 1894 h 575 V 0 H 2906 V 525 Q 2725,213 2448,61 2172,-91 1784,-91 1150,-91 751,415 353,922 353,1747 q 0,825 398,1331 399,506 1033,506 388,0 664,-152 277,-151 458,-463 z M 947,1747 q 0,-634 261,-995 261,-361 717,-361 456,0 718,361 263,361 263,995 0,634 -263,995 -262,361 -718,361 -456,0 -717,-361 -261,-361 -261,-995 z"
       transform="scale(0.015625)" /><path
       id="DejaVuSans-6d"
       d="m 3328,2828 q 216,388 516,572 300,184 706,184 547,0 844,-383 297,-382 297,-1088 V 0 h -578 v 2094 q 0,503 -179,746 -178,244 -543,244 -447,0 -707,-297 -259,-296 -259,-809 V 0 h -578 v 2094 q 0,506 -178,748 -178,242 -550,242 -441,0 -701,-298 -259,-298 -259,-808 V 0 H 581 v 3500 h 578 v -544 q 197,322 472,475 275,153 653,153 382,0 649,-194 267,-193 395,-562 z"
       transform="scale(0.015625)" /><path
       id="DejaVuSans-61"
       d="m 2194,1759 q -697,0 -966,-159 -269,-159 -269,-544 0,-306 202,-486 202,-179 548,-179 479,0 768,339 289,339 289,901 v 128 z m 1147,238 V 0 H 2766 V 531 Q 2569,213 2275,61 1981,-91 1556,-91 q -537,0 -855,302 -317,302 -317,808 0,590 395,890 396,300 1180,300 h 807 v 57 q 0,397 -261,614 -261,217 -733,217 -300,0 -585,-72 -284,-72 -546,-216 v 532 q 315,122 612,182 297,61 578,61 760,0 1135,-394 375,-393 375,-1193 z"
       transform="scale(0.015625)" /><path
       id="DejaVuSans-73"
       d="m 2834,3397 v -544 q -243,125 -506,187 -262,63 -544,63 -428,0 -642,-131 -214,-131 -214,-394 0,-200 153,-314 153,-114 616,-217 l 197,-44 q 612,-131 870,-370 258,-239 258,-667 0,-488 -386,-773 Q 2250,-91 1575,-91 1294,-91 989,-36 684,19 347,128 v 594 q 319,-166 628,-249 309,-82 613,-82 406,0 624,139 219,139 219,392 0,234 -158,359 -157,125 -692,241 l -200,47 q -534,112 -772,345 -237,233 -237,639 0,494 350,762 350,269 994,269 318,0 599,-47 282,-46 519,-140 z"
       transform="scale(0.015625)" /><path
       id="DejaVuSans-29"
       d="m 513,4856 h 500 q 468,-737 701,-1444 233,-706 233,-1403 0,-700 -233,-1409 -233,-709 -701,-1444 H 513 q 415,716 620,1424 205,708 205,1429 0,722 -205,1425 -205,704 -620,1422 z"
       transform="scale(0.015625)" /><path
       id="CenturyGothic-4b"
       d="m 559,4597 h 469 V 2872 l 1835,1725 h 621 L 1275,2534 3656,0 H 3047 L 1028,2144 V 0 H 559 Z"
       transform="scale(0.015625)" /><path
       id="mf853157fe4"
       d="M -4,0 H 4 M 0,4 v -8"
       style="stroke:#482475" /><path
       id="m0efb70679b"
       d="M -4,0 H 4 M 0,4 v -8"
       style="stroke:#414487" /><path
       id="m5be706ca96"
       d="M -4,0 H 4 M 0,4 v -8"
       style="stroke:#355f8d" /><path
       id="m5d8e69ec72"
       d="M -4,0 H 4 M 0,4 v -8"
       style="stroke:#2a788e" /><path
       id="md6ece257b9"
       d="M -4,0 H 4 M 0,4 v -8"
       style="stroke:#21918c" /><path
       id="m0f78bcd493"
       d="M -4,0 H 4 M 0,4 v -8"
       style="stroke:#22a884" /><path
       id="maf9b314fb2"
       d="M -4,0 H 4 M 0,4 v -8"
       style="stroke:#44bf70" /><path
       id="m1b6ad6cdd0"
       d="M -4,0 H 4 M 0,4 v -8"
       style="stroke:#7ad151" /><path
       id="m5ba36712f3"
       d="M -4,0 H 4 M 0,4 v -8"
       style="stroke:#bddf26" /><path
       id="CenturyGothic-66"
       d="m 1888,4713 v -429 q -241,104 -413,104 -128,0 -213,-52 -84,-52 -106,-119 -22,-67 -22,-358 v -459 h 710 V 3025 H 1131 V 0 H 694 V 3025 H 247 v 375 h 447 v 531 q 0,366 67,522 67,156 228,251 161,96 389,96 213,0 510,-87 z"
       transform="scale(0.015625)" /><path
       id="CenturyGothic-6a"
       d="m 650,4800 q 150,0 254,-106 105,-106 105,-256 0,-147 -105,-254 -104,-106 -254,-106 -150,0 -255,106 -104,107 -104,254 0,150 104,256 105,106 255,106 z M 434,3400 H 878 V -513 q 0,-428 -155,-623 -154,-195 -423,-195 -222,0 -500,106 v 394 q 175,-91 316,-91 178,0 265,147 53,94 53,391 z"
       transform="scale(0.015625)" /><path
       id="CenturyGothic-39"
       d="M 1228,-116 850,128 2091,2009 q -250,-81 -469,-81 -547,0 -928,395 -381,396 -381,974 0,397 184,715 184,319 523,510 339,191 727,191 381,0 704,-185 324,-184 508,-516 185,-331 185,-706 0,-284 -114,-595 -114,-311 -408,-748 z m 500,2447 q 403,0 686,283 283,283 283,683 0,400 -283,683 -283,283 -686,283 -400,0 -683,-283 -282,-283 -282,-683 0,-400 282,-683 283,-283 683,-283 z"
       transform="scale(0.015625)" /><clipPath
       id="p2cec9a55d1"><rect
         x="80.610001"
         y="27"
         width="318.17999"
         height="340.72"
         id="rect1474" /></clipPath><style
       type="text/css"
       id="style1-5">*{stroke-linejoin: round; stroke-linecap: butt}</style><path
       id="m50973b3450"
       d="M 0,0 V 3.5"
       style="stroke:#000000;stroke-width:0.8" /><path
       id="CenturyGothic-38-4"
       d="m 2459,2522 q 466,-231 667,-528 202,-297 202,-675 0,-531 -347,-938 -425,-497 -1215,-497 -763,0 -1157,436 -393,436 -393,961 0,385 206,692 206,308 687,549 -337,175 -506,434 -169,260 -169,557 0,300 180,585 180,286 497,450 317,165 686,165 359,0 665,-166 307,-166 480,-450 174,-284 174,-597 0,-312 -164,-556 -164,-244 -493,-422 z m -684,1744 q -378,0 -627,-224 -248,-223 -248,-533 0,-306 267,-555 267,-248 624,-248 228,0 431,112 203,113 317,308 114,196 114,393 0,278 -225,512 -225,235 -653,235 z m 22,-1975 q -475,0 -797,-308 -322,-308 -322,-717 0,-253 137,-478 138,-225 385,-347 247,-122 572,-122 503,0 800,297 297,297 297,693 0,385 -314,683 -314,299 -758,299 z"
       transform="scale(0.015625)" /><path
       id="CenturyGothic-31-3"
       d="m 1184,4597 h 904 V 0 H 1631 V 4147 H 909 Z"
       transform="scale(0.015625)" /><path
       id="CenturyGothic-30-7"
       d="m 203,2297 q 0,909 195,1406 196,497 552,753 356,257 797,257 447,0 809,-258 363,-258 574,-774 211,-515 211,-1384 0,-866 -208,-1379 Q 2925,406 2559,145 2194,-116 1747,-116 1306,-116 953,137 600,391 401,892 203,1394 203,2297 Z m 435,-9 q 0,-779 139,-1177 139,-398 410,-605 272,-206 576,-206 306,0 571,201 266,202 404,605 171,491 171,1182 0,693 -153,1135 -153,443 -423,647 -270,205 -570,205 -307,0 -576,-205 Q 919,3866 778,3467 638,3069 638,2288 Z"
       transform="scale(0.015625)" /><path
       id="CenturyGothic-32-8"
       d="M 741,3156 H 300 q 19,682 455,1119 436,438 1076,438 635,0 1027,-410 392,-409 392,-965 0,-391 -188,-733 -187,-342 -728,-927 L 1191,444 H 3313 V 0 H 191 l 1756,1897 q 534,572 695,848 161,277 161,583 0,388 -289,667 -289,280 -708,280 -440,0 -733,-294 -292,-293 -332,-825 z"
       transform="scale(0.015625)" /><path
       id="CenturyGothic-34-8"
       d="m 2725,4713 h 94 V 1509 h 556 V 1069 H 2819 V 0 H 2359 V 1069 H 163 Z M 2359,1509 V 3425 L 1006,1509 Z"
       transform="scale(0.015625)" /><path
       id="CenturyGothic-36-3"
       d="M 2347,4713 2725,4466 1484,2584 q 250,85 469,85 547,0 928,-396 382,-395 382,-973 0,-397 -185,-717 -184,-320 -523,-510 -339,-189 -730,-189 -378,0 -702,183 -323,183 -508,514 -184,332 -184,710 0,281 114,592 114,311 408,748 z M 1844,2266 q -400,0 -683,-283 -283,-283 -283,-686 0,-400 283,-683 283,-283 683,-283 400,0 682,283 283,283 283,683 0,403 -283,686 -282,283 -682,283 z"
       transform="scale(0.015625)" /><path
       id="DejaVuSans-3c1-5"
       d="m 863,2875 q 190,319 662,600 184,109 753,109 638,0 1036,-506 399,-506 399,-1331 Q 3713,922 3314,415 2916,-91 2278,-91 1894,-91 1617,61 1341,213 1159,525 V -1331 H 581 v 3047 q 0,722 282,1159 z M 3116,1747 q 0,634 -261,995 -261,361 -717,361 -457,0 -718,-361 -261,-361 -261,-995 0,-634 261,-995 261,-361 718,-361 456,0 717,361 261,361 261,995 z"
       transform="scale(0.015625)" /><path
       id="DejaVuSans-66-4"
       d="m 2375,4863 v -479 h -550 q -309,0 -430,-125 -120,-125 -120,-450 v -309 h 947 V 3053 H 1275 V 0 H 697 V 3053 H 147 v 447 h 550 v 244 q 0,584 272,851 272,268 862,268 z"
       transform="scale(0.015625)" /><path
       id="DejaVuSans-6a-3"
       d="m 603,3500 h 575 V -63 q 0,-668 -255,-968 -254,-300 -820,-300 h -219 v 487 H 38 q 328,0 446,152 119,151 119,629 z m 0,1363 h 575 V 4134 H 603 Z"
       transform="scale(0.015625)" /><path
       id="DejaVuSans-32-6"
       d="M 1228,531 H 3431 V 0 H 469 v 531 q 359,372 979,998 621,627 780,809 303,340 423,576 121,236 121,464 0,372 -261,606 -261,235 -680,235 -297,0 -627,-103 -329,-103 -704,-313 v 638 q 381,153 712,231 332,78 607,78 725,0 1156,-363 431,-362 431,-968 0,-288 -108,-546 -107,-257 -392,-607 -78,-91 -497,-524 Q 1991,1309 1228,531 Z"
       transform="scale(0.015625)" /><path
       id="DejaVuSans-38-5"
       d="m 2034,2216 q -450,0 -708,-241 -257,-241 -257,-662 0,-422 257,-663 258,-241 708,-241 450,0 709,242 260,243 260,662 0,421 -258,662 -257,241 -711,241 z m -631,268 q -406,100 -633,378 -226,279 -226,679 0,559 398,884 399,325 1092,325 697,0 1094,-325 397,-325 397,-884 0,-400 -227,-679 -226,-278 -629,-378 456,-106 710,-416 255,-309 255,-755 Q 3634,634 3220,271 2806,-91 2034,-91 1263,-91 848,271 434,634 434,1313 q 0,446 256,755 257,310 713,416 z m -231,997 q 0,-362 226,-565 227,-203 636,-203 407,0 636,203 230,203 230,565 0,363 -230,566 -229,203 -636,203 -409,0 -636,-203 -226,-203 -226,-566 z"
       transform="scale(0.015625)" /><path
       id="DejaVuSans-22c5-9"
       d="m 684,2619 h 660 V 1825 H 684 Z"
       transform="scale(0.015625)" /><path
       id="DejaVuSans-33"
       d="m 2597,2516 q 453,-97 707,-404 255,-306 255,-756 0,-690 -475,-1069 -475,-378 -1350,-378 -293,0 -604,58 -311,58 -642,174 v 609 q 262,-153 574,-231 313,-78 654,-78 593,0 904,234 311,234 311,681 0,413 -289,645 -289,233 -804,233 h -544 v 519 h 569 q 465,0 712,186 247,186 247,536 0,359 -255,551 -254,193 -729,193 -260,0 -557,-57 -297,-56 -653,-174 v 562 q 360,100 674,150 314,50 592,50 719,0 1137,-327 419,-326 419,-882 0,-388 -222,-655 -222,-267 -631,-370 z"
       transform="scale(0.015625)" /><path
       id="DejaVuSans-36"
       d="m 2113,2584 q -425,0 -674,-291 -248,-290 -248,-796 0,-503 248,-796 249,-292 674,-292 425,0 673,292 248,293 248,796 0,506 -248,796 -248,291 -673,291 z m 1253,1979 v -575 q -238,112 -480,171 -242,60 -480,60 -625,0 -955,-422 -329,-422 -376,-1275 184,272 462,417 279,145 613,145 703,0 1111,-427 408,-426 408,-1160 0,-719 -425,-1154 -425,-434 -1131,-434 -810,0 -1238,620 -428,621 -428,1799 0,1106 525,1764 525,658 1409,658 238,0 480,-47 242,-47 505,-140 z"
       transform="scale(0.015625)" /><path
       id="DejaVuSans-50"
       d="M 1259,4147 V 2394 h 794 q 441,0 681,228 241,228 241,650 0,419 -241,647 -240,228 -681,228 z m -631,519 h 1425 q 785,0 1186,-355 402,-355 402,-1039 0,-691 -402,-1044 -401,-353 -1186,-353 H 1259 V 0 H 628 Z"
       transform="scale(0.015625)" /><path
       id="DejaVuSans-62"
       d="m 3116,1747 q 0,634 -261,995 -261,361 -717,361 -457,0 -718,-361 -261,-361 -261,-995 0,-634 261,-995 261,-361 718,-361 456,0 717,361 261,361 261,995 z M 1159,2969 q 182,312 458,463 277,152 661,152 638,0 1036,-506 399,-506 399,-1331 Q 3713,922 3314,415 2916,-91 2278,-91 1894,-91 1617,61 1341,213 1159,525 V 0 H 581 v 4863 h 578 z"
       transform="scale(0.015625)" /><path
       id="DejaVuSans-28-5"
       d="m 1984,4856 q -418,-718 -622,-1422 -203,-703 -203,-1425 0,-721 205,-1429 205,-708 620,-1424 h -500 q -468,735 -701,1444 -233,709 -233,1409 0,697 231,1403 232,707 703,1444 z"
       transform="scale(0.015625)" /><path
       id="DejaVuSans-54-4"
       d="M -19,4666 H 3928 V 4134 H 2272 V 0 H 1638 V 4134 H -19 Z"
       transform="scale(0.015625)" /><path
       id="DejaVuSans-52-9"
       d="m 2841,2188 q 203,-69 395,-294 192,-225 386,-619 L 4263,0 h -679 l -596,1197 q -232,469 -449,622 -217,153 -592,153 H 1259 V 0 H 628 v 4666 h 1425 q 800,0 1194,-335 394,-334 394,-1009 0,-441 -205,-732 -205,-290 -595,-402 z M 1259,4147 V 2491 h 794 q 456,0 689,211 233,211 233,620 0,409 -233,617 -233,208 -689,208 z"
       transform="scale(0.015625)" /><path
       id="DejaVuSans-45-1"
       d="M 628,4666 H 3578 V 4134 H 1259 V 2753 H 3481 V 2222 H 1259 V 531 H 3634 V 0 H 628 Z"
       transform="scale(0.015625)" /><path
       id="DejaVuSans-42-7"
       d="M 1259,2228 V 519 h 1013 q 509,0 754,211 246,211 246,645 0,438 -246,645 -245,208 -754,208 z m 0,1919 V 2741 h 935 q 462,0 688,173 227,174 227,530 0,353 -227,528 -226,175 -688,175 z m -631,519 h 1613 q 722,0 1112,-300 391,-300 391,-853 0,-429 -200,-682 -200,-253 -588,-315 466,-100 724,-418 258,-317 258,-792 0,-625 -425,-966 Q 3088,0 2303,0 H 628 Z"
       transform="scale(0.015625)" /><path
       id="DejaVuSans-43-5"
       d="m 4122,4306 v -665 q -319,297 -680,443 -361,147 -767,147 -800,0 -1225,-489 -425,-489 -425,-1414 0,-922 425,-1411 425,-489 1225,-489 406,0 767,147 361,147 680,444 V 359 Q 3791,134 3420,21 3050,-91 2638,-91 1578,-91 968,557 359,1206 359,2328 q 0,1125 609,1773 610,649 1670,649 418,0 788,-111 371,-111 696,-333 z"
       transform="scale(0.015625)" /><path
       id="DejaVuSans-4f-5"
       d="m 2522,4238 q -688,0 -1093,-513 -404,-512 -404,-1397 0,-881 404,-1394 405,-512 1093,-512 687,0 1089,512 402,513 402,1394 0,885 -402,1397 -402,513 -1089,513 z m 0,512 q 981,0 1568,-658 588,-658 588,-1764 0,-1103 -588,-1761 -587,-658 -1568,-658 -984,0 -1574,656 -589,657 -589,1763 0,1106 589,1764 590,658 1574,658 z"
       transform="scale(0.015625)" /><path
       id="DejaVuSans-2212-4"
       d="M 678,2272 H 4684 V 1741 H 678 Z"
       transform="scale(0.015625)" /><path
       id="DejaVuSans-6f-1"
       d="m 1959,3097 q -462,0 -731,-361 -269,-361 -269,-989 0,-628 267,-989 268,-361 733,-361 460,0 728,362 269,363 269,988 0,622 -269,986 -268,364 -728,364 z m 0,487 q 750,0 1178,-488 429,-487 429,-1349 Q 3566,888 3137,398 2709,-91 1959,-91 1206,-91 779,398 353,888 353,1747 q 0,862 426,1349 427,488 1180,488 z"
       transform="scale(0.015625)" /><path
       id="DejaVuSans-6c-8"
       d="m 603,4863 h 575 V 0 H 603 Z"
       transform="scale(0.015625)" /><path
       id="DejaVuSans-64-8"
       d="m 2906,2969 v 1894 h 575 V 0 H 2906 V 525 Q 2725,213 2448,61 2172,-91 1784,-91 1150,-91 751,415 353,922 353,1747 q 0,825 398,1331 399,506 1033,506 388,0 664,-152 277,-151 458,-463 z M 947,1747 q 0,-634 261,-995 261,-361 717,-361 456,0 718,361 263,361 263,995 0,634 -263,995 -262,361 -718,361 -456,0 -717,-361 -261,-361 -261,-995 z"
       transform="scale(0.015625)" /><path
       id="DejaVuSans-6d-3"
       d="m 3328,2828 q 216,388 516,572 300,184 706,184 547,0 844,-383 297,-382 297,-1088 V 0 h -578 v 2094 q 0,503 -179,746 -178,244 -543,244 -447,0 -707,-297 -259,-296 -259,-809 V 0 h -578 v 2094 q 0,506 -178,748 -178,242 -550,242 -441,0 -701,-298 -259,-298 -259,-808 V 0 H 581 v 3500 h 578 v -544 q 197,322 472,475 275,153 653,153 382,0 649,-194 267,-193 395,-562 z"
       transform="scale(0.015625)" /><path
       id="DejaVuSans-61-5"
       d="m 2194,1759 q -697,0 -966,-159 -269,-159 -269,-544 0,-306 202,-486 202,-179 548,-179 479,0 768,339 289,339 289,901 v 128 z m 1147,238 V 0 H 2766 V 531 Q 2569,213 2275,61 1981,-91 1556,-91 q -537,0 -855,302 -317,302 -317,808 0,590 395,890 396,300 1180,300 h 807 v 57 q 0,397 -261,614 -261,217 -733,217 -300,0 -585,-72 -284,-72 -546,-216 v 532 q 315,122 612,182 297,61 578,61 760,0 1135,-394 375,-393 375,-1193 z"
       transform="scale(0.015625)" /><path
       id="DejaVuSans-73-2"
       d="m 2834,3397 v -544 q -243,125 -506,187 -262,63 -544,63 -428,0 -642,-131 -214,-131 -214,-394 0,-200 153,-314 153,-114 616,-217 l 197,-44 q 612,-131 870,-370 258,-239 258,-667 0,-488 -386,-773 Q 2250,-91 1575,-91 1294,-91 989,-36 684,19 347,128 v 594 q 319,-166 628,-249 309,-82 613,-82 406,0 624,139 219,139 219,392 0,234 -158,359 -157,125 -692,241 l -200,47 q -534,112 -772,345 -237,233 -237,639 0,494 350,762 350,269 994,269 318,0 599,-47 282,-46 519,-140 z"
       transform="scale(0.015625)" /><path
       id="DejaVuSans-29-2"
       d="m 513,4856 h 500 q 468,-737 701,-1444 233,-706 233,-1403 0,-700 -233,-1409 -233,-709 -701,-1444 H 513 q 415,716 620,1424 205,708 205,1429 0,722 -205,1425 -205,704 -620,1422 z"
       transform="scale(0.015625)" /><path
       id="CenturyGothic-20-6"
       transform="scale(0.015625)"
       d="" /><path
       id="CenturyGothic-5b-6"
       d="M 906,4713 H 1956 V 4269 H 1344 V -816 h 612 v -428 H 906 Z"
       transform="scale(0.015625)" /><path
       id="CenturyGothic-4b-7"
       d="m 559,4597 h 469 V 2872 l 1835,1725 h 621 L 1275,2534 3656,0 H 3047 L 1028,2144 V 0 H 559 Z"
       transform="scale(0.015625)" /><path
       id="CenturyGothic-5d-8"
       d="M 1341,-1244 H 291 v 444 H 900 V 4284 H 291 v 429 h 1050 z"
       transform="scale(0.015625)" /><path
       id="m2f6e8494ee"
       d="M 0,0 H -3.5"
       style="stroke:#000000;stroke-width:0.8" /><clipPath
       id="pf2e14d02e7"><rect
         x="44.080002"
         y="21.6"
         width="510.32001"
         height="185.3868"
         id="rect92" /></clipPath><clipPath
       clipPathUnits="userSpaceOnUse"
       id="clipPath808"><rect
         style="opacity:0.124294;fill:#2867fd;stroke-width:0"
         id="rect808"
         width="309.90701"
         height="40.233551"
         x="142.41891"
         y="226.58575" /></clipPath><clipPath
       id="clip4"
       clip-path="url(#clip2)"><path
         d="m 45.5,111.5 v 424 h 660 v -424 z"
         id="path26" /></clipPath><clipPath
       clipPathUnits="userSpaceOnUse"
       id="clipPath3"><g
         id="g49"
         transform="translate(27.990574,59.805787)"><g
           id="g48"
           transform="translate(9.377346,6.610678)"><g
             id="g46"
             transform="translate(5.724365,-4.916465)"><g
               id="g45"><g
                 id="g38"
                 transform="translate(-43.092285,-61.5)"><path
                   d="m -99999.5,26.5 v 99974 h 200000 V 26.5 Z"
                   id="path33" /></g></g></g></g></g></clipPath><path
       id="m9c388bebe8"
       d="M 0,0 H -8"
       style="stroke:#000000;stroke-width:2" /><path
       id="CMUSerif-Roman-39"
       d="m 269,2822 c 0,-800 563,-1427 1280,-1427 390,0 653,269 800,640 V 1830 C 2349,333 1683,38 1312,38 1203,38 858,51 685,269 c 281,0 333,185 333,294 0,199 -154,295 -295,295 -102,0 -294,-58 -294,-308 0,-428 345,-691 889,-691 826,0 1607,871 1607,2247 0,1721 -736,2156 -1306,2156 -352,0 -665,-115 -941,-403 C 416,3571 269,3302 269,2822 Z m 576,-6 c 0,346 0,646 134,883 173,320 416,403 640,403 295,0 506,-217 615,-505 76,-205 102,-608 102,-903 0,-531 -218,-1152 -781,-1152 -102,0 -397,0 -595,404 -115,236 -115,556 -115,870 z"
       transform="scale(0.015625)" /><path
       id="CMUSerif-Roman-33"
       d="m 269,864 c 0,-582 595,-1005 1293,-1005 780,0 1363,583 1363,1235 0,525 -403,1024 -1069,1159 525,173 896,621 896,1126 0,525 -563,883 -1178,883 -646,0 -1132,-384 -1132,-870 0,-211 140,-333 326,-333 198,0 326,141 326,327 0,320 -300,320 -396,320 198,313 620,396 851,396 262,0 614,-140 614,-716 0,-77 -13,-448 -179,-730 -192,-307 -410,-326 -570,-333 -51,-6 -204,-19 -249,-19 -51,-6 -96,-13 -96,-77 0,-70 45,-70 153,-70 h 282 c 525,0 762,-435 762,-1063 C 2266,224 1824,38 1542,38 1267,38 787,147 563,525 c 224,-32 423,109 423,352 0,230 -173,358 -359,358 -153,0 -358,-89 -358,-371 z"
       transform="scale(0.015625)" /><path
       id="CMUSerif-Roman-4e"
       d="m 211,0 c 224,6 538,19 749,19 211,0 525,-13 749,-19 v 198 c -659,0 -659,301 -659,474 v 3328 c 32,-32 38,-38 64,-77 L 3725,83 c 57,-77 64,-83 109,-83 89,0 89,45 89,166 v 3533 c 0,173 0,474 659,474 v 198 c -224,-6 -537,-19 -748,-19 -212,0 -525,13 -749,19 v -198 c 659,0 659,-301 659,-474 V 966 L 1485,4288 c -58,77 -64,83 -186,83 H 211 v -198 h 186 c 96,0 224,-7 320,-13 147,-19 153,-26 153,-147 V 672 c 0,-173 0,-474 -659,-474 z"
       transform="scale(0.015625)" /><path
       id="CMUSerif-Roman-6c"
       d="m 211,0 c 211,6 551,19 711,19 160,0 473,-13 710,-19 v 198 c -429,0 -499,0 -499,288 v 3956 l -922,-71 v -198 c 448,0 499,-45 499,-359 V 486 C 710,198 640,198 211,198 Z"
       transform="scale(0.015625)" /><path
       id="CMUSerif-Roman-69"
       d="m 480,3942 c 0,-172 141,-339 339,-339 179,0 339,135 339,339 0,205 -160,340 -339,340 -198,0 -339,-173 -339,-340 z M 211,0 c 205,6 551,19 704,19 224,0 448,-13 666,-19 v 198 c -423,0 -448,32 -448,282 v 2349 l -896,-71 v -198 c 416,0 473,-38 473,-352 V 486 C 710,198 640,198 211,198 Z"
       transform="scale(0.015625)" /><path
       id="CMUSerif-Roman-7a"
       d="M 179,90 C 179,0 224,0 346,0 h 2112 l 108,1197 H 2406 C 2349,442 2214,160 1472,160 H 717 l 1779,2406 c 58,71 58,84 58,109 0,83 -52,83 -167,83 H 339 L 269,1728 h 160 c 38,653 160,890 864,890 h 729 L 237,205 C 179,134 179,122 179,90 Z"
       transform="scale(0.015625)" /><path
       id="CMUSerif-Roman-64"
       d="M 218,1376 C 218,563 845,-70 1574,-70 c 410,0 698,217 858,422 V -70 l 941,70 v 198 c -448,0 -499,45 -499,359 v 3885 l -922,-71 v -198 c 448,0 499,-45 499,-359 V 2432 c -185,230 -461,397 -806,397 C 890,2829 218,2202 218,1376 Z m 531,-6 c 0,236 13,620 198,908 135,199 378,410 723,410 224,0 493,-96 692,-384 70,-109 70,-122 70,-237 V 755 c 0,-115 0,-128 -70,-237 C 2170,211 1882,70 1606,70 1318,70 1088,237 934,480 768,742 749,1107 749,1370 Z"
       transform="scale(0.015625)" /><path
       id="Cmr10-28"
       d="m 1984,-1588 q -356,282 -614,646 -257,364 -422,777 -164,412 -245,862 -81,450 -81,903 0,459 81,909 81,450 248,866 168,416 427,778 260,363 606,635 0,12 32,12 h 59 q 19,0 34,-17 16,-17 16,-39 0,-28 -12,-41 -313,-306 -521,-656 -208,-350 -335,-746 -126,-395 -182,-819 -56,-423 -56,-882 0,-2034 1087,-3091 19,-18 19,-53 0,-15 -17,-35 -17,-21 -33,-21 h -59 q -32,0 -32,12 z"
       transform="scale(0.015625)" /><path
       id="Cmr10-54"
       d="m 1081,0 v 225 q 322,0 625,36 303,36 303,167 v 3516 q 0,137 -77,170 -76,33 -248,33 H 1416 Q 888,4147 666,3916 550,3800 500,3545 450,3291 416,2906 H 231 l 122,1466 h 3910 l 121,-1466 h -187 q -38,413 -83,655 -45,242 -164,355 -225,231 -750,231 h -269 q -115,0 -179,-10 -64,-9 -105,-54 -41,-45 -41,-139 V 428 q 0,-131 303,-167 304,-36 622,-36 V 0 Z"
       transform="scale(0.015625)" /><path
       id="Cmr10-52"
       d="m 213,0 v 225 q 659,0 659,203 v 3516 q 0,203 -659,203 v 225 h 2009 q 359,0 754,-130 396,-129 661,-395 266,-266 266,-634 0,-269 -161,-480 -161,-211 -413,-353 -251,-142 -513,-205 287,-100 502,-319 216,-218 260,-500 l 91,-568 q 62,-385 131,-574 69,-189 303,-189 200,0 298,186 99,186 99,405 0,22 20,39 21,17 43,17 h 59 q 62,0 62,-84 0,-175 -69,-343 -68,-167 -198,-276 -129,-110 -308,-110 -462,0 -795,230 -333,230 -333,674 v 568 q 0,319 -222,547 -221,228 -543,228 H 1447 V 428 q 0,-203 659,-203 V 0 Z m 1234,2272 h 684 q 532,0 810,214 278,214 278,727 0,509 -275,721 -275,213 -813,213 h -359 q -116,0 -180,-10 -64,-9 -105,-54 -40,-45 -40,-139 z"
       transform="scale(0.015625)" /><path
       id="Cmr10-45"
       d="m 197,0 v 225 q 659,0 659,203 v 3516 q 0,203 -659,203 v 225 h 3619 l 178,-1466 h -185 q -68,553 -192,803 -123,250 -395,344 -272,94 -816,94 h -628 q -115,0 -180,-10 -64,-9 -105,-54 -40,-45 -40,-139 V 2381 h 472 q 325,0 486,55 161,55 222,209 61,155 61,483 h 187 V 1409 h -187 q 0,325 -61,481 -61,157 -222,211 -161,55 -486,55 H 1453 V 428 q 0,-137 78,-170 78,-33 247,-33 h 678 q 444,0 717,70 274,71 425,235 152,164 235,425 83,261 155,723 h 184 L 3903,0 Z"
       transform="scale(0.015625)" /><path
       id="Cmr10-42"
       d="m 219,0 v 225 q 659,0 659,203 v 3516 q 0,203 -659,203 v 225 h 2353 q 325,0 656,-127 331,-126 548,-375 218,-248 218,-586 0,-390 -321,-654 -320,-264 -748,-346 278,0 572,-153 294,-153 481,-409 188,-256 188,-544 0,-350 -208,-619 Q 3750,291 3419,145 3088,0 2753,0 Z m 1215,428 q 0,-137 78,-170 79,-33 247,-33 h 813 q 250,0 464,131 214,132 339,352 125,220 125,470 0,244 -103,477 -103,233 -296,383 -192,150 -438,150 H 1434 Z m 0,1928 h 960 q 194,0 364,70 170,71 306,204 136,133 209,300 74,167 74,354 0,166 -55,319 -54,153 -161,278 -106,125 -250,195 -143,71 -309,71 h -813 q -115,0 -179,-10 -64,-9 -105,-54 -41,-45 -41,-139 z"
       transform="scale(0.015625)" /><path
       id="Cmr10-43"
       d="m 1459,684 q 219,-278 547,-439 328,-161 682,-161 296,0 549,117 254,118 443,327 189,210 290,475 102,266 102,560 0,50 56,50 h 78 q 50,0 50,-63 0,-334 -128,-645 Q 4000,594 3765,358 3531,122 3226,-9 q -304,-132 -635,-132 -460,0 -871,186 -411,186 -716,509 -304,324 -475,749 -170,425 -170,885 0,459 170,884 171,425 475,750 305,325 716,508 411,183 871,183 328,0 628,-143 300,-142 525,-401 l 372,525 q 37,19 43,19 h 47 q 19,0 34,-16 16,-16 16,-38 V 2731 q 0,-56 -50,-56 h -115 q -60,0 -60,56 0,185 -74,413 -73,228 -187,432 -114,205 -264,362 -359,350 -825,350 -353,0 -677,-160 -323,-159 -545,-440 -234,-300 -325,-683 -90,-383 -90,-817 0,-435 90,-820 91,-384 325,-684 z"
       transform="scale(0.015625)" /><path
       id="Cmr10-4f"
       d="m 2491,-141 q -610,0 -1096,323 -486,324 -761,860 -275,536 -275,1127 0,437 158,865 158,429 441,760 283,331 679,525 397,194 854,194 453,0 851,-196 399,-195 683,-530 284,-334 437,-750 154,-415 154,-868 0,-591 -275,-1127 Q 4066,506 3578,182 3091,-141 2491,-141 Z M 1428,691 q 188,-294 463,-468 275,-173 600,-173 209,0 410,84 202,85 366,232 164,147 280,325 381,575 381,1581 0,922 -381,1459 -188,269 -468,431 -279,163 -588,163 -313,0 -594,-163 -281,-162 -469,-431 -150,-209 -233,-445 -82,-236 -117,-489 -34,-253 -34,-525 0,-291 32,-568 33,-276 122,-542 90,-265 230,-471 z"
       transform="scale(0.015625)" /><path
       id="Cmsy10-a1"
       d="m 653,1472 q -53,0 -88,40 -34,41 -34,88 0,47 34,87 35,41 88,41 h 3672 q 50,0 83,-41 33,-40 33,-87 0,-47 -33,-88 -33,-40 -83,-40 z"
       transform="scale(0.015625)" /><path
       id="Cmr10-6f"
       d="m 1600,-72 q -384,0 -713,195 -328,196 -519,524 -190,328 -190,716 0,293 105,565 105,272 300,486 195,214 454,334 260,121 563,121 394,0 717,-208 324,-208 511,-557 188,-348 188,-741 0,-385 -191,-715 Q 2634,319 2307,123 1981,-72 1600,-72 Z m 0,188 q 513,0 684,371 172,372 172,947 0,322 -34,533 -34,211 -150,383 -72,106 -183,186 -111,80 -235,122 -123,42 -254,42 -200,0 -380,-91 -179,-90 -298,-259 -119,-181 -152,-399 -32,-217 -32,-517 0,-359 62,-645 63,-286 252,-480 189,-193 548,-193 z"
       transform="scale(0.015625)" /><path
       id="Cmr10-6c"
       d="m 197,0 v 225 q 219,0 359,34 141,35 141,169 v 3360 q 0,171 -52,248 -51,77 -148,94 -97,17 -300,17 v 225 l 950,69 V 428 q 0,-134 140,-169 141,-34 357,-34 V 0 Z"
       transform="scale(0.015625)" /><path
       id="Cmr10-64"
       d="m 1563,-72 q -379,0 -692,205 -312,205 -485,539 -173,334 -173,709 0,388 189,720 189,333 514,530 325,197 715,197 235,0 444,-99 209,-98 363,-273 v 1332 q 0,171 -52,248 -52,77 -147,94 -95,17 -298,17 v 225 l 947,69 V 581 q 0,-168 51,-245 52,-77 147,-94 95,-17 298,-17 V 0 L 2419,-72 V 331 Q 2253,141 2025,34 1797,-72 1563,-72 Z M 909,556 q 110,-209 292,-334 183,-125 399,-125 266,0 487,153 222,153 332,397 v 1534 q -75,141 -189,252 -114,111 -257,170 -142,60 -301,60 -334,0 -538,-190 -203,-189 -284,-483 -81,-293 -81,-615 0,-256 26,-447 27,-190 114,-372 z"
       transform="scale(0.015625)" /><path
       id="Cmr10-6d"
       d="m 191,0 v 225 q 218,0 359,34 141,35 141,169 v 1747 q 0,172 -52,248 -51,77 -148,94 -97,17 -300,17 v 225 l 928,69 v -625 q 128,275 379,450 252,175 549,175 737,0 866,-600 128,269 374,434 247,166 541,166 291,0 489,-94 199,-93 299,-286 100,-192 100,-482 V 428 q 0,-134 142,-169 142,-34 358,-34 V 0 H 3750 v 225 q 219,0 359,34 141,35 141,169 v 1519 q 0,322 -91,519 -90,197 -371,197 -369,0 -610,-297 -240,-297 -240,-675 V 428 q 0,-134 140,-169 141,-34 360,-34 V 0 H 1972 v 225 q 219,0 359,34 141,35 141,169 v 1519 q 0,312 -91,514 -90,202 -372,202 -371,0 -611,-297 -239,-297 -239,-675 V 428 q 0,-134 141,-169 141,-34 356,-34 V 0 Z"
       transform="scale(0.015625)" /><path
       id="Cmr10-61"
       d="m 256,628 q 0,381 300,620 300,240 720,338 421,98 799,98 v 263 q 0,184 -81,357 -81,174 -235,285 -153,111 -337,111 -425,0 -647,-191 122,0 201,-92 80,-92 80,-214 0,-128 -91,-219 -90,-90 -215,-90 -128,0 -219,90 -90,91 -90,219 0,338 306,502 306,164 675,164 259,0 521,-111 263,-111 430,-318 168,-206 168,-481 V 519 q 0,-125 53,-230 53,-105 165,-105 107,0 158,106 52,107 52,229 v 409 h 187 V 519 Q 3156,375 3081,245 3006,116 2879,39 2753,-38 2606,-38 2419,-38 2283,107 2147,253 2131,453 2013,213 1781,70 1550,-72 1288,-72 1044,-72 808,0 572,72 414,226 256,381 256,628 Z m 519,0 q 0,-225 165,-378 166,-153 391,-153 207,0 375,103 169,103 269,281 100,178 100,375 v 666 q -291,0 -596,-96 Q 1175,1331 975,1128 775,925 775,628 Z"
       transform="scale(0.015625)" /><path
       id="Cmr10-73"
       d="m 213,-19 v 1044 q 0,50 56,50 h 78 q 37,0 50,-50 178,-928 862,-928 304,0 508,137 205,138 205,425 0,207 -160,352 -159,145 -378,198 l -428,85 q -215,47 -392,143 -176,97 -289,258 -112,161 -112,374 0,281 148,460 148,180 385,260 238,80 513,80 329,0 572,-175 l 185,159 q 0,16 31,16 h 47 q 19,0 34,-18 16,-17 16,-35 v -838 q 0,-59 -50,-59 h -78 q -57,0 -57,59 0,335 -186,538 -185,203 -520,203 -287,0 -498,-107 -211,-106 -211,-365 0,-178 151,-292 152,-114 355,-164 l 434,-82 q 219,-50 408,-169 189,-118 300,-300 111,-181 111,-409 0,-231 -80,-402 Q 2144,259 2001,146 1859,34 1665,-19 1472,-72 1259,-72 859,-72 575,197 L 341,-56 q 0,-16 -35,-16 h -37 q -56,0 -56,53 z"
       transform="scale(0.015625)" /><path
       id="Cmr10-29"
       d="m 416,-1600 q -57,0 -57,56 0,28 13,41 1094,1069 1094,3103 0,2034 -1082,3091 -25,15 -25,53 0,22 17,39 18,17 40,17 h 59 q 19,0 31,-12 460,-363 766,-882 306,-518 448,-1106 143,-587 143,-1200 0,-453 -77,-892 -77,-439 -244,-865 -167,-427 -423,-788 -256,-361 -613,-643 -12,-12 -31,-12 z"
       transform="scale(0.015625)" /><path
       id="CMUSerif-Roman-4b"
       d="m 211,0 c 224,19 698,19 941,19 243,0 723,0 947,-19 v 198 h -153 c -493,0 -506,71 -506,301 v 1120 l 742,704 1159,-1715 c 38,-58 96,-141 96,-218 0,-192 -250,-192 -378,-192 V 0 c 224,19 672,19 915,19 224,0 468,-6 736,-19 v 198 c -345,0 -480,26 -672,308 L 2560,2682 3712,3789 c 51,51 390,377 909,384 v 198 c -167,-19 -371,-19 -544,-19 -231,0 -595,0 -813,19 v -198 c 256,-7 294,-154 294,-211 0,-103 -64,-167 -115,-212 L 1440,1837 v 2035 c 0,230 13,301 506,301 h 153 v 198 c -224,-19 -697,-19 -941,-19 -243,0 -723,0 -947,19 v -198 h 154 c 493,0 505,-71 505,-301 V 499 C 870,269 858,198 365,198 H 211 Z"
       transform="scale(0.015625)" /></defs><sodipodi:namedview
     id="namedview352"
     pagecolor="#ffffff"
     bordercolor="#000000"
     borderopacity="0.25"
     inkscape:showpageshadow="2"
     inkscape:pageopacity="0.0"
     inkscape:pagecheckerboard="0"
     inkscape:deskcolor="#d1d1d1"
     inkscape:zoom="0.79590675"
     inkscape:cx="284.58108"
     inkscape:cy="267.61929"
     inkscape:window-width="1920"
     inkscape:window-height="1001"
     inkscape:window-x="0"
     inkscape:window-y="25"
     inkscape:window-maximized="0"
     inkscape:current-layer="matplotlib.axis_2" /><g
     id="g73"
     transform="translate(-47.680745,-70.083535)"
     style="font-size:13px;font-family:'Helvetica Neue';fill:#000000;stroke:#000000"><clipPath
       id="clip6"
       clip-path="url(#clip2)"><path
         d="m 36.5,535.5 v 28 h 679 v -28 z"
         id="path71" /></clipPath><g
       clip-path="url(#clip6)"
       id="g72" /></g><g
     id="g25"
     transform="translate(-27.990574,-59.805787)"
     style="font-size:13px;font-family:'Helvetica Neue';fill:#000000;stroke:#000000"
     clip-path="url(#clipPath374)"><g
       id="g24"><clipPath
         id="clip3"
         clip-path="url(#clip2)"><path
           d="m 45.5,60.5 v 48 h 660 v -48 z"
           id="path7" /></clipPath><g
         clip-path="url(#clip3)"
         id="g23"><g
           id="g16"
           style="fill:#4a2973;fill-opacity:0.12156863;stroke:#4b2777;stroke-opacity:1"><g
             stroke-linecap="square"
             fill="#ffffff"
             id="g9"
             style="fill:#4a2973;fill-opacity:0.12156863;stroke:#4b2777;stroke-opacity:1"><path
               stroke="none"
               d="m 428.5,93.5 v -18 h -139 v 18 h 139"
               fill-rule="evenodd"
               id="path8"
               style="fill:#4a2973;fill-opacity:0.12156863;stroke:#4b2777;stroke-opacity:1" /><path
               fill="none"
               d="m 428.5,93.5 v -18 h -139 v 18 h 139"
               id="path9"
               style="fill:#4a2973;fill-opacity:0.12156863;stroke:#4b2777;stroke-opacity:1" /></g><g
             fill="#ffffff"
             id="g11"
             style="fill:#4a2973;fill-opacity:0.12156863;stroke:#4b2777;stroke-opacity:1"><path
               fill="none"
               d="m 628.5,84.5 h -200"
               id="path10"
               style="fill:#4a2973;fill-opacity:0.12156863;stroke:#4b2777;stroke-opacity:1" /><path
               fill="none"
               d="m 79.5,84.5 h 210"
               id="path11"
               style="fill:#4a2973;fill-opacity:0.12156863;stroke:#4b2777;stroke-opacity:1" /></g><g
             stroke-linecap="square"
             fill="#ffffff"
             id="g12"
             style="fill:#4a2973;fill-opacity:0.12156863;stroke:#4b2777;stroke-opacity:1"><path
               fill="none"
               d="m 360.5,89.5 8,-5 -8,-6 -8,6 z"
               id="path12"
               style="fill:#4a2973;fill-opacity:0.12156863;stroke:#4b2777;stroke-opacity:1" /></g><g
             fill="#ffffff"
             id="g15"
             style="fill:#4a2973;fill-opacity:0.12156863;stroke:#4b2777;stroke-opacity:1"><path
               fill="none"
               d="m 79.5,93.5 v -18"
               id="path13"
               style="fill:#4a2973;fill-opacity:0.12156863;stroke:#4b2777;stroke-opacity:1" /><path
               fill="none"
               d="m 628.5,93.5 v -18"
               id="path14"
               style="fill:#4a2973;fill-opacity:0.12156863;stroke:#4b2777;stroke-opacity:1" /><path
               fill="none"
               d="m 359.5,93.5 v -18"
               id="path15"
               style="fill:#4a2973;fill-opacity:0.12156863;stroke:#4b2777;stroke-opacity:1" /></g></g><g
           id="g21"
           style="fill:#4b2777;fill-opacity:1"><g
             id="g18"
             style="fill:#4b2777;fill-opacity:1"><title
               id="title16">371</title><g
               stroke-width="1.12"
               id="g17"
               style="fill:#4b2777;fill-opacity:1"><circle
                 stroke="none"
                 cx="640.60999"
                 cy="84.5"
                 id="ellipse16"
                 r="2.6400001"
                 style="fill:#4b2777;fill-opacity:1" /></g></g><g
             stroke-width="1.12"
             id="g19"
             style="fill:#4b2777;fill-opacity:1"><title
               id="title18">578</title><circle
               stroke="none"
               cx="660.62"
               cy="84.5"
               id="ellipse18"
               r="2.6400001"
               style="fill:#4b2777;fill-opacity:1" /></g><g
             stroke-width="1.12"
             id="g20"
             style="fill:#4b2777;fill-opacity:1"><title
               id="title19">580</title><circle
               stroke="none"
               cx="691.67999"
               cy="84.5"
               id="ellipse19"
               r="2.6400001"
               style="fill:#4b2777;fill-opacity:1" /></g></g><g
           id="g22" /></g></g></g><g
     clip-path="url(#clipPath3)"
     id="g44"
     transform="translate(-27.990574,-59.805787)"
     style="font-size:13px;font-family:'Helvetica Neue';fill:#000000;stroke:#000000"><g
       id="g41"><rect
         stroke="none"
         x="46.5"
         y="531.5"
         width="47"
         height="4"
         id="rect27"
         style="fill:#ffffff;fill-opacity:1" /><rect
         stroke="none"
         x="93.5"
         y="514.5"
         width="47"
         height="21"
         id="rect28"
         style="fill:#ffffff;fill-opacity:1" /><rect
         stroke="none"
         x="140.5"
         y="478.5"
         width="47"
         height="57"
         id="rect29"
         style="fill:#ffffff;fill-opacity:1" /><rect
         stroke="none"
         x="187.5"
         y="386.5"
         width="47"
         height="149"
         id="rect30"
         style="fill:#ffffff;fill-opacity:1" /><rect
         stroke="none"
         x="234.5"
         y="268.5"
         width="47"
         height="267"
         id="rect31"
         style="fill:#ffffff;fill-opacity:1" /><rect
         stroke="none"
         x="281.5"
         y="182.5"
         width="47"
         height="353"
         id="rect32"
         style="fill:#ffffff;fill-opacity:1" /><rect
         stroke="none"
         x="328.5"
         y="149.5"
         width="47"
         height="386"
         id="rect33"
         style="fill:#ffffff;fill-opacity:1" /><rect
         stroke="none"
         x="375.5"
         y="192.5"
         width="47"
         height="343"
         id="rect34"
         style="fill:#ffffff;fill-opacity:1" /><rect
         stroke="none"
         x="422.5"
         y="281.5"
         width="47"
         height="254"
         id="rect35"
         style="fill:#ffffff;fill-opacity:1" /><rect
         stroke="none"
         x="469.5"
         y="327.5"
         width="47"
         height="208"
         id="rect36"
         style="fill:#ffffff;fill-opacity:1" /><rect
         stroke="none"
         x="516.5"
         y="472.5"
         width="47"
         height="63"
         id="rect37"
         style="fill:#ffffff;fill-opacity:1" /><rect
         stroke="none"
         x="563.5"
         y="504.5"
         width="47"
         height="31"
         id="rect38"
         style="fill:#ffffff;fill-opacity:1" /><rect
         stroke="none"
         x="610.5"
         y="514.5"
         width="47"
         height="21"
         id="rect39"
         style="fill:#ffffff;fill-opacity:1" /><rect
         stroke="none"
         x="657.5"
         y="527.5"
         width="47"
         height="8"
         id="rect40"
         style="fill:#ffffff;fill-opacity:1" /><g
         stroke="#555555"
         id="g40"><path
           fill="none"
           d="m 46.5,531.5 v 4 h 47 v -4 z m 47,-17 v 21 h 47 v -21 z m 47,-36 v 57 h 47 v -57 z m 47,-92 v 149 h 47 v -149 z m 47,-118 v 267 h 47 v -267 z m 47,-86 v 353 h 47 v -353 z m 47,-33 v 386 h 47 v -386 z m 47,43 v 343 h 47 v -343 z m 47,89 v 254 h 47 v -254 z m 47,46 v 208 h 47 v -208 z m 47,145 v 63 h 47 v -63 z m 47,32 v 31 h 47 v -31 z m 47,10 v 21 h 47 v -21 z m 47,13 v 8 h 47 v -8 z"
           id="path40"
           style="stroke:#000000;stroke-opacity:1" /></g></g><g
       id="g43"><g
         stroke-width="8"
         stroke="#2867fd"
         id="g42"><path
           fill="none"
           d="m 46.5,534.07 c 0.04,0 0.22,-0.01 0.88,-0.05 0.65,-0.04 2.56,-0.17 3.49,-0.23 1.05,-0.07 2.44,-0.18 3.49,-0.26 1.05,-0.08 2.45,-0.2 3.49,-0.3 1.05,-0.09 2.45,-0.22 3.5,-0.33 1.04,-0.11 2.44,-0.25 3.49,-0.37 1.04,-0.12 2.44,-0.29 3.49,-0.43 1.05,-0.13 2.44,-0.32 3.49,-0.47 1.05,-0.15 2.45,-0.36 3.49,-0.53 1.05,-0.16 2.45,-0.4 3.49,-0.59 1.05,-0.18 2.45,-0.45 3.5,-0.65 1.04,-0.21 2.44,-0.5 3.49,-0.73 1.05,-0.24 2.44,-0.56 3.49,-0.81 1.05,-0.26 2.44,-0.62 3.49,-0.9 1.05,-0.28 2.45,-0.68 3.49,-0.99 1.05,-0.31 2.45,-0.74 3.5,-1.08 1.04,-0.35 2.44,-0.82 3.49,-1.2 1.04,-0.37 2.44,-0.9 3.49,-1.31 1.05,-0.41 2.44,-0.98 3.49,-1.43 1.05,-0.45 2.45,-1.07 3.49,-1.56 1.05,-0.49 2.45,-1.17 3.49,-1.7 1.05,-0.54 2.45,-1.27 3.5,-1.85 1.04,-0.58 2.44,-1.38 3.49,-2.01 1.05,-0.62 2.44,-1.49 3.49,-2.17 1.05,-0.67 2.44,-1.61 3.49,-2.34 1.05,-0.73 2.45,-1.73 3.49,-2.52 1.05,-0.78 2.45,-1.87 3.5,-2.71 1.04,-0.84 2.44,-2 3.49,-2.91 1.04,-0.9 2.44,-2.14 3.49,-3.11 1.05,-0.96 2.44,-2.29 3.49,-3.32 1.05,-1.03 2.45,-2.45 3.49,-3.55 1.05,-1.09 2.45,-2.6 3.49,-3.77 1.05,-1.16 2.45,-2.76 3.5,-4 1.04,-1.23 2.44,-2.93 3.49,-4.23 1.05,-1.31 2.44,-3.1 3.49,-4.48 1.05,-1.38 2.44,-3.27 3.49,-4.73 1.05,-1.45 2.45,-3.44 3.49,-4.97 1.05,-1.53 2.45,-3.62 3.5,-5.22 1.04,-1.61 2.44,-3.8 3.49,-5.48 1.04,-1.68 2.44,-3.97 3.49,-5.73 1.05,-1.75 2.44,-4.14 3.49,-5.97 1.05,-1.84 2.45,-4.33 3.49,-6.23 1.05,-1.91 2.45,-4.5 3.49,-6.47 1.05,-1.98 2.45,-4.67 3.5,-6.72 1.04,-2.05 2.44,-4.83 3.49,-6.94 1.05,-2.12 2.44,-4.99 3.49,-7.18 1.05,-2.19 2.44,-5.15 3.49,-7.4 1.05,-2.25 2.45,-5.29 3.49,-7.6 1.05,-2.31 2.45,-5.43 3.5,-7.8 1.04,-2.37 2.44,-5.57 3.49,-7.99 1.04,-2.43 2.44,-5.69 3.49,-8.16 1.05,-2.48 2.44,-5.81 3.49,-8.32 1.05,-2.52 2.45,-5.91 3.49,-8.46 1.05,-2.56 2.45,-5.99 3.49,-8.58 1.05,-2.6 2.45,-6.07 3.5,-8.69 1.04,-2.62 2.44,-6.13 3.49,-8.78 1.05,-2.64 2.44,-6.17 3.49,-8.83 1.05,-2.66 2.44,-6.21 3.49,-8.88 1.05,-2.67 2.45,-6.23 3.49,-8.9 1.05,-2.67 3.15,-8.01 3.5,-8.9 1.04,-2.66 2.44,-6.22 3.49,-8.87 1.04,-2.65 2.44,-6.18 3.49,-8.82 1.05,-2.63 2.44,-6.13 3.49,-8.74 1.05,-2.61 2.45,-6.07 3.49,-8.64 1.05,-2.58 2.45,-5.99 3.49,-8.52 1.05,-2.53 2.45,-5.88 3.5,-8.37 1.04,-2.48 2.44,-5.76 3.49,-8.18 1.05,-2.43 2.44,-5.63 3.49,-7.99 1.05,-2.37 2.44,-5.47 3.49,-7.77 1.05,-2.29 2.45,-5.3 3.49,-7.51 1.05,-2.21 2.45,-5.11 3.5,-7.24 1.04,-2.13 2.44,-4.91 3.49,-6.95 1.04,-2.03 2.44,-4.69 3.49,-6.63 1.05,-1.94 2.44,-4.45 3.49,-6.29 1.05,-1.83 2.45,-4.21 3.49,-5.93 1.05,-1.73 2.45,-3.95 3.49,-5.56 1.05,-1.61 2.45,-3.68 3.5,-5.17 1.04,-1.49 2.44,-3.4 3.49,-4.76 1.05,-1.37 2.44,-3.1 3.49,-4.34 1.05,-1.24 2.44,-2.8 3.49,-3.9 1.05,-1.11 2.45,-2.49 3.49,-3.46 1.05,-0.97 2.45,-2.17 3.5,-3 1.04,-0.83 2.44,-1.85 3.49,-2.54 1.04,-0.69 2.44,-1.52 3.49,-2.07 1.05,-0.55 2.44,-1.19 3.49,-1.6 1.05,-0.4 2.45,-0.85 3.49,-1.12 1.05,-0.26 2.45,-0.52 3.49,-0.64 1.05,-0.12 2.45,-0.19 3.5,-0.17 1.04,0.02 2.44,0.15 3.49,0.31 1.05,0.16 2.44,0.47 3.49,0.77 1.05,0.31 2.44,0.8 3.49,1.24 1.05,0.44 2.45,1.12 3.49,1.7 1.05,0.57 2.45,1.43 3.5,2.14 1.04,0.71 2.44,1.74 3.49,2.58 1.04,0.84 2.44,2.04 3.49,3 1.05,0.96 2.44,2.33 3.49,3.42 1.05,1.08 2.45,2.61 3.49,3.81 1.05,1.2 2.45,2.89 3.49,4.2 1.05,1.31 2.45,3.14 3.5,4.56 1.04,1.42 2.44,3.39 3.49,4.92 1.05,1.52 2.44,3.62 3.49,5.24 1.05,1.62 2.44,3.85 3.49,5.56 1.05,1.71 2.45,4.05 3.49,5.85 1.05,1.8 2.45,4.25 3.5,6.12 1.04,1.88 2.44,4.43 3.49,6.38 1.05,1.95 2.44,4.6 3.49,6.61 1.05,2.02 2.44,4.75 3.49,6.83 1.05,2.07 2.45,4.88 3.49,7.01 1.05,2.13 2.45,5.01 3.49,7.19 1.05,2.18 2.45,5.11 3.5,7.33 1.04,2.22 2.44,5.21 3.49,7.47 1.05,2.26 2.44,5.29 3.49,7.57 1.05,2.29 2.44,5.36 3.49,7.67 1.05,2.31 2.45,5.4 3.49,7.73 1.05,2.33 2.45,5.45 3.5,7.79 1.04,2.34 2.44,5.47 3.49,7.81 1.05,2.35 2.44,5.49 3.49,7.84 1.05,2.34 3.05,6.83 3.49,7.82 1.05,2.35 2.45,5.48 3.49,7.81 1.05,2.34 2.45,5.45 3.49,7.78 1.05,2.32 2.45,5.41 3.5,7.72 1.04,2.31 2.44,5.38 3.49,7.66 1.05,2.29 2.44,5.32 3.49,7.58 1.05,2.26 2.44,5.26 3.49,7.49 1.05,2.24 2.45,5.19 3.49,7.39 1.05,2.2 2.45,5.11 3.5,7.28 1.04,2.16 2.44,5.02 3.49,7.15 1.05,2.13 2.44,4.94 3.49,7.02 1.05,2.09 2.44,4.84 3.49,6.88 1.05,2.04 2.45,4.74 3.49,6.73 1.05,2 2.45,4.63 3.49,6.58 1.05,1.95 2.45,4.52 3.5,6.42 1.04,1.9 2.44,4.4 3.49,6.25 1.05,1.85 2.44,4.28 3.49,6.08 1.05,1.8 2.44,4.16 3.49,5.91 1.05,1.75 2.45,4.04 3.49,5.73 1.05,1.7 2.45,3.92 3.5,5.56 1.04,1.64 2.44,3.79 3.49,5.37 1.05,1.59 2.44,3.67 3.49,5.2 1.05,1.53 2.44,3.54 3.49,5.01 1.05,1.48 2.45,3.41 3.49,4.84 1.05,1.42 2.45,3.28 3.49,4.65 1.05,1.37 2.45,3.16 3.5,4.48 1.04,1.31 2.44,3.03 3.49,4.3 1.05,1.26 2.44,2.91 3.49,4.12 1.05,1.22 2.44,2.8 3.49,3.96 1.05,1.16 2.45,2.67 3.49,3.78 1.05,1.11 2.45,2.56 3.5,3.62 1.04,1.06 2.44,2.45 3.49,3.46 1.05,1.01 2.44,2.33 3.49,3.3 1.05,0.97 2.44,2.22 3.49,3.14 1.05,0.92 2.45,2.12 3.49,3 1.05,0.87 2.45,2.01 3.49,2.84 1.05,0.84 2.45,1.92 3.5,2.71 1.04,0.79 2.44,1.81 3.49,2.56 1.05,0.75 2.44,1.73 3.49,2.44 1.05,0.71 2.44,1.63 3.49,2.3 1.05,0.68 2.45,1.55 3.49,2.19 1.05,0.63 2.45,1.46 3.5,2.06 1.04,0.6 2.44,1.38 3.49,1.94 1.05,0.57 2.44,1.31 3.49,1.84 1.05,0.54 2.44,1.23 3.49,1.73 1.05,0.51 2.45,1.16 3.49,1.63 1.05,0.48 2.45,1.09 3.49,1.54 1.05,0.45 2.45,1.02 3.5,1.44 1.04,0.42 2.44,0.96 3.49,1.36 1.05,0.39 2.44,0.9 3.49,1.27 1.05,0.37 2.44,0.84 3.49,1.19 1.05,0.34 2.45,0.79 3.49,1.11 1.05,0.33 2.45,0.74 3.5,1.05 1.04,0.3 2.44,0.69 3.49,0.97 1.05,0.28 2.44,0.65 3.49,0.91 1.05,0.27 2.44,0.61 3.49,0.85 1.05,0.25 2.45,0.57 3.49,0.8 1.05,0.23 2.45,0.52 3.49,0.73 1.05,0.22 2.45,0.49 3.5,0.69 1.04,0.2 2.44,0.46 3.49,0.64 1.05,0.19 2.44,0.42 3.49,0.6 1.05,0.17 2.44,0.39 3.49,0.55 1.05,0.16 2.45,0.36 3.49,0.51 1.05,0.15 2.45,0.34 3.5,0.47 1.04,0.14 2.44,0.32 3.49,0.44 1.05,0.13 2.44,0.29 3.49,0.41 1.05,0.12 2.44,0.27 3.49,0.38 1.05,0.11 2.45,0.25 3.49,0.35 1.05,0.1 2.45,0.22 3.5,0.32 1.04,0.09 2.44,0.21 3.49,0.29 1.04,0.09 2.44,0.2 3.49,0.28 0.79,0.06 2.87,0.2 3.49,0.25 0.62,0.04 0.67,0.04 0.66,0.04"
           id="path41"
           style="stroke:#4b2777;stroke-opacity:1" /></g></g></g><g
     stroke-linecap="square"
     stroke="#a5a5a5"
     id="g47"
     transform="translate(-27.990574,-59.805787)"
     style="font-size:13px;font-family:'Helvetica Neue';fill:#000000;stroke:#000000;stroke-opacity:1"
     clip-path="url(#clipPath368)"><path
       fill="none"
       d="M 704.5,535.5 H 46.5"
       id="path46"
       style="stroke:#000000;stroke-opacity:1;fill:#000000" /></g><g
     stroke="#a5a5a5"
     id="g62"
     transform="translate(-27.990574,-59.805787)"
     style="font-size:13px;font-family:'Helvetica Neue';fill:#000000;stroke:#000000;stroke-opacity:1"
     clip-path="url(#clipPath30)"><path
       fill="none"
       d="m 93.5,535.5 v 3"
       id="path48"
       style="stroke:#000000;stroke-opacity:1;fill:#000000" /><path
       fill="none"
       d="m 187.5,535.5 v 3"
       id="path49"
       style="stroke:#000000;stroke-opacity:1;fill:#000000" /><path
       fill="none"
       d="m 281.5,535.5 v 3"
       id="path50"
       style="stroke:#000000;stroke-opacity:1;fill:#000000" /><path
       fill="none"
       d="m 375.5,535.5 v 3"
       id="path51"
       style="stroke:#000000;stroke-opacity:1;fill:#000000" /><path
       fill="none"
       d="m 469.5,535.5 v 3"
       id="path52"
       style="stroke:#000000;stroke-opacity:1;fill:#000000" /><path
       fill="none"
       d="m 563.5,535.5 v 3"
       id="path53"
       style="stroke:#000000;stroke-opacity:1;fill:#000000" /><path
       fill="none"
       d="m 657.5,535.5 v 3"
       id="path54"
       style="stroke:#000000;stroke-opacity:1;fill:#000000" /><path
       fill="none"
       d="m 46.5,535.5 v 6"
       id="path55"
       style="stroke:#000000;stroke-opacity:1;fill:#000000" /><path
       fill="none"
       d="m 140.5,535.5 v 6"
       id="path56"
       style="stroke:#000000;stroke-opacity:1;fill:#000000" /><path
       fill="none"
       d="m 234.5,535.5 v 6"
       id="path57"
       style="stroke:#000000;stroke-opacity:1;fill:#000000" /><path
       fill="none"
       d="m 328.5,535.5 v 6"
       id="path58"
       style="stroke:#000000;stroke-opacity:1;fill:#000000" /><path
       fill="none"
       d="m 422.5,535.5 v 6"
       id="path59"
       style="stroke:#000000;stroke-opacity:1;fill:#000000" /><path
       fill="none"
       d="m 516.5,535.5 v 6"
       id="path60"
       style="stroke:#000000;stroke-opacity:1;fill:#000000" /><path
       fill="none"
       d="m 610.5,535.5 v 6"
       id="path61"
       style="stroke:#000000;stroke-opacity:1;fill:#000000" /><path
       fill="none"
       d="m 704.5,535.5 v 6"
       id="path62"
       style="stroke:#000000;stroke-opacity:1;fill:#000000" /></g><text
     stroke="none"
     x="18.509426"
     y="483.69421"
     dy="14.08"
     text-anchor="middle"
     id="text62"
     style="font-style:normal;font-variant:normal;font-weight:normal;font-stretch:normal;font-size:18.66670036px;font-family:'CMU Serif';-inkscape-font-specification:'CMU Serif, Normal';font-variant-ligatures:normal;font-variant-caps:normal;font-variant-numeric:normal;font-variant-east-asian:normal;fill:#000000">8</text><text
     stroke="none"
     x="112.50942"
     y="483.69421"
     dy="14.08"
     text-anchor="middle"
     id="text63"
     style="font-style:normal;font-variant:normal;font-weight:normal;font-stretch:normal;font-size:18.66670036px;font-family:'CMU Serif';-inkscape-font-specification:'CMU Serif, Normal';font-variant-ligatures:normal;font-variant-caps:normal;font-variant-numeric:normal;font-variant-east-asian:normal;fill:#000000">9</text><text
     stroke="none"
     x="206.50943"
     y="483.69421"
     dy="14.08"
     text-anchor="middle"
     id="text64"
     style="font-style:normal;font-variant:normal;font-weight:normal;font-stretch:normal;font-size:18.66670036px;font-family:'CMU Serif';-inkscape-font-specification:'CMU Serif, Normal';font-variant-ligatures:normal;font-variant-caps:normal;font-variant-numeric:normal;font-variant-east-asian:normal;fill:#000000">10</text><text
     stroke="none"
     x="300.50943"
     y="483.69421"
     dy="14.08"
     text-anchor="middle"
     id="text65"
     style="font-style:normal;font-variant:normal;font-weight:normal;font-stretch:normal;font-size:18.66670036px;font-family:'CMU Serif';-inkscape-font-specification:'CMU Serif, Normal';font-variant-ligatures:normal;font-variant-caps:normal;font-variant-numeric:normal;font-variant-east-asian:normal;fill:#000000">11</text><text
     stroke="none"
     x="394.50943"
     y="483.69421"
     dy="14.08"
     text-anchor="middle"
     id="text66"
     style="font-style:normal;font-variant:normal;font-weight:normal;font-stretch:normal;font-size:18.66670036px;font-family:'CMU Serif';-inkscape-font-specification:'CMU Serif, Normal';font-variant-ligatures:normal;font-variant-caps:normal;font-variant-numeric:normal;font-variant-east-asian:normal;fill:#000000">12</text><text
     stroke="none"
     x="488.50943"
     y="483.69421"
     dy="14.08"
     text-anchor="middle"
     id="text67"
     style="font-style:normal;font-variant:normal;font-weight:normal;font-stretch:normal;font-size:18.66670036px;font-family:'CMU Serif';-inkscape-font-specification:'CMU Serif, Normal';font-variant-ligatures:normal;font-variant-caps:normal;font-variant-numeric:normal;font-variant-east-asian:normal;fill:#000000">13</text><text
     stroke="none"
     x="582.50946"
     y="483.69421"
     dy="14.08"
     text-anchor="middle"
     id="text68"
     style="font-style:normal;font-variant:normal;font-weight:normal;font-stretch:normal;font-size:18.66670036px;font-family:'CMU Serif';-inkscape-font-specification:'CMU Serif, Normal';font-variant-ligatures:normal;font-variant-caps:normal;font-variant-numeric:normal;font-variant-east-asian:normal;fill:#000000">14</text><text
     stroke="none"
     x="676.50946"
     y="483.69421"
     dy="14.08"
     text-anchor="middle"
     id="text69"
     style="font-style:normal;font-variant:normal;font-weight:normal;font-stretch:normal;font-size:18.66670036px;font-family:'CMU Serif';-inkscape-font-specification:'CMU Serif, Normal';font-variant-ligatures:normal;font-variant-caps:normal;font-variant-numeric:normal;font-variant-east-asian:normal;fill:#000000">15</text><g
     id="g283"
     transform="translate(-1522.8955,-29.139179)"
     clip-path="url(#clipPath362)"
     style="font-size:13px;font-family:'Helvetica Neue';fill:#000000;stroke:#000000"><clipPath
       id="clip23"
       clip-path="url(#clip22)"><path
         d="m 1581.5,81.5 v 98 h 183 v -98 z"
         id="path266" /></clipPath><g
       clip-path="url(#clip23-2)"
       id="g282"
       style="font-size:13px;font-family:'Helvetica Neue';fill:#000000;stroke:#000000"
       transform="translate(434.50001,168.73281)"><rect
         stroke="none"
         x="1602.8228"
         y="81.105179"
         width="118.82712"
         height="96"
         id="rect266"
         style="opacity:0.124294;fill:#4b2777;fill-opacity:1;stroke-width:1.03934" /><rect
         stroke="none"
         x="1724.048"
         y="81.105179"
         width="41.370499"
         height="96"
         id="rect266-8"
         style="font-size:13px;font-family:'Helvetica Neue';opacity:0.124294;fill:#4b2777;fill-opacity:1;stroke:none;stroke-width:0.613261" /><g
         id="g274"
         transform="translate(22.146973,-1.698105)"
         style="fill:#4b2777;fill-opacity:1"><g
           id="g273"
           style="fill:#4b2777;fill-opacity:1"><clipPath
             id="clipPath1"
             clip-path="url(#clip23-2)"><path
               d="M 1582,81.5 V 180 h 183 V 81.5 Z"
               id="path1" /></clipPath><g
             clip-path="url(#clip24)"
             id="g272"
             style="fill:#4b2777;fill-opacity:1"><text
               stroke="none"
               x="1584.5"
               y="95.5"
               id="text267"
               style="font-style:normal;font-variant:normal;font-weight:normal;font-stretch:normal;font-size:13.33333333px;font-family:'CMU Serif';-inkscape-font-specification:'CMU Serif, Normal';font-variant-ligatures:normal;font-variant-caps:normal;font-variant-numeric:normal;font-variant-east-asian:normal;fill:#4b2777;fill-opacity:1">Mean</text><text
               stroke="none"
               x="1584.5"
               y="111.5"
               id="text268"
               style="font-style:normal;font-variant:normal;font-weight:normal;font-stretch:normal;font-size:13.33333333px;font-family:'CMU Serif';-inkscape-font-specification:'CMU Serif, Normal';font-variant-ligatures:normal;font-variant-caps:normal;font-variant-numeric:normal;font-variant-east-asian:normal;fill:#4b2777;fill-opacity:1">Std Dev</text><text
               stroke="none"
               x="1584.5"
               y="127.5"
               id="text269"
               style="font-style:normal;font-variant:normal;font-weight:normal;font-stretch:normal;font-size:13.33333333px;font-family:'CMU Serif';-inkscape-font-specification:'CMU Serif, Normal';font-variant-ligatures:normal;font-variant-caps:normal;font-variant-numeric:normal;font-variant-east-asian:normal;fill:#4b2777;fill-opacity:1">Std Err Mean</text><text
               stroke="none"
               x="1584.5"
               y="143.5"
               id="text270"
               style="font-style:normal;font-variant:normal;font-weight:normal;font-stretch:normal;font-size:13.33333333px;font-family:'CMU Serif';-inkscape-font-specification:'CMU Serif, Normal';font-variant-ligatures:normal;font-variant-caps:normal;font-variant-numeric:normal;font-variant-east-asian:normal;fill:#4b2777;fill-opacity:1">Upper 95% Mean</text><text
               stroke="none"
               x="1584.5"
               y="159.5"
               id="text271"
               style="font-style:normal;font-variant:normal;font-weight:normal;font-stretch:normal;font-size:13.33333333px;font-family:'CMU Serif';-inkscape-font-specification:'CMU Serif, Normal';font-variant-ligatures:normal;font-variant-caps:normal;font-variant-numeric:normal;font-variant-east-asian:normal;fill:#4b2777;fill-opacity:1">Lower 95% Mean</text><text
               stroke="none"
               x="1584.5"
               y="175.5"
               id="text272"
               style="font-style:normal;font-variant:normal;font-weight:normal;font-stretch:normal;font-size:13.33333333px;font-family:'CMU Serif';-inkscape-font-specification:'CMU Serif, Normal';font-variant-ligatures:normal;font-variant-caps:normal;font-variant-numeric:normal;font-variant-east-asian:normal;fill:#4b2777;fill-opacity:1">N</text></g></g></g><g
         id="g281"
         transform="translate(1.67684,-1.698105)"
         style="fill:#4b2777;fill-opacity:1"><g
           id="g280"
           style="fill:#4b2777;fill-opacity:1"><clipPath
             id="clipPath2"
             clip-path="url(#clip23-2)"><path
               d="M 1582,81.5 V 180 h 183 V 81.5 Z"
               id="path2" /></clipPath><g
             clip-path="url(#clip25)"
             id="g279"
             style="fill:#4b2777;fill-opacity:1"><text
               stroke="none"
               x="1760.5"
               y="95.5"
               text-anchor="end"
               id="text274"
               style="font-style:normal;font-variant:normal;font-weight:normal;font-stretch:normal;font-size:13.33333333px;font-family:'CMU Serif';-inkscape-font-specification:'CMU Serif, Normal';font-variant-ligatures:normal;font-variant-caps:normal;font-variant-numeric:normal;font-variant-east-asian:normal;fill:#4b2777;fill-opacity:1">11.34</text><text
               stroke="none"
               x="1760.5"
               y="111.5"
               text-anchor="end"
               id="text275"
               style="font-style:normal;font-variant:normal;font-weight:normal;font-stretch:normal;font-size:13.33333333px;font-family:'CMU Serif';-inkscape-font-specification:'CMU Serif, Normal';font-variant-ligatures:normal;font-variant-caps:normal;font-variant-numeric:normal;font-variant-east-asian:normal;fill:#4b2777;fill-opacity:1">1.08</text><text
               stroke="none"
               x="1760.5"
               y="127.5"
               text-anchor="end"
               id="text276"
               style="font-style:normal;font-variant:normal;font-weight:normal;font-stretch:normal;font-size:13.33333333px;font-family:'CMU Serif';-inkscape-font-specification:'CMU Serif, Normal';font-variant-ligatures:normal;font-variant-caps:normal;font-variant-numeric:normal;font-variant-east-asian:normal;fill:#4b2777;fill-opacity:1">0.04</text><text
               stroke="none"
               x="1760.5"
               y="143.5"
               text-anchor="end"
               id="text277"
               style="font-style:normal;font-variant:normal;font-weight:normal;font-stretch:normal;font-size:13.33333333px;font-family:'CMU Serif';-inkscape-font-specification:'CMU Serif, Normal';font-variant-ligatures:normal;font-variant-caps:normal;font-variant-numeric:normal;font-variant-east-asian:normal;fill:#4b2777;fill-opacity:1">11.42</text><text
               stroke="none"
               x="1760.5"
               y="159.5"
               text-anchor="end"
               id="text278"
               style="font-style:normal;font-variant:normal;font-weight:normal;font-stretch:normal;font-size:13.33333333px;font-family:'CMU Serif';-inkscape-font-specification:'CMU Serif, Normal';font-variant-ligatures:normal;font-variant-caps:normal;font-variant-numeric:normal;font-variant-east-asian:normal;fill:#4b2777;fill-opacity:1">11.26</text><text
               stroke="none"
               x="1760.5"
               y="175.5"
               text-anchor="end"
               id="text279"
               style="font-style:normal;font-variant:normal;font-weight:normal;font-stretch:normal;font-size:13.33333333px;font-family:'CMU Serif';-inkscape-font-specification:'CMU Serif, Normal';font-variant-ligatures:normal;font-variant-caps:normal;font-variant-numeric:normal;font-variant-east-asian:normal;fill:#4b2777;fill-opacity:1">654</text></g></g></g></g></g><text
     xml:space="preserve"
     style="font-size:22.66670036px;font-family:'CMU Serif';-inkscape-font-specification:'CMU Serif, Normal';text-align:center;text-anchor:middle;fill:#4b2777;fill-opacity:1;stroke:#4b2777;stroke-width:0.5;stroke-dasharray:none;stroke-opacity:1;font-weight:normal;font-style:normal;font-stretch:normal;font-variant:normal;font-variant-ligatures:normal;font-variant-caps:normal;font-variant-numeric:normal;font-variant-east-asian:normal"
     x="420.20316"
     y="154.14133"
     id="text352"><tspan
       sodipodi:role="line"
       x="420.20316"
       y="154.14133"
       id="tspan354"
       style="font-style:normal;font-variant:normal;font-weight:normal;font-stretch:normal;font-size:22.66670036px;font-family:'CMU Serif';-inkscape-font-specification:'CMU Serif, Normal';font-variant-ligatures:normal;font-variant-caps:normal;font-variant-numeric:normal;font-variant-east-asian:normal;text-align:start;text-anchor:start;fill:#4b2777;fill-opacity:1;stroke:#4b2777;stroke-width:0.5;stroke-dasharray:none;stroke-opacity:1">Gamma Distribution</tspan><tspan
       sodipodi:role="line"
       x="420.20316"
       y="187.4747"
       id="tspan353"
       style="font-size:22.66670036px;text-align:start;text-anchor:start;fill:#4b2777;fill-opacity:1;stroke:#4b2777;stroke-width:0.5;stroke-dasharray:none;stroke-opacity:1;-inkscape-font-specification:'CMU Serif, Normal';font-family:'CMU Serif';font-weight:normal;font-style:normal;font-stretch:normal;font-variant:normal;font-variant-ligatures:normal;font-variant-caps:normal;font-variant-numeric:normal;font-variant-east-asian:normal" /></text><text
     xml:space="preserve"
     style="font-size:22.66670036px;font-family:'CMU Serif';-inkscape-font-specification:'CMU Serif, Normal';opacity:1;fill:#4b2777;fill-opacity:1;stroke:none;stroke-width:0.5;stroke-dasharray:none;stroke-opacity:1;font-weight:normal;font-style:normal;font-stretch:normal;font-variant:normal;font-variant-ligatures:normal;font-variant-caps:normal;font-variant-numeric:normal;font-variant-east-asian:normal"
     x="420.49222"
     y="177.90056"
     id="text49"><tspan
       sodipodi:role="line"
       id="tspan49"
       x="420.49222"
       y="177.90056"> = 109.96,  = 0.10</tspan></text><g
     id="matplotlib.axis_2"
     style="stroke-linecap:butt;stroke-linejoin:round"
     transform="matrix(1.3333333,0,0,1.3333333,-173.74072,-87.11846)"><g
       id="text_14"
       style="stroke-linecap:butt;stroke-linejoin:round"
       transform="rotate(90,126.14871,563.50944)"><!-- Normalized $\left(\mathrm{T_{REBCO} - T_{Coldmass}}\right)$ [K] --><g
         transform="matrix(0,-0.24,-0.24,0,31.92,488.64969)"
         id="g749"
         style="stroke-linecap:butt;stroke-linejoin:round"><defs
           id="defs716"><path
             id="path16"
             d="m 211,0 c 224,6 538,19 749,19 211,0 525,-13 749,-19 v 198 c -659,0 -659,301 -659,474 v 3328 c 32,-32 38,-38 64,-77 L 3725,83 c 57,-77 64,-83 109,-83 89,0 89,45 89,166 v 3533 c 0,173 0,474 659,474 v 198 c -224,-6 -537,-19 -748,-19 -212,0 -525,13 -749,19 v -198 c 659,0 659,-301 659,-474 V 966 L 1485,4288 c -58,77 -64,83 -186,83 H 211 v -198 h 186 c 96,0 224,-7 320,-13 147,-19 153,-26 153,-147 V 672 c 0,-173 0,-474 -659,-474 z"
             transform="scale(0.015625)" /><path
             id="path17"
             d="m 211,0 c 211,6 551,19 711,19 160,0 473,-13 710,-19 v 198 c -429,0 -499,0 -499,288 v 3956 l -922,-71 v -198 c 448,0 499,-45 499,-359 V 486 C 710,198 640,198 211,198 Z"
             transform="scale(0.015625)" /><path
             id="path18"
             d="m 480,3942 c 0,-172 141,-339 339,-339 179,0 339,135 339,339 0,205 -160,340 -339,340 -198,0 -339,-173 -339,-340 z M 211,0 c 205,6 551,19 704,19 224,0 448,-13 666,-19 v 198 c -423,0 -448,32 -448,282 v 2349 l -896,-71 v -198 c 416,0 473,-38 473,-352 V 486 C 710,198 640,198 211,198 Z"
             transform="scale(0.015625)" /><path
             id="path19"
             d="M 179,90 C 179,0 224,0 346,0 h 2112 l 108,1197 H 2406 C 2349,442 2214,160 1472,160 H 717 l 1779,2406 c 58,71 58,84 58,109 0,83 -52,83 -167,83 H 339 L 269,1728 h 160 c 38,653 160,890 864,890 h 729 L 237,205 C 179,134 179,122 179,90 Z"
             transform="scale(0.015625)" /><path
             id="path20"
             d="M 218,1376 C 218,563 845,-70 1574,-70 c 410,0 698,217 858,422 V -70 l 941,70 v 198 c -448,0 -499,45 -499,359 v 3885 l -922,-71 v -198 c 448,0 499,-45 499,-359 V 2432 c -185,230 -461,397 -806,397 C 890,2829 218,2202 218,1376 Z m 531,-6 c 0,236 13,620 198,908 135,199 378,410 723,410 224,0 493,-96 692,-384 70,-109 70,-122 70,-237 V 755 c 0,-115 0,-128 -70,-237 C 2170,211 1882,70 1606,70 1318,70 1088,237 934,480 768,742 749,1107 749,1370 Z"
             transform="scale(0.015625)" /><path
             id="path21"
             d="m 1984,-1588 q -356,282 -614,646 -257,364 -422,777 -164,412 -245,862 -81,450 -81,903 0,459 81,909 81,450 248,866 168,416 427,778 260,363 606,635 0,12 32,12 h 59 q 19,0 34,-17 16,-17 16,-39 0,-28 -12,-41 -313,-306 -521,-656 -208,-350 -335,-746 -126,-395 -182,-819 -56,-423 -56,-882 0,-2034 1087,-3091 19,-18 19,-53 0,-15 -17,-35 -17,-21 -33,-21 h -59 q -32,0 -32,12 z"
             transform="scale(0.015625)" /><path
             id="path22"
             d="m 1081,0 v 225 q 322,0 625,36 303,36 303,167 v 3516 q 0,137 -77,170 -76,33 -248,33 H 1416 Q 888,4147 666,3916 550,3800 500,3545 450,3291 416,2906 H 231 l 122,1466 h 3910 l 121,-1466 h -187 q -38,413 -83,655 -45,242 -164,355 -225,231 -750,231 h -269 q -115,0 -179,-10 -64,-9 -105,-54 -41,-45 -41,-139 V 428 q 0,-131 303,-167 304,-36 622,-36 V 0 Z"
             transform="scale(0.015625)" /><path
             id="path23"
             d="m 213,0 v 225 q 659,0 659,203 v 3516 q 0,203 -659,203 v 225 h 2009 q 359,0 754,-130 396,-129 661,-395 266,-266 266,-634 0,-269 -161,-480 -161,-211 -413,-353 -251,-142 -513,-205 287,-100 502,-319 216,-218 260,-500 l 91,-568 q 62,-385 131,-574 69,-189 303,-189 200,0 298,186 99,186 99,405 0,22 20,39 21,17 43,17 h 59 q 62,0 62,-84 0,-175 -69,-343 -68,-167 -198,-276 -129,-110 -308,-110 -462,0 -795,230 -333,230 -333,674 v 568 q 0,319 -222,547 -221,228 -543,228 H 1447 V 428 q 0,-203 659,-203 V 0 Z m 1234,2272 h 684 q 532,0 810,214 278,214 278,727 0,509 -275,721 -275,213 -813,213 h -359 q -116,0 -180,-10 -64,-9 -105,-54 -40,-45 -40,-139 z"
             transform="scale(0.015625)" /><path
             id="path24"
             d="m 197,0 v 225 q 659,0 659,203 v 3516 q 0,203 -659,203 v 225 h 3619 l 178,-1466 h -185 q -68,553 -192,803 -123,250 -395,344 -272,94 -816,94 h -628 q -115,0 -180,-10 -64,-9 -105,-54 -40,-45 -40,-139 V 2381 h 472 q 325,0 486,55 161,55 222,209 61,155 61,483 h 187 V 1409 h -187 q 0,325 -61,481 -61,157 -222,211 -161,55 -486,55 H 1453 V 428 q 0,-137 78,-170 78,-33 247,-33 h 678 q 444,0 717,70 274,71 425,235 152,164 235,425 83,261 155,723 h 184 L 3903,0 Z"
             transform="scale(0.015625)" /><path
             id="path25"
             d="m 219,0 v 225 q 659,0 659,203 v 3516 q 0,203 -659,203 v 225 h 2353 q 325,0 656,-127 331,-126 548,-375 218,-248 218,-586 0,-390 -321,-654 -320,-264 -748,-346 278,0 572,-153 294,-153 481,-409 188,-256 188,-544 0,-350 -208,-619 Q 3750,291 3419,145 3088,0 2753,0 Z m 1215,428 q 0,-137 78,-170 79,-33 247,-33 h 813 q 250,0 464,131 214,132 339,352 125,220 125,470 0,244 -103,477 -103,233 -296,383 -192,150 -438,150 H 1434 Z m 0,1928 h 960 q 194,0 364,70 170,71 306,204 136,133 209,300 74,167 74,354 0,166 -55,319 -54,153 -161,278 -106,125 -250,195 -143,71 -309,71 h -813 q -115,0 -179,-10 -64,-9 -105,-54 -41,-45 -41,-139 z"
             transform="scale(0.015625)" /><path
             id="path27"
             d="m 1459,684 q 219,-278 547,-439 328,-161 682,-161 296,0 549,117 254,118 443,327 189,210 290,475 102,266 102,560 0,50 56,50 h 78 q 50,0 50,-63 0,-334 -128,-645 Q 4000,594 3765,358 3531,122 3226,-9 q -304,-132 -635,-132 -460,0 -871,186 -411,186 -716,509 -304,324 -475,749 -170,425 -170,885 0,459 170,884 171,425 475,750 305,325 716,508 411,183 871,183 328,0 628,-143 300,-142 525,-401 l 372,525 q 37,19 43,19 h 47 q 19,0 34,-16 16,-16 16,-38 V 2731 q 0,-56 -50,-56 h -115 q -60,0 -60,56 0,185 -74,413 -73,228 -187,432 -114,205 -264,362 -359,350 -825,350 -353,0 -677,-160 -323,-159 -545,-440 -234,-300 -325,-683 -90,-383 -90,-817 0,-435 90,-820 91,-384 325,-684 z"
             transform="scale(0.015625)" /><path
             id="path28"
             d="m 2491,-141 q -610,0 -1096,323 -486,324 -761,860 -275,536 -275,1127 0,437 158,865 158,429 441,760 283,331 679,525 397,194 854,194 453,0 851,-196 399,-195 683,-530 284,-334 437,-750 154,-415 154,-868 0,-591 -275,-1127 Q 4066,506 3578,182 3091,-141 2491,-141 Z M 1428,691 q 188,-294 463,-468 275,-173 600,-173 209,0 410,84 202,85 366,232 164,147 280,325 381,575 381,1581 0,922 -381,1459 -188,269 -468,431 -279,163 -588,163 -313,0 -594,-163 -281,-162 -469,-431 -150,-209 -233,-445 -82,-236 -117,-489 -34,-253 -34,-525 0,-291 32,-568 33,-276 122,-542 90,-265 230,-471 z"
             transform="scale(0.015625)" /><path
             id="path29"
             d="m 653,1472 q -53,0 -88,40 -34,41 -34,88 0,47 34,87 35,41 88,41 h 3672 q 50,0 83,-41 33,-40 33,-87 0,-47 -33,-88 -33,-40 -83,-40 z"
             transform="scale(0.015625)" /><path
             id="path31"
             d="m 1600,-72 q -384,0 -713,195 -328,196 -519,524 -190,328 -190,716 0,293 105,565 105,272 300,486 195,214 454,334 260,121 563,121 394,0 717,-208 324,-208 511,-557 188,-348 188,-741 0,-385 -191,-715 Q 2634,319 2307,123 1981,-72 1600,-72 Z m 0,188 q 513,0 684,371 172,372 172,947 0,322 -34,533 -34,211 -150,383 -72,106 -183,186 -111,80 -235,122 -123,42 -254,42 -200,0 -380,-91 -179,-90 -298,-259 -119,-181 -152,-399 -32,-217 -32,-517 0,-359 62,-645 63,-286 252,-480 189,-193 548,-193 z"
             transform="scale(0.015625)" /><path
             id="path32"
             d="m 197,0 v 225 q 219,0 359,34 141,35 141,169 v 3360 q 0,171 -52,248 -51,77 -148,94 -97,17 -300,17 v 225 l 950,69 V 428 q 0,-134 140,-169 141,-34 357,-34 V 0 Z"
             transform="scale(0.015625)" /><path
             id="path34"
             d="m 1563,-72 q -379,0 -692,205 -312,205 -485,539 -173,334 -173,709 0,388 189,720 189,333 514,530 325,197 715,197 235,0 444,-99 209,-98 363,-273 v 1332 q 0,171 -52,248 -52,77 -147,94 -95,17 -298,17 v 225 l 947,69 V 581 q 0,-168 51,-245 52,-77 147,-94 95,-17 298,-17 V 0 L 2419,-72 V 331 Q 2253,141 2025,34 1797,-72 1563,-72 Z M 909,556 q 110,-209 292,-334 183,-125 399,-125 266,0 487,153 222,153 332,397 v 1534 q -75,141 -189,252 -114,111 -257,170 -142,60 -301,60 -334,0 -538,-190 -203,-189 -284,-483 -81,-293 -81,-615 0,-256 26,-447 27,-190 114,-372 z"
             transform="scale(0.015625)" /><path
             id="path35"
             d="m 191,0 v 225 q 218,0 359,34 141,35 141,169 v 1747 q 0,172 -52,248 -51,77 -148,94 -97,17 -300,17 v 225 l 928,69 v -625 q 128,275 379,450 252,175 549,175 737,0 866,-600 128,269 374,434 247,166 541,166 291,0 489,-94 199,-93 299,-286 100,-192 100,-482 V 428 q 0,-134 142,-169 142,-34 358,-34 V 0 H 3750 v 225 q 219,0 359,34 141,35 141,169 v 1519 q 0,322 -91,519 -90,197 -371,197 -369,0 -610,-297 -240,-297 -240,-675 V 428 q 0,-134 140,-169 141,-34 360,-34 V 0 H 1972 v 225 q 219,0 359,34 141,35 141,169 v 1519 q 0,312 -91,514 -90,202 -372,202 -371,0 -611,-297 -239,-297 -239,-675 V 428 q 0,-134 141,-169 141,-34 356,-34 V 0 Z"
             transform="scale(0.015625)" /><path
             id="path36"
             d="m 256,628 q 0,381 300,620 300,240 720,338 421,98 799,98 v 263 q 0,184 -81,357 -81,174 -235,285 -153,111 -337,111 -425,0 -647,-191 122,0 201,-92 80,-92 80,-214 0,-128 -91,-219 -90,-90 -215,-90 -128,0 -219,90 -90,91 -90,219 0,338 306,502 306,164 675,164 259,0 521,-111 263,-111 430,-318 168,-206 168,-481 V 519 q 0,-125 53,-230 53,-105 165,-105 107,0 158,106 52,107 52,229 v 409 h 187 V 519 Q 3156,375 3081,245 3006,116 2879,39 2753,-38 2606,-38 2419,-38 2283,107 2147,253 2131,453 2013,213 1781,70 1550,-72 1288,-72 1044,-72 808,0 572,72 414,226 256,381 256,628 Z m 519,0 q 0,-225 165,-378 166,-153 391,-153 207,0 375,103 169,103 269,281 100,178 100,375 v 666 q -291,0 -596,-96 Q 1175,1331 975,1128 775,925 775,628 Z"
             transform="scale(0.015625)" /><path
             id="path37"
             d="m 213,-19 v 1044 q 0,50 56,50 h 78 q 37,0 50,-50 178,-928 862,-928 304,0 508,137 205,138 205,425 0,207 -160,352 -159,145 -378,198 l -428,85 q -215,47 -392,143 -176,97 -289,258 -112,161 -112,374 0,281 148,460 148,180 385,260 238,80 513,80 329,0 572,-175 l 185,159 q 0,16 31,16 h 47 q 19,0 34,-18 16,-17 16,-35 v -838 q 0,-59 -50,-59 h -78 q -57,0 -57,59 0,335 -186,538 -185,203 -520,203 -287,0 -498,-107 -211,-106 -211,-365 0,-178 151,-292 152,-114 355,-164 l 434,-82 q 219,-50 408,-169 189,-118 300,-300 111,-181 111,-409 0,-231 -80,-402 Q 2144,259 2001,146 1859,34 1665,-19 1472,-72 1259,-72 859,-72 575,197 L 341,-56 q 0,-16 -35,-16 h -37 q -56,0 -56,53 z"
             transform="scale(0.015625)" /><path
             id="path38"
             d="m 416,-1600 q -57,0 -57,56 0,28 13,41 1094,1069 1094,3103 0,2034 -1082,3091 -25,15 -25,53 0,22 17,39 18,17 40,17 h 59 q 19,0 31,-12 460,-363 766,-882 306,-518 448,-1106 143,-587 143,-1200 0,-453 -77,-892 -77,-439 -244,-865 -167,-427 -423,-788 -256,-361 -613,-643 -12,-12 -31,-12 z"
             transform="scale(0.015625)" /><path
             id="path39"
             d="m 211,0 c 224,19 698,19 941,19 243,0 723,0 947,-19 v 198 h -153 c -493,0 -506,71 -506,301 v 1120 l 742,704 1159,-1715 c 38,-58 96,-141 96,-218 0,-192 -250,-192 -378,-192 V 0 c 224,19 672,19 915,19 224,0 468,-6 736,-19 v 198 c -345,0 -480,26 -672,308 L 2560,2682 3712,3789 c 51,51 390,377 909,384 v 198 c -167,-19 -371,-19 -544,-19 -231,0 -595,0 -813,19 v -198 c 256,-7 294,-154 294,-211 0,-103 -64,-167 -115,-212 L 1440,1837 v 2035 c 0,230 13,301 506,301 h 153 v 198 c -224,-19 -697,-19 -941,-19 -243,0 -723,0 -947,19 v -198 h 154 c 493,0 505,-71 505,-301 V 499 C 870,269 858,198 365,198 H 211 Z"
             transform="scale(0.015625)" /></defs><use
           xlink:href="#CMUSerif-Roman-4e"
           id="use717"
           style="stroke-linecap:butt;stroke-linejoin:round" /><path
           id="use718"
           d="m 77.79686,21.40625 c 0,-12.90625 10.40625,-22.5 22.109375,-22.5 12.093745,0 22.187495,9.796875 22.187495,22.5 0,12.796875 -10,23.390625 -22.093745,23.390625 -12.5,0 -22.203125,-10.890625 -22.203125,-23.390625 z m 8.296875,0.796875 c 0,3.890625 0,9.296875 2.40625,13.703125 2.703125,4.59375 7.40625,6.6875 11.40625,6.6875 4.390625,0 8.687495,-2.1875 11.296875,-6.5 2.59375,-4.296875 2.59375,-10.09375 2.59375,-13.890625 0,-3.609375 0,-9 -2.20313,-13.40625 -2.1875,-4.5 -6.59375,-7.390625 -11.593745,-7.390625 -4.296875,0 -8.703125,2.09375 -11.40625,6.6875 -2.5,4.40625 -2.5,10.5 -2.5,14.109375 z"
           style="stroke-width:0.015625;stroke-linecap:butt;stroke-linejoin:round" /><path
           id="use719"
           d="m 127.79685,0 c 3.90625,0.09375 8.60937,0.296875 11.40625,0.296875 4,0 8.70312,0 12.70312,-0.296875 v 3.09375 h -2.10937 c -7.39063,0 -7.59375,1.109375 -7.59375,4.703125 v 15.40625 C 142.2031,33.09375 146.40622,42 153.99997,42 c 0.70313,0 0.90625,0 1.09375,-0.09375 -0.29687,-0.109375 -2.29687,-1.3125 -2.29687,-3.90625 0,-2.796875 2.10937,-4.296875 4.29687,-4.296875 1.8125,0 4.3125,1.203125 4.3125,4.390625 0,3.203125 -3.10937,6.109375 -7.40625,6.109375 -7.29687,0 -10.90625,-6.703125 -12.29687,-11 v 11 L 127.79685,43.09375 V 40 c 7,0 7.79687,-0.703125 7.79687,-5.59375 V 7.59375 c 0,-4.5 -1.09375,-4.5 -7.79687,-4.5 z"
           style="stroke-width:0.015625;stroke-linecap:butt;stroke-linejoin:round" /><path
           id="use720"
           d="m 167.30308,0 c 3.5,0.09375 8.59375,0.296875 11.29688,0.296875 2.59375,0 7.79687,-0.203125 11.20312,-0.296875 v 3.09375 c -6.70312,0 -7.79687,0 -7.79687,4.5 V 26 c 0,10.40625 7.09375,16 13.5,16 6.29687,0 7.39062,-5.40625 7.39062,-11.09375 V 7.59375 c 0,-4.5 -1.09375,-4.5 -7.79687,-4.5 V 0 c 3.5,0.09375 8.59375,0.296875 11.29687,0.296875 2.60938,0 7.79688,-0.203125 11.20313,-0.296875 v 3.09375 c -6.70313,0 -7.79688,0 -7.79688,4.5 V 26 c 0,10.40625 7.09375,16 13.5,16 6.29688,0 7.39063,-5.40625 7.39063,-11.09375 V 7.59375 c 0,-4.5 -1.09375,-4.5 -7.79688,-4.5 V 0 c 3.5,0.09375 8.60938,0.296875 11.29688,0.296875 2.60937,0 7.8125,-0.203125 11.20312,-0.296875 v 3.09375 c -5.20312,0 -7.70312,0 -7.79687,3 v 19.109375 c 0,8.59375 0,11.703125 -3.09375,15.296875 -1.40625,1.703125 -4.70313,3.703125 -10.5,3.703125 -8.40625,0 -12.8125,-6 -14.5,-9.796875 -1.40625,8.6875 -8.8125,9.796875 -13.3125,9.796875 -7.29688,0 -12,-4.296875 -14.79688,-10.5 v 10.5 L 167.30308,43.09375 V 40 c 7,0 7.79688,-0.703125 7.79688,-5.59375 V 7.59375 c 0,-4.5 -1.09375,-4.5 -7.79688,-4.5 z"
           style="stroke-width:0.015625;stroke-linecap:butt;stroke-linejoin:round" /><path
           id="use721"
           d="m 251.60307,9.5 c 0,-8.09375 9.70313,-10.59375 16,-10.59375 6.59375,0 11.20313,4 13.09375,8.6875 0.40625,-4 3.10938,-8.1875 7.79688,-8.1875 2.10937,0 8.20312,1.390625 8.20312,9.5 V 14.5 h -2.5 V 8.90625 c 0,-5.8125 -2.5,-6.40625 -3.59375,-6.40625 -3.29687,0 -3.70312,4.5 -3.70312,5 v 20 c 0,4.203125 0,8.09375 -3.59375,11.796875 -3.90625,3.90625 -8.90625,5.5 -13.70313,5.5 -8.20312,0 -15.10937,-4.703125 -15.10937,-11.296875 0,-3 2,-4.703125 4.60937,-4.703125 2.79688,0 4.59375,2 4.59375,4.609375 0,1.1875 -0.5,4.5 -5.09375,4.59375 2.70313,3.5 7.59375,4.59375 10.79688,4.59375 4.90625,0 10.59375,-3.890625 10.59375,-12.796875 V 26.09375 C 274.89995,25.796875 267.89995,25.5 261.60307,22.5 c -7.5,-3.40625 -10,-8.59375 -10,-13 z m 7.70313,0.09375 c 0,5.5 4.1875,13.8125 20.6875,14.40625 V 14 c 0,-9.5 -7.1875,-12.90625 -11.6875,-12.90625 -4.90625,0 -9,3.5 -9,8.5 z"
           style="stroke-width:0.015625;stroke-linecap:butt;stroke-linejoin:round" /><use
           xlink:href="#CMUSerif-Roman-6c"
           transform="translate(297.39993)"
           id="use722"
           style="stroke-linecap:butt;stroke-linejoin:round" /><use
           xlink:href="#CMUSerif-Roman-69"
           transform="translate(325.09993)"
           id="use723"
           style="stroke-linecap:butt;stroke-linejoin:round" /><use
           xlink:href="#CMUSerif-Roman-7a"
           transform="translate(352.79993)"
           id="use724"
           style="stroke-linecap:butt;stroke-linejoin:round" /><path
           id="use725"
           d="m 399.9968,22 c 0,-13.40625 10.5,-23.09375 22,-23.09375 12.20312,0 16.70312,11.09375 16.70312,13 0,1 -0.79687,1.1875 -1.29687,1.1875 -0.90625,0 -1.10938,-0.59375 -1.29688,-1.390625 -3.5,-10.296875 -12.5,-10.296875 -13.5,-10.296875 -5,0 -9,3 -11.3125,6.6875 -3,4.8125 -3,11.40625 -3,15 h 27.90625 c 2.20313,0 2.5,0 2.5,2.109375 0,9.890625 -5.40625,19.59375 -17.90625,19.59375 C 409.19992,44.796875 399.9968,34.5 399.9968,22 Z m 8.40625,3.203125 c 0.59375,14.890625 9,17.390625 12.39062,17.390625 10.3125,0 11.3125,-13.5 11.3125,-17.390625 z"
           style="stroke-width:0.015625;stroke-linecap:butt;stroke-linejoin:round" /><use
           xlink:href="#CMUSerif-Roman-64"
           transform="translate(441.59991)"
           id="use726"
           style="stroke-linecap:butt;stroke-linejoin:round" /><path
           id="use727"
           style="stroke-width:0.015625;stroke-linecap:butt;stroke-linejoin:round"
           d="" /><use
           xlink:href="#Cmr10-28"
           transform="matrix(0.872547,0,0,0.872547,530.39989,2.870312)"
           id="use728"
           style="stroke-linecap:butt;stroke-linejoin:round" /><use
           xlink:href="#Cmr10-54"
           transform="translate(564.26891)"
           id="use729"
           style="stroke-linecap:butt;stroke-linejoin:round" /><use
           xlink:href="#Cmr10-52"
           transform="matrix(0.7,0,0,0.7,641.0532,-17.4)"
           id="use730"
           style="stroke-linecap:butt;stroke-linejoin:round" /><use
           xlink:href="#Cmr10-45"
           transform="matrix(0.7,0,0,0.7,692.56199,-17.4)"
           id="use731"
           style="stroke-linecap:butt;stroke-linejoin:round" /><use
           xlink:href="#Cmr10-42"
           transform="matrix(0.7,0,0,0.7,740.1743,-17.4)"
           id="use732"
           style="stroke-linecap:butt;stroke-linejoin:round" /><use
           xlink:href="#Cmr10-43"
           transform="matrix(0.7,0,0,0.7,789.73484,-17.4)"
           id="use733"
           style="stroke-linecap:butt;stroke-linejoin:round" /><use
           xlink:href="#Cmr10-4f"
           transform="matrix(0.7,0,0,0.7,840.2866,-17.4)"
           id="use734"
           style="stroke-linecap:butt;stroke-linejoin:round" /><use
           xlink:href="#Cmsy10-a1"
           transform="translate(918.75008)"
           id="use735"
           style="stroke-linecap:butt;stroke-linejoin:round" /><use
           xlink:href="#Cmr10-54"
           transform="translate(1013.9942)"
           id="use736"
           style="stroke-linecap:butt;stroke-linejoin:round" /><use
           xlink:href="#Cmr10-43"
           transform="matrix(0.7,0,0,0.7,1090.7785,-17.4)"
           id="use737"
           style="stroke-linecap:butt;stroke-linejoin:round" /><use
           xlink:href="#Cmr10-6f"
           transform="matrix(0.7,0,0,0.7,1141.3303,-17.4)"
           id="use738"
           style="stroke-linecap:butt;stroke-linejoin:round" /><use
           xlink:href="#Cmr10-6c"
           transform="matrix(0.7,0,0,0.7,1176.3303,-17.4)"
           id="use739"
           style="stroke-linecap:butt;stroke-linejoin:round" /><use
           xlink:href="#Cmr10-64"
           transform="matrix(0.7,0,0,0.7,1195.7102,-17.4)"
           id="use740"
           style="stroke-linecap:butt;stroke-linejoin:round" /><use
           xlink:href="#Cmr10-6d"
           transform="matrix(0.7,0,0,0.7,1234.5725,-17.4)"
           id="use741"
           style="stroke-linecap:butt;stroke-linejoin:round" /><use
           xlink:href="#Cmr10-61"
           transform="matrix(0.7,0,0,0.7,1292.883,-17.4)"
           id="use742"
           style="stroke-linecap:butt;stroke-linejoin:round" /><use
           xlink:href="#Cmr10-73"
           transform="matrix(0.7,0,0,0.7,1327.883,-17.4)"
           id="use743"
           style="stroke-linecap:butt;stroke-linejoin:round" /><use
           xlink:href="#Cmr10-73"
           transform="matrix(0.7,0,0,0.7,1355.466,-17.4)"
           id="use744"
           style="stroke-linecap:butt;stroke-linejoin:round" /><use
           xlink:href="#Cmr10-29"
           transform="matrix(0.872547,0,0,0.872547,1389.574,2.870312)"
           id="use745"
           style="stroke-linecap:butt;stroke-linejoin:round" /><path
           id="use746"
           style="stroke-width:0.015625;stroke-linecap:butt;stroke-linejoin:round"
           d="" /><path
           id="use747"
           d="m 1467.1493,-25 h 15.0937 v 2.296875 h -8.4062 v 95.40625 h 8.4062 V 75 h -15.0937 z"
           style="stroke-width:0.015625;stroke-linecap:butt;stroke-linejoin:round" /><use
           xlink:href="#CMUSerif-Roman-4b"
           transform="translate(1484.543)"
           id="use748"
           style="stroke-linecap:butt;stroke-linejoin:round" /><path
           id="use749"
           d="M 1564.3368,-22.703125 V -25 h 15.1093 V 75 h -15.1093 v -2.296875 h 8.4062 v -95.40625 z"
           style="stroke-width:0.015625;stroke-linecap:butt;stroke-linejoin:round" /></g></g></g></svg>
