<?xml version="1.0" encoding="UTF-8" standalone="no"?>
<!-- Created with Inkscape (http://www.inkscape.org/) -->

<svg
   version="1.1"
   id="svg1"
   width="864"
   height="864"
   viewBox="0 0 864 864"
   sodipodi:docname="ic_recovery_ffj28.svg"
   inkscape:version="1.3.2 (091e20e, 2023-11-25)"
   inkscape:export-filename="../png/ic_recovery_ffj28.png"
   inkscape:export-xdpi="96"
   inkscape:export-ydpi="96"
   xml:space="preserve"
   xmlns:inkscape="http://www.inkscape.org/namespaces/inkscape"
   xmlns:sodipodi="http://sodipodi.sourceforge.net/DTD/sodipodi-0.dtd"
   xmlns:xlink="http://www.w3.org/1999/xlink"
   xmlns="http://www.w3.org/2000/svg"
   xmlns:svg="http://www.w3.org/2000/svg"><defs
     id="defs1"><marker
       style="overflow:visible"
       id="marker3"
       refX="0"
       refY="0"
       orient="auto-start-reverse"
       inkscape:stockid="Triangle arrow"
       markerWidth="3"
       markerHeight="3"
       viewBox="0 0 1 1"
       inkscape:isstock="true"
       inkscape:collect="always"
       preserveAspectRatio="xMidYMid"
       markerUnits="userSpaceOnUse"><path
         transform="scale(0.5)"
         style="fill:context-stroke;fill-rule:evenodd;stroke:context-stroke;stroke-width:1pt"
         d="M 5.77,0 -2.88,5 V -5 Z"
         id="path3" /></marker><marker
       style="overflow:visible"
       id="marker3-4"
       refX="0"
       refY="0"
       orient="auto-start-reverse"
       inkscape:stockid="Triangle arrow"
       markerWidth="3"
       markerHeight="3"
       viewBox="0 0 1 1"
       inkscape:isstock="true"
       inkscape:collect="always"
       preserveAspectRatio="xMidYMid"
       markerUnits="userSpaceOnUse"><path
         transform="scale(0.5)"
         style="fill:context-stroke;fill-rule:evenodd;stroke:context-stroke;stroke-width:1pt"
         d="M 5.77,0 -2.88,5 V -5 Z"
         id="path3-8" /></marker><style
       type="text/css"
       id="style1">*{stroke-linejoin: round; stroke-linecap: butt}</style><path
       id="m85abdca88a"
       d="M 0 0  L 0 8  "
       style="stroke: #000000; stroke-width: 2" /><path
       id="CMUSerif-Roman-30"
       d="M 250 2048  C 250 1568 275 992 538 506  C 813 -13 1280 -141 1594 -141  C 1939 -141 2426 -6 2707 602  C 2912 1043 2944 1542 2944 2048  C 2944 2560 2912 3072 2688 3546  C 2394 4160 1869 4262 1600 4262  C 1216 4262 749 4096 486 3501  C 282 3059 250 2560 250 2048  z M 781 2125  C 781 2534 781 2957 832 3302  C 954 4064 1434 4122 1594 4122  C 1805 4122 2227 4006 2349 3373  C 2413 3014 2413 2528 2413 2125  C 2413 1645 2413 1210 2342 800  C 2246 192 1882 0 1594 0  C 1344 0 966 160 851 774  C 781 1158 781 1747 781 2125  z "
       transform="scale(0.015625)" /><path
       id="CMUSerif-Roman-35"
       d="M 320 1030  C 320 480 762 -141 1478 -141  C 2221 -141 2874 474 2874 1286  C 2874 2048 2349 2688 1658 2688  C 1350 2688 1075 2586 845 2362  L 845 3610  C 973 3571 1184 3526 1389 3526  C 2176 3526 2624 4109 2624 4192  C 2624 4230 2605 4262 2560 4262  C 2554 4262 2541 4262 2509 4243  C 2381 4186 2067 4058 1638 4058  C 1382 4058 1088 4102 787 4237  C 736 4256 723 4256 710 4256  C 646 4256 646 4205 646 4102  L 646 2208  C 646 2093 646 2042 736 2042  C 781 2042 794 2061 819 2099  C 890 2202 1126 2547 1645 2547  C 1978 2547 2138 2253 2189 2138  C 2291 1901 2304 1651 2304 1331  C 2304 1107 2304 723 2150 454  C 1997 205 1760 38 1466 38  C 998 38 634 378 525 755  C 544 749 563 742 634 742  C 845 742 954 902 954 1056  C 954 1210 845 1370 634 1370  C 544 1370 320 1325 320 1030  z "
       transform="scale(0.015625)" /><path
       id="CMUSerif-Roman-31"
       d="M 570 3654  C 698 3654 1075 3654 1408 3821  L 1408 506  C 1408 275 1389 198 813 198  L 608 198  L 608 0  C 832 19 1389 19 1645 19  C 1901 19 2458 19 2682 0  L 2682 198  L 2477 198  C 1901 198 1882 269 1882 506  L 1882 4096  C 1882 4250 1882 4262 1734 4262  C 1338 3853 774 3853 570 3853  L 570 3654  z "
       transform="scale(0.015625)" /><path
       id="CMUSerif-Roman-32"
       d="M 320 0  L 2694 0  L 2874 1114  L 2714 1114  C 2682 922 2637 640 2573 544  C 2528 493 2106 493 1965 493  L 813 493  L 1491 1152  C 2490 2035 2874 2381 2874 3021  C 2874 3750 2298 4262 1517 4262  C 794 4262 320 3674 320 3104  C 320 2746 640 2746 659 2746  C 768 2746 992 2822 992 3085  C 992 3251 877 3418 653 3418  C 602 3418 589 3418 570 3411  C 717 3827 1062 4064 1434 4064  C 2016 4064 2291 3546 2291 3021  C 2291 2509 1971 2003 1619 1606  L 390 237  C 320 166 320 154 320 0  z "
       transform="scale(0.015625)" /><path
       id="CMUSerif-Roman-33"
       d="M 269 864  C 269 282 864 -141 1562 -141  C 2342 -141 2925 442 2925 1094  C 2925 1619 2522 2118 1856 2253  C 2381 2426 2752 2874 2752 3379  C 2752 3904 2189 4262 1574 4262  C 928 4262 442 3878 442 3392  C 442 3181 582 3059 768 3059  C 966 3059 1094 3200 1094 3386  C 1094 3706 794 3706 698 3706  C 896 4019 1318 4102 1549 4102  C 1811 4102 2163 3962 2163 3386  C 2163 3309 2150 2938 1984 2656  C 1792 2349 1574 2330 1414 2323  C 1363 2317 1210 2304 1165 2304  C 1114 2298 1069 2291 1069 2227  C 1069 2157 1114 2157 1222 2157  L 1504 2157  C 2029 2157 2266 1722 2266 1094  C 2266 224 1824 38 1542 38  C 1267 38 787 147 563 525  C 787 493 986 634 986 877  C 986 1107 813 1235 627 1235  C 474 1235 269 1146 269 864  z "
       transform="scale(0.015625)" /><path
       id="CMUSerif-Roman-41"
       d="M 205 0  C 352 6 627 19 858 19  C 1056 19 1389 6 1594 0  L 1594 198  C 1274 198 1114 358 1114 525  C 1114 544 1120 608 1126 621  L 1421 1459  L 3002 1459  L 3341 480  C 3347 454 3360 416 3360 390  C 3360 198 3002 198 2829 198  L 2829 0  C 3059 19 3507 19 3750 19  C 4026 19 4320 13 4589 0  L 4589 198  L 4474 198  C 4090 198 4000 243 3930 454  L 2547 4454  C 2515 4538 2502 4582 2400 4582  C 2298 4582 2278 4544 2246 4454  L 922 627  C 806 301 550 205 205 198  L 205 0  z M 1491 1658  L 2208 3738  L 2931 1658  L 1491 1658  z "
       transform="scale(0.015625)" /><path
       id="CMUSerif-Roman-6e"
       d="M 205 0  C 429 6 755 19 928 19  C 1094 19 1427 6 1645 0  L 1645 198  C 1216 198 1146 198 1146 486  L 1146 1664  C 1146 2330 1600 2688 2010 2688  C 2413 2688 2483 2342 2483 1978  L 2483 486  C 2483 198 2413 198 1984 198  L 1984 0  C 2208 6 2534 19 2707 19  C 2874 19 3206 6 3424 0  L 3424 198  C 3091 198 2931 198 2925 390  L 2925 1613  C 2925 2163 2925 2362 2726 2592  C 2637 2701 2426 2829 2054 2829  C 1587 2829 1286 2554 1107 2157  L 1107 2829  L 205 2758  L 205 2560  C 653 2560 704 2515 704 2202  L 704 486  C 704 198 634 198 205 198  L 205 0  z "
       transform="scale(0.015625)" /><path
       id="CMUSerif-Roman-65"
       d="M 179 1408  C 179 550 851 -70 1587 -70  C 2368 -70 2656 640 2656 762  C 2656 826 2605 838 2573 838  C 2515 838 2502 800 2490 749  C 2266 90 1690 90 1626 90  C 1306 90 1050 282 902 518  C 710 826 710 1248 710 1478  L 2496 1478  C 2637 1478 2656 1478 2656 1613  C 2656 2246 2310 2867 1510 2867  C 768 2867 179 2208 179 1408  z M 717 1613  C 755 2566 1293 2726 1510 2726  C 2170 2726 2234 1862 2234 1613  L 717 1613  z "
       transform="scale(0.015625)" /><path
       id="CMUSerif-Roman-61"
       d="M 269 608  C 269 90 890 -70 1293 -70  C 1715 -70 2010 186 2131 486  C 2157 230 2330 -38 2630 -38  C 2765 -38 3155 51 3155 570  L 3155 928  L 2995 928  L 2995 570  C 2995 198 2835 160 2765 160  C 2554 160 2528 448 2528 480  L 2528 1760  C 2528 2029 2528 2278 2298 2515  C 2048 2765 1728 2867 1421 2867  C 896 2867 454 2566 454 2144  C 454 1952 582 1843 749 1843  C 928 1843 1043 1971 1043 2138  C 1043 2214 1011 2426 717 2432  C 890 2656 1203 2726 1408 2726  C 1722 2726 2086 2477 2086 1907  L 2086 1670  C 1760 1651 1312 1632 909 1440  C 429 1222 269 890 269 608  z M 762 614  C 762 966 1030 1498 2086 1536  L 2086 896  C 2086 288 1626 70 1338 70  C 1024 70 762 294 762 614  z "
       transform="scale(0.015625)" /><path
       id="CMUSerif-Roman-6c"
       d="M 211 0  C 422 6 762 19 922 19  C 1082 19 1395 6 1632 0  L 1632 198  C 1203 198 1133 198 1133 486  L 1133 4442  L 211 4371  L 211 4173  C 659 4173 710 4128 710 3814  L 710 486  C 710 198 640 198 211 198  L 211 0  z "
       transform="scale(0.015625)" /><path
       id="CMUSerif-Roman-20"
       transform="scale(0.015625)" /><path
       id="CMUSerif-Roman-54"
       d="M 230 2893  L 390 2893  C 480 3923 576 4134 1542 4134  C 1658 4134 1824 4134 1888 4122  C 2022 4096 2022 4026 2022 3878  L 2022 506  C 2022 288 2022 198 1350 198  L 1094 198  L 1094 0  C 1357 19 2010 19 2304 19  C 2598 19 3258 19 3520 0  L 3520 198  L 3264 198  C 2592 198 2592 288 2592 506  L 2592 3878  C 2592 4006 2592 4096 2707 4122  C 2778 4134 2950 4134 3072 4134  C 4038 4134 4134 3923 4224 2893  L 4384 2893  L 4262 4333  L 352 4333  L 230 2893  z "
       transform="scale(0.015625)" /><path
       id="CMUSerif-Roman-6d"
       d="M 205 0  C 429 6 755 19 928 19  C 1094 19 1427 6 1645 0  L 1645 198  C 1216 198 1146 198 1146 486  L 1146 1664  C 1146 2330 1600 2688 2010 2688  C 2413 2688 2483 2342 2483 1978  L 2483 486  C 2483 198 2413 198 1984 198  L 1984 0  C 2208 6 2534 19 2707 19  C 2874 19 3206 6 3424 0  L 3424 198  C 2995 198 2925 198 2925 486  L 2925 1664  C 2925 2330 3379 2688 3789 2688  C 4192 2688 4262 2342 4262 1978  L 4262 486  C 4262 198 4192 198 3763 198  L 3763 0  C 3987 6 4314 19 4486 19  C 4653 19 4986 6 5203 0  L 5203 198  C 4870 198 4710 198 4704 390  L 4704 1613  C 4704 2163 4704 2362 4506 2592  C 4416 2701 4205 2829 3834 2829  C 3296 2829 3014 2445 2906 2202  C 2816 2758 2342 2829 2054 2829  C 1587 2829 1286 2554 1107 2157  L 1107 2829  L 205 2758  L 205 2560  C 653 2560 704 2515 704 2202  L 704 486  C 704 198 634 198 205 198  L 205 0  z "
       transform="scale(0.015625)" /><path
       id="CMUSerif-Roman-70"
       d="M 179 -1043  L 179 -1242  C 397 -1235 730 -1222 896 -1222  C 1069 -1222 1395 -1235 1619 -1242  L 1619 -1043  C 1190 -1043 1120 -1043 1120 -755  L 1120 320  L 1120 378  C 1152 275 1421 -70 1907 -70  C 2669 -70 3334 557 3334 1382  C 3334 2195 2714 2829 1997 2829  C 1498 2829 1229 2547 1101 2406  L 1101 2829  L 179 2758  L 179 2560  C 634 2560 678 2522 678 2240  L 678 -755  C 678 -1043 608 -1043 179 -1043  z M 1120 730  L 1120 2157  C 1306 2483 1619 2669 1946 2669  C 2413 2669 2803 2106 2803 1382  C 2803 608 2355 70 1882 70  C 1626 70 1382 198 1210 461  C 1120 595 1120 602 1120 730  z "
       transform="scale(0.015625)" /><path
       id="CMUSerif-Roman-72"
       d="M 179 0  C 429 6 730 19 909 19  C 1165 19 1466 19 1722 0  L 1722 198  L 1587 198  C 1114 198 1101 269 1101 499  L 1101 1485  C 1101 2118 1370 2688 1856 2688  C 1901 2688 1914 2688 1926 2682  C 1907 2675 1779 2598 1779 2432  C 1779 2253 1914 2157 2054 2157  C 2170 2157 2330 2234 2330 2438  C 2330 2643 2131 2829 1856 2829  C 1389 2829 1158 2400 1069 2125  L 1069 2829  L 179 2758  L 179 2560  C 627 2560 678 2515 678 2202  L 678 486  C 678 198 608 198 179 198  L 179 0  z "
       transform="scale(0.015625)" /><path
       id="CMUSerif-Roman-74"
       d="M 122 2560  L 666 2560  L 666 794  C 666 6 1261 -70 1491 -70  C 1946 -70 2125 384 2125 794  L 2125 1158  L 1965 1158  L 1965 806  C 1965 333 1773 90 1536 90  C 1107 90 1107 672 1107 781  L 1107 2560  L 2022 2560  L 2022 2758  L 1107 2758  L 1107 3936  L 947 3936  C 941 3411 749 2726 122 2701  L 122 2560  z "
       transform="scale(0.015625)" /><path
       id="CMUSerif-Roman-75"
       d="M 205 2560  C 704 2560 704 2541 704 1971  L 704 1011  C 704 512 704 -70 1677 -70  C 2035 -70 2317 109 2502 506  L 2502 -70  L 3424 0  L 3424 198  C 2976 198 2925 243 2925 557  L 2925 2829  L 1984 2758  L 1984 2560  C 2432 2560 2483 2515 2483 2202  L 2483 1062  C 2483 506 2176 70 1709 70  C 1171 70 1146 371 1146 704  L 1146 2829  L 205 2758  L 205 2560  z "
       transform="scale(0.015625)" /><path
       id="CMUSerif-Roman-5b"
       d="M 666 -1600  L 1632 -1600  L 1632 -1453  L 1094 -1453  L 1094 4653  L 1632 4653  L 1632 4800  L 666 4800  L 666 -1600  z "
       transform="scale(0.015625)" /><path
       id="CMUSerif-Roman-4b"
       d="M 211 0  C 435 19 909 19 1152 19  C 1395 19 1875 19 2099 0  L 2099 198  L 1946 198  C 1453 198 1440 269 1440 499  L 1440 1619  L 2182 2323  L 3341 608  C 3379 550 3437 467 3437 390  C 3437 198 3187 198 3059 198  L 3059 0  C 3283 19 3731 19 3974 19  C 4198 19 4442 13 4710 0  L 4710 198  C 4365 198 4230 224 4038 506  L 2560 2682  L 3712 3789  C 3763 3840 4102 4166 4621 4173  L 4621 4371  C 4454 4352 4250 4352 4077 4352  C 3846 4352 3482 4352 3264 4371  L 3264 4173  C 3520 4166 3558 4019 3558 3962  C 3558 3859 3494 3795 3443 3750  L 1440 1837  L 1440 3872  C 1440 4102 1453 4173 1946 4173  L 2099 4173  L 2099 4371  C 1875 4352 1402 4352 1158 4352  C 915 4352 435 4352 211 4371  L 211 4173  L 365 4173  C 858 4173 870 4102 870 3872  L 870 499  C 870 269 858 198 365 198  L 211 198  L 211 0  z "
       transform="scale(0.015625)" /><path
       id="CMUSerif-Roman-5d"
       d="M 134 -1453  L 134 -1600  L 1101 -1600  L 1101 4800  L 134 4800  L 134 4653  L 672 4653  L 672 -1453  L 134 -1453  z "
       transform="scale(0.015625)" /><path
       id="mb98193f879"
       d="M 0 0  L -8 0  "
       style="stroke: #000000; stroke-width: 2" /><path
       id="CMUSerif-Roman-2e"
       d="M 544 339  C 544 166 685 0 883 0  C 1050 0 1216 141 1216 339  C 1216 538 1062 672 883 672  C 685 672 544 512 544 339  z "
       transform="scale(0.015625)" /><path
       id="Cmmi10-69"
       d="M 500 459  Q 500 578 550 709  L 1069 2088  Q 1153 2322 1153 2472  Q 1153 2663 1013 2663  Q 759 2663 595 2402  Q 431 2141 353 1819  Q 341 1778 300 1778  L 225 1778  Q 172 1778 172 1838  L 172 1856  Q 275 2238 487 2533  Q 700 2828 1025 2828  Q 1253 2828 1411 2678  Q 1569 2528 1569 2297  Q 1569 2178 1516 2047  L 997 672  Q 909 459 909 288  Q 909 97 1056 97  Q 1306 97 1473 364  Q 1641 631 1709 941  Q 1722 978 1759 978  L 1838 978  Q 1863 978 1878 961  Q 1894 944 1894 922  Q 1894 916 1888 903  Q 1800 541 1583 234  Q 1366 -72 1044 -72  Q 819 -72 659 83  Q 500 238 500 459  z M 1222 3878  Q 1222 4013 1334 4122  Q 1447 4231 1581 4231  Q 1691 4231 1761 4164  Q 1831 4097 1831 3994  Q 1831 3850 1717 3742  Q 1603 3634 1466 3634  Q 1363 3634 1292 3704  Q 1222 3775 1222 3878  z "
       transform="scale(0.015625)" /><path
       id="Cmmi10-63"
       d="M 750 763  Q 750 484 892 290  Q 1034 97 1300 97  Q 1681 97 2032 272  Q 2384 447 2606 756  Q 2625 775 2656 775  Q 2688 775 2720 739  Q 2753 703 2753 672  Q 2753 647 2741 634  Q 2506 306 2109 117  Q 1713 -72 1288 -72  Q 981 -72 747 73  Q 513 219 384 462  Q 256 706 256 1013  Q 256 1444 497 1869  Q 738 2294 1138 2561  Q 1538 2828 1978 2828  Q 2266 2828 2495 2689  Q 2725 2550 2725 2278  Q 2725 2103 2623 1979  Q 2522 1856 2350 1856  Q 2247 1856 2176 1920  Q 2106 1984 2106 2088  Q 2106 2238 2215 2344  Q 2325 2450 2472 2450  L 2484 2450  Q 2409 2559 2267 2611  Q 2125 2663 1972 2663  Q 1597 2663 1315 2342  Q 1034 2022 892 1576  Q 750 1131 750 763  z "
       transform="scale(0.015625)" /><path
       id="Cmr10-28"
       d="M 1984 -1588  Q 1628 -1306 1370 -942  Q 1113 -578 948 -165  Q 784 247 703 697  Q 622 1147 622 1600  Q 622 2059 703 2509  Q 784 2959 951 3375  Q 1119 3791 1378 4153  Q 1638 4516 1984 4788  Q 1984 4800 2016 4800  L 2075 4800  Q 2094 4800 2109 4783  Q 2125 4766 2125 4744  Q 2125 4716 2113 4703  Q 1800 4397 1592 4047  Q 1384 3697 1257 3301  Q 1131 2906 1075 2482  Q 1019 2059 1019 1600  Q 1019 -434 2106 -1491  Q 2125 -1509 2125 -1544  Q 2125 -1559 2108 -1579  Q 2091 -1600 2075 -1600  L 2016 -1600  Q 1984 -1600 1984 -1588  z "
       transform="scale(0.015625)" /><path
       id="Cmr10-32"
       d="M 319 0  L 319 172  Q 319 188 331 206  L 1325 1306  Q 1550 1550 1690 1715  Q 1831 1881 1968 2097  Q 2106 2313 2186 2536  Q 2266 2759 2266 3009  Q 2266 3272 2169 3511  Q 2072 3750 1880 3894  Q 1688 4038 1416 4038  Q 1138 4038 916 3870  Q 694 3703 603 3438  Q 628 3444 672 3444  Q 816 3444 917 3347  Q 1019 3250 1019 3097  Q 1019 2950 917 2848  Q 816 2747 672 2747  Q 522 2747 420 2851  Q 319 2956 319 3097  Q 319 3338 409 3548  Q 500 3759 670 3923  Q 841 4088 1055 4175  Q 1269 4263 1509 4263  Q 1875 4263 2190 4108  Q 2506 3953 2690 3670  Q 2875 3388 2875 3009  Q 2875 2731 2753 2481  Q 2631 2231 2440 2026  Q 2250 1822 1953 1562  Q 1656 1303 1563 1216  L 838 519  L 1453 519  Q 1906 519 2211 526  Q 2516 534 2534 550  Q 2609 631 2688 1141  L 2875 1141  L 2694 0  L 319 0  z "
       transform="scale(0.015625)" /><path
       id="Cmr10-30"
       d="M 1600 -141  Q 816 -141 533 504  Q 250 1150 250 2041  Q 250 2597 351 3087  Q 453 3578 754 3920  Q 1056 4263 1600 4263  Q 2022 4263 2290 4056  Q 2559 3850 2700 3523  Q 2841 3197 2892 2823  Q 2944 2450 2944 2041  Q 2944 1491 2842 1011  Q 2741 531 2444 195  Q 2147 -141 1600 -141  z M 1600 25  Q 1956 25 2131 390  Q 2306 756 2347 1200  Q 2388 1644 2388 2144  Q 2388 2625 2347 3031  Q 2306 3438 2132 3767  Q 1959 4097 1600 4097  Q 1238 4097 1063 3765  Q 888 3434 847 3029  Q 806 2625 806 2144  Q 806 1788 823 1472  Q 841 1156 916 820  Q 991 484 1158 254  Q 1325 25 1600 25  z "
       transform="scale(0.015625)" /><path
       id="Cmr10-4b"
       d="M 197 0  L 197 225  Q 856 225 856 428  L 856 3944  Q 856 4147 197 4147  L 197 4372  L 2113 4372  L 2113 4147  Q 1453 4147 1453 3944  L 1453 1869  L 3431 3769  Q 3513 3856 3513 3944  Q 3513 4044 3427 4095  Q 3341 4147 3231 4147  L 3231 4372  L 4622 4372  L 4622 4147  Q 4097 4147 3700 3769  L 2566 2681  L 3969 603  Q 4141 350 4270 287  Q 4400 225 4709 225  L 4709 0  L 3034 0  L 3034 225  Q 3188 225 3292 256  Q 3397 288 3397 403  Q 3397 481 3316 603  L 2169 2303  L 1453 1613  L 1453 428  Q 1453 225 2113 225  L 2113 0  L 197 0  z "
       transform="scale(0.015625)" /><path
       id="Cmr10-29"
       d="M 416 -1600  Q 359 -1600 359 -1544  Q 359 -1516 372 -1503  Q 1466 -434 1466 1600  Q 1466 3634 384 4691  Q 359 4706 359 4744  Q 359 4766 376 4783  Q 394 4800 416 4800  L 475 4800  Q 494 4800 506 4788  Q 966 4425 1272 3906  Q 1578 3388 1720 2800  Q 1863 2213 1863 1600  Q 1863 1147 1786 708  Q 1709 269 1542 -157  Q 1375 -584 1119 -945  Q 863 -1306 506 -1588  Q 494 -1600 475 -1600  L 416 -1600  z "
       transform="scale(0.015625)" /><path
       id="Cmr10-3d"
       d="M 481 850  Q 428 850 393 890  Q 359 931 359 978  Q 359 1031 393 1068  Q 428 1106 481 1106  L 4500 1106  Q 4547 1106 4581 1068  Q 4616 1031 4616 978  Q 4616 931 4581 890  Q 4547 850 4500 850  L 481 850  z M 481 2094  Q 428 2094 393 2131  Q 359 2169 359 2222  Q 359 2269 393 2309  Q 428 2350 481 2350  L 4500 2350  Q 4547 2350 4581 2309  Q 4616 2269 4616 2222  Q 4616 2169 4581 2131  Q 4547 2094 4500 2094  L 481 2094  z "
       transform="scale(0.015625)" /><path
       id="Cmr10-49"
       d="M 166 0  L 166 225  Q 856 225 856 428  L 856 3944  Q 856 4147 166 4147  L 166 4372  L 2144 4372  L 2144 4147  Q 1453 4147 1453 3944  L 1453 428  Q 1453 225 2144 225  L 2144 0  L 166 0  z "
       transform="scale(0.015625)" /><path
       id="Cmr10-63"
       d="M 1594 -72  Q 1206 -72 890 129  Q 575 331 394 667  Q 213 1003 213 1381  Q 213 1759 392 2106  Q 572 2453 889 2661  Q 1206 2869 1594 2869  Q 1969 2869 2276 2722  Q 2584 2575 2584 2241  Q 2584 2116 2495 2023  Q 2406 1931 2278 1931  Q 2150 1931 2061 2023  Q 1972 2116 1972 2241  Q 1972 2353 2044 2436  Q 2116 2519 2222 2541  Q 2000 2681 1600 2681  Q 1294 2681 1106 2478  Q 919 2275 844 1975  Q 769 1675 769 1381  Q 769 1072 861 783  Q 953 494 1158 305  Q 1363 116 1672 116  Q 1975 116 2187 302  Q 2400 488 2478 788  Q 2478 825 2528 825  L 2606 825  Q 2625 825 2640 808  Q 2656 791 2656 769  L 2656 750  Q 2559 372 2271 150  Q 1984 -72 1594 -72  z "
       transform="scale(0.015625)" /><path
       id="Cmmi10-3d"
       d="M 359 -1472  Q 359 -1453 366 -1447  L 2591 4722  Q 2603 4759 2634 4779  Q 2666 4800 2706 4800  Q 2763 4800 2798 4765  Q 2834 4731 2834 4672  L 2834 4647  L 609 -1522  Q 572 -1600 488 -1600  Q 434 -1600 396 -1562  Q 359 -1525 359 -1472  z "
       transform="scale(0.015625)" /><path
       id="Cmr10-75"
       d="M 691 763  L 691 2175  Q 691 2347 639 2423  Q 588 2500 491 2517  Q 394 2534 191 2534  L 191 2759  L 1159 2828  L 1159 763  Q 1159 513 1195 373  Q 1231 234 1348 165  Q 1466 97 1722 97  Q 2066 97 2269 384  Q 2472 672 2472 1038  L 2472 2175  Q 2472 2347 2419 2423  Q 2366 2500 2270 2517  Q 2175 2534 1972 2534  L 1972 2759  L 2938 2828  L 2938 581  Q 2938 413 2989 336  Q 3041 259 3137 242  Q 3234 225 3438 225  L 3438 0  L 2491 -72  L 2491 469  Q 2372 228 2159 78  Q 1947 -72 1691 -72  Q 1231 -72 961 123  Q 691 319 691 763  z "
       transform="scale(0.015625)" /><path
       id="Cmr10-6e"
       d="M 191 0  L 191 225  Q 409 225 550 259  Q 691 294 691 428  L 691 2175  Q 691 2347 639 2423  Q 588 2500 491 2517  Q 394 2534 191 2534  L 191 2759  L 1119 2828  L 1119 2203  Q 1247 2478 1498 2653  Q 1750 2828 2047 2828  Q 2491 2828 2714 2615  Q 2938 2403 2938 1966  L 2938 428  Q 2938 294 3078 259  Q 3219 225 3438 225  L 3438 0  L 1972 0  L 1972 225  Q 2191 225 2331 259  Q 2472 294 2472 428  L 2472 1947  Q 2472 2259 2381 2461  Q 2291 2663 2009 2663  Q 1638 2663 1398 2366  Q 1159 2069 1159 1691  L 1159 428  Q 1159 294 1300 259  Q 1441 225 1656 225  L 1656 0  L 191 0  z "
       transform="scale(0.015625)" /><path
       id="Cmr10-69"
       d="M 197 0  L 197 225  Q 416 225 556 259  Q 697 294 697 428  L 697 2175  Q 697 2422 601 2478  Q 506 2534 225 2534  L 225 2759  L 1147 2828  L 1147 428  Q 1147 294 1269 259  Q 1391 225 1594 225  L 1594 0  L 197 0  z M 469 3928  Q 469 4069 575 4175  Q 681 4281 819 4281  Q 909 4281 993 4234  Q 1078 4188 1125 4103  Q 1172 4019 1172 3928  Q 1172 3791 1065 3684  Q 959 3578 819 3578  Q 681 3578 575 3684  Q 469 3791 469 3928  z "
       transform="scale(0.015625)" /><path
       id="Cmr10-72"
       d="M 166 0  L 166 225  Q 384 225 525 259  Q 666 294 666 428  L 666 2175  Q 666 2347 614 2423  Q 563 2500 466 2517  Q 369 2534 166 2534  L 166 2759  L 1081 2828  L 1081 2203  Q 1184 2481 1375 2654  Q 1566 2828 1838 2828  Q 2028 2828 2178 2715  Q 2328 2603 2328 2419  Q 2328 2303 2245 2217  Q 2163 2131 2041 2131  Q 1922 2131 1837 2215  Q 1753 2300 1753 2419  Q 1753 2591 1875 2663  L 1838 2663  Q 1578 2663 1414 2475  Q 1250 2288 1181 2009  Q 1113 1731 1113 1478  L 1113 428  Q 1113 225 1734 225  L 1734 0  L 166 0  z "
       transform="scale(0.015625)" /><path
       id="Cmr10-61"
       d="M 256 628  Q 256 1009 556 1248  Q 856 1488 1276 1586  Q 1697 1684 2075 1684  L 2075 1947  Q 2075 2131 1994 2304  Q 1913 2478 1759 2589  Q 1606 2700 1422 2700  Q 997 2700 775 2509  Q 897 2509 976 2417  Q 1056 2325 1056 2203  Q 1056 2075 965 1984  Q 875 1894 750 1894  Q 622 1894 531 1984  Q 441 2075 441 2203  Q 441 2541 747 2705  Q 1053 2869 1422 2869  Q 1681 2869 1943 2758  Q 2206 2647 2373 2440  Q 2541 2234 2541 1959  L 2541 519  Q 2541 394 2594 289  Q 2647 184 2759 184  Q 2866 184 2917 290  Q 2969 397 2969 519  L 2969 928  L 3156 928  L 3156 519  Q 3156 375 3081 245  Q 3006 116 2879 39  Q 2753 -38 2606 -38  Q 2419 -38 2283 107  Q 2147 253 2131 453  Q 2013 213 1781 70  Q 1550 -72 1288 -72  Q 1044 -72 808 0  Q 572 72 414 226  Q 256 381 256 628  z M 775 628  Q 775 403 940 250  Q 1106 97 1331 97  Q 1538 97 1706 200  Q 1875 303 1975 481  Q 2075 659 2075 856  L 2075 1522  Q 1784 1522 1479 1426  Q 1175 1331 975 1128  Q 775 925 775 628  z "
       transform="scale(0.015625)" /><path
       id="Cmr10-64"
       d="M 1563 -72  Q 1184 -72 871 133  Q 559 338 386 672  Q 213 1006 213 1381  Q 213 1769 402 2101  Q 591 2434 916 2631  Q 1241 2828 1631 2828  Q 1866 2828 2075 2729  Q 2284 2631 2438 2456  L 2438 3788  Q 2438 3959 2386 4036  Q 2334 4113 2239 4130  Q 2144 4147 1941 4147  L 1941 4372  L 2888 4441  L 2888 581  Q 2888 413 2939 336  Q 2991 259 3086 242  Q 3181 225 3384 225  L 3384 0  L 2419 -72  L 2419 331  Q 2253 141 2025 34  Q 1797 -72 1563 -72  z M 909 556  Q 1019 347 1201 222  Q 1384 97 1600 97  Q 1866 97 2087 250  Q 2309 403 2419 647  L 2419 2181  Q 2344 2322 2230 2433  Q 2116 2544 1973 2603  Q 1831 2663 1672 2663  Q 1338 2663 1134 2473  Q 931 2284 850 1990  Q 769 1697 769 1375  Q 769 1119 795 928  Q 822 738 909 556  z "
       transform="scale(0.015625)" /><path
       id="Cmr10-74"
       d="M 653 769  L 653 2534  L 122 2534  L 122 2700  Q 541 2700 737 3090  Q 934 3481 934 3938  L 1119 3938  L 1119 2759  L 2022 2759  L 2022 2534  L 1119 2534  L 1119 781  Q 1119 516 1208 316  Q 1297 116 1528 116  Q 1747 116 1844 327  Q 1941 538 1941 781  L 1941 1159  L 2125 1159  L 2125 769  Q 2125 569 2051 373  Q 1978 178 1834 53  Q 1691 -72 1484 -72  Q 1100 -72 876 158  Q 653 388 653 769  z "
       transform="scale(0.015625)" /><path
       id="Cmr10-65"
       d="M 1594 -72  Q 1203 -72 876 133  Q 550 338 364 680  Q 178 1022 178 1403  Q 178 1778 348 2115  Q 519 2453 823 2661  Q 1128 2869 1503 2869  Q 1797 2869 2014 2770  Q 2231 2672 2372 2497  Q 2513 2322 2584 2084  Q 2656 1847 2656 1563  Q 2656 1478 2591 1478  L 738 1478  L 738 1409  Q 738 878 952 497  Q 1166 116 1650 116  Q 1847 116 2014 203  Q 2181 291 2304 447  Q 2428 603 2472 781  Q 2478 803 2495 820  Q 2513 838 2534 838  L 2591 838  Q 2656 838 2656 756  Q 2566 394 2266 161  Q 1966 -72 1594 -72  z M 744 1638  L 2203 1638  Q 2203 1878 2136 2125  Q 2069 2372 1912 2536  Q 1756 2700 1503 2700  Q 1141 2700 942 2361  Q 744 2022 744 1638  z "
       transform="scale(0.015625)" /><path
       id="CMUSerif-Roman-28"
       d="M 634 1600  C 634 1101 704 326 1056 -397  C 1440 -1184 1990 -1600 2054 -1600  C 2093 -1600 2118 -1581 2118 -1536  C 2118 -1517 2118 -1504 2010 -1395  C 1210 -589 1005 621 1005 1600  C 1005 2714 1248 3827 2035 4627  C 2118 4704 2118 4717 2118 4736  C 2118 4781 2093 4800 2054 4800  C 1990 4800 1414 4365 1037 3552  C 710 2848 634 2138 634 1600  z "
       transform="scale(0.015625)" /><path
       id="CMUSerif-Roman-29"
       d="M 365 -1536  C 365 -1574 390 -1600 429 -1600  C 493 -1600 1069 -1165 1446 -352  C 1773 352 1850 1062 1850 1600  C 1850 2099 1779 2874 1427 3597  C 1043 4384 493 4800 429 4800  C 390 4800 365 4774 365 4736  C 365 4717 365 4704 486 4589  C 1114 3955 1478 2938 1478 1600  C 1478 506 1242 -621 448 -1427  C 365 -1504 365 -1517 365 -1536  z "
       transform="scale(0.015625)" /><path
       id="m0fe6998615"
       d="M -0 10.606602  L 6.363961 0  L 0 -10.606602  L -6.363961 -0  z "
       style="stroke: #0000ff; stroke-linejoin: miter" /><path
       id="CMUSerif-Roman-68"
       d="M 205 0  C 429 6 755 19 928 19  C 1094 19 1427 6 1645 0  L 1645 198  C 1216 198 1146 198 1146 486  L 1146 1664  C 1146 2330 1600 2688 2010 2688  C 2413 2688 2483 2342 2483 1978  L 2483 486  C 2483 198 2413 198 1984 198  L 1984 0  C 2208 6 2534 19 2707 19  C 2874 19 3206 6 3424 0  L 3424 198  C 3091 198 2931 198 2925 390  L 2925 1613  C 2925 2163 2925 2362 2726 2592  C 2637 2701 2426 2829 2054 2829  C 1517 2829 1235 2445 1133 2214  L 1126 2214  L 1126 4442  L 205 4371  L 205 4173  C 653 4173 704 4128 704 3814  L 704 486  C 704 198 634 198 205 198  L 205 0  z "
       transform="scale(0.015625)" /><path
       id="CMUSerif-Roman-69"
       d="M 480 3942  C 480 3770 621 3603 819 3603  C 998 3603 1158 3738 1158 3942  C 1158 4147 998 4282 819 4282  C 621 4282 480 4109 480 3942  z M 211 0  C 416 6 762 19 915 19  C 1139 19 1363 6 1581 0  L 1581 198  C 1158 198 1133 230 1133 480  L 1133 2829  L 237 2758  L 237 2560  C 653 2560 710 2522 710 2208  L 710 486  C 710 198 640 198 211 198  L 211 0  z "
       transform="scale(0.015625)" /><path
       id="CMUSerif-Roman-73"
       d="M 211 83  C 211 -26 211 -70 282 -70  C 314 -70 320 -64 442 58  C 454 70 454 83 570 205  C 851 -64 1139 -70 1274 -70  C 2010 -70 2304 358 2304 819  C 2304 1158 2112 1350 2035 1427  C 1824 1632 1574 1683 1306 1734  C 947 1805 518 1888 518 2259  C 518 2483 685 2746 1235 2746  C 1939 2746 1971 2170 1984 1971  C 1990 1914 2048 1914 2061 1914  C 2144 1914 2144 1946 2144 2067  L 2144 2714  C 2144 2822 2144 2867 2074 2867  C 2042 2867 2029 2867 1946 2790  C 1926 2765 1862 2707 1837 2688  C 1594 2867 1331 2867 1235 2867  C 454 2867 211 2438 211 2080  C 211 1856 314 1677 486 1536  C 691 1370 870 1331 1331 1242  C 1472 1216 1997 1114 1997 653  C 1997 326 1773 70 1274 70  C 736 70 506 435 384 979  C 365 1062 358 1088 294 1088  C 211 1088 211 1043 211 928  L 211 83  z "
       transform="scale(0.015625)" /><path
       id="CMUSerif-Roman-66"
       d="M 211 2560  L 717 2560  L 717 486  C 717 198 646 198 218 198  L 218 0  C 467 6 768 19 947 19  C 1203 19 1504 19 1760 0  L 1760 198  L 1626 198  C 1152 198 1139 269 1139 499  L 1139 2560  L 1869 2560  L 1869 2758  L 1120 2758  L 1120 3501  C 1120 4064 1427 4371 1709 4371  C 1728 4371 1824 4371 1920 4326  C 1843 4301 1728 4218 1728 4058  C 1728 3910 1830 3782 2003 3782  C 2189 3782 2285 3910 2285 4064  C 2285 4301 2048 4512 1709 4512  C 1261 4512 717 4173 717 3494  L 717 2758  L 211 2758  L 211 2560  z "
       transform="scale(0.015625)" /><path
       id="CMUSerif-Roman-3a"
       d="M 550 2419  C 550 2234 704 2080 890 2080  C 1075 2080 1229 2234 1229 2419  C 1229 2605 1075 2758 890 2758  C 704 2758 550 2605 550 2419  z M 550 339  C 550 154 704 0 890 0  C 1075 0 1229 154 1229 339  C 1229 525 1075 678 890 678  C 704 678 550 525 550 339  z "
       transform="scale(0.015625)" /><path
       id="CMUSerif-Roman-3d"
       d="M 365 973  C 365 909 461 902 538 902  L 4429 902  C 4499 902 4602 909 4602 979  C 4602 1056 4499 1050 4416 1050  L 493 1050  C 429 1050 371 1050 365 973  z M 365 2221  C 365 2157 442 2150 493 2150  L 4442 2150  C 4512 2150 4602 2150 4602 2221  C 4602 2304 4493 2298 4410 2298  L 499 2298  C 384 2298 365 2253 365 2221  z "
       transform="scale(0.015625)" /><path
       id="CMUSerif-Roman-37"
       d="M 358 3008  L 518 3008  C 538 3110 595 3514 678 3590  C 723 3629 1222 3629 1306 3629  L 2630 3629  C 2560 3526 2054 2829 1914 2618  C 1338 1754 1126 864 1126 211  C 1126 147 1126 -141 1421 -141  C 1715 -141 1715 147 1715 211  L 1715 538  C 1715 890 1734 1242 1786 1587  C 1811 1734 1901 2285 2182 2682  L 3046 3898  C 3104 3974 3104 3987 3104 4122  L 1549 4122  C 768 4122 755 4205 730 4326  L 570 4326  L 358 3008  z "
       transform="scale(0.015625)" /><path
       id="CMUSerif-Roman-39"
       d="M 269 2822  C 269 2022 832 1395 1549 1395  C 1939 1395 2202 1664 2349 2035  L 2349 1830  C 2349 333 1683 38 1312 38  C 1203 38 858 51 685 269  C 966 269 1018 454 1018 563  C 1018 762 864 858 723 858  C 621 858 429 800 429 550  C 429 122 774 -141 1318 -141  C 2144 -141 2925 730 2925 2106  C 2925 3827 2189 4262 1619 4262  C 1267 4262 954 4147 678 3859  C 416 3571 269 3302 269 2822  z M 845 2816  C 845 3162 845 3462 979 3699  C 1152 4019 1395 4102 1619 4102  C 1914 4102 2125 3885 2234 3597  C 2310 3392 2336 2989 2336 2694  C 2336 2163 2118 1542 1555 1542  C 1453 1542 1158 1542 960 1946  C 845 2182 845 2502 845 2816  z "
       transform="scale(0.015625)" /><path
       id="CMUSerif-Roman-78"
       d="M 77 0  C 243 13 442 19 608 19  C 794 19 1062 6 1216 0  L 1216 198  C 1075 218 1030 301 1030 397  C 1030 538 1216 749 1606 1210  L 2093 570  C 2144 499 2227 397 2227 358  C 2227 301 2170 205 1997 198  L 1997 0  C 2189 6 2547 19 2688 19  C 2861 19 3110 13 3302 0  L 3302 198  C 2957 198 2842 211 2694 397  L 1837 1504  C 2029 1747 2272 2061 2426 2227  C 2624 2458 2886 2554 3187 2560  L 3187 2758  C 3021 2746 2829 2739 2662 2739  C 2470 2739 2131 2752 2048 2758  L 2048 2560  C 2182 2547 2234 2464 2234 2362  C 2234 2259 2170 2176 2138 2138  L 1741 1638  L 1242 2285  C 1184 2349 1184 2362 1184 2400  C 1184 2496 1280 2554 1408 2560  L 1408 2758  C 1242 2752 819 2739 717 2739  C 582 2739 282 2746 109 2758  L 109 2560  C 557 2560 563 2554 864 2170  L 1498 1344  L 896 582  C 589 211 211 198 77 198  L 77 0  z "
       transform="scale(0.015625)" /><path
       id="CMUSerif-Roman-38"
       d="M 269 966  C 269 288 922 -141 1594 -141  C 2317 -141 2925 390 2925 1075  C 2925 1306 2854 1594 2611 1862  C 2490 1997 2387 2061 1978 2317  C 2438 2554 2752 2886 2752 3309  C 2752 3898 2182 4262 1600 4262  C 960 4262 442 3789 442 3194  C 442 3078 454 2790 723 2490  C 794 2413 1030 2253 1190 2144  C 819 1958 269 1600 269 966  z M 589 966  C 589 1338 794 1747 1338 2048  L 2125 1549  C 2304 1427 2605 1235 2605 845  C 2605 371 2125 38 1600 38  C 1050 38 589 435 589 966  z M 723 3443  C 723 3834 1139 4102 1594 4102  C 2061 4102 2470 3770 2470 3309  C 2470 2944 2221 2637 1837 2413  L 1043 2925  C 749 3117 723 3334 723 3443  z "
       transform="scale(0.015625)" /><path
       id="CMUSerif-Roman-2f"
       d="M 365 -1510  C 365 -1549 384 -1587 422 -1587  C 474 -1587 493 -1555 544 -1414  L 2810 4627  C 2816 4653 2829 4685 2829 4710  C 2829 4762 2790 4787 2765 4787  C 2694 4787 2669 4672 2650 4627  L 390 -1408  C 365 -1478 365 -1491 365 -1510  z "
       transform="scale(0.015625)" /><path
       id="Cmr10-6b"
       d="M 166 0  L 166 225  Q 384 225 525 259  Q 666 294 666 428  L 666 3788  Q 666 3959 614 4036  Q 563 4113 466 4130  Q 369 4147 166 4147  L 166 4372  L 1113 4441  L 1113 1403  L 1972 2156  Q 2100 2278 2100 2381  Q 2100 2456 2047 2495  Q 1994 2534 1919 2534  L 1919 2759  L 3122 2759  L 3122 2534  Q 2688 2534 2253 2156  L 1797 1759  L 2613 603  Q 2781 363 2895 294  Q 3009 225 3272 225  L 3272 0  L 1997 0  L 1997 225  Q 2216 225 2216 359  Q 2216 456 2100 603  L 1484 1478  L 1094 1141  L 1094 428  Q 1094 294 1236 259  Q 1378 225 1594 225  L 1594 0  L 166 0  z "
       transform="scale(0.015625)" /><path
       id="Cmr10-62"
       d="M 666 0  L 666 3788  Q 666 3959 614 4036  Q 563 4113 466 4130  Q 369 4147 166 4147  L 166 4372  L 1113 4441  L 1113 2438  Q 1219 2556 1361 2645  Q 1503 2734 1665 2781  Q 1828 2828 1997 2828  Q 2284 2828 2529 2712  Q 2775 2597 2956 2394  Q 3138 2191 3239 1927  Q 3341 1663 3341 1381  Q 3341 994 3152 659  Q 2963 325 2636 126  Q 2309 -72 1919 -72  Q 1675 -72 1447 53  Q 1219 178 1069 384  L 850 0  L 666 0  z M 1131 628  Q 1238 394 1438 245  Q 1638 97 1881 97  Q 2213 97 2417 287  Q 2622 478 2703 768  Q 2784 1059 2784 1381  Q 2784 1922 2644 2203  Q 2581 2328 2473 2434  Q 2366 2541 2233 2602  Q 2100 2663 1953 2663  Q 1697 2663 1478 2527  Q 1259 2391 1131 2163  L 1131 628  z "
       transform="scale(0.015625)" /><path
       id="Cmr10-54"
       d="M 1081 0  L 1081 225  Q 1403 225 1706 261  Q 2009 297 2009 428  L 2009 3944  Q 2009 4081 1932 4114  Q 1856 4147 1684 4147  L 1416 4147  Q 888 4147 666 3916  Q 550 3800 500 3545  Q 450 3291 416 2906  L 231 2906  L 353 4372  L 4263 4372  L 4384 2906  L 4197 2906  Q 4159 3319 4114 3561  Q 4069 3803 3950 3916  Q 3725 4147 3200 4147  L 2931 4147  Q 2816 4147 2752 4137  Q 2688 4128 2647 4083  Q 2606 4038 2606 3944  L 2606 428  Q 2606 297 2909 261  Q 3213 225 3531 225  L 3531 0  L 1081 0  z "
       transform="scale(0.015625)" /><path
       id="CMUSerif-Roman-2b"
       d="M 365 1600  C 365 1536 442 1523 512 1523  C 544 1523 589 1530 608 1530  L 2413 1530  L 2413 -282  C 2413 -301 2406 -333 2406 -365  C 2406 -435 2419 -518 2483 -518  C 2547 -518 2560 -442 2560 -371  L 2560 1530  L 4365 1530  C 4384 1530 4416 1523 4448 1523  C 4518 1523 4602 1536 4602 1600  C 4602 1664 4525 1677 4454 1677  C 4422 1677 4384 1670 4365 1670  L 2560 1670  L 2560 3565  C 2560 3635 2547 3718 2483 3718  C 2419 3718 2406 3635 2406 3565  C 2406 3533 2413 3501 2413 3482  L 2413 1670  L 608 1670  C 589 1670 550 1677 518 1677  C 448 1677 365 1664 365 1600  z "
       transform="scale(0.015625)" /><path
       id="CMUSerif-Roman-6a"
       d="M 666 3942  C 666 3757 819 3603 1005 3603  C 1190 3603 1344 3757 1344 3942  C 1344 4128 1190 4282 1005 4282  C 819 4282 666 4128 666 3942  z M -256 -800  C -256 -1133 102 -1312 467 -1312  C 947 -1312 1344 -902 1344 -320  L 1344 2829  L 371 2758  L 371 2560  C 864 2560 922 2515 922 2202  L 922 -333  C 922 -621 864 -1171 454 -1171  C 422 -1171 275 -1171 109 -1088  C 205 -1062 333 -973 333 -800  C 333 -634 218 -506 38 -506  C -141 -506 -256 -634 -256 -800  z "
       transform="scale(0.015625)" /><path
       id="CMUSerif-Roman-2c"
       d="M 550 339  C 550 173 659 0 890 0  C 992 0 1069 38 1133 90  L 1146 102  C 1152 102 1158 96 1158 6  C 1158 -403 979 -794 698 -1094  C 659 -1133 653 -1139 653 -1165  C 653 -1210 685 -1235 717 -1235  C 794 -1235 1299 -730 1299 6  C 1299 416 1146 678 890 678  C 666 678 550 506 550 339  z "
       transform="scale(0.015625)" /><path
       id="Cmr10-a1"
       d="M 197 0  L 197 225  Q 856 225 856 428  L 856 3944  Q 856 4147 197 4147  L 197 4372  L 3547 4372  L 3725 2906  L 3541 2906  Q 3494 3313 3433 3534  Q 3372 3756 3247 3892  Q 3122 4028 2897 4087  Q 2672 4147 2272 4147  L 1778 4147  Q 1663 4147 1598 4137  Q 1534 4128 1493 4083  Q 1453 4038 1453 3944  L 1453 428  Q 1453 225 2272 225  L 2272 0  L 197 0  z "
       transform="scale(0.015625)" /><clipPath
       id="pe6545898b3"><rect
         x="77.744"
         y="10.8"
         width="484.244033"
         height="505.3525"
         id="rect213" /></clipPath></defs><sodipodi:namedview
     id="namedview1"
     pagecolor="#ffffff"
     bordercolor="#000000"
     borderopacity="0.25"
     inkscape:showpageshadow="2"
     inkscape:pageopacity="0.0"
     inkscape:pagecheckerboard="0"
     inkscape:deskcolor="#d1d1d1"
     inkscape:zoom="0.86743247"
     inkscape:cx="407.52452"
     inkscape:cy="415.59431"
     inkscape:window-width="1904"
     inkscape:window-height="1008"
     inkscape:window-x="0"
     inkscape:window-y="25"
     inkscape:window-maximized="0"
     inkscape:current-layer="g1" /><g
     inkscape:groupmode="layer"
     inkscape:label="Image"
     id="g1"><g
       id="figure_1"
       transform="matrix(1.4980086,0,0,1.4980086,3.0157787,3.3947861)"><g
         id="patch_1"><path
           d="M 0,576 H 576 V 0 H 0 Z"
           style="fill:none"
           id="path1" /></g><g
         id="axes_1"><g
           id="patch_2"><path
             d="M 77.744,516.1525 H 561.98803 V 10.8 H 77.744 Z"
             style="fill:none"
             id="path2-39" /></g><g
           id="matplotlib.axis_1"><g
             id="xtick_1"><g
               id="line2d_1"><defs
                 id="defs2"><path
                   id="path4"
                   d="M 0,0 V 8"
                   style="stroke:#000000;stroke-width:2" /></defs><g
                 id="g2"><use
                   xlink:href="#m85abdca88a"
                   x="77.744003"
                   y="516.15253"
                   style="stroke:#000000;stroke-width:2"
                   id="use2" /></g></g><g
               id="text_1"><!-- 0 --><g
                 transform="matrix(0.14,0,0,-0.14,74.244,537.36937)"
                 id="g3"><defs
                   id="defs3"><path
                     id="path5"
                     d="m 250,2048 c 0,-480 25,-1056 288,-1542 275,-519 742,-647 1056,-647 345,0 832,135 1113,743 205,441 237,940 237,1446 0,512 -32,1024 -256,1498 -294,614 -819,716 -1088,716 C 1216,4262 749,4096 486,3501 282,3059 250,2560 250,2048 Z m 531,77 c 0,409 0,832 51,1177 122,762 602,820 762,820 211,0 633,-116 755,-749 64,-359 64,-845 64,-1248 0,-480 0,-915 -71,-1325 C 2246,192 1882,0 1594,0 1344,0 966,160 851,774 c -70,384 -70,973 -70,1351 z"
                     transform="scale(0.015625)" /></defs><use
                   xlink:href="#CMUSerif-Roman-30"
                   id="use3" /></g></g></g><g
             id="xtick_2"><g
               id="line2d_2"><g
                 id="g4"><use
                   xlink:href="#m85abdca88a"
                   x="157.12827"
                   y="516.15253"
                   style="stroke:#000000;stroke-width:2"
                   id="use4" /></g></g><g
               id="text_2"><!-- 50 --><g
                 transform="matrix(0.14,0,0,-0.14,150.12827,537.36937)"
                 id="g6"><defs
                   id="defs4"><path
                     id="path6"
                     d="m 320,1030 c 0,-550 442,-1171 1158,-1171 743,0 1396,615 1396,1427 0,762 -525,1402 -1216,1402 -308,0 -583,-102 -813,-326 v 1248 c 128,-39 339,-84 544,-84 787,0 1235,583 1235,666 0,38 -19,70 -64,70 -6,0 -19,0 -51,-19 -128,-57 -442,-185 -871,-185 -256,0 -550,44 -851,179 -51,19 -64,19 -77,19 -64,0 -64,-51 -64,-154 V 2208 c 0,-115 0,-166 90,-166 45,0 58,19 83,57 71,103 307,448 826,448 333,0 493,-294 544,-409 102,-237 115,-487 115,-807 0,-224 0,-608 -154,-877 C 1997,205 1760,38 1466,38 998,38 634,378 525,755 c 19,-6 38,-13 109,-13 211,0 320,160 320,314 0,154 -109,314 -320,314 -90,0 -314,-45 -314,-340 z"
                     transform="scale(0.015625)" /></defs><use
                   xlink:href="#CMUSerif-Roman-35"
                   id="use5" /><use
                   xlink:href="#CMUSerif-Roman-30"
                   transform="translate(49.999985)"
                   id="use6" /></g></g></g><g
             id="xtick_3"><g
               id="line2d_3"><g
                 id="g7"><use
                   xlink:href="#m85abdca88a"
                   x="236.51253"
                   y="516.15253"
                   style="stroke:#000000;stroke-width:2"
                   id="use7" /></g></g><g
               id="text_3"><!-- 100 --><g
                 transform="matrix(0.14,0,0,-0.14,226.01254,537.36937)"
                 id="g10"><defs
                   id="defs7"><path
                     id="path7"
                     d="m 570,3654 c 128,0 505,0 838,167 V 506 C 1408,275 1389,198 813,198 H 608 V 0 c 224,19 781,19 1037,19 256,0 813,0 1037,-19 v 198 h -205 c -576,0 -595,71 -595,308 v 3590 c 0,154 0,166 -148,166 C 1338,3853 774,3853 570,3853 Z"
                     transform="scale(0.015625)" /></defs><use
                   xlink:href="#CMUSerif-Roman-31"
                   id="use8" /><use
                   xlink:href="#CMUSerif-Roman-30"
                   transform="translate(49.999985)"
                   id="use9" /><use
                   xlink:href="#CMUSerif-Roman-30"
                   transform="translate(99.999969)"
                   id="use10" /></g></g></g><g
             id="xtick_4"><g
               id="line2d_4"><g
                 id="g11"><use
                   xlink:href="#m85abdca88a"
                   x="315.89679"
                   y="516.15253"
                   style="stroke:#000000;stroke-width:2"
                   id="use11" /></g></g><g
               id="text_4"><!-- 150 --><g
                 transform="matrix(0.14,0,0,-0.14,305.3968,537.36937)"
                 id="g14"><use
                   xlink:href="#CMUSerif-Roman-31"
                   id="use12" /><use
                   xlink:href="#CMUSerif-Roman-35"
                   transform="translate(49.999985)"
                   id="use13" /><use
                   xlink:href="#CMUSerif-Roman-30"
                   transform="translate(99.999969)"
                   id="use14" /></g></g></g><g
             id="xtick_5"><g
               id="line2d_5"><g
                 id="g15"><use
                   xlink:href="#m85abdca88a"
                   x="395.28107"
                   y="516.15253"
                   style="stroke:#000000;stroke-width:2"
                   id="use15" /></g></g><g
               id="text_5"><!-- 200 --><g
                 transform="matrix(0.14,0,0,-0.14,384.78107,537.36937)"
                 id="g18"><defs
                   id="defs15"><path
                     id="path8"
                     d="m 320,0 h 2374 l 180,1114 H 2714 C 2682,922 2637,640 2573,544 2528,493 2106,493 1965,493 H 813 l 678,659 c 999,883 1383,1229 1383,1869 0,729 -576,1241 -1357,1241 -723,0 -1197,-588 -1197,-1158 0,-358 320,-358 339,-358 109,0 333,76 333,339 0,166 -115,333 -339,333 -51,0 -64,0 -83,-7 147,416 492,653 864,653 582,0 857,-518 857,-1043 0,-512 -320,-1018 -672,-1415 L 390,237 C 320,166 320,154 320,0 Z"
                     transform="scale(0.015625)" /></defs><use
                   xlink:href="#CMUSerif-Roman-32"
                   id="use16" /><use
                   xlink:href="#CMUSerif-Roman-30"
                   transform="translate(49.999985)"
                   id="use17" /><use
                   xlink:href="#CMUSerif-Roman-30"
                   transform="translate(99.999969)"
                   id="use18" /></g></g></g><g
             id="xtick_6"><g
               id="line2d_6"><g
                 id="g19"><use
                   xlink:href="#m85abdca88a"
                   x="474.66534"
                   y="516.15253"
                   style="stroke:#000000;stroke-width:2"
                   id="use19" /></g></g><g
               id="text_6"><!-- 250 --><g
                 transform="matrix(0.14,0,0,-0.14,464.16534,537.36937)"
                 id="g22"><use
                   xlink:href="#CMUSerif-Roman-32"
                   id="use20" /><use
                   xlink:href="#CMUSerif-Roman-35"
                   transform="translate(49.999985)"
                   id="use21" /><use
                   xlink:href="#CMUSerif-Roman-30"
                   transform="translate(99.999969)"
                   id="use22" /></g></g></g><g
             id="xtick_7"><g
               id="line2d_7"><g
                 id="g23"><use
                   xlink:href="#m85abdca88a"
                   x="554.04962"
                   y="516.15253"
                   style="stroke:#000000;stroke-width:2"
                   id="use23" /></g></g><g
               id="text_7"><!-- 300 --><g
                 transform="matrix(0.14,0,0,-0.14,543.54961,537.36937)"
                 id="g26"><defs
                   id="defs23"><path
                     id="path9"
                     d="m 269,864 c 0,-582 595,-1005 1293,-1005 780,0 1363,583 1363,1235 0,525 -403,1024 -1069,1159 525,173 896,621 896,1126 0,525 -563,883 -1178,883 -646,0 -1132,-384 -1132,-870 0,-211 140,-333 326,-333 198,0 326,141 326,327 0,320 -300,320 -396,320 198,313 620,396 851,396 262,0 614,-140 614,-716 0,-77 -13,-448 -179,-730 -192,-307 -410,-326 -570,-333 -51,-6 -204,-19 -249,-19 -51,-6 -96,-13 -96,-77 0,-70 45,-70 153,-70 h 282 c 525,0 762,-435 762,-1063 C 2266,224 1824,38 1542,38 1267,38 787,147 563,525 c 224,-32 423,109 423,352 0,230 -173,358 -359,358 -153,0 -358,-89 -358,-371 z"
                     transform="scale(0.015625)" /></defs><use
                   xlink:href="#CMUSerif-Roman-33"
                   id="use24" /><use
                   xlink:href="#CMUSerif-Roman-30"
                   transform="translate(49.999985)"
                   id="use25" /><use
                   xlink:href="#CMUSerif-Roman-30"
                   transform="translate(99.999969)"
                   id="use26" /></g></g></g><g
             id="text_8"><!-- Anneal Temperature [K] --><g
               transform="matrix(0.2,0,0,-0.2,212.3957,559.08625)"
               id="g48"><defs
                 id="defs26"><path
                   id="path10"
                   d="m 205,0 c 147,6 422,19 653,19 198,0 531,-13 736,-19 v 198 c -320,0 -480,160 -480,327 0,19 6,83 12,96 l 295,838 h 1581 l 339,-979 c 6,-26 19,-64 19,-90 0,-192 -358,-192 -531,-192 V 0 c 230,19 678,19 921,19 276,0 570,-6 839,-19 v 198 h -115 c -384,0 -474,45 -544,256 L 2547,4454 c -32,84 -45,128 -147,128 -102,0 -122,-38 -154,-128 L 922,627 C 806,301 550,205 205,198 Z m 1286,1658 717,2080 723,-2080 z"
                   transform="scale(0.015625)" /><path
                   id="path11"
                   d="m 205,0 c 224,6 550,19 723,19 166,0 499,-13 717,-19 v 198 c -429,0 -499,0 -499,288 v 1178 c 0,666 454,1024 864,1024 403,0 473,-346 473,-710 V 486 c 0,-288 -70,-288 -499,-288 V 0 c 224,6 550,19 723,19 167,0 499,-13 717,-19 v 198 c -333,0 -493,0 -499,192 v 1223 c 0,550 0,749 -199,979 -89,109 -300,237 -672,237 -467,0 -768,-275 -947,-672 v 672 l -902,-71 v -198 c 448,0 499,-45 499,-358 V 486 C 704,198 634,198 205,198 Z"
                   transform="scale(0.015625)" /><path
                   id="path12"
                   d="M 179,1408 C 179,550 851,-70 1587,-70 c 781,0 1069,710 1069,832 0,64 -51,76 -83,76 -58,0 -71,-38 -83,-89 C 2266,90 1690,90 1626,90 1306,90 1050,282 902,518 710,826 710,1248 710,1478 h 1786 c 141,0 160,0 160,135 0,633 -346,1254 -1146,1254 C 768,2867 179,2208 179,1408 Z m 538,205 c 38,953 576,1113 793,1113 660,0 724,-864 724,-1113 z"
                   transform="scale(0.015625)" /><path
                   id="path13"
                   d="m 269,608 c 0,-518 621,-678 1024,-678 422,0 717,256 838,556 26,-256 199,-524 499,-524 135,0 525,89 525,608 V 928 H 2995 V 570 c 0,-372 -160,-410 -230,-410 -211,0 -237,288 -237,320 v 1280 c 0,269 0,518 -230,755 -250,250 -570,352 -877,352 -525,0 -967,-301 -967,-723 0,-192 128,-301 295,-301 179,0 294,128 294,295 0,76 -32,288 -326,294 173,224 486,294 691,294 314,0 678,-249 678,-819 V 1670 C 1760,1651 1312,1632 909,1440 429,1222 269,890 269,608 Z m 493,6 c 0,352 268,884 1324,922 V 896 C 2086,288 1626,70 1338,70 1024,70 762,294 762,614 Z"
                   transform="scale(0.015625)" /><path
                   id="path14"
                   d="m 211,0 c 211,6 551,19 711,19 160,0 473,-13 710,-19 v 198 c -429,0 -499,0 -499,288 v 3956 l -922,-71 v -198 c 448,0 499,-45 499,-359 V 486 C 710,198 640,198 211,198 Z"
                   transform="scale(0.015625)" /><path
                   id="path15"
                   transform="scale(0.015625)"
                   d="" /><path
                   id="path16"
                   d="m 230,2893 h 160 c 90,1030 186,1241 1152,1241 116,0 282,0 346,-12 134,-26 134,-96 134,-244 V 506 c 0,-218 0,-308 -672,-308 H 1094 V 0 c 263,19 916,19 1210,19 294,0 954,0 1216,-19 v 198 h -256 c -672,0 -672,90 -672,308 v 3372 c 0,128 0,218 115,244 71,12 243,12 365,12 966,0 1062,-211 1152,-1241 h 160 L 4262,4333 H 352 Z"
                   transform="scale(0.015625)" /><path
                   id="path17"
                   d="m 205,0 c 224,6 550,19 723,19 166,0 499,-13 717,-19 v 198 c -429,0 -499,0 -499,288 v 1178 c 0,666 454,1024 864,1024 403,0 473,-346 473,-710 V 486 c 0,-288 -70,-288 -499,-288 V 0 c 224,6 550,19 723,19 167,0 499,-13 717,-19 v 198 c -429,0 -499,0 -499,288 v 1178 c 0,666 454,1024 864,1024 403,0 473,-346 473,-710 V 486 c 0,-288 -70,-288 -499,-288 V 0 c 224,6 551,19 723,19 167,0 500,-13 717,-19 v 198 c -333,0 -493,0 -499,192 v 1223 c 0,550 0,749 -198,979 -90,109 -301,237 -672,237 -538,0 -820,-384 -928,-627 -90,556 -564,627 -852,627 -467,0 -768,-275 -947,-672 v 672 l -902,-71 v -198 c 448,0 499,-45 499,-358 V 486 C 704,198 634,198 205,198 Z"
                   transform="scale(0.015625)" /><path
                   id="path18"
                   d="m 179,-1043 v -199 c 218,7 551,20 717,20 173,0 499,-13 723,-20 v 199 c -429,0 -499,0 -499,288 v 1075 58 c 32,-103 301,-448 787,-448 762,0 1427,627 1427,1452 0,813 -620,1447 -1337,1447 -499,0 -768,-282 -896,-423 v 423 l -922,-71 v -198 c 455,0 499,-38 499,-320 V -755 c 0,-288 -70,-288 -499,-288 z m 941,1773 v 1427 c 186,326 499,512 826,512 467,0 857,-563 857,-1287 0,-774 -448,-1312 -921,-1312 -256,0 -500,128 -672,391 -90,134 -90,141 -90,269 z"
                   transform="scale(0.015625)" /><path
                   id="path19"
                   d="m 179,0 c 250,6 551,19 730,19 256,0 557,0 813,-19 v 198 h -135 c -473,0 -486,71 -486,301 v 986 c 0,633 269,1203 755,1203 45,0 58,0 70,-6 -19,-7 -147,-84 -147,-250 0,-179 135,-275 275,-275 116,0 276,77 276,281 0,205 -199,391 -474,391 -467,0 -698,-429 -787,-704 v 704 l -890,-71 v -198 c 448,0 499,-45 499,-358 V 486 C 678,198 608,198 179,198 Z"
                   transform="scale(0.015625)" /><path
                   id="path20"
                   d="M 122,2560 H 666 V 794 c 0,-788 595,-864 825,-864 455,0 634,454 634,864 v 364 H 1965 V 806 C 1965,333 1773,90 1536,90 1107,90 1107,672 1107,781 v 1779 h 915 v 198 H 1107 V 3936 H 947 C 941,3411 749,2726 122,2701 Z"
                   transform="scale(0.015625)" /><path
                   id="path21"
                   d="m 205,2560 c 499,0 499,-19 499,-589 v -960 c 0,-499 0,-1081 973,-1081 358,0 640,179 825,576 V -70 l 922,70 v 198 c -448,0 -499,45 -499,359 v 2272 l -941,-71 v -198 c 448,0 499,-45 499,-358 V 1062 C 2483,506 2176,70 1709,70 1171,70 1146,371 1146,704 v 2125 l -941,-71 z"
                   transform="scale(0.015625)" /><path
                   id="path22"
                   d="m 666,-1600 h 966 v 147 h -538 v 6106 h 538 v 147 H 666 Z"
                   transform="scale(0.015625)" /><path
                   id="path23"
                   d="m 211,0 c 224,19 698,19 941,19 243,0 723,0 947,-19 v 198 h -153 c -493,0 -506,71 -506,301 v 1120 l 742,704 1159,-1715 c 38,-58 96,-141 96,-218 0,-192 -250,-192 -378,-192 V 0 c 224,19 672,19 915,19 224,0 468,-6 736,-19 v 198 c -345,0 -480,26 -672,308 L 2560,2682 3712,3789 c 51,51 390,377 909,384 v 198 c -167,-19 -371,-19 -544,-19 -231,0 -595,0 -813,19 v -198 c 256,-7 294,-154 294,-211 0,-103 -64,-167 -115,-212 L 1440,1837 v 2035 c 0,230 13,301 506,301 h 153 v 198 c -224,-19 -697,-19 -941,-19 -243,0 -723,0 -947,19 v -198 h 154 c 493,0 505,-71 505,-301 V 499 C 870,269 858,198 365,198 H 211 Z"
                   transform="scale(0.015625)" /><path
                   id="path24"
                   d="m 134,-1453 v -147 h 967 V 4800 H 134 v -147 h 538 v -6106 z"
                   transform="scale(0.015625)" /></defs><use
                 xlink:href="#CMUSerif-Roman-41"
                 id="use27" /><use
                 xlink:href="#CMUSerif-Roman-6e"
                 transform="translate(74.999985)"
                 id="use28" /><use
                 xlink:href="#CMUSerif-Roman-6e"
                 transform="translate(130.49997)"
                 id="use29" /><use
                 xlink:href="#CMUSerif-Roman-65"
                 transform="translate(185.99995)"
                 id="use30" /><use
                 xlink:href="#CMUSerif-Roman-61"
                 transform="translate(230.39995)"
                 id="use31" /><use
                 xlink:href="#CMUSerif-Roman-6c"
                 transform="translate(280.39993)"
                 id="use32" /><use
                 xlink:href="#CMUSerif-Roman-20"
                 transform="translate(308.09993)"
                 id="use33" /><use
                 xlink:href="#CMUSerif-Roman-54"
                 transform="translate(341.39992)"
                 id="use34" /><use
                 xlink:href="#CMUSerif-Roman-65"
                 transform="translate(413.5999)"
                 id="use35" /><use
                 xlink:href="#CMUSerif-Roman-6d"
                 transform="translate(457.99989)"
                 id="use36" /><use
                 xlink:href="#CMUSerif-Roman-70"
                 transform="translate(541.29988)"
                 id="use37" /><use
                 xlink:href="#CMUSerif-Roman-65"
                 transform="translate(596.79987)"
                 id="use38" /><use
                 xlink:href="#CMUSerif-Roman-72"
                 transform="translate(641.19986)"
                 id="use39" /><use
                 xlink:href="#CMUSerif-Roman-61"
                 transform="translate(680.29985)"
                 id="use40" /><use
                 xlink:href="#CMUSerif-Roman-74"
                 transform="translate(730.29984)"
                 id="use41" /><use
                 xlink:href="#CMUSerif-Roman-75"
                 transform="translate(769.09982)"
                 id="use42" /><use
                 xlink:href="#CMUSerif-Roman-72"
                 transform="translate(824.59981)"
                 id="use43" /><use
                 xlink:href="#CMUSerif-Roman-65"
                 transform="translate(863.6998)"
                 id="use44" /><use
                 xlink:href="#CMUSerif-Roman-20"
                 transform="translate(908.09979)"
                 id="use45" /><use
                 xlink:href="#CMUSerif-Roman-5b"
                 transform="translate(941.39978)"
                 id="use46" /><use
                 xlink:href="#CMUSerif-Roman-4b"
                 transform="translate(969.19977)"
                 id="use47" /><use
                 xlink:href="#CMUSerif-Roman-5d"
                 transform="translate(1046.8998)"
                 id="use48" /></g></g></g><g
           id="matplotlib.axis_2"><g
             id="ytick_1"><g
               id="line2d_8"><defs
                 id="defs48"><path
                   id="path25"
                   d="M 0,0 H -8"
                   style="stroke:#000000;stroke-width:2" /></defs><g
                 id="g49"><use
                   xlink:href="#mb98193f879"
                   x="77.744003"
                   y="516.15253"
                   style="stroke:#000000;stroke-width:2"
                   id="use49" /></g></g><g
               id="text_9"><!-- 0.00 --><g
                 transform="matrix(0.14,0,0,-0.14,41.352438,521.01094)"
                 id="g53"><defs
                   id="defs49"><path
                     id="path26"
                     d="M 544,339 C 544,166 685,0 883,0 c 167,0 333,141 333,339 0,199 -154,333 -333,333 C 685,672 544,512 544,339 Z"
                     transform="scale(0.015625)" /></defs><use
                   xlink:href="#CMUSerif-Roman-30"
                   id="use50" /><use
                   xlink:href="#CMUSerif-Roman-2e"
                   transform="translate(49.999985)"
                   id="use51" /><use
                   xlink:href="#CMUSerif-Roman-30"
                   transform="translate(77.799973)"
                   id="use52" /><use
                   xlink:href="#CMUSerif-Roman-30"
                   transform="translate(127.79996)"
                   id="use53" /></g></g></g><g
             id="ytick_2"><g
               id="line2d_9"><g
                 id="g54"><use
                   xlink:href="#mb98193f879"
                   x="77.744003"
                   y="418.96933"
                   style="stroke:#000000;stroke-width:2"
                   id="use54" /></g></g><g
               id="text_10"><!-- 0.05 --><g
                 transform="matrix(0.14,0,0,-0.14,41.352438,423.82776)"
                 id="g58"><use
                   xlink:href="#CMUSerif-Roman-30"
                   id="use55" /><use
                   xlink:href="#CMUSerif-Roman-2e"
                   transform="translate(49.999985)"
                   id="use56" /><use
                   xlink:href="#CMUSerif-Roman-30"
                   transform="translate(77.799973)"
                   id="use57" /><use
                   xlink:href="#CMUSerif-Roman-35"
                   transform="translate(127.79996)"
                   id="use58" /></g></g></g><g
             id="ytick_3"><g
               id="line2d_10"><g
                 id="g59"><use
                   xlink:href="#mb98193f879"
                   x="77.744003"
                   y="321.78616"
                   style="stroke:#000000;stroke-width:2"
                   id="use59" /></g></g><g
               id="text_11"><!-- 0.10 --><g
                 transform="matrix(0.14,0,0,-0.14,41.352438,326.64459)"
                 id="g63"><use
                   xlink:href="#CMUSerif-Roman-30"
                   id="use60" /><use
                   xlink:href="#CMUSerif-Roman-2e"
                   transform="translate(49.999985)"
                   id="use61" /><use
                   xlink:href="#CMUSerif-Roman-31"
                   transform="translate(77.799973)"
                   id="use62" /><use
                   xlink:href="#CMUSerif-Roman-30"
                   transform="translate(127.79996)"
                   id="use63" /></g></g></g><g
             id="ytick_4"><g
               id="line2d_11"><g
                 id="g64"><use
                   xlink:href="#mb98193f879"
                   x="77.744003"
                   y="224.60298"
                   style="stroke:#000000;stroke-width:2"
                   id="use64" /></g></g><g
               id="text_12"><!-- 0.15 --><g
                 transform="matrix(0.14,0,0,-0.14,41.352438,229.46142)"
                 id="g68"><use
                   xlink:href="#CMUSerif-Roman-30"
                   id="use65" /><use
                   xlink:href="#CMUSerif-Roman-2e"
                   transform="translate(49.999985)"
                   id="use66" /><use
                   xlink:href="#CMUSerif-Roman-31"
                   transform="translate(77.799973)"
                   id="use67" /><use
                   xlink:href="#CMUSerif-Roman-35"
                   transform="translate(127.79996)"
                   id="use68" /></g></g></g><g
             id="ytick_5"><g
               id="line2d_12"><g
                 id="g69"><use
                   xlink:href="#mb98193f879"
                   x="77.744003"
                   y="127.41981"
                   style="stroke:#000000;stroke-width:2"
                   id="use69" /></g></g><g
               id="text_13"><!-- 0.20 --><g
                 transform="matrix(0.14,0,0,-0.14,41.352438,132.27824)"
                 id="g73"><use
                   xlink:href="#CMUSerif-Roman-30"
                   id="use70" /><use
                   xlink:href="#CMUSerif-Roman-2e"
                   transform="translate(49.999985)"
                   id="use71" /><use
                   xlink:href="#CMUSerif-Roman-32"
                   transform="translate(77.799973)"
                   id="use72" /><use
                   xlink:href="#CMUSerif-Roman-30"
                   transform="translate(127.79996)"
                   id="use73" /></g></g></g><g
             id="ytick_6"><g
               id="line2d_13"><g
                 id="g74"><use
                   xlink:href="#mb98193f879"
                   x="77.744003"
                   y="30.236635"
                   style="stroke:#000000;stroke-width:2"
                   id="use74" /></g></g><g
               id="text_14"><!-- 0.25 --><g
                 transform="matrix(0.14,0,0,-0.14,41.352438,35.095072)"
                 id="g78"><use
                   xlink:href="#CMUSerif-Roman-30"
                   id="use75" /><use
                   xlink:href="#CMUSerif-Roman-2e"
                   transform="translate(49.999985)"
                   id="use76" /><use
                   xlink:href="#CMUSerif-Roman-32"
                   transform="translate(77.799973)"
                   id="use77" /><use
                   xlink:href="#CMUSerif-Roman-35"
                   transform="translate(127.79996)"
                   id="use78" /></g></g></g><g
             id="text_15"><!-- $i_c \mathrm{(20\, K) = I_c \; / \; I_c^{unirradiated}}$ (20 K) --><g
               transform="matrix(0,-0.2,-0.2,0,31.952438,401.27625)"
               id="g110"><defs
                 id="defs78"><path
                   id="path27"
                   d="m 500,459 q 0,119 50,250 l 519,1379 q 84,234 84,384 0,191 -140,191 -254,0 -418,-261 -164,-261 -242,-583 -12,-41 -53,-41 h -75 q -53,0 -53,60 v 18 q 103,382 315,677 213,295 538,295 228,0 386,-150 158,-150 158,-381 0,-119 -53,-250 L 997,672 Q 909,459 909,288 909,97 1056,97 q 250,0 417,267 168,267 236,577 13,37 50,37 h 79 q 25,0 40,-17 16,-17 16,-39 0,-6 -6,-19 Q 1800,541 1583,234 1366,-72 1044,-72 819,-72 659,83 500,238 500,459 Z m 722,3419 q 0,135 112,244 113,109 247,109 110,0 180,-67 70,-67 70,-170 0,-144 -114,-252 -114,-108 -251,-108 -103,0 -174,70 -70,71 -70,174 z"
                   transform="scale(0.015625)" /><path
                   id="path28"
                   d="m 750,763 q 0,-279 142,-473 142,-193 408,-193 381,0 732,175 352,175 574,484 19,19 50,19 32,0 64,-36 33,-36 33,-67 0,-25 -12,-38 Q 2506,306 2109,117 1713,-72 1288,-72 981,-72 747,73 513,219 384,462 256,706 256,1013 q 0,431 241,856 241,425 641,692 400,267 840,267 288,0 517,-139 230,-139 230,-411 0,-175 -102,-299 -101,-123 -273,-123 -103,0 -174,64 -70,64 -70,168 0,150 109,256 110,106 257,106 h 12 q -75,109 -217,161 -142,52 -295,52 -375,0 -657,-321 Q 1034,2022 892,1576 750,1131 750,763 Z"
                   transform="scale(0.015625)" /><path
                   id="path29"
                   d="m 1984,-1588 q -356,282 -614,646 -257,364 -422,777 -164,412 -245,862 -81,450 -81,903 0,459 81,909 81,450 248,866 168,416 427,778 260,363 606,635 0,12 32,12 h 59 q 19,0 34,-17 16,-17 16,-39 0,-28 -12,-41 -313,-306 -521,-656 -208,-350 -335,-746 -126,-395 -182,-819 -56,-423 -56,-882 0,-2034 1087,-3091 19,-18 19,-53 0,-15 -17,-35 -17,-21 -33,-21 h -59 q -32,0 -32,12 z"
                   transform="scale(0.015625)" /><path
                   id="path30"
                   d="m 319,0 v 172 q 0,16 12,34 l 994,1100 q 225,244 365,409 141,166 278,382 138,216 218,439 80,223 80,473 0,263 -97,502 -97,239 -289,383 -192,144 -464,144 -278,0 -500,-168 -222,-167 -313,-432 25,6 69,6 144,0 245,-97 102,-97 102,-250 0,-147 -102,-249 -101,-101 -245,-101 -150,0 -252,104 -101,105 -101,246 0,241 90,451 91,211 261,375 171,165 385,252 214,88 454,88 366,0 681,-155 316,-155 500,-438 185,-282 185,-661 0,-278 -122,-528 -122,-250 -313,-455 -190,-204 -487,-464 -297,-259 -390,-346 L 838,519 h 615 q 453,0 758,7 305,8 323,24 75,81 154,591 h 187 L 2694,0 Z"
                   transform="scale(0.015625)" /><path
                   id="path31"
                   d="m 1600,-141 q -784,0 -1067,645 -283,646 -283,1537 0,556 101,1046 102,491 403,833 302,343 846,343 422,0 690,-207 269,-206 410,-533 141,-326 192,-700 52,-373 52,-782 0,-550 -102,-1030 -101,-480 -398,-816 -297,-336 -844,-336 z m 0,166 q 356,0 531,365 175,366 216,810 41,444 41,944 0,481 -41,887 -41,407 -215,736 -173,330 -532,330 -362,0 -537,-332 -175,-331 -216,-736 -41,-404 -41,-885 0,-356 17,-672 18,-316 93,-652 75,-336 242,-566 167,-229 442,-229 z"
                   transform="scale(0.015625)" /><path
                   id="path32"
                   d="m 197,0 v 225 q 659,0 659,203 v 3516 q 0,203 -659,203 v 225 h 1916 v -225 q -660,0 -660,-203 V 1869 l 1978,1900 q 82,87 82,175 0,100 -86,151 -86,52 -196,52 v 225 h 1391 v -225 q -525,0 -922,-378 L 2566,2681 3969,603 q 172,-253 301,-316 130,-62 439,-62 V 0 H 3034 v 225 q 154,0 258,31 105,32 105,147 0,78 -81,200 L 2169,2303 1453,1613 V 428 q 0,-203 660,-203 V 0 Z"
                   transform="scale(0.015625)" /><path
                   id="path33"
                   d="m 416,-1600 q -57,0 -57,56 0,28 13,41 1094,1069 1094,3103 0,2034 -1082,3091 -25,15 -25,53 0,22 17,39 18,17 40,17 h 59 q 19,0 31,-12 460,-363 766,-882 306,-518 448,-1106 143,-587 143,-1200 0,-453 -77,-892 -77,-439 -244,-865 -167,-427 -423,-788 -256,-361 -613,-643 -12,-12 -31,-12 z"
                   transform="scale(0.015625)" /><path
                   id="path34"
                   d="m 481,850 q -53,0 -88,40 -34,41 -34,88 0,53 34,90 35,38 88,38 h 4019 q 47,0 81,-38 35,-37 35,-90 0,-47 -35,-88 -34,-40 -81,-40 z m 0,1244 q -53,0 -88,37 -34,38 -34,91 0,47 34,87 35,41 88,41 h 4019 q 47,0 81,-41 35,-40 35,-87 0,-53 -35,-91 -34,-37 -81,-37 z"
                   transform="scale(0.015625)" /><path
                   id="path35"
                   d="m 166,0 v 225 q 690,0 690,203 v 3516 q 0,203 -690,203 v 225 h 1978 v -225 q -691,0 -691,-203 V 428 q 0,-203 691,-203 V 0 Z"
                   transform="scale(0.015625)" /><path
                   id="path36"
                   d="m 1594,-72 q -388,0 -704,201 -315,202 -496,538 -181,336 -181,714 0,378 179,725 180,347 497,555 317,208 705,208 375,0 682,-147 308,-147 308,-481 0,-125 -89,-218 -89,-92 -217,-92 -128,0 -217,92 -89,93 -89,218 0,112 72,195 72,83 178,105 -222,140 -622,140 -306,0 -494,-203 -187,-203 -262,-503 -75,-300 -75,-594 0,-309 92,-598 92,-289 297,-478 205,-189 514,-189 303,0 515,186 213,186 291,486 0,37 50,37 h 78 q 19,0 34,-17 16,-17 16,-39 V 750 Q 2559,372 2271,150 1984,-72 1594,-72 Z"
                   transform="scale(0.015625)" /><path
                   id="path37"
                   d="m 359,-1472 q 0,19 7,25 l 2225,6169 q 12,37 43,57 32,21 72,21 57,0 92,-35 36,-34 36,-93 v -25 L 609,-1522 q -37,-78 -121,-78 -54,0 -92,38 -37,37 -37,90 z"
                   transform="scale(0.015625)" /><path
                   id="path38"
                   d="m 691,763 v 1412 q 0,172 -52,248 -51,77 -148,94 -97,17 -300,17 v 225 l 968,69 V 763 q 0,-250 36,-390 36,-139 153,-208 118,-68 374,-68 344,0 547,287 203,288 203,654 v 1137 q 0,172 -53,248 -53,77 -149,94 -95,17 -298,17 v 225 l 966,69 V 581 q 0,-168 51,-245 52,-77 148,-94 97,-17 301,-17 V 0 L 2491,-72 V 469 Q 2372,228 2159,78 1947,-72 1691,-72 1231,-72 961,123 691,319 691,763 Z"
                   transform="scale(0.015625)" /><path
                   id="path39"
                   d="m 191,0 v 225 q 218,0 359,34 141,35 141,169 v 1747 q 0,172 -52,248 -51,77 -148,94 -97,17 -300,17 v 225 l 928,69 v -625 q 128,275 379,450 252,175 549,175 444,0 667,-213 224,-212 224,-649 V 428 q 0,-134 140,-169 141,-34 360,-34 V 0 H 1972 v 225 q 219,0 359,34 141,35 141,169 v 1519 q 0,312 -91,514 -90,202 -372,202 -371,0 -611,-297 -239,-297 -239,-675 V 428 q 0,-134 141,-169 141,-34 356,-34 V 0 Z"
                   transform="scale(0.015625)" /><path
                   id="path40"
                   d="m 197,0 v 225 q 219,0 359,34 141,35 141,169 v 1747 q 0,247 -96,303 -95,56 -376,56 v 225 l 922,69 V 428 q 0,-134 122,-169 122,-34 325,-34 V 0 Z m 272,3928 q 0,141 106,247 106,106 244,106 90,0 174,-47 85,-46 132,-131 47,-84 47,-175 0,-137 -107,-244 -106,-106 -246,-106 -138,0 -244,106 -106,107 -106,244 z"
                   transform="scale(0.015625)" /><path
                   id="path41"
                   d="m 166,0 v 225 q 218,0 359,34 141,35 141,169 v 1747 q 0,172 -52,248 -51,77 -148,94 -97,17 -300,17 v 225 l 915,69 v -625 q 103,278 294,451 191,174 463,174 190,0 340,-113 150,-112 150,-296 0,-116 -83,-202 -82,-86 -204,-86 -119,0 -204,84 -84,85 -84,204 0,172 122,244 h -37 q -260,0 -424,-188 -164,-187 -233,-466 -68,-278 -68,-531 V 428 q 0,-203 621,-203 V 0 Z"
                   transform="scale(0.015625)" /><path
                   id="path42"
                   d="m 256,628 q 0,381 300,620 300,240 720,338 421,98 799,98 v 263 q 0,184 -81,357 -81,174 -235,285 -153,111 -337,111 -425,0 -647,-191 122,0 201,-92 80,-92 80,-214 0,-128 -91,-219 -90,-90 -215,-90 -128,0 -219,90 -90,91 -90,219 0,338 306,502 306,164 675,164 259,0 521,-111 263,-111 430,-318 168,-206 168,-481 V 519 q 0,-125 53,-230 53,-105 165,-105 107,0 158,106 52,107 52,229 v 409 h 187 V 519 Q 3156,375 3081,245 3006,116 2879,39 2753,-38 2606,-38 2419,-38 2283,107 2147,253 2131,453 2013,213 1781,70 1550,-72 1288,-72 1044,-72 808,0 572,72 414,226 256,381 256,628 Z m 519,0 q 0,-225 165,-378 166,-153 391,-153 207,0 375,103 169,103 269,281 100,178 100,375 v 666 q -291,0 -596,-96 Q 1175,1331 975,1128 775,925 775,628 Z"
                   transform="scale(0.015625)" /><path
                   id="path43"
                   d="m 1563,-72 q -379,0 -692,205 -312,205 -485,539 -173,334 -173,709 0,388 189,720 189,333 514,530 325,197 715,197 235,0 444,-99 209,-98 363,-273 v 1332 q 0,171 -52,248 -52,77 -147,94 -95,17 -298,17 v 225 l 947,69 V 581 q 0,-168 51,-245 52,-77 147,-94 95,-17 298,-17 V 0 L 2419,-72 V 331 Q 2253,141 2025,34 1797,-72 1563,-72 Z M 909,556 q 110,-209 292,-334 183,-125 399,-125 266,0 487,153 222,153 332,397 v 1534 q -75,141 -189,252 -114,111 -257,170 -142,60 -301,60 -334,0 -538,-190 -203,-189 -284,-483 -81,-293 -81,-615 0,-256 26,-447 27,-190 114,-372 z"
                   transform="scale(0.015625)" /><path
                   id="path44"
                   d="M 653,769 V 2534 H 122 v 166 q 419,0 615,390 197,391 197,848 h 185 V 2759 h 903 V 2534 H 1119 V 781 q 0,-265 89,-465 89,-200 320,-200 219,0 316,211 97,211 97,454 v 378 h 184 V 769 Q 2125,569 2051,373 1978,178 1834,53 1691,-72 1484,-72 1100,-72 876,158 653,388 653,769 Z"
                   transform="scale(0.015625)" /><path
                   id="path45"
                   d="m 1594,-72 q -391,0 -718,205 -326,205 -512,547 -186,342 -186,723 0,375 170,712 171,338 475,546 305,208 680,208 294,0 511,-99 217,-98 358,-273 141,-175 212,-413 72,-237 72,-521 0,-85 -65,-85 H 738 v -69 q 0,-531 214,-912 214,-381 698,-381 197,0 364,87 167,88 290,244 124,156 168,334 6,22 23,39 18,18 39,18 h 57 q 65,0 65,-82 Q 2566,394 2266,161 1966,-72 1594,-72 Z M 744,1638 h 1459 q 0,240 -67,487 -67,247 -224,411 -156,164 -409,164 -362,0 -561,-339 -198,-339 -198,-723 z"
                   transform="scale(0.015625)" /><path
                   id="path46"
                   d="m 634,1600 c 0,-499 70,-1274 422,-1997 384,-787 934,-1203 998,-1203 39,0 64,19 64,64 0,19 0,32 -108,141 -800,806 -1005,2016 -1005,2995 0,1114 243,2227 1030,3027 83,77 83,90 83,109 0,45 -25,64 -64,64 -64,0 -640,-435 -1017,-1248 C 710,2848 634,2138 634,1600 Z"
                   transform="scale(0.015625)" /><path
                   id="path47"
                   d="m 365,-1536 c 0,-38 25,-64 64,-64 64,0 640,435 1017,1248 327,704 404,1414 404,1952 0,499 -71,1274 -423,1997 -384,787 -934,1203 -998,1203 -39,0 -64,-26 -64,-64 0,-19 0,-32 121,-147 628,-634 992,-1651 992,-2989 0,-1094 -236,-2221 -1030,-3027 -83,-77 -83,-90 -83,-109 z"
                   transform="scale(0.015625)" /></defs><use
                 xlink:href="#Cmmi10-69"
                 transform="translate(0,0.276562)"
                 id="use79" /><use
                 xlink:href="#Cmmi10-63"
                 transform="matrix(0.7,0,0,0.7,34.423828,-16.729688)"
                 id="use80" /><use
                 xlink:href="#Cmr10-28"
                 transform="translate(71.050195,0.276562)"
                 id="use81" /><use
                 xlink:href="#Cmr10-32"
                 transform="translate(109.86856,0.276562)"
                 id="use82" /><use
                 xlink:href="#Cmr10-30"
                 transform="translate(159.86855,0.276562)"
                 id="use83" /><use
                 xlink:href="#Cmr10-4b"
                 transform="translate(224.50101,0.276562)"
                 id="use84" /><use
                 xlink:href="#Cmr10-29"
                 transform="translate(302.18656,0.276562)"
                 id="use85" /><use
                 xlink:href="#Cmr10-3d"
                 transform="translate(358.56351,0.276562)"
                 id="use86" /><use
                 xlink:href="#Cmr10-49"
                 transform="translate(453.80765,0.276562)"
                 id="use87" /><use
                 xlink:href="#Cmr10-63"
                 transform="matrix(0.7,0,0,0.7,494.45913,-17.123438)"
                 id="use88" /><use
                 xlink:href="#Cmmi10-3d"
                 transform="translate(556.4406,0.276562)"
                 id="use89" /><use
                 xlink:href="#Cmr10-49"
                 transform="translate(630.82773,0.276562)"
                 id="use90" /><use
                 xlink:href="#Cmr10-75"
                 transform="matrix(0.7,0,0,0.7,671.47922,39.426563)"
                 id="use91" /><use
                 xlink:href="#Cmr10-6e"
                 transform="matrix(0.7,0,0,0.7,710.34152,39.426563)"
                 id="use92" /><use
                 xlink:href="#Cmr10-69"
                 transform="matrix(0.7,0,0,0.7,749.20383,39.426563)"
                 id="use93" /><use
                 xlink:href="#Cmr10-72"
                 transform="matrix(0.7,0,0,0.7,768.58371,39.426563)"
                 id="use94" /><use
                 xlink:href="#Cmr10-72"
                 transform="matrix(0.7,0,0,0.7,795.96164,39.426563)"
                 id="use95" /><use
                 xlink:href="#Cmr10-61"
                 transform="matrix(0.7,0,0,0.7,823.33957,39.426563)"
                 id="use96" /><use
                 xlink:href="#Cmr10-64"
                 transform="matrix(0.7,0,0,0.7,858.33957,39.426563)"
                 id="use97" /><use
                 xlink:href="#Cmr10-69"
                 transform="matrix(0.7,0,0,0.7,897.20187,39.426563)"
                 id="use98" /><use
                 xlink:href="#Cmr10-61"
                 transform="matrix(0.7,0,0,0.7,916.58176,39.426563)"
                 id="use99" /><use
                 xlink:href="#Cmr10-74"
                 transform="matrix(0.7,0,0,0.7,951.58176,39.426563)"
                 id="use100" /><use
                 xlink:href="#Cmr10-65"
                 transform="matrix(0.7,0,0,0.7,978.75461,39.426563)"
                 id="use101" /><use
                 xlink:href="#Cmr10-64"
                 transform="matrix(0.7,0,0,0.7,1009.8239,39.426563)"
                 id="use102" /><use
                 xlink:href="#Cmr10-63"
                 transform="matrix(0.7,0,0,0.7,671.47922,-25.823437)"
                 id="use103" /><use
                 xlink:href="#CMUSerif-Roman-20"
                 transform="translate(1055.2112,0.276562)"
                 id="use104" /><use
                 xlink:href="#CMUSerif-Roman-28"
                 transform="translate(1088.5112,0.276562)"
                 id="use105" /><use
                 xlink:href="#CMUSerif-Roman-32"
                 transform="translate(1127.3112,0.276562)"
                 id="use106" /><use
                 xlink:href="#CMUSerif-Roman-30"
                 transform="translate(1177.3112,0.276562)"
                 id="use107" /><use
                 xlink:href="#CMUSerif-Roman-20"
                 transform="translate(1227.3112,0.276562)"
                 id="use108" /><use
                 xlink:href="#CMUSerif-Roman-4b"
                 transform="translate(1260.6112,0.276562)"
                 id="use109" /><use
                 xlink:href="#CMUSerif-Roman-29"
                 transform="translate(1338.3112,0.276562)"
                 id="use110" /></g></g></g><g
           id="line2d_14"><path
             d="m 109.49771,344.65972 103.23928,-0.11104 16.46488,-0.26058 12.45991,-0.41732 10.23493,-0.56192 8.89994,-0.70257 8.00995,-0.84176 7.56494,-1.00904 7.11995,-1.16605 6.67496,-1.30538 6.67495,-1.53033 6.22996,-1.64754 6.22995,-1.87389 6.22996,-2.11377 5.78496,-2.18865 5.78496,-2.41581 5.78496,-2.65166 5.78496,-2.89543 5.78496,-3.14635 5.78496,-3.40364 5.78496,-3.66653 5.78496,-3.93426 5.78496,-4.20607 5.78496,-4.48123 5.78496,-4.75905 5.78496,-5.03883 5.78495,-5.31993 6.22996,-6.04431 6.22996,-6.37124 6.22995,-6.69753 6.22996,-7.02252 6.22996,-7.34553 6.67495,-8.22576 6.67495,-8.5898 6.67496,-8.94936 7.11995,-9.93655 7.11995,-10.33303 7.11995,-10.72207 7.56495,-11.80955 7.56494,-12.22963 7.56495,-12.63909 8.00995,-13.81658 8.00994,-14.24973 8.45494,-15.49601 8.89994,-16.798089 8.89994,-17.277808 9.34493,-18.636421 9.78993,-20.042906 6.67496,-13.956915 v 0"
             clip-path="url(#pe6545898b3)"
             style="fill:none;stroke:#000000;stroke-width:8;stroke-linecap:round;stroke-opacity:0.2"
             id="path110" /></g><g
           id="LineCollection_1"><path
             d="m 109.49771,297.91682 v -1.06727"
             clip-path="url(#pe6545898b3)"
             style="fill:none;stroke:#0000ff;stroke-width:0.5"
             id="path111" /><path
             d="M 141.25141,305.61307 V 294.91081"
             clip-path="url(#pe6545898b3)"
             style="fill:none;stroke:#0000ff;stroke-width:0.5"
             id="path112" /><path
             d="M 204.75883,290.53546 V 286.1333"
             clip-path="url(#pe6545898b3)"
             style="fill:none;stroke:#0000ff;stroke-width:0.5"
             id="path113" /><path
             d="m 220.63568,283.97063 v -0.34687"
             clip-path="url(#pe6545898b3)"
             style="fill:none;stroke:#0000ff;stroke-width:0.5"
             id="path114" /><path
             d="m 236.51254,281.49188 v -1.04582"
             clip-path="url(#pe6545898b3)"
             style="fill:none;stroke:#0000ff;stroke-width:0.5"
             id="path115" /><path
             d="M 109.49771,352.67079 V 332.49511"
             clip-path="url(#pe6545898b3)"
             style="fill:none;stroke:#0000ff;stroke-width:0.5"
             id="path116" /><path
             d="m 315.8968,325.08218 v -0.59169"
             clip-path="url(#pe6545898b3)"
             style="fill:none;stroke:#0000ff;stroke-width:0.5"
             id="path117" /><path
             d="m 395.28107,272.92703 v -0.5614"
             clip-path="url(#pe6545898b3)"
             style="fill:none;stroke:#0000ff;stroke-width:0.5"
             id="path118" /><path
             d="m 474.66534,183.84755 v -1.41767"
             clip-path="url(#pe6545898b3)"
             style="fill:none;stroke:#0000ff;stroke-width:0.5"
             id="path119" /><path
             d="M 554.04961,24.820312 V 20.974259"
             clip-path="url(#pe6545898b3)"
             style="fill:none;stroke:#0000ff;stroke-width:0.5"
             id="path120" /></g><g
           id="line2d_15"><path
             d="m 109.49771,297.38318 31.7537,2.87876 63.50742,-11.92756 15.87685,-4.53719 15.87686,-2.82822 -127.01483,61.61398 206.39909,-17.79661 79.38427,-52.14001 79.38427,-89.50762 79.38427,-160.241424"
             clip-path="url(#pe6545898b3)"
             style="fill:none;stroke:#0000ff;stroke-width:0.5;stroke-dasharray:1.85, 0.8;stroke-dashoffset:0"
             id="path121" /><defs
             id="defs121"><path
               id="path48"
               d="M 0,10.606602 6.363961,0 0,-10.606602 -6.363961,0 Z"
               style="stroke:#0000ff;stroke-linejoin:miter" /></defs><g
             clip-path="url(#pe6545898b3)"
             id="g130"><use
               xlink:href="#m0fe6998615"
               x="109.4977"
               y="297.38318"
               style="fill:#0000ff;stroke:#0000ff;stroke-linejoin:miter"
               id="use121" /><use
               xlink:href="#m0fe6998615"
               x="141.25142"
               y="300.26193"
               style="fill:#0000ff;stroke:#0000ff;stroke-linejoin:miter"
               id="use122" /><use
               xlink:href="#m0fe6998615"
               x="204.75883"
               y="288.33438"
               style="fill:#0000ff;stroke:#0000ff;stroke-linejoin:miter"
               id="use123" /><use
               xlink:href="#m0fe6998615"
               x="220.63568"
               y="283.79718"
               style="fill:#0000ff;stroke:#0000ff;stroke-linejoin:miter"
               id="use124" /><use
               xlink:href="#m0fe6998615"
               x="236.51253"
               y="280.96896"
               style="fill:#0000ff;stroke:#0000ff;stroke-linejoin:miter"
               id="use125" /><use
               xlink:href="#m0fe6998615"
               x="109.4977"
               y="342.58295"
               style="fill:#0000ff;stroke:#0000ff;stroke-linejoin:miter"
               id="use126" /><use
               xlink:href="#m0fe6998615"
               x="315.89679"
               y="324.78635"
               style="fill:#0000ff;stroke:#0000ff;stroke-linejoin:miter"
               id="use127" /><use
               xlink:href="#m0fe6998615"
               x="395.28107"
               y="272.64633"
               style="fill:#0000ff;stroke:#0000ff;stroke-linejoin:miter"
               id="use128" /><use
               xlink:href="#m0fe6998615"
               x="474.66534"
               y="183.13872"
               style="fill:#0000ff;stroke:#0000ff;stroke-linejoin:miter"
               id="use129" /><use
               xlink:href="#m0fe6998615"
               x="554.04962"
               y="22.897285"
               style="fill:#0000ff;stroke:#0000ff;stroke-linejoin:miter"
               id="use130" /></g></g><g
           id="patch_3"><path
             d="M 77.744,516.1525 V 10.8"
             style="fill:none;stroke:#000000;stroke-width:0.8;stroke-linecap:square;stroke-linejoin:miter"
             id="path130" /></g><g
           id="patch_4"><path
             d="M 77.744,516.1525 H 561.98803"
             style="fill:none;stroke:#000000;stroke-width:0.8;stroke-linecap:square;stroke-linejoin:miter"
             id="path131" /></g><g
           id="legend_1"
           transform="translate(-88.134558,12.905032)"><text
             xml:space="preserve"
             style="font-size:21.3617px;line-height:0;font-family:'CMU Serif';-inkscape-font-specification:'CMU Serif, Normal';word-spacing:0px;opacity:1;fill:#808080;fill-opacity:0;stroke:#000000;stroke-width:2.67021;stroke-linecap:butt;stroke-linejoin:round;stroke-dasharray:none;stroke-dashoffset:0;stroke-opacity:1;paint-order:markers stroke fill"
             x="242.5535"
             y="421.89062"
             id="text70"><tspan
               sodipodi:role="line"
               style="font-style:normal;font-variant:normal;font-weight:normal;font-stretch:normal;font-size:21.3617px;line-height:0.8;font-family:'CMU Serif';-inkscape-font-specification:'CMU Serif, Normal';font-variant-ligatures:normal;font-variant-caps:normal;font-variant-numeric:normal;font-variant-east-asian:normal;fill:#808080;fill-opacity:1;stroke:none;stroke-width:2.67021;stroke-dasharray:none"
               x="242.5535"
               y="421.89062"
               id="tspan71">Arrhenius fit:</tspan><tspan
               sodipodi:role="line"
               style="font-style:normal;font-variant:normal;font-weight:normal;font-stretch:normal;font-size:21.3617px;line-height:1.2;font-family:'CMU Serif';-inkscape-font-specification:'CMU Serif, Normal';font-variant-ligatures:normal;font-variant-caps:normal;font-variant-numeric:normal;font-variant-east-asian:normal;fill:#808080;fill-opacity:1;stroke:none;stroke-width:2.67021;stroke-dasharray:none"
               x="242.5535"
               y="443.25232"
               id="tspan78">I<tspan
   style="font-size:65%;line-height:1.2;baseline-shift:sub"
   id="tspan77">c</tspan> = 127.90 exp(0.08/k<tspan
   style="font-size:65%;line-height:1.2;baseline-shift:sub"
   id="tspan76">b</tspan>T) + 2.95</tspan></text></g></g></g><path
       style="opacity:1;fill:#999999;stroke:#000000;stroke-width:4;stroke-dasharray:none;marker-end:url(#marker3)"
       d="M 832.09227,519.29446 V 87.24202"
       id="path2" /><path
       style="fill:#999999;stroke:#000000;stroke-width:4.51762;stroke-dasharray:none;marker-end:url(#marker3-4)"
       d="M 130.95891,336.35231 V 515.40192"
       id="path2-3" /><text
       xml:space="preserve"
       style="font-size:21.3333px;font-family:Sans;-inkscape-font-specification:'Sans, Normal';opacity:1;fill:#999999;stroke:none;stroke-width:4;stroke-dasharray:none"
       x="643.27771"
       y="584.48352"
       id="text3"><tspan
         sodipodi:role="line"
         id="tspan3"
         x="643.27771"
         y="584.48352" /></text><text
       xml:space="preserve"
       style="font-size:21.3333px;font-family:Sans;-inkscape-font-specification:'Sans, Normal';text-align:end;text-anchor:end;opacity:1;fill:#000000;stroke:none;stroke-width:4;stroke-dasharray:none"
       id="text4"
       x="821.27252"
       y="489.04922"><tspan
         sodipodi:role="line"
         id="tspan67"
         x="821.27252"
         y="489.04922">Thermal</tspan><tspan
         sodipodi:role="line"
         id="tspan68"
         x="821.27252"
         y="515.71582"><tspan
           id="tspan69">Anneal</tspan></tspan></text><text
       xml:space="preserve"
       style="font-size:21.3333px;font-family:Sans;-inkscape-font-specification:'Sans, Normal';text-align:end;text-anchor:end;fill:#000000;stroke:none;stroke-width:4;stroke-dasharray:none"
       x="140.80194"
       y="353.95901"
       id="text4-5"><tspan
         sodipodi:role="line"
         x="140.80194"
         y="353.95901"
         id="tspan5-9"
         style="text-align:start;text-anchor:start">Proton</tspan><tspan
         sodipodi:role="line"
         x="140.80194"
         y="380.62564"
         id="tspan6"
         style="text-align:start;text-anchor:start">Irradiation</tspan></text><path
       style="opacity:0.5;fill:none;fill-opacity:0;stroke:none;stroke-width:4;stroke-dasharray:8, 16;paint-order:markers stroke fill"
       d="M 504.52546,511.7477 C 676.70168,393.68402 679.29991,389.7602 849.12976,58.809716"
       id="path67"
       sodipodi:nodetypes="cc" /></g></svg>
